<svg xmlns="http://www.w3.org/2000/svg" width="34" height="23" viewBox="0 0 34 23"><g><g><path fill="#f0c104" d="M10.045 19.208a1.632 1.632 0 1 1-3.263-.002 1.632 1.632 0 0 1 3.263.002zm-1.088 0a.544.544 0 1 0-1.087 0 .544.544 0 0 0 1.087 0zm18.504 0a1.632 1.632 0 1 1-3.264-.002 1.632 1.632 0 0 1 3.264.002zm-1.089 0a.544.544 0 1 0-1.087 0 .544.544 0 0 0 1.087 0zm7.075-8.285v7.198c0 .9-.731 1.63-1.632 1.63h-2.22a3.803 3.803 0 0 1-3.767 3.262 3.803 3.803 0 0 1-3.766-3.261h-9.883a3.803 3.803 0 0 1-3.766 3.261 3.803 3.803 0 0 1-3.766-3.261H3.515a1.634 1.634 0 0 1-1.633-1.631V16.49h-.544a.544.544 0 0 1-.545-.544V1.812c.001-.9.732-1.63 1.633-1.63h19.048c.901 0 1.632.73 1.633 1.63v3.262h4.952c.468-.001.914.198 1.224.547l3.75 4.218c.266.298.414.684.414 1.084zm-11.429 4.48V1.811c0-.3-.243-.544-.544-.544H2.426c-.3 0-.544.244-.544.544v13.59zM5.752 16.49H2.97v1.63c0 .3.244.544.545.545h1.132a3.794 3.794 0 0 1 1.105-2.175zm5.382 2.718a2.72 2.72 0 0 0-2.721-2.718 2.72 2.72 0 0 0-2.722 2.718 2.722 2.722 0 0 0 5.442 0zm2.72-2.718h-2.78a3.794 3.794 0 0 1 1.105 2.175h1.676zm4.9 0h-3.81v2.175h3.81zm4.413 0h-3.325v2.175h2.22a3.794 3.794 0 0 1 1.105-2.175zm5.382 2.718a2.72 2.72 0 0 0-2.72-2.718 2.72 2.72 0 0 0-2.722 2.718 2.722 2.722 0 0 0 5.442 0zm3.81-5.98h-5.442c-.902 0-1.632-.73-1.633-1.63V6.16h-2.177v9.241h2.721a3.812 3.812 0 0 1 3.766 3.263h2.22c.301 0 .545-.244.545-.544zm0-1.087v-1.218a.546.546 0 0 0-.14-.361l-3.75-4.22a.546.546 0 0 0-.41-.181h-1.687v5.436c0 .3.244.544.545.544z"/></g></g></svg>