<svg xmlns="http://www.w3.org/2000/svg" width="18" height="23" viewBox="0 0 18 23"><g><g><path fill="#cedded" d="M17.318 8.475c0 1.54-.69 3.194-.719 3.263a13.63 13.63 0 0 1-.98 1.832l-5.814 8.806c-.238.36-.59.567-.966.567-.377 0-.729-.207-.967-.568L2.06 13.57a13.681 13.681 0 0 1-.98-1.832c-.03-.07-.72-1.724-.72-3.263C.36 3.8 4.163-.001 8.84-.001c4.675 0 8.479 3.802 8.479 8.476zm-.998 0C16.32 4.35 12.964.997 8.84.997c-4.126 0-7.482 3.354-7.482 7.478 0 1.332.633 2.855.641 2.875.2.475.609 1.24.894 1.671l5.814 8.806c.115.174.15.174.266 0l5.814-8.806a12.54 12.54 0 0 0 .893-1.67c.007-.015.641-1.542.641-2.876zm-2.993 0a4.493 4.493 0 0 1-4.488 4.487 4.493 4.493 0 0 1-4.49-4.487A4.493 4.493 0 0 1 8.84 3.99a4.493 4.493 0 0 1 4.488 4.486zm-.997 0a3.495 3.495 0 0 0-3.491-3.49 3.495 3.495 0 0 0-3.492 3.49 3.495 3.495 0 0 0 3.492 3.49 3.495 3.495 0 0 0 3.491-3.49z"/></g></g></svg>