<svg xmlns="http://www.w3.org/2000/svg" width="26" height="31" viewBox="0 0 26 31"><g><g><path d="M15.934 1.706v4.906c0 .271-.22.492-.49.492h-1.472a.49.49 0 0 1-.347-.145l-.837-.837h-.287v.982c0 .27-.22.49-.491.49h-.49v6.87h.49c.27 0 .49.22.49.49v12.759a2.456 2.456 0 0 1-2.452 2.453h-.981a2.456 2.456 0 0 1-2.453-2.453V14.955c0-.272.22-.492.49-.492h.491v-6.87h-.49a.49.49 0 0 1-.49-.49V4.666a5.422 5.422 0 0 0-2.005.557L.947 7.054a.49.49 0 0 1-.62-.725l2.037-2.896A6.384 6.384 0 0 1 7.58.724h4.43c.27 0 .49.22.49.49v.982h.288l.837-.838a.49.49 0 0 1 .347-.144h1.472c.27 0 .49.22.49.492zM11.52 15.445H7.595v12.268c0 .813.66 1.472 1.472 1.472h.98c.814 0 1.473-.66 1.473-1.472zm-.982-.982v-6.87H8.576v6.87zm4.415-12.267h-.778l-.837.838a.492.492 0 0 1-.347.144h-.981a.49.49 0 0 1-.49-.491v-.981H7.58a5.4 5.4 0 0 0-4.415 2.292L2.25 5.303l1.922-.962a6.414 6.414 0 0 1 2.852-.673h.082c.27 0 .49.22.49.49v2.454h3.925v-.98a.49.49 0 0 1 .49-.492h.981a.49.49 0 0 1 .347.144l.837.838h.778zM25.254 14v.956a.49.49 0 0 1-.49.49H22.8V25.67l.507 1.52-.595 2.975h-2.766l-.595-2.975.506-1.52V15.445h-1.962a.49.49 0 0 1-.49-.49v-.917c0-.124.047-.244.133-.335l.739-.79-.323-.6a.481.481 0 0 1-.059-.231V4.27a3.434 3.434 0 1 1 6.868 0v7.85a.494.494 0 0 1-.064.242l-.31.55.725.744c.09.092.14.215.139.343zm-2.959 13.254l-.338-1.013h-1.255l-.337 1.013.386 1.932h1.158zm-.475-1.994v-9.814h-.98v9.814zm2.453-11.06l-.842-.865a.49.49 0 0 1-.076-.584l.427-.758V4.268a2.453 2.453 0 1 0-4.905 0v7.69l.432.8a.49.49 0 0 1-.074.57l-.848.905v.23h5.886zm-3.434-10.53v7.85a.49.49 0 1 1-.98 0V3.67a.49.49 0 1 1 .98 0zm1.962 0v7.85a.49.49 0 1 1-.98 0V3.67a.49.49 0 1 1 .98 0z"/><path fill="#f0c104" d="M15.934 1.706v4.906c0 .271-.22.492-.49.492h-1.472a.49.49 0 0 1-.347-.145l-.837-.837h-.287v.982c0 .27-.22.49-.491.49h-.49v6.87h.49c.27 0 .49.22.49.49v12.759a2.456 2.456 0 0 1-2.452 2.453h-.981a2.456 2.456 0 0 1-2.453-2.453V14.955c0-.272.22-.492.49-.492h.491v-6.87h-.49a.49.49 0 0 1-.49-.49V4.666a5.422 5.422 0 0 0-2.005.557L.947 7.054a.49.49 0 0 1-.62-.725l2.037-2.896A6.384 6.384 0 0 1 7.58.724h4.43c.27 0 .49.22.49.49v.982h.288l.837-.838a.49.49 0 0 1 .347-.144h1.472c.27 0 .49.22.49.492zM11.52 15.445H7.595v12.268c0 .813.66 1.472 1.472 1.472h.98c.814 0 1.473-.66 1.473-1.472zm-.982-.982v-6.87H8.576v6.87zm4.415-12.267h-.778l-.837.838a.492.492 0 0 1-.347.144h-.981a.49.49 0 0 1-.49-.491v-.981H7.58a5.4 5.4 0 0 0-4.415 2.292L2.25 5.303l1.922-.962a6.414 6.414 0 0 1 2.852-.673h.082c.27 0 .49.22.49.49v2.454h3.925v-.98a.49.49 0 0 1 .49-.492h.981a.49.49 0 0 1 .347.144l.837.838h.778zM25.254 14v.956a.49.49 0 0 1-.49.49H22.8V25.67l.507 1.52-.595 2.975h-2.766l-.595-2.975.506-1.52V15.445h-1.962a.49.49 0 0 1-.49-.49v-.917c0-.124.047-.244.133-.335l.739-.79-.323-.6a.481.481 0 0 1-.059-.231V4.27a3.434 3.434 0 1 1 6.868 0v7.85a.494.494 0 0 1-.064.242l-.31.55.725.744c.09.092.14.215.139.343zm-2.959 13.254l-.338-1.013h-1.255l-.337 1.013.386 1.932h1.158zm-.475-1.994v-9.814h-.98v9.814zm2.453-11.06l-.842-.865a.49.49 0 0 1-.076-.584l.427-.758V4.268a2.453 2.453 0 1 0-4.905 0v7.69l.432.8a.49.49 0 0 1-.074.57l-.848.905v.23h5.886zm-3.434-10.53v7.85a.49.49 0 1 1-.98 0V3.67a.49.49 0 1 1 .98 0zm1.962 0v7.85a.49.49 0 1 1-.98 0V3.67a.49.49 0 1 1 .98 0z"/></g></g></svg>