<?xml version="1.0" encoding="utf-8"?><svg xmlns="http://www.w3.org/2000/svg" xmlns:xlink="http://www.w3.org/1999/xlink"><symbol viewBox="0 0 512 512" class="asvg-inline--fa afa-arrow-circle-left afa-w-16" id="arrow-circle-l" xmlns="http://www.w3.org/2000/svg"><path d="M504 256C504 119 393 8 256 8S8 119 8 256s111 248 248 248 248-111 248-248zM256 472c-118.7 0-216-96.1-216-216 0-118.7 96.1-216 216-216 118.7 0 216 96.1 216 216 0 118.7-96.1 216-216 216zm-12.5-92.5l-115.1-115c-4.7-4.7-4.7-12.3 0-17l115.1-115c4.7-4.7 12.3-4.7 17 0l6.9 6.9c4.7 4.7 4.7 12.5-.2 17.1L181.7 239H372c6.6 0 12 5.4 12 12v10c0 6.6-5.4 12-12 12H181.7l85.6 82.5c4.8 4.7 4.9 12.4.2 17.1l-6.9 6.9c-4.8 4.7-12.4 4.7-17.1 0z"/></symbol><symbol viewBox="0 0 512 512" class="bsvg-inline--fa bfa-arrow-circle-right bfa-w-16" id="arrow-circle-r" xmlns="http://www.w3.org/2000/svg"><path d="M8 256c0 137 111 248 248 248s248-111 248-248S393 8 256 8 8 119 8 256zM256 40c118.7 0 216 96.1 216 216 0 118.7-96.1 216-216 216-118.7 0-216-96.1-216-216 0-118.7 96.1-216 216-216zm12.5 92.5l115.1 115c4.7 4.7 4.7 12.3 0 17l-115.1 115c-4.7 4.7-12.3 4.7-17 0l-6.9-6.9c-4.7-4.7-4.7-12.5.2-17.1l85.6-82.5H140c-6.6 0-12-5.4-12-12v-10c0-6.6 5.4-12 12-12h190.3l-85.6-82.5c-4.8-4.7-4.9-12.4-.2-17.1l6.9-6.9c4.8-4.7 12.4-4.7 17.1 0z"/></symbol><symbol viewBox="0 0 18 23" id="location" xmlns="http://www.w3.org/2000/svg"><path d="M17.318 8.475c0 1.54-.69 3.194-.719 3.263a13.63 13.63 0 01-.98 1.832l-5.814 8.806c-.238.36-.59.567-.966.567-.377 0-.729-.207-.967-.568L2.06 13.57a13.681 13.681 0 01-.98-1.832c-.03-.07-.72-1.724-.72-3.263C.36 3.8 4.163-.001 8.84-.001c4.675 0 8.479 3.802 8.479 8.476zm-.998 0c0-4.125-3.356-7.478-7.48-7.478-4.126 0-7.482 3.354-7.482 7.478 0 1.332.633 2.855.641 2.875.2.475.609 1.24.894 1.671l5.814 8.806c.115.174.15.174.266 0l5.814-8.806a12.54 12.54 0 00.893-1.67c.007-.015.641-1.542.641-2.876zm-2.993 0a4.493 4.493 0 01-4.488 4.487 4.493 4.493 0 01-4.49-4.487A4.493 4.493 0 018.84 3.99a4.493 4.493 0 014.488 4.486zm-.997 0a3.495 3.495 0 00-3.491-3.49 3.495 3.495 0 00-3.492 3.49 3.495 3.495 0 003.492 3.49 3.495 3.495 0 003.491-3.49z"/></symbol></svg>