<svg width="27" height="28" viewBox="0 0 27 28" fill="none" xmlns="http://www.w3.org/2000/svg">
<g clip-path="url(#clip0)">
<path d="M24.6522 22.9835C26.1708 21.3542 26.9987 19.34 26.9987 17.2414C26.9987 14.6155 25.7015 12.2374 23.624 10.55C23.5766 16.5664 17.9187 21.4597 10.9691 21.4597H6.26562C8.08478 24.46 11.7811 26.5217 16.031 26.5217H26.155C26.4977 26.5217 26.8036 26.316 26.9354 25.9996C27.0672 25.6833 26.9934 25.3194 26.7508 25.0822L24.6522 22.9835Z" fill="#5F97CA"/>
<path d="M10.969 1.21167C4.92099 1.21167 0.00137238 5.37199 0.00137238 10.492C0.00137238 12.5906 0.829218 14.5996 2.34781 16.2342L0.249199 18.3328C0.00664529 18.5753 -0.0671754 18.9392 0.0646472 19.2503C0.19647 19.5666 0.502298 19.7723 0.845037 19.7723H10.969C17.017 19.7723 21.9366 15.612 21.9366 10.492C21.9366 5.37199 17.017 1.21167 10.969 1.21167Z" fill="#5F97CA"/>
<path d="M16.0306 7.96118H5.90665C5.44264 7.96118 5.06299 8.34083 5.06299 8.80485C5.06299 9.26886 5.44264 9.64851 5.90665 9.64851H16.0306C16.4946 9.64851 16.8743 9.26886 16.8743 8.80485C16.8743 8.34083 16.4946 7.96118 16.0306 7.96118Z" fill="#FAFAFA"/>
<path d="M12.656 11.3359H5.90665C5.44264 11.3359 5.06299 11.7156 5.06299 12.1796C5.06299 12.6436 5.44264 13.0233 5.90665 13.0233H12.656C13.12 13.0233 13.4996 12.6436 13.4996 12.1796C13.4996 11.7156 13.12 11.3359 12.656 11.3359Z" fill="#FAFAFA"/>
</g>
<defs>
<clipPath id="clip0">
<rect width="27" height="27" fill="white" transform="translate(0 0.366699)"/>
</clipPath>
</defs>
</svg>
