<svg width="274" height="224" viewBox="0 0 274 224" fill="none" xmlns="http://www.w3.org/2000/svg">
<g clip-path="url(#clip0)">
<path d="M184.603 205.525C171.85 205.559 159.109 204.722 146.47 203.018C146.057 202.965 145.639 202.906 145.223 202.844C142.121 202.401 139.016 201.895 135.999 201.34C122.419 198.848 109.612 195.208 97.9359 190.522C59.0793 174.926 34.6484 178.245 20.996 183.776C6.22117 189.761 0.541652 199.554 0.485984 199.652L0 199.375C0.0563465 199.275 5.80914 189.337 20.7454 183.273C29.5028 179.717 39.6621 178.163 50.9436 178.652C65.0256 179.264 80.906 183.083 98.1436 190.001C109.785 194.673 122.556 198.303 136.099 200.788C139.11 201.342 142.207 201.847 145.304 202.289C145.717 202.351 146.132 202.409 146.543 202.462C180.806 207.191 213.859 204.339 235.554 201.115C253.437 198.457 264.945 195.349 265.059 195.318L265.206 195.859C265.091 195.89 253.554 199.006 235.636 201.669C218.741 204.194 201.685 205.483 184.603 205.525Z" fill="#3F3D56"/>
<path d="M184.641 44.6021C174.791 44.6022 165.201 44.1396 155.948 43.215C134.687 41.0903 115.169 36.5061 97.9359 29.5897C59.0793 13.9939 34.6484 17.3129 20.996 22.8438C6.22117 28.829 0.541652 38.6218 0.485984 38.7199L0 38.4431C0.0563465 38.3435 5.80914 28.4051 20.7454 22.3407C29.5029 18.7848 39.6621 17.2302 50.9436 17.7206C65.0256 18.3324 80.906 22.1505 98.1436 29.069C137.061 44.6891 180.368 45.303 209.844 43.0692C241.793 40.6469 264.83 34.4481 265.059 34.3858L265.206 34.9269C264.976 34.9894 241.898 41.2003 209.898 43.6273C201.33 44.2772 192.894 44.6021 184.641 44.6021Z" fill="#3F3D56"/>
<path d="M183.194 3.44297C183.194 3.44297 172.208 -0.493847 165.146 15.2534C158.084 31.0007 147.098 48.3227 147.098 48.3227L153.376 49.8975C153.376 49.8975 154.945 38.8744 158.869 37.2996L157.299 51.4722C157.299 51.4722 204.381 68.0069 225.568 49.8975L224.783 44.3859C224.783 44.3859 227.922 45.1733 227.922 49.8975L230.276 47.5354C230.276 47.5354 227.922 42.8112 220.86 36.5123C216.224 32.3779 214.631 24.5124 214.084 19.5948C213.674 15.4885 212.037 11.6024 209.387 8.44622C204.693 2.98854 196.142 -2.8122 183.194 3.44297Z" fill="#2F2E41"/>
<path d="M249.871 92.5508C249.871 92.5508 270.543 110.243 273.584 120.615C276.624 130.987 262.031 132.207 262.031 132.207L230.414 135.257C230.414 135.257 229.806 149.899 224.333 151.73C218.861 153.56 223.222 127.517 223.222 127.517L254.127 118.785L240.142 104.143L249.871 92.5508Z" fill="#FBBEBE"/>
<path d="M153.194 110.854L150.762 143.188L137.386 198.097C137.386 198.097 125.225 223.11 135.561 223.721C145.898 224.331 145.29 199.927 145.29 199.927L164.747 148.069L166.571 112.684L153.194 110.854Z" fill="#FBBEBE"/>
<path d="M187.244 54.1152C198.325 54.1152 207.308 45.1013 207.308 33.9822C207.308 22.863 198.325 13.8491 187.244 13.8491C176.162 13.8491 167.179 22.863 167.179 33.9822C167.179 45.1013 176.162 54.1152 187.244 54.1152Z" fill="#FBBEBE"/>
<path d="M178.123 43.7432C178.123 43.7432 185.42 69.9771 173.867 76.6881C162.315 83.3992 203.052 88.2799 213.997 68.1469C213.997 68.1469 194.54 61.4358 200.012 43.7432H178.123Z" fill="#FBBEBE"/>
<path d="M164.139 79.7387L160.491 78.5186C160.491 78.5186 153.194 81.569 153.194 87.0599C153.194 92.5507 151.978 114.514 151.978 114.514L168.395 116.344L164.139 79.7387Z" fill="#5F97CA"/>
<path d="M235.595 201.392C213.149 204.728 180.435 207.423 146.508 202.741C146.505 202.404 146.505 202.076 146.505 201.756C146.505 199.853 146.578 197.97 146.723 196.11C148.461 173.198 160.225 154.097 164.776 147.477C165.005 147.141 165.218 146.838 165.408 146.569C166.143 145.534 166.57 144.987 166.57 144.987C166.57 144.987 201.836 144.41 220.076 151.73C220.956 152.101 221.761 152.629 222.451 153.289C229.252 159.586 233.248 180.031 235.595 201.392Z" fill="#2F2E41"/>
<path d="M222.509 71.1974C222.509 71.1974 230.414 66.9268 238.318 76.0782L254.127 94.3809L241.966 107.803L218.861 93.7709L222.509 71.1974Z" fill="#5F97CA"/>
<path d="M165.562 34.1095C172.665 28.9514 178.415 23.0103 182.218 15.9431C182.218 15.9431 195.254 30.4762 203.22 31.2029C211.186 31.9295 203.944 13.7632 203.944 13.7632L189.46 10.1299L175.701 11.5832L164.838 18.8497L165.562 34.1095Z" fill="#2F2E41"/>
<path d="M210.957 66.9268C210.957 66.9268 202.448 80.426 176.909 73.9814L162.417 77.9862L160.49 78.5185C160.49 78.5185 162.315 115.124 167.179 121.835C172.043 128.546 170.827 132.207 169.611 132.817C168.395 133.427 165.355 132.207 167.179 135.257C169.003 138.308 171.435 136.477 169.003 138.308C166.571 140.138 165.355 146.849 165.355 146.849L222.509 154.17C222.509 154.17 220.685 130.376 225.549 118.175C230.413 105.973 231.63 101.092 231.63 101.092L227.981 70.5873L210.957 66.9268Z" fill="#5F97CA"/>
<path d="M92.172 54.9834H13.9346V153.113H92.172V54.9834Z" fill="#E6E6E6"/>
<path d="M36.1485 63.2544H19.3833V74.4691H36.1485V63.2544Z" fill="white"/>
<path d="M84.3482 85.123H19.5229V89.0482H84.3482V85.123Z" fill="white"/>
<path d="M84.3482 95.4966H19.5229V99.4217H84.3482V95.4966Z" fill="white"/>
<path d="M84.3482 105.87H19.5229V109.795H84.3482V105.87Z" fill="white"/>
<path d="M84.3482 116.244H19.5229V120.169H84.3482V116.244Z" fill="white"/>
<path d="M84.3482 126.618H19.5229V130.543H84.3482V126.618Z" fill="white"/>
<path d="M107.54 152.972C107.536 156.675 106.201 160.253 103.78 163.047C101.358 165.842 98.0129 167.665 94.3587 168.183C90.7044 168.701 86.9866 167.879 83.8883 165.867C80.7901 163.855 78.5195 160.788 77.4939 157.231C76.4682 153.674 76.7563 149.865 78.3053 146.504C79.8543 143.142 82.5601 140.455 85.9255 138.935C89.2909 137.416 93.0898 137.165 96.6243 138.231C100.159 139.296 103.191 141.606 105.165 144.735C106.717 147.2 107.54 150.056 107.54 152.972Z" fill="#5F97CA"/>
<path d="M105.165 144.735L90.0374 159.912C89.0866 158.435 83.7896 151.571 83.7896 151.571C84.4684 150.882 85.1928 150.241 85.9578 149.65L90.3503 155.527L103.394 142.439C104.055 143.147 104.648 143.915 105.165 144.735Z" fill="white"/>
</g>
<defs>
<clipPath id="clip0">
<rect width="274" height="223" fill="white" transform="translate(0 0.731934)"/>
</clipPath>
</defs>
</svg>
