<svg width="166" height="114" viewBox="0 0 166 114" fill="none" xmlns="http://www.w3.org/2000/svg">
<path d="M0.762865 1.08518L0.750371 7.95788L0.556902 114.189L165.031 113.615L165.224 7.38373L165.237 0.511096L0.762865 1.08518Z" fill="url(#paint0_linear)"/>
<path d="M162.642 2.3805L3.52832 2.93555L3.52255 9.44643L162.636 8.89139L162.642 2.3805Z" fill="#F5F5F5"/>
<path d="M162.634 8.96649L3.52002 9.37109L3.33674 110.011L162.451 109.607L162.634 8.96649Z" fill="white"/>
<path d="M8.84226 6.97077C9.3328 6.06721 9.00491 4.93831 8.10989 4.4493C7.21487 3.96028 6.09164 4.29634 5.6011 5.1999C5.11055 6.10346 5.43845 7.23236 6.33347 7.72138C7.22849 8.21039 8.35171 7.87434 8.84226 6.97077Z" fill="#FF5252"/>
<path d="M14.0171 6.95271C14.5076 6.04916 14.1797 4.92025 13.2847 4.43123C12.3897 3.94222 11.2664 4.27828 10.7759 5.18184C10.2854 6.0854 10.6133 7.2143 11.5083 7.70331C12.4033 8.19232 13.5265 7.85627 14.0171 6.95271Z" fill="#FFFF00"/>
<path d="M19.1914 6.93464C19.6819 6.03108 19.354 4.90217 18.459 4.41316C17.564 3.92414 16.4408 4.2602 15.9502 5.16376C15.4597 6.06732 15.7876 7.19623 16.6826 7.68524C17.5776 8.17425 18.7008 7.8382 19.1914 6.93464Z" fill="#69F0AE"/>
<path d="M58.017 18.7438L7.01172 18.9219L7.00777 23.3865L58.0131 23.2084L58.017 18.7438Z" fill="url(#paint1_linear)"/>
<path d="M57.832 18.9306L7.19629 19.1074L7.193 22.8279L57.8287 22.6512L57.832 18.9306Z" fill="#5F97CA"/>
<path d="M158.734 18.5781L108.098 18.7549L108.095 22.4754L158.731 22.2986L158.734 18.5781Z" fill="#5F97CA"/>
<path opacity="0.2" d="M158.734 18.5781L108.098 18.7549L108.095 22.4754L158.731 22.2986L158.734 18.5781Z" fill="black"/>
<path opacity="0.2" d="M9.36948 44.0269L7.15186 44.0347L7.14988 46.267L9.3675 46.2592L9.36948 44.0269Z" fill="#5F97CA"/>
<path opacity="0.5" d="M159.798 43.5015L157.581 43.5093L157.579 45.7416L159.796 45.7338L159.798 43.5015Z" fill="#5F97CA"/>
<path opacity="0.2" d="M21.0651 47.0627C22.1443 45.0749 21.4229 42.5913 19.4539 41.5155C17.4848 40.4397 15.0137 41.179 13.9345 43.1668C12.8553 45.1547 13.5767 47.6382 15.5457 48.7141C17.5148 49.7899 19.9859 49.0506 21.0651 47.0627Z" fill="#5F97CA"/>
<path opacity="0.5" d="M153.383 46.6003C154.462 44.6125 153.741 42.1289 151.772 41.0531C149.803 39.9773 147.332 40.7166 146.252 42.7044C145.173 44.6922 145.895 47.1758 147.864 48.2517C149.833 49.3275 152.304 48.5882 153.383 46.6003Z" fill="#5F97CA"/>
<path opacity="0.5" d="M47.808 43.8927L24.8926 43.9727L24.8906 46.205L47.806 46.125L47.808 43.8927Z" fill="#5F97CA"/>
<path opacity="0.8" d="M47.7709 64.3555L24.8555 64.4355L24.8535 66.6679L47.7689 66.5879L47.7709 64.3555Z" fill="#5F97CA"/>
<path opacity="0.2" d="M142.02 64.0269L119.104 64.1069L119.103 66.3393L142.018 66.2593L142.02 64.0269Z" fill="#5F97CA"/>
<path opacity="0.7" d="M79.1498 84.7091L56.2344 84.7891L56.2324 87.0214L79.1478 86.9414L79.1498 84.7091Z" fill="#5F97CA"/>
<path opacity="0.5" d="M110.566 84.5992L87.6509 84.6792L87.6489 86.9115L110.564 86.8315L110.566 84.5992Z" fill="#5F97CA"/>
<path opacity="0.2" d="M79.2245 43.7833L56.3091 43.8633L56.3071 46.0956L79.2225 46.0156L79.2245 43.7833Z" fill="#5F97CA"/>
<path d="M110.641 43.6734L87.7251 43.7534L87.7231 45.9857L110.639 45.9057L110.641 43.6734Z" fill="#3D8060"/>
<path opacity="0.2" d="M142.057 43.5641L119.142 43.644L119.14 45.8764L142.055 45.7964L142.057 43.5641Z" fill="#5F97CA"/>
<path d="M18.0217 59.8091L6.56396 59.8491L6.55376 71.3827L18.0115 71.3427L18.0217 59.8091Z" fill="url(#paint2_linear)"/>
<path d="M17.9846 80.2718L6.52686 80.3118L6.51665 91.8454L17.9744 91.8054L17.9846 80.2718Z" fill="url(#paint3_linear)"/>
<path d="M17.4671 60.3692L7.11816 60.4053L7.10896 70.8227L17.4579 70.7866L17.4671 60.3692Z" fill="#5F97CA"/>
<path d="M17.4295 80.8318L7.08057 80.8679L7.07136 91.2854L17.4203 91.2493L17.4295 80.8318Z" fill="#5F97CA"/>
<path opacity="0.1" d="M68.0079 13.1278L5.17529 13.3472L5.17398 14.8354L68.0066 14.616L68.0079 13.1278Z" fill="#5F97CA"/>
<path opacity="0.1" d="M156.618 55.2323L154.77 55.2388L154.736 93.9322L156.584 93.9257L156.618 55.2323Z" fill="#5F97CA"/>
<defs>
<linearGradient id="paint0_linear" x1="82.821" y1="113.941" x2="82.4791" y2="0.760287" gradientUnits="userSpaceOnUse">
<stop stop-color="#808080" stop-opacity="0.25"/>
<stop offset="0.53514" stop-color="#808080" stop-opacity="0.12"/>
<stop offset="1" stop-color="#808080" stop-opacity="0.1"/>
</linearGradient>
<linearGradient id="paint1_linear" x1="18443.9" y1="1336.06" x2="18443.6" y2="1253.89" gradientUnits="userSpaceOnUse">
<stop stop-color="#808080" stop-opacity="0.25"/>
<stop offset="0.53514" stop-color="#808080" stop-opacity="0.12"/>
<stop offset="1" stop-color="#808080" stop-opacity="0.1"/>
</linearGradient>
<linearGradient id="paint2_linear" x1="3201.49" y1="5839.83" x2="3199.84" y2="5294.2" gradientUnits="userSpaceOnUse">
<stop stop-color="#808080" stop-opacity="0.25"/>
<stop offset="0.53514" stop-color="#808080" stop-opacity="0.12"/>
<stop offset="1" stop-color="#808080" stop-opacity="0.1"/>
</linearGradient>
<linearGradient id="paint3_linear" x1="3206" y1="6826.89" x2="3204.35" y2="6281.26" gradientUnits="userSpaceOnUse">
<stop stop-color="#808080" stop-opacity="0.25"/>
<stop offset="0.53514" stop-color="#808080" stop-opacity="0.12"/>
<stop offset="1" stop-color="#808080" stop-opacity="0.1"/>
</linearGradient>
</defs>
</svg>
