<svg width="173" height="141" viewBox="0 0 173 141" fill="none" xmlns="http://www.w3.org/2000/svg">
<path d="M53.326 109.061H54.51V120.261H53.326V109.061ZM62.2021 111.781C63.2581 111.781 64.0954 112.09 64.7141 112.709C65.3434 113.317 65.6581 114.208 65.6581 115.381V120.261H64.5221V115.493C64.5221 114.618 64.3034 113.952 63.8661 113.493C63.4287 113.034 62.8047 112.805 61.9941 112.805C61.0874 112.805 60.3674 113.077 59.8341 113.621C59.3114 114.154 59.0501 114.896 59.0501 115.845V120.261H57.9141V111.845H59.0021V113.397C59.3114 112.885 59.7381 112.49 60.2821 112.213C60.8367 111.925 61.4767 111.781 62.2021 111.781ZM73.1742 119.749C72.9609 119.941 72.6942 120.09 72.3742 120.197C72.0649 120.293 71.7395 120.341 71.3982 120.341C70.6089 120.341 70.0009 120.128 69.5742 119.701C69.1475 119.274 68.9342 118.672 68.9342 117.893V112.805H67.4302V111.845H68.9342V110.005H70.0702V111.845H72.6302V112.805H70.0702V117.829C70.0702 118.33 70.1929 118.714 70.4382 118.981C70.6942 119.237 71.0569 119.365 71.5262 119.365C71.7609 119.365 71.9849 119.328 72.1982 119.253C72.4222 119.178 72.6142 119.072 72.7742 118.933L73.1742 119.749ZM82.2733 116.405H75.2333C75.2973 117.28 75.6333 117.989 76.2413 118.533C76.8493 119.066 77.6173 119.333 78.5453 119.333C79.068 119.333 79.548 119.242 79.9853 119.061C80.4227 118.869 80.8013 118.592 81.1213 118.229L81.7613 118.965C81.388 119.413 80.9187 119.754 80.3533 119.989C79.7987 120.224 79.1853 120.341 78.5133 120.341C77.6493 120.341 76.8813 120.16 76.2093 119.797C75.548 119.424 75.0307 118.912 74.6573 118.261C74.284 117.61 74.0973 116.874 74.0973 116.053C74.0973 115.232 74.2733 114.496 74.6253 113.845C74.988 113.194 75.4787 112.688 76.0973 112.325C76.7267 111.962 77.4307 111.781 78.2093 111.781C78.988 111.781 79.6867 111.962 80.3053 112.325C80.924 112.688 81.4093 113.194 81.7613 113.845C82.1133 114.485 82.2893 115.221 82.2893 116.053L82.2733 116.405ZM78.2093 112.757C77.3987 112.757 76.716 113.018 76.1613 113.541C75.6173 114.053 75.308 114.725 75.2333 115.557H81.2013C81.1267 114.725 80.812 114.053 80.2573 113.541C79.7133 113.018 79.0307 112.757 78.2093 112.757ZM85.6896 113.493C85.9562 112.928 86.3509 112.501 86.8736 112.213C87.4069 111.925 88.0629 111.781 88.8416 111.781V112.885L88.5696 112.869C87.6842 112.869 86.9909 113.141 86.4896 113.685C85.9882 114.229 85.7376 114.992 85.7376 115.973V120.261H84.6016V111.845H85.6896V113.493ZM95.1865 111.781C96.2425 111.781 97.0798 112.09 97.6985 112.709C98.3278 113.317 98.6425 114.208 98.6425 115.381V120.261H97.5065V115.493C97.5065 114.618 97.2878 113.952 96.8505 113.493C96.4131 113.034 95.7891 112.805 94.9785 112.805C94.0718 112.805 93.3518 113.077 92.8185 113.621C92.2958 114.154 92.0345 114.896 92.0345 115.845V120.261H90.8985V111.845H91.9865V113.397C92.2958 112.885 92.7225 112.49 93.2665 112.213C93.8211 111.925 94.4611 111.781 95.1865 111.781ZM109.086 116.405H102.046C102.11 117.28 102.446 117.989 103.054 118.533C103.662 119.066 104.43 119.333 105.358 119.333C105.88 119.333 106.36 119.242 106.798 119.061C107.235 118.869 107.614 118.592 107.934 118.229L108.574 118.965C108.2 119.413 107.731 119.754 107.166 119.989C106.611 120.224 105.998 120.341 105.326 120.341C104.462 120.341 103.694 120.16 103.022 119.797C102.36 119.424 101.843 118.912 101.47 118.261C101.096 117.61 100.91 116.874 100.91 116.053C100.91 115.232 101.086 114.496 101.438 113.845C101.8 113.194 102.291 112.688 102.91 112.325C103.539 111.962 104.243 111.781 105.022 111.781C105.8 111.781 106.499 111.962 107.118 112.325C107.736 112.688 108.222 113.194 108.574 113.845C108.926 114.485 109.102 115.221 109.102 116.053L109.086 116.405ZM105.022 112.757C104.211 112.757 103.528 113.018 102.974 113.541C102.43 114.053 102.12 114.725 102.046 115.557H108.014C107.939 114.725 107.624 114.053 107.07 113.541C106.526 113.018 105.843 112.757 105.022 112.757ZM115.846 119.749C115.633 119.941 115.366 120.09 115.046 120.197C114.737 120.293 114.411 120.341 114.07 120.341C113.281 120.341 112.673 120.128 112.246 119.701C111.819 119.274 111.606 118.672 111.606 117.893V112.805H110.102V111.845H111.606V110.005H112.742V111.845H115.302V112.805H112.742V117.829C112.742 118.33 112.865 118.714 113.11 118.981C113.366 119.237 113.729 119.365 114.198 119.365C114.433 119.365 114.657 119.328 114.87 119.253C115.094 119.178 115.286 119.072 115.446 118.933L115.846 119.749ZM119.889 111.285L121.873 112.405L121.505 113.077L119.505 111.909V114.181H118.769L118.785 111.909L116.785 113.077L116.401 112.405L118.401 111.285L116.401 110.165L116.785 109.477L118.785 110.661L118.769 108.389H119.505V110.661L121.505 109.477L121.873 110.165L119.889 111.285ZM126.373 111.285L128.357 112.405L127.989 113.077L125.989 111.909V114.181H125.253L125.269 111.909L123.269 113.077L122.885 112.405L124.885 111.285L122.885 110.165L123.269 109.477L125.269 110.661L125.253 108.389H125.989V110.661L127.989 109.477L128.357 110.165L126.373 111.285ZM132.858 111.285L134.842 112.405L134.474 113.077L132.474 111.909V114.181H131.738L131.754 111.909L129.754 113.077L129.37 112.405L131.37 111.285L129.37 110.165L129.754 109.477L131.754 110.661L131.738 108.389H132.474V110.661L134.474 109.477L134.842 110.165L132.858 111.285Z" fill="black"/>
<g clip-path="url(#clip0)">
<path d="M136.2 65.6166C125.727 57.0381 109.325 48.9252 91.1987 43.3583C74.6945 38.2895 58.5968 35.8423 45.8675 36.4672L45.8013 34.8452C58.6822 34.2131 74.9468 36.6809 91.5986 41.7949C109.894 47.4138 126.474 55.6225 137.087 64.3162L136.2 65.6166Z" fill="#CCCCCC"/>
<path d="M135.113 72.2239C135.122 79.8243 133.668 87.3413 130.845 94.2839C130.609 94.8652 130.364 95.441 130.109 96.0115C125.199 107.03 117.027 115.9 106.926 121.175C96.8251 126.451 85.3905 127.821 74.4877 125.061C63.5849 122.301 53.8571 115.575 46.8911 105.979C39.9251 96.3838 36.132 84.485 36.1304 72.2239C36.1304 70.9688 36.1694 69.7235 36.2474 68.4879C36.2845 67.8596 36.3324 67.2351 36.3912 66.6143C37.7036 52.7926 43.8083 40.0502 53.4455 31.0168C63.0826 21.9834 75.5168 17.3483 88.1822 18.068C100.847 18.7876 112.777 24.8072 121.51 34.8844C130.243 44.9616 135.112 58.3275 135.113 72.2239V72.2239Z" fill="#5F97CA"/>
<path opacity="0.1" d="M130.845 94.2839C130.61 94.8651 130.364 95.441 130.109 96.0114C128.663 96.1835 127.14 96.3085 125.542 96.3864C124.219 96.4514 122.857 96.4839 121.466 96.4839C109.312 96.4839 94.6855 94.0257 79.7434 89.4374C63.0913 84.323 48.0262 77.1694 37.3219 69.2932C36.9573 69.0253 36.5992 68.7569 36.2476 68.4879C36.2846 67.8595 36.3325 67.235 36.3913 66.6143C36.9588 67.0575 37.5441 67.5013 38.1472 67.9456C48.7256 75.7276 63.6396 82.8049 80.1435 87.8739C94.9552 92.4232 109.444 94.8603 121.458 94.8603C122.832 94.8603 124.171 94.8283 125.475 94.7645C127.375 94.6703 129.165 94.5101 130.845 94.2839Z" fill="black"/>
<path d="M121.466 95.1851C109.313 95.1855 94.6852 92.727 79.7437 88.1383C63.0918 83.0242 48.026 75.8703 37.3216 67.9944C26.3938 59.9541 21.2695 52.0315 22.8927 45.6861C24.5157 39.3407 32.6515 35.4904 45.8012 34.8447L45.8674 36.4668C39.7267 36.7683 34.7223 37.7684 30.9932 39.4392C27.2731 41.106 25.0277 43.3552 24.3194 46.1243C23.6111 48.8934 24.4625 52.0936 26.85 55.6362C29.2433 59.1873 33.0444 62.8916 38.1476 66.6464C48.7247 74.4287 63.6393 81.5062 80.1437 86.5749C94.9558 91.1239 109.443 93.5616 121.458 93.5619C122.831 93.5619 124.17 93.5299 125.475 93.4659C131.616 93.1644 136.62 92.1643 140.349 90.4935C144.069 88.8267 146.315 86.5776 147.023 83.8084C148.295 78.8361 144.451 72.3753 136.2 65.6161L137.087 64.3158C141.333 67.794 144.476 71.2226 146.429 74.506C148.523 78.0261 149.203 81.3034 148.45 84.2467C146.827 90.5921 138.691 94.4421 125.541 95.0879C124.218 95.153 122.857 95.1851 121.466 95.1851Z" fill="#CCCCCC"/>
<path d="M86.9304 8.21499C87.2436 8.21499 87.4975 7.93677 87.4975 7.59358C87.4975 7.25038 87.2436 6.97217 86.9304 6.97217C86.6172 6.97217 86.3633 7.25038 86.3633 7.59358C86.3633 7.93677 86.6172 8.21499 86.9304 8.21499Z" fill="#F2F2F2"/>
<path d="M11.6929 35.1801C12.2318 35.1801 12.6686 34.7014 12.6686 34.111C12.6686 33.5206 12.2318 33.042 11.6929 33.042C11.1541 33.042 10.7173 33.5206 10.7173 34.111C10.7173 34.7014 11.1541 35.1801 11.6929 35.1801Z" fill="#CCCCCC"/>
<path d="M9.6134 78.064C10.6778 78.064 11.5408 77.1185 11.5408 75.9522C11.5408 74.7858 10.6778 73.8403 9.6134 73.8403C8.54894 73.8403 7.68604 74.7858 7.68604 75.9522C7.68604 77.1185 8.54894 78.064 9.6134 78.064Z" fill="#CCCCCC"/>
<path d="M125.306 12.7296C126.015 12.7296 126.59 12.0994 126.59 11.3221C126.59 10.5447 126.015 9.91455 125.306 9.91455C124.596 9.91455 124.021 10.5447 124.021 11.3221C124.021 12.0994 124.596 12.7296 125.306 12.7296Z" fill="#CCCCCC"/>
<path d="M170.864 72.0238C172.016 72.0238 172.95 71.0007 172.95 69.7386C172.95 68.4765 172.016 67.4534 170.864 67.4534C169.713 67.4534 168.779 68.4765 168.779 69.7386C168.779 71.0007 169.713 72.0238 170.864 72.0238Z" fill="#CCCCCC"/>
<path d="M154.556 34.2197C155.05 34.2197 155.451 33.7808 155.451 33.2393C155.451 32.6978 155.05 32.2588 154.556 32.2588C154.062 32.2588 153.661 32.6978 153.661 33.2393C153.661 33.7808 154.062 34.2197 154.556 34.2197Z" fill="#CCCCCC"/>
<path d="M45.9091 22.1729C46.6801 22.1729 47.3051 21.4881 47.3051 20.6433C47.3051 19.7986 46.6801 19.1138 45.9091 19.1138C45.1382 19.1138 44.5132 19.7986 44.5132 20.6433C44.5132 21.4881 45.1382 22.1729 45.9091 22.1729Z" fill="#CCCCCC"/>
<path d="M151.424 66.0852C151.918 66.0852 152.319 65.6462 152.319 65.1047C152.319 64.5632 151.918 64.1243 151.424 64.1243C150.93 64.1243 150.529 64.5632 150.529 65.1047C150.529 65.6462 150.93 66.0852 151.424 66.0852Z" fill="#CCCCCC"/>
<path d="M14.1503 107C14.7654 107 15.2641 106.454 15.2641 105.78C15.2641 105.106 14.7654 104.56 14.1503 104.56C13.5353 104.56 13.0366 105.106 13.0366 105.78C13.0366 106.454 13.5353 107 14.1503 107Z" fill="#CCCCCC"/>
<path d="M36.646 124.087C37.3121 124.087 37.8521 123.495 37.8521 122.765C37.8521 122.035 37.3121 121.444 36.646 121.444C35.9799 121.444 35.4399 122.035 35.4399 122.765C35.4399 123.495 35.9799 124.087 36.646 124.087Z" fill="#CCCCCC"/>
<path d="M126.917 130.815H125.422V129.177H124.621V130.815H123.126V131.693H124.621V133.331H125.422V131.693H126.917V130.815Z" fill="#CCCCCC"/>
<path d="M161.411 122.432H160.294V121.208H159.694V122.432H158.577V123.09H159.694V124.314H160.294V123.09H161.411V122.432Z" fill="#CCCCCC"/>
</g>
<defs>
<clipPath id="clip0">
<rect width="173" height="140.11" fill="white" transform="translate(0 0.82959)"/>
</clipPath>
</defs>
</svg>
