<svg width="235" height="142" viewBox="0 0 235 142" fill="none" xmlns="http://www.w3.org/2000/svg">
<g clip-path="url(#clip0)">
<path d="M235.248 139.774H5.52832V140.762H235.248V139.774Z" fill="#E6E6E6"/>
<path d="M138.909 138.231H101.553L102.819 121.739H137.642L138.909 138.231Z" fill="#E6E6E6"/>
<path d="M141.441 136.328H99.6533V140.134H141.441V136.328Z" fill="#E6E6E6"/>
<path d="M191.776 15.4946H49.001C47.9935 15.4946 47.0272 15.8956 46.3148 16.6093C45.6024 17.323 45.2021 18.2911 45.2021 19.3004V106.516H195.575V19.3004C195.575 18.8006 195.477 18.3057 195.286 17.844C195.095 17.3823 194.815 16.9627 194.463 16.6093C194.11 16.2559 193.691 15.9756 193.23 15.7843C192.769 15.5931 192.275 15.4946 191.776 15.4946H191.776Z" fill="#3F3D56"/>
<path d="M45.2021 106.516V120.788C45.2021 121.288 45.3004 121.782 45.4913 122.244C45.6822 122.706 45.9621 123.126 46.3148 123.479C46.6676 123.832 47.0864 124.113 47.5473 124.304C48.0082 124.495 48.5022 124.594 49.001 124.594H191.776C192.784 124.594 193.75 124.193 194.463 123.479C195.175 122.765 195.575 121.797 195.575 120.788V106.516H45.2021Z" fill="#E6E6E6"/>
<path d="M188.294 23.4233H52.7998V99.5391H188.294V23.4233Z" fill="#E6E6E6"/>
<path d="M120.547 119.202C122.645 119.202 124.346 117.498 124.346 115.396C124.346 113.294 122.645 111.59 120.547 111.59C118.449 111.59 116.748 113.294 116.748 115.396C116.748 117.498 118.449 119.202 120.547 119.202Z" fill="#3F3D56"/>
<path d="M57.0246 26.6383C57.4228 26.6383 57.7456 26.315 57.7456 25.9161C57.7456 25.5172 57.4228 25.1938 57.0246 25.1938C56.6265 25.1938 56.3037 25.5172 56.3037 25.9161C56.3037 26.315 56.6265 26.6383 57.0246 26.6383Z" fill="white"/>
<path d="M59.761 26.6383C60.1591 26.6383 60.4819 26.315 60.4819 25.9161C60.4819 25.5172 60.1591 25.1938 59.761 25.1938C59.3628 25.1938 59.04 25.5172 59.04 25.9161C59.04 26.315 59.3628 26.6383 59.761 26.6383Z" fill="white"/>
<path d="M62.4973 26.6383C62.8955 26.6383 63.2182 26.315 63.2182 25.9161C63.2182 25.5172 62.8955 25.1938 62.4973 25.1938C62.0991 25.1938 61.7764 25.5172 61.7764 25.9161C61.7764 26.315 62.0991 26.6383 62.4973 26.6383Z" fill="white"/>
<path d="M184.389 28.3701H56.3037V92.2949H184.389V28.3701Z" fill="white"/>
<path d="M64.818 38.0933C64.698 38.0934 64.5829 38.1412 64.498 38.2263C64.4131 38.3113 64.3653 38.4266 64.3652 38.5469V61.4765C64.3653 61.5968 64.4131 61.7121 64.498 61.7971C64.5829 61.8822 64.698 61.93 64.818 61.9301H91.2501C91.3702 61.93 91.4853 61.8822 91.5702 61.7971C91.655 61.7121 91.7028 61.5968 91.7029 61.4765V38.5469C91.7028 38.4266 91.655 38.3113 91.5702 38.2263C91.4853 38.1412 91.3702 38.0934 91.2501 38.0933H64.818Z" fill="#E6E6E6"/>
<path d="M107.258 38.1675C107.138 38.1676 107.022 38.2154 106.937 38.3004C106.853 38.3855 106.805 38.5008 106.805 38.6211V61.477C106.805 61.5973 106.853 61.7126 106.937 61.7976C107.022 61.8827 107.138 61.9305 107.258 61.9306H133.606C133.726 61.9304 133.841 61.8826 133.925 61.7975C134.01 61.7125 134.058 61.5972 134.058 61.477V38.6211C134.058 38.5009 134.01 38.3856 133.925 38.3005C133.841 38.2155 133.726 38.1676 133.606 38.1675H107.258Z" fill="#E6E6E6"/>
<path d="M149.253 37.9277C149.133 37.9279 149.018 37.9757 148.933 38.0608C148.849 38.1458 148.801 38.2611 148.801 38.3814V61.4768C148.801 61.597 148.849 61.7123 148.933 61.7974C149.018 61.8824 149.133 61.9303 149.253 61.9304H175.875C175.995 61.9303 176.11 61.8824 176.195 61.7974C176.28 61.7123 176.328 61.597 176.328 61.4768V38.3814C176.328 38.2611 176.28 38.1458 176.195 38.0608C176.11 37.9757 175.995 37.9279 175.875 37.9277H149.253Z" fill="#E6E6E6"/>
<path d="M65.3016 73.2803C65.0536 73.2807 64.8159 73.3798 64.6408 73.5556C64.4656 73.7314 64.3672 73.9697 64.3672 74.2181C64.3672 74.4666 64.4656 74.7049 64.6408 74.8807C64.8159 75.0565 65.0536 75.1555 65.3016 75.156H90.153C90.4009 75.1555 90.6386 75.0565 90.8138 74.8807C90.989 74.7049 91.0874 74.4666 91.0874 74.2181C91.0874 73.9697 90.989 73.7314 90.8138 73.5556C90.6386 73.3798 90.4009 73.2807 90.153 73.2803H65.3016Z" fill="#E6E6E6"/>
<path d="M65.3017 77.7412C65.0537 77.7417 64.816 77.8407 64.6408 78.0165C64.4656 78.1924 64.3672 78.4307 64.3672 78.6791C64.3672 78.9276 64.4656 79.1659 64.6408 79.3417C64.816 79.5176 65.0537 79.6166 65.3017 79.6171H76.4909C76.7389 79.6166 76.9765 79.5176 77.1517 79.3417C77.3269 79.1659 77.4253 78.9276 77.4253 78.6791C77.4253 78.4307 77.3269 78.1924 77.1517 78.0165C76.9765 77.8407 76.7389 77.7417 76.4909 77.7412H65.3017Z" fill="#5F97CA"/>
<path d="M108.197 73.2803C107.949 73.2807 107.711 73.3798 107.536 73.5556C107.361 73.7314 107.263 73.9697 107.263 74.2181C107.263 74.4666 107.361 74.7049 107.536 74.8807C107.711 75.0565 107.949 75.1555 108.197 75.156H133.048C133.296 75.1555 133.534 75.0565 133.709 74.8807C133.885 74.7049 133.983 74.4666 133.983 74.2181C133.983 73.9697 133.885 73.7314 133.709 73.5556C133.534 73.3798 133.296 73.2807 133.048 73.2803H108.197Z" fill="#E6E6E6"/>
<path d="M108.197 77.7412C107.949 77.7417 107.711 77.8407 107.536 78.0165C107.361 78.1924 107.263 78.4307 107.263 78.6791C107.263 78.9276 107.361 79.1659 107.536 79.3417C107.711 79.5176 107.949 79.6166 108.197 79.6171H119.387C119.635 79.6166 119.872 79.5176 120.047 79.3417C120.223 79.1659 120.321 78.9276 120.321 78.6791C120.321 78.4307 120.223 78.1924 120.047 78.0165C119.872 77.8407 119.635 77.7417 119.387 77.7412H108.197Z" fill="#5F97CA"/>
<path d="M150.021 73.2803C149.773 73.2807 149.536 73.3798 149.36 73.5556C149.185 73.7314 149.087 73.9697 149.087 74.2181C149.087 74.4666 149.185 74.7049 149.36 74.8807C149.536 75.0565 149.773 75.1555 150.021 75.156H174.873C175.121 75.1555 175.358 75.0565 175.534 74.8807C175.709 74.7049 175.807 74.4666 175.807 74.2181C175.807 73.9697 175.709 73.7314 175.534 73.5556C175.358 73.3798 175.121 73.2807 174.873 73.2803H150.021Z" fill="#E6E6E6"/>
<path d="M65.3016 68.6729C65.0536 68.6733 64.8159 68.7723 64.6408 68.9482C64.4656 69.124 64.3672 69.3623 64.3672 69.6107C64.3672 69.8591 64.4656 70.0974 64.6408 70.2732C64.8159 70.4491 65.0536 70.5481 65.3016 70.5486H90.153C90.4009 70.5481 90.6386 70.4491 90.8138 70.2732C90.989 70.0974 91.0874 69.8591 91.0874 69.6107C91.0874 69.3623 90.989 69.124 90.8138 68.9482C90.6386 68.7723 90.4009 68.6733 90.153 68.6729H65.3016Z" fill="#E6E6E6"/>
<path d="M108.197 68.6729C107.949 68.6733 107.711 68.7723 107.536 68.9482C107.361 69.124 107.263 69.3623 107.263 69.6107C107.263 69.8591 107.361 70.0974 107.536 70.2732C107.711 70.4491 107.949 70.5481 108.197 70.5486H133.048C133.296 70.5481 133.534 70.4491 133.709 70.2732C133.885 70.0974 133.983 69.8591 133.983 69.6107C133.983 69.3623 133.885 69.124 133.709 68.9482C133.534 68.7723 133.296 68.6733 133.048 68.6729H108.197Z" fill="#E6E6E6"/>
<path d="M150.021 68.6729C149.773 68.6733 149.536 68.7723 149.36 68.9482C149.185 69.124 149.087 69.3623 149.087 69.6107C149.087 69.8591 149.185 70.0974 149.36 70.2732C149.536 70.4491 149.773 70.5481 150.021 70.5486H174.873C175.121 70.5481 175.358 70.4491 175.534 70.2732C175.709 70.0974 175.807 69.8591 175.807 69.6107C175.807 69.3623 175.709 69.124 175.534 68.9482C175.358 68.7723 175.121 68.6733 174.873 68.6729H150.021Z" fill="#E6E6E6"/>
<path d="M150.021 77.7412C149.773 77.7417 149.536 77.8407 149.361 78.0165C149.185 78.1924 149.087 78.4307 149.087 78.6791C149.087 78.9276 149.185 79.1659 149.361 79.3417C149.536 79.5176 149.773 79.6166 150.021 79.6171H161.21C161.458 79.6166 161.696 79.5176 161.871 79.3417C162.047 79.1659 162.145 78.9276 162.145 78.6791C162.145 78.4307 162.047 78.1924 161.871 78.0165C161.696 77.8407 161.458 77.7417 161.21 77.7412H150.021Z" fill="#5F97CA"/>
</g>
<defs>
<clipPath id="clip0">
<rect width="235" height="141" fill="white" transform="translate(0 0.261719)"/>
</clipPath>
</defs>
</svg>
