<svg width="343" height="255" viewBox="0 0 343 255" fill="none" xmlns="http://www.w3.org/2000/svg">
<g clip-path="url(#clip0)">
<path opacity="0.1" d="M34.4999 25.6949C32.3651 26.5764 30.1741 27.7078 29.001 29.691C27.7584 31.786 27.9071 34.3876 28.1385 36.8115C30.1543 57.8343 35.4648 80.1924 26.2945 99.2352C21.8431 108.474 14.3978 115.877 8.47595 124.267C2.55407 132.657 -1.91709 143.132 0.832356 153.002C4.18985 165.063 16.721 171.749 25.1676 181.031C30.6962 187.099 34.5726 194.472 39.7311 200.856C44.8896 207.24 51.9582 212.864 60.1933 213.239C72.0371 213.782 81.6733 203.603 93.2858 201.244C105.182 198.83 117.162 204.974 126.808 212.328C136.454 219.682 145.228 228.592 156.467 233.183C168.879 238.258 182.871 237.482 195.937 240.531C207.834 243.31 218.785 249.22 230.596 252.371C242.407 255.521 256.25 255.331 265.4 247.283C277.327 236.758 276.388 218.011 284.005 204.089C291.081 191.154 304.93 183.432 314.253 171.996C331.027 151.414 330.478 119.955 316.235 97.571C301.993 75.1866 276.193 61.633 249.813 58.104C237.916 56.5154 225.666 56.7325 214.228 53.118C183.614 43.4485 165.396 8.80304 134.141 1.59372C114.273 -2.98116 94.9513 4.94184 78.0284 14.6935C63.3393 23.1592 49.787 19.3835 34.4999 25.6949Z" fill="#5F97CA"/>
<path d="M64.3346 93.6111C64.3346 93.6111 53.0559 104.205 40.9511 104.52C35.8679 104.621 30.9548 106.36 26.9494 109.477C25.0561 110.966 23.3039 112.625 21.7148 114.433" stroke="#535461" stroke-width="2" stroke-miterlimit="10"/>
<path d="M14.0805 114.693C15.7064 113.871 21.9125 114.417 21.9125 114.417C21.9125 114.417 18.6938 119.729 17.0679 120.551C16.6785 120.78 16.2459 120.928 15.7968 120.985C15.3477 121.041 14.8917 121.005 14.4572 120.879C14.0226 120.753 13.6187 120.539 13.2706 120.251C12.9225 119.963 12.6375 119.607 12.4333 119.205C12.2292 118.803 12.1102 118.363 12.0838 117.914C12.0573 117.464 12.124 117.013 12.2797 116.59C12.4354 116.167 12.6767 115.781 12.9888 115.454C13.3008 115.128 13.6769 114.869 14.0937 114.693H14.0805Z" fill="#5F97CA"/>
<path d="M20.6139 105.303C22.4282 105.494 27.3388 109.309 27.3388 109.309C27.3388 109.309 21.721 112.026 19.9233 111.838C19.0822 111.712 18.3225 111.267 17.8023 110.598C17.2821 109.928 17.0415 109.084 17.1304 108.242C17.2194 107.4 17.6312 106.625 18.28 106.078C18.9289 105.53 19.7648 105.253 20.6139 105.303Z" fill="#5F97CA"/>
<path d="M36.106 97.7356C37.5732 98.8111 39.8798 104.573 39.8798 104.573C39.8798 104.573 33.6638 104.103 32.1966 103.031C31.5353 102.499 31.1053 101.734 30.9961 100.895C30.8869 100.056 31.1069 99.207 31.6104 98.5251C32.1138 97.8432 32.8619 97.3807 33.6992 97.2336C34.5365 97.0866 35.3985 97.2664 36.106 97.7356Z" fill="#5F97CA"/>
<path d="M49.1231 94.6404C50.7522 95.4528 54.004 100.745 54.004 100.745C54.004 100.745 47.7979 101.327 46.1687 100.514C45.7577 100.336 45.3874 100.076 45.0806 99.7501C44.7738 99.4245 44.5368 99.0401 44.384 98.6203C44.2313 98.2006 44.166 97.7543 44.1921 97.3087C44.2183 96.8631 44.3353 96.4274 44.5361 96.0282C44.7368 95.629 45.0172 95.2746 45.36 94.9868C45.7028 94.6989 46.1009 94.4834 46.53 94.3536C46.9592 94.2238 47.4104 94.1822 47.8562 94.2316C48.302 94.2809 48.733 94.42 49.1231 94.6404Z" fill="#5F97CA"/>
<path d="M30.7929 115.298C31.3349 113.565 29.7487 107.566 29.7487 107.566C29.7487 107.566 25.0297 111.618 24.4877 113.351C24.335 113.77 24.2692 114.215 24.2943 114.659C24.3193 115.103 24.4348 115.538 24.6336 115.937C24.8325 116.335 25.1105 116.69 25.451 116.978C25.7915 117.267 26.1873 117.484 26.6144 117.616C27.0415 117.748 27.4911 117.792 27.9359 117.746C28.3808 117.7 28.8115 117.564 29.2022 117.347C29.5929 117.131 29.9353 116.838 30.2087 116.485C30.4821 116.133 30.6809 115.729 30.7929 115.298Z" fill="#5F97CA"/>
<path d="M45.9708 111.473C45.9708 109.658 42.6497 104.408 42.6497 104.408C42.6497 104.408 39.3649 109.671 39.3682 111.493C39.3708 112.365 39.7215 113.201 40.3431 113.816C40.9647 114.43 41.8063 114.774 42.6827 114.772C43.5591 114.769 44.3986 114.42 45.0165 113.802C45.6344 113.183 45.98 112.345 45.9774 111.473H45.9708Z" fill="#5F97CA"/>
<path d="M60.2106 105.764C60.5146 103.975 58.1353 98.2419 58.1353 98.2419C58.1353 98.2419 54.0012 102.886 53.7005 104.675C53.5989 105.514 53.826 106.361 54.3347 107.038C54.8434 107.715 55.5945 108.171 56.4322 108.311C57.2699 108.452 58.1298 108.266 58.8333 107.792C59.5369 107.318 60.0301 106.593 60.2106 105.767V105.764Z" fill="#5F97CA"/>
<path d="M78.9903 65.5566C78.9903 65.5566 65.405 58.1302 61.3667 46.7538C59.7077 41.97 56.5338 37.8511 52.322 35.0157C50.312 33.6846 48.1838 32.5397 45.9639 31.5952" stroke="#535461" stroke-width="2" stroke-miterlimit="10"/>
<path d="M43.386 24.442C44.6715 25.7279 46.0562 31.7762 46.0562 31.7762C46.0562 31.7762 39.9889 30.362 38.7034 29.0728C38.1357 28.4453 37.8322 27.6247 37.8558 26.7807C37.8793 25.9367 38.2281 25.134 38.8299 24.5389C39.4316 23.9438 40.2403 23.6018 41.0885 23.5838C41.9366 23.5657 42.7593 23.873 43.386 24.442Z" fill="#5F97CA"/>
<path d="M54.374 27.7407C54.7508 29.5167 52.6127 35.3414 52.6127 35.3414C52.6127 35.3414 48.2935 30.8717 47.9168 29.0924C47.805 28.6621 47.7819 28.2137 47.8491 27.7743C47.9163 27.3349 48.0722 26.9136 48.3076 26.5358C48.5429 26.1581 48.8527 25.8317 49.2183 25.5764C49.5839 25.3212 49.9977 25.1423 50.4347 25.0507C50.8717 24.959 51.3228 24.9565 51.7608 25.0432C52.1988 25.1299 52.6146 25.304 52.9831 25.5552C53.3516 25.8063 53.6651 26.1291 53.9048 26.5042C54.1444 26.8792 54.3052 27.2987 54.3773 27.7374L54.374 27.7407Z" fill="#5F97CA"/>
<path d="M66.37 40.1039C65.795 41.824 60.9933 45.7805 60.9933 45.7805C60.9933 45.7805 59.5327 39.7519 60.1077 38.0286C60.3842 37.1999 60.9802 36.5145 61.7644 36.1231C62.5487 35.7318 63.4571 35.6665 64.2897 35.9417C65.1223 36.2169 65.811 36.8101 66.2042 37.5906C66.5974 38.3712 66.663 39.2752 66.3865 40.1039H66.37Z" fill="#5F97CA"/>
<path d="M73.336 51.4671C73.0617 53.2596 69.0004 57.966 69.0004 57.966C69.0004 57.966 66.5351 52.2696 66.8094 50.4772C66.8551 50.0342 66.9907 49.605 67.208 49.2158C67.4253 48.8265 67.7198 48.4852 68.0736 48.2126C68.4274 47.94 68.8331 47.7417 69.2662 47.6297C69.6992 47.5178 70.1506 47.4946 70.593 47.5615C71.0354 47.6283 71.4595 47.7839 71.8396 48.0188C72.2198 48.2537 72.548 48.5629 72.8045 48.9278C73.061 49.2927 73.2404 49.7056 73.3317 50.1415C73.4231 50.5775 73.4246 51.0273 73.336 51.4638V51.4671Z" fill="#5F97CA"/>
<path d="M47.9434 40.4559C49.7676 40.4361 55.0153 37.088 55.0153 37.088C55.0153 37.088 49.6916 33.8649 47.8674 33.8846C46.991 33.8946 46.1544 34.2508 45.5418 34.8747C44.9292 35.4985 44.5907 36.3391 44.6008 37.2114C44.6109 38.0836 44.9687 38.9162 45.5956 39.5259C46.2224 40.1356 47.067 40.4725 47.9434 40.4624V40.4559Z" fill="#5F97CA"/>
<path d="M56.2581 53.6574C57.9897 53.095 61.9916 48.3392 61.9916 48.3392C61.9916 48.3392 55.9409 46.8494 54.2093 47.4118C53.7819 47.5331 53.3836 47.739 53.0381 48.0171C52.6926 48.2953 52.407 48.6399 52.1983 49.0304C51.9897 49.4209 51.8624 49.8492 51.8239 50.2898C51.7855 50.7304 51.8367 51.1743 51.9746 51.5947C52.1124 52.0151 52.334 52.4036 52.6262 52.7368C52.9184 53.0701 53.2751 53.3412 53.675 53.5341C54.0749 53.727 54.5098 53.8376 54.9536 53.8594C55.3974 53.8811 55.8411 53.8136 56.2581 53.6607V53.6574Z" fill="#5F97CA"/>
<path d="M66.1054 65.3853C67.9097 65.1222 72.6618 61.1097 72.6618 61.1097C72.6618 61.1097 66.9514 58.6233 65.1504 58.8864C64.7068 58.9319 64.2771 59.0663 63.8871 59.2815C63.4971 59.4966 63.1549 59.7881 62.881 60.1384C62.6072 60.4886 62.4074 60.8904 62.2938 61.3196C62.1801 61.7487 62.1548 62.1963 62.2196 62.6354C62.2843 63.0745 62.4376 63.496 62.6703 63.8745C62.9031 64.2531 63.2104 64.5808 63.5737 64.8381C63.9371 65.0953 64.349 65.2767 64.7847 65.3713C65.2203 65.4659 65.6707 65.4718 66.1087 65.3886L66.1054 65.3853Z" fill="#5F97CA"/>
<path d="M172.482 245.75C238.55 245.75 292.109 192.445 292.109 126.691C292.109 60.9366 238.55 7.63208 172.482 7.63208C106.413 7.63208 52.8545 60.9366 52.8545 126.691C52.8545 192.445 106.413 245.75 172.482 245.75Z" fill="url(#paint0_linear)"/>
<path d="M172.481 243.777C237.455 243.777 290.126 191.356 290.126 126.691C290.126 62.0265 237.455 9.60547 172.481 9.60547C107.508 9.60547 54.8369 62.0265 54.8369 126.691C54.8369 191.356 107.508 243.777 172.481 243.777Z" fill="#5F97CA"/>
<path d="M172.482 219.767C224.132 219.767 266.003 178.096 266.003 126.691C266.003 75.2862 224.132 33.6145 172.482 33.6145C120.832 33.6145 78.9609 75.2862 78.9609 126.691C78.9609 178.096 120.832 219.767 172.482 219.767Z" fill="#DDE1EC"/>
<path opacity="0.3" d="M175.125 50.0591H169.838V132.282H175.125V50.0591Z" fill="#535461"/>
<g opacity="0.1">
<path opacity="0.1" d="M252.783 124.718H178.099V131.296H252.783V124.718Z" fill="black"/>
<path opacity="0.1" d="M125.371 100.108L122.305 105.935L169.297 130.427L172.363 124.6L125.371 100.108Z" fill="black"/>
<path opacity="0.1" d="M172.481 137.874C177.957 137.874 182.395 133.456 182.395 128.007C182.395 122.558 177.957 118.14 172.481 118.14C167.006 118.14 162.567 122.558 162.567 128.007C162.567 133.456 167.006 137.874 172.481 137.874Z" fill="black"/>
</g>
<path d="M252.784 123.402H178.1V129.98H252.784V123.402Z" fill="#535461"/>
<path d="M172.385 123.292L125.393 98.8003L122.326 104.627L169.319 129.119L172.385 123.292Z" fill="#535461"/>
<path d="M172.481 136.558C177.957 136.558 182.395 132.14 182.395 126.691C182.395 121.242 177.957 116.824 172.481 116.824C167.006 116.824 162.567 121.242 162.567 126.691C162.567 132.14 167.006 136.558 172.481 136.558Z" fill="#535461"/>
<g opacity="0.1">
<path opacity="0.1" d="M86.2244 137.873C86.2244 86.4674 128.094 44.7968 179.745 44.7968C194.242 44.7841 208.543 48.131 221.516 54.5726C234.488 61.0142 245.775 70.3734 254.483 81.909C238.567 53.1244 207.834 33.6145 172.475 33.6145C120.824 33.6145 78.9542 75.2851 78.9542 126.691C78.9238 146.885 85.523 166.537 97.7476 182.655C90.1665 168.937 86.202 153.53 86.2244 137.873Z" fill="black"/>
</g>
<path d="M258.891 58.2222C257.78 57.1599 248.435 64.1423 248.435 64.1423C248.435 64.1423 245.107 64.7474 245.9 67.0201C246.693 69.2927 242.414 82.0209 242.414 82.0209L240.672 79.5969C240.841 76.752 240.054 74.7359 239.288 73.4795C239.225 73.3776 239.162 73.2789 239.099 73.1868L239.403 73.0816C239.288 71.5292 236.793 69.1645 235.468 68.0068C235.468 67.839 235.468 67.6779 235.468 67.5068C235.55 65.6519 236.297 63.695 235.468 62.0143C234.529 60.0969 231.783 59.1333 231.552 57.0283C231.413 55.772 232.265 54.6373 232.642 53.427C233.541 50.5327 231.674 47.5793 229.889 45.0863C229.285 44.1516 228.549 43.3077 227.705 42.5801C226.901 41.9949 226.017 41.5254 225.081 41.1856C222.467 40.1332 219.794 39.6036 217.097 38.8834C214.51 38.1993 212.124 37.8737 209.497 38.7321C208.873 38.8994 208.304 39.2246 207.844 39.676C207.22 40.3732 207.137 41.3665 206.727 42.1986C206.066 43.5372 204.642 44.3364 203.383 45.1948C202.124 46.0532 200.862 47.2306 200.855 48.7107C200.855 50.8123 203.267 52.1344 204.074 54.0913C204.827 55.9134 204.074 57.9427 203.654 59.8634C203.479 60.4842 203.462 61.1387 203.604 61.7677C203.771 62.2364 204.022 62.6711 204.345 63.0504C204.844 63.7081 205.379 64.3199 205.911 64.9448L205.667 65.0402C201.232 64.5863 198.38 70.1906 198.38 70.1906C198.585 70.2334 198.78 70.2827 198.971 70.3386L198.783 70.582C197.443 72.3141 196.348 74.2207 195.528 76.2488L191.893 81.0967C191.893 81.0967 191.1 68.9737 193.003 66.2472C194.907 63.5207 191.262 61.8532 191.262 61.8532C191.262 61.8532 183.331 53.0652 182.23 53.8216C181.13 54.5781 184.923 64.1258 188.251 65.642C188.251 65.642 188.582 68.6711 187.921 70.6412C187.521 71.8877 185.386 85.0368 185.386 85.0368C185.386 85.0368 183.486 96.0974 192.2 90.628C197.861 87.0825 201.519 80.9783 203.383 77.1434C203.513 76.8737 203.635 76.6161 203.75 76.3705C203.836 76.7772 203.894 77.1893 203.925 77.6038L204.255 90.276C204.339 93.4104 203.652 96.5177 202.253 99.3272L198.37 107.165L198.803 107.296L198.542 107.671C195.984 111.417 191.635 119.84 200.587 124.132L212.484 125.648L211.849 128.677C211.849 128.677 206.939 137.919 205.511 144.283C204.624 148.181 203.24 151.949 201.39 155.495L201.757 155.689C201.681 155.775 201.602 155.864 201.526 155.956C200.804 156.763 200.328 157.758 200.151 158.824L198.538 161.1C198.538 161.1 197.904 170.493 199.173 172.769C199.867 174.012 202.17 174.801 204.13 175.262C207.038 175.949 209.384 172.96 207.841 170.496L207.821 170.463H207.791C207.461 168.934 206.45 164.188 206.78 162.386C206.873 161.873 206.959 161.363 207.002 160.843C207.081 160.16 207.29 159.499 207.616 158.893C207.669 158.791 207.725 158.692 207.781 158.594L207.953 158.666C208.485 158.893 209.011 159.107 209.51 159.294C208.737 159.995 208.188 161.445 208.849 164.428C208.849 164.428 208.912 171.891 209.483 173.065C210.055 174.239 216.453 175.791 217.563 174.581C218.674 173.371 216.849 169.2 216.849 169.2L216.793 169.24C216.426 166.822 215.974 162.494 217.087 160.791C217.537 160.103 217.973 159.393 218.363 158.728L218.604 158.317C220.673 159.343 222.86 160.116 224.057 159.58C224.057 159.58 229.285 147.457 228.967 145.944C228.65 144.431 237.047 127.306 237.047 127.306C237.047 127.306 244.175 119.413 235.464 113.973C232.698 112.239 230.683 111.075 229.219 110.289L227.993 103.909C227.362 100.564 227.475 97.1218 228.323 93.8248L229.645 88.8059L229.754 88.3783C229.754 88.3783 233.082 81.5604 232.923 78.3767C232.911 78.1294 232.939 77.8818 233.006 77.6433C233.042 77.7946 233.082 77.9525 233.125 78.1169C233.999 81.4259 235.151 84.656 236.568 87.7732C239.096 93.4499 242.847 92.9993 244.902 92.1935C245.342 92.024 245.733 91.7483 246.039 91.3912C246.346 91.0341 246.558 90.6068 246.657 90.1478C247.397 86.6155 249.43 76.7191 249.559 73.986C249.674 71.8489 249.939 69.7224 250.352 67.622C255.566 64.5863 260.001 59.2845 258.891 58.2222Z" fill="url(#paint1_linear)"/>
<path d="M220.098 155.318C220.098 155.318 219.401 156.709 218.446 158.38C218.072 159.038 217.656 159.745 217.23 160.426C215.719 162.83 217.23 170.49 217.23 170.49L213.925 170.94L210.62 169.296L210.016 163.737V159.672L213.783 155.479L215.435 153.664L220.098 155.318Z" fill="#F8BDC5"/>
<g opacity="0.1">
<path opacity="0.1" d="M220.098 155.318C220.098 155.318 219.401 156.709 218.446 158.38C216.987 157.604 215.576 156.741 214.223 155.795L213.932 155.591L213.776 155.479L215.429 153.664L220.098 155.318Z" fill="black"/>
</g>
<path d="M236.254 127.224C236.254 127.224 228.254 144.198 228.558 145.701C228.862 147.204 223.878 159.222 223.878 159.222C222.741 159.755 220.653 158.988 218.683 157.972C217.198 157.184 215.763 156.305 214.387 155.341L214.097 155.137L213.921 155.012L227.054 118.808L215.435 110.325L214.576 109.697L209.381 105.882L225.243 108.737C225.243 108.737 225.795 108.668 228.713 110.293C230.114 111.072 232.06 112.24 234.75 113.996C243.042 119.413 236.254 127.224 236.254 127.224Z" fill="#5E52AD"/>
<g opacity="0.03">
<path opacity="0.03" d="M236.254 127.224C236.254 127.224 228.254 144.198 228.558 145.701C228.862 147.204 223.878 159.222 223.878 159.222C222.741 159.755 220.653 158.988 218.683 157.972C217.198 157.184 215.763 156.305 214.387 155.341L214.097 155.137L213.921 155.012L227.054 118.808L215.435 110.325L214.576 109.697L209.381 105.882L225.243 108.737C225.243 108.737 225.795 108.668 228.713 110.293C230.114 111.072 232.06 112.24 234.75 113.996C243.042 119.413 236.254 127.224 236.254 127.224Z" fill="black"/>
</g>
<path d="M211.949 158.321C211.949 158.321 208.023 157.719 209.385 164.03C209.385 164.03 209.444 171.43 209.989 172.581C210.535 173.732 216.632 175.285 217.686 174.084C218.74 172.884 217.005 168.753 217.005 168.753C217.005 168.753 212.554 171.983 211.344 168.526C210.135 165.069 211.949 158.321 211.949 158.321Z" fill="#5D3E53"/>
<path d="M209.228 157.12C208.8 157.526 208.452 158.008 208.201 158.541C207.889 159.145 207.691 159.8 207.616 160.475C207.576 160.988 207.494 161.498 207.408 162.004C207.031 164.145 208.475 170.49 208.475 170.49L202.738 171.391L200.627 169.138L200.174 164.181C200.737 162.482 201.043 160.708 201.079 158.919C201.079 157.627 201.74 156.472 202.401 155.63C202.849 155.068 203.363 154.562 203.931 154.121C203.931 154.121 210.438 156.068 209.228 157.12Z" fill="#F8BDC5"/>
<g opacity="0.1">
<path opacity="0.1" d="M209.229 157.12C208.801 157.526 208.452 158.008 208.201 158.541C205.852 157.485 203.383 156.153 202.484 155.66L202.415 155.624C202.863 155.062 203.377 154.555 203.945 154.114C203.945 154.114 210.439 156.068 209.229 157.12Z" fill="black"/>
</g>
<path d="M227.798 122.718C227.798 122.718 224.027 129.779 221.608 135.637C220.022 139.485 216.744 148.648 214.668 154.482L214.364 155.344C213.452 157.926 212.844 159.672 212.844 159.672C212.442 159.675 212.042 159.616 211.658 159.498C211.301 159.403 210.901 159.274 210.475 159.117L209.996 158.936C209.52 158.751 209.004 158.538 208.512 158.314C206.113 157.248 203.555 155.86 202.626 155.354L202.276 155.16C204.047 151.628 205.369 147.891 206.212 144.034C207.57 137.725 212.249 128.576 212.249 128.576L212.854 125.57L201.532 124.067C193.003 119.824 197.147 111.46 199.583 107.747C199.998 107.102 200.447 106.48 200.928 105.882L209.986 107.855C209.986 107.855 211.413 108.309 214.586 109.707L216.043 110.365C217.821 111.177 220.009 112.223 222.652 113.565C231.568 118.051 227.798 122.718 227.798 122.718Z" fill="#5E52AD"/>
<path d="M208.419 170.039C208.742 170.581 208.897 171.205 208.864 171.834C208.831 172.463 208.611 173.069 208.233 173.574C207.855 174.079 207.335 174.461 206.739 174.673C206.143 174.884 205.497 174.915 204.883 174.762C203.029 174.305 200.832 173.522 200.171 172.289C198.965 170.036 199.566 160.722 199.566 160.722L201.152 158.393C201.152 158.393 200.323 168.684 202.286 169.575C204.249 170.467 208.399 169.993 208.399 169.993L208.419 170.039Z" fill="#5D3E53"/>
<path d="M210.025 39.3998C209.422 39.5668 208.875 39.8903 208.439 40.3371C207.844 41.0278 207.778 42.0145 207.375 42.84C206.747 44.1556 205.392 44.9614 204.189 45.8C202.986 46.6387 201.787 47.8194 201.78 49.2863C201.78 51.3715 204.094 52.6804 204.847 54.6176C205.564 56.4265 204.847 58.4361 204.447 60.3403C204.28 60.9569 204.264 61.6043 204.401 62.2282C204.558 62.691 204.798 63.122 205.108 63.501C206.565 65.4743 208.376 67.2241 209.351 69.4704C210.091 71.1773 210.296 73.0619 210.491 74.9135C210.772 77.5776 211.053 80.2909 210.544 82.9221C210.495 83.0795 210.495 83.2481 210.544 83.4055C210.631 83.5565 210.767 83.6727 210.931 83.7344C211.892 84.1994 212.939 84.4661 214.006 84.5185C215.074 84.5708 216.142 84.4078 217.145 84.0391C218.147 83.6705 219.065 83.1038 219.842 82.3732C220.62 81.6426 221.24 80.7632 221.667 79.7877C222.328 78.2978 222.583 76.4988 223.892 75.5319C224.044 75.4061 224.228 75.3232 224.424 75.2918C224.732 75.3002 225.031 75.3998 225.283 75.5779C226.981 76.4922 229.04 76.5185 230.934 76.1436C232.077 75.9167 233.247 75.5121 234.004 74.6241C235.494 72.8613 234.665 70.2268 234.764 67.9279C234.843 66.0894 235.554 64.1489 234.764 62.4847C233.871 60.5837 231.251 59.6299 231.033 57.5513C230.901 56.3081 231.714 55.18 232.074 53.9829C232.93 51.1116 231.152 48.1845 229.453 45.7145C228.882 44.7931 228.182 43.9571 227.375 43.2314C226.613 42.654 225.771 42.1888 224.876 41.85C222.388 40.8074 219.85 40.2812 217.276 39.5708C214.81 38.8703 212.54 38.5447 210.025 39.3998Z" fill="#85555C"/>
<path d="M222.665 82.3069H213.908V68.1842C214.168 66.8279 214.321 65.4532 214.364 64.0731C214.364 63.6093 214.364 63.1357 214.364 62.6588C214.282 60.9749 213.931 59.2943 213.013 58.2681C210.597 55.5646 220.861 56.0152 220.861 56.0152C221.176 57.2566 221.585 58.4726 222.084 59.6528C222.827 61.4942 223.817 63.2277 225.025 64.8065C226.088 66.2113 227.45 67.3648 229.014 68.1842C235.041 71.1903 222.665 82.3069 222.665 82.3069Z" fill="#F8BDC5"/>
<g opacity="0.1">
<path opacity="0.1" d="M222.074 59.6528C221.185 60.8066 219.996 61.6965 218.635 62.2264C217.275 62.7562 215.794 62.9057 214.354 62.6588C214.272 60.9749 213.922 59.2943 213.003 58.2681C210.587 55.5646 220.851 56.0152 220.851 56.0152C221.166 57.2566 221.575 58.4726 222.074 59.6528Z" fill="black"/>
</g>
<path d="M215.719 62.3305C220.138 62.3305 223.72 58.7655 223.72 54.368C223.72 49.9704 220.138 46.4055 215.719 46.4055C211.301 46.4055 207.719 49.9704 207.719 54.368C207.719 58.7655 211.301 62.3305 215.719 62.3305Z" fill="#F8BDC5"/>
<path d="M248.927 68.0367C248.535 70.1203 248.283 72.2277 248.174 74.3449C248.052 77.0516 246.115 86.8658 245.408 90.3685C245.319 90.8176 245.119 91.2379 244.828 91.5919C244.536 91.9459 244.161 92.2228 243.736 92.3977C241.773 93.197 238.204 93.6442 235.805 88.0169C234.452 84.9205 233.355 81.7197 232.523 78.4461C232.229 77.3458 232.008 76.2273 231.862 75.098L237.15 72.2432C237.647 72.7066 238.069 73.2449 238.399 73.8384C239.129 75.0849 239.879 77.0845 239.721 79.9031L241.373 82.3073C241.373 82.3073 245.448 69.6878 244.678 67.4348C243.908 65.1819 247.093 64.5801 247.093 64.5801C247.093 64.5801 255.999 57.6733 257.057 58.7225C258.114 59.7717 253.907 65.0306 248.927 68.0367Z" fill="#F8BDC5"/>
<path d="M205.607 74.0453C205.195 75.2204 204.72 76.3731 204.186 77.4987C202.408 81.3039 198.925 87.3654 193.532 90.8714C185.231 96.2784 187.042 85.3131 187.042 85.3131C187.042 85.3131 189.074 72.2758 189.457 71.0425C190.062 69.0889 189.758 66.0861 189.758 66.0861C186.589 64.5831 182.967 55.1208 184.021 54.3677C185.076 53.6145 192.613 62.3302 192.613 62.3302C192.613 62.3302 196.086 63.9746 194.266 66.688C192.445 69.4013 193.208 81.4092 193.208 81.4092L196.701 76.6106C197.478 74.6084 198.522 72.719 199.804 70.9932C200.465 70.0953 200.928 69.5526 200.928 69.5526L205.607 74.0453Z" fill="#F8BDC5"/>
<g opacity="0.1">
<path opacity="0.1" d="M238.402 73.8379C237.292 74.2458 232.992 75.9724 232.516 78.4424C232.222 77.3421 232.001 76.2236 231.855 75.0943L237.143 72.2395C237.644 72.7032 238.069 73.2426 238.402 73.8379Z" fill="black"/>
</g>
<g opacity="0.1">
<path opacity="0.1" d="M205.607 74.0455C205.194 75.2206 204.72 76.3733 204.186 77.4989C203.981 76.0123 203.138 72.2103 199.804 70.9835C200.465 70.0856 200.927 69.543 200.927 69.543L205.607 74.0455Z" fill="black"/>
</g>
<g opacity="0.1">
<path opacity="0.1" d="M222.665 82.307H213.908V68.1844C214.168 66.828 214.321 65.4534 214.364 64.0732C216.165 65.8032 215.719 68.4837 215.719 68.4837L220.398 79.0082L222.665 69.7039L221.912 68.5034L225.018 64.8264C226.081 66.2312 227.443 67.3847 229.007 68.2041C235.041 71.1905 222.665 82.307 222.665 82.307Z" fill="black"/>
</g>
<g opacity="0.1">
<path opacity="0.1" d="M228.851 111.144C228.851 111.144 221.991 110.602 216.039 110.345L215.441 110.319C214.595 110.286 213.789 110.26 212.999 110.24C207.223 110.102 200.689 108.092 199.579 107.74C199.996 107.098 200.446 106.478 200.927 105.882L209.985 107.855C209.985 107.855 211.413 108.309 214.585 109.707L209.381 105.882L225.243 108.737C225.243 108.737 225.795 108.668 228.713 110.293L228.851 111.144Z" fill="black"/>
</g>
<path d="M222.666 70.2897L221.913 69.0892L225.263 65.0998C225.263 65.0998 232.173 68.4709 233.984 67.7309C233.984 67.7309 238.363 71.3487 238.512 73.4405C238.512 73.4405 232.173 75.5421 232.322 78.7027C232.471 81.8634 229.315 88.6155 229.315 88.6155L227.993 94.016C227.18 97.2888 227.067 100.695 227.663 104.014L228.869 110.701C228.869 110.701 219.358 109.951 213.007 109.799C206.655 109.648 199.421 107.247 199.421 107.247L203.126 99.4887C204.462 96.6888 205.116 93.6151 205.036 90.5165L204.705 77.9562C204.705 77.9562 204.405 71.648 199.418 70.5955C199.418 70.5955 202.134 65.0373 206.358 65.4879C206.358 65.4879 212.511 62.9324 214.338 64.6591C216.166 66.3857 215.716 69.0925 215.716 69.0925L220.396 79.6171L222.666 70.2897Z" fill="#ED677B"/>
<g opacity="0.1">
<path opacity="0.1" d="M209.946 52.7263C211.158 52.7263 212.11 51.4469 213.323 51.5127C213.951 51.5456 214.489 51.9435 215.008 52.302C216.969 53.6532 219.15 54.6548 221.456 55.2621C222.351 55.4989 223.3 55.6765 224.198 55.4594C225.097 55.2423 225.94 54.5385 226.042 53.6209C226.068 53.2165 226.014 52.811 225.884 52.427C224.866 48.8988 222.564 45.8746 219.427 43.9449C218.171 43.1786 216.637 42.5932 215.246 43.0733C213.99 43.5042 213.181 44.675 212.272 45.6387C211.587 46.3602 210.809 46.9884 209.959 47.5068C209.298 47.9048 208.307 48.1646 207.926 48.8947C207.209 50.2563 208.336 52.7132 209.946 52.7263Z" fill="black"/>
</g>
<path d="M209.946 52.4272C211.158 52.4272 212.11 51.1479 213.323 51.2136C213.951 51.2465 214.489 51.6445 215.008 52.003C216.969 53.3541 219.15 54.3557 221.456 54.963C222.351 55.1998 223.3 55.3774 224.198 55.1603C225.097 54.9433 225.94 54.2394 226.042 53.3218C226.068 52.9174 226.014 52.512 225.884 52.128C224.866 48.5997 222.564 45.5755 219.427 43.6458C218.171 42.8795 216.637 42.2941 215.246 42.7743C213.99 43.2051 213.181 44.376 212.272 45.3396C211.587 46.0612 210.809 46.6893 209.959 47.2077C209.298 47.6057 208.307 47.8655 207.926 48.5957C207.209 49.9704 208.336 52.4108 209.946 52.4272Z" fill="#85555C"/>
<path opacity="0.05" d="M206.288 86.7373C206.288 86.7373 213.684 89.4408 218.515 87.3392L220.931 87.4905C220.931 87.4905 224.946 90.2926 229.192 89.0396" fill="black"/>
<path opacity="0.05" d="M241.307 82.2314C241.307 82.2314 240.101 85.0862 240.702 85.9874L241.307 82.2314Z" fill="black"/>
<path opacity="0.05" d="M193.155 81.3301C193.155 81.3301 193.76 84.1848 193.155 85.086V81.3301Z" fill="black"/>
<path d="M318.341 146.382C318.341 146.382 304.514 160.142 312.32 180.56C320.125 200.978 298.942 234.932 298.942 234.932C298.942 234.932 299.17 234.9 299.603 234.827C328 229.838 342.107 197.518 326.318 173.505C320.432 164.576 315.614 154.104 318.341 146.382Z" fill="#5F97CA"/>
<path opacity="0.1" d="M318.341 146.612C318.341 146.612 304.514 160.373 312.32 180.791C320.125 201.208 298.942 235.16 298.942 235.16C298.942 235.16 299.17 235.127 299.603 235.055C328 230.065 342.107 197.745 326.318 173.733C320.432 164.807 315.614 154.335 318.341 146.612Z" fill="black"/>
<path d="M318.341 146.382C318.341 146.382 310.535 163.247 318.341 177.008C326.146 190.769 319.663 229.384 298.939 234.932" stroke="#535461" stroke-miterlimit="10"/>
<path d="M342.967 202.037C342.967 202.037 327.191 199.537 325.754 213.607C324.316 227.677 295.407 229.628 295.407 229.628L295.949 229.986C319.809 245.576 342.62 239.916 339.18 219.215C337.911 211.522 338.017 203.793 342.967 202.037Z" fill="#5F97CA"/>
<path d="M342.967 202.037C342.967 202.037 330.72 204.711 331.731 215.794C332.742 226.878 313.556 240.162 295.42 229.631" stroke="#535461" stroke-miterlimit="10"/>
<path d="M329.088 230.141C329.088 230.141 316.662 227.667 313.348 224.369C310.033 221.07 295.123 215.301 293.467 219.435C291.812 223.569 271.102 237.574 285.183 240.047C299.264 242.52 318.318 243.336 322.459 241.691C326.599 240.047 329.088 230.141 329.088 230.141Z" fill="#A8A8A8"/>
<path opacity="0.2" d="M285.182 238.504C299.267 240.978 318.318 241.793 322.458 240.149C325.614 238.892 327.805 232.86 328.671 230.052L329.084 230.137C329.084 230.137 326.599 240.03 322.458 241.678C318.318 243.326 299.263 242.504 285.182 240.034C281.118 239.32 279.954 237.643 280.394 235.521C280.738 236.906 282.155 237.971 285.182 238.504Z" fill="black"/>
</g>
<defs>
<linearGradient id="paint0_linear" x1="172.482" y1="245.75" x2="172.482" y2="7.63208" gradientUnits="userSpaceOnUse">
<stop stop-color="#808080" stop-opacity="0.25"/>
<stop offset="0.54" stop-color="#808080" stop-opacity="0.12"/>
<stop offset="1" stop-color="#808080" stop-opacity="0.1"/>
</linearGradient>
<linearGradient id="paint1_linear" x1="57831.8" y1="81815.7" x2="57831.8" y2="24623" gradientUnits="userSpaceOnUse">
<stop stop-color="#808080" stop-opacity="0.25"/>
<stop offset="0.54" stop-color="#808080" stop-opacity="0.12"/>
<stop offset="1" stop-color="#808080" stop-opacity="0.1"/>
</linearGradient>
<clipPath id="clip0">
<rect width="343" height="254" fill="white" transform="translate(0 0.261719)"/>
</clipPath>
</defs>
</svg>
