<svg width="306" height="227" viewBox="0 0 306 227" fill="none" xmlns="http://www.w3.org/2000/svg">
<g clip-path="url(#clip0)">
<path d="M287.866 204.207C285.018 204.207 282.287 205.333 280.274 207.337C278.26 209.342 277.129 212.061 277.129 214.896C277.129 217.731 278.26 220.45 280.274 222.454C282.287 224.459 285.018 225.585 287.866 225.585H287.866C290.714 225.585 293.445 224.459 295.458 222.454C297.472 220.45 298.603 217.731 298.603 214.896C298.603 212.061 297.472 209.342 295.458 207.337C293.445 205.333 290.714 204.207 287.866 204.207Z" fill="#CCCCCC"/>
<path d="M286.847 219.335C286.565 219.336 286.29 219.245 286.064 219.076L286.05 219.066L283.097 216.817C282.96 216.712 282.845 216.582 282.759 216.434C282.672 216.285 282.616 216.121 282.594 215.951C282.571 215.781 282.583 215.608 282.627 215.442C282.672 215.277 282.748 215.121 282.853 214.985C282.958 214.849 283.089 214.734 283.238 214.649C283.387 214.563 283.552 214.507 283.723 214.485C283.894 214.462 284.068 214.474 284.234 214.518C284.401 214.562 284.557 214.639 284.693 214.743L286.606 216.203L291.125 210.334C291.23 210.197 291.361 210.083 291.51 209.997C291.659 209.912 291.824 209.856 291.995 209.834C292.165 209.811 292.339 209.822 292.505 209.867C292.672 209.911 292.828 209.987 292.964 210.092L292.965 210.092L292.937 210.131L292.966 210.092C293.241 210.303 293.422 210.614 293.467 210.958C293.513 211.301 293.42 211.648 293.208 211.923L287.892 218.824C287.769 218.983 287.611 219.112 287.43 219.2C287.249 219.289 287.05 219.334 286.849 219.334L286.847 219.335Z" fill="white"/>
<path d="M264.489 221.311L259.405 221.31L256.988 201.789L264.49 201.79L264.489 221.311Z" fill="#FFB8B8"/>
<path d="M255.774 219.864H265.578V226.01H249.601C249.601 225.203 249.76 224.403 250.07 223.658C250.381 222.912 250.835 222.235 251.409 221.664C251.982 221.093 252.662 220.641 253.411 220.332C254.16 220.023 254.963 219.864 255.774 219.864Z" fill="#2F2E41"/>
<path d="M244.256 221.311L239.172 221.31L236.755 201.789L244.258 201.79L244.256 221.311Z" fill="#FFB8B8"/>
<path d="M235.541 219.864H245.345V226.01H229.368C229.368 225.203 229.527 224.403 229.838 223.658C230.148 222.912 230.602 222.235 231.176 221.664C231.749 221.093 232.429 220.641 233.178 220.332C233.927 220.023 234.73 219.864 235.541 219.864Z" fill="#2F2E41"/>
<path d="M268.405 153.82C267.996 153.371 267.691 152.837 267.511 152.257C267.332 151.677 267.282 151.065 267.366 150.464C267.45 149.863 267.665 149.287 267.996 148.778C268.327 148.268 268.767 147.837 269.284 147.515L267.709 138.16L273.187 135.82L275.224 149.064C275.71 149.964 275.847 151.01 275.61 152.004C275.372 152.998 274.777 153.871 273.937 154.457C273.096 155.044 272.069 155.303 271.049 155.185C270.03 155.068 269.089 154.582 268.405 153.82V153.82Z" fill="#FFB8B8"/>
<path d="M225.521 149.4C225.999 149.023 226.388 148.547 226.662 148.004C226.935 147.462 227.086 146.867 227.103 146.26C227.12 145.653 227.003 145.05 226.761 144.493C226.519 143.936 226.157 143.439 225.7 143.037L228.806 134.068L223.792 130.86L219.585 143.587C218.956 144.394 218.648 145.404 218.717 146.423C218.786 147.443 219.228 148.401 219.959 149.118C220.691 149.834 221.661 150.259 222.686 150.311C223.711 150.363 224.72 150.038 225.521 149.4Z" fill="#FFB8B8"/>
<path d="M251.557 83.331C257.589 83.331 262.479 78.4628 262.479 72.4577C262.479 66.4526 257.589 61.5845 251.557 61.5845C245.525 61.5845 240.635 66.4526 240.635 72.4577C240.635 78.4628 245.525 83.331 251.557 83.331Z" fill="#FFB8B8"/>
<path d="M225.183 142.69C224.996 142.69 224.809 142.664 224.629 142.612L221.446 141.702C220.938 141.556 220.508 141.216 220.251 140.755C219.994 140.295 219.93 139.752 220.073 139.245L226.643 116.152L235.804 93.7625C236.715 91.5367 238.618 90.0769 240.771 89.9531C241.754 89.9052 242.73 90.1423 243.581 90.6355C244.432 91.1287 245.12 91.8569 245.564 92.7318C246.057 93.6683 246.327 94.7048 246.355 95.7616C246.382 96.8184 246.166 97.8675 245.722 98.8281L235.309 121.499L227.031 141.458C226.88 141.822 226.624 142.134 226.295 142.353C225.966 142.573 225.579 142.69 225.183 142.69Z" fill="#5F97CA"/>
<path d="M257.72 81.5761L251.652 81.6835C251.02 81.6959 250.394 81.5603 249.824 81.2875C249.254 81.0147 248.757 80.6125 248.372 80.1132C247.987 79.6139 247.725 79.0316 247.608 78.4131C247.49 77.7947 247.521 77.1574 247.696 76.5527C247.826 76.1158 247.923 75.67 247.988 75.219C248.056 74.7271 248.069 74.2292 248.027 73.7343C247.989 73.2388 247.783 72.7711 247.442 72.4077C247.101 72.0443 246.647 71.8069 246.153 71.7345C245.659 71.662 245.155 71.7587 244.724 72.0088C244.292 72.2589 243.959 72.6475 243.779 73.1108C242.758 73.1253 240.585 72.7942 239.564 72.8086C237.398 67.2794 242.119 60.0441 247.201 57.3265C252.382 54.5561 259.108 57.3746 261.094 63.1488C263.85 63.1981 266.089 65.9045 266.445 68.951C266.8 71.9975 265.541 75.1787 263.615 77.5137C261.689 79.8486 259.16 81.5506 257.72 81.5761Z" fill="#2F2E41"/>
<path d="M237.773 219.488C237.281 219.485 236.807 219.303 236.442 218.976C236.076 218.649 235.844 218.199 235.789 217.713L233.537 142.349L261.902 144.359L261.924 144.541C268.334 197.959 266.143 216.45 266.12 216.63C266.104 216.904 266.032 217.171 265.908 217.415C265.784 217.659 265.61 217.876 265.399 218.05C265.187 218.225 264.941 218.354 264.677 218.43C264.413 218.506 264.136 218.526 263.863 218.491L257.594 218.64C257.119 218.587 256.679 218.366 256.354 218.017C256.028 217.668 255.839 217.214 255.821 216.739L249.963 162.153C249.927 162.012 249.842 161.887 249.723 161.802C249.604 161.716 249.458 161.675 249.312 161.686C249.161 161.685 249.014 161.737 248.898 161.832C248.781 161.927 248.701 162.06 248.672 162.207L246.409 216.971C246.433 217.479 246.26 217.977 245.925 218.362C245.591 218.747 245.12 218.989 244.612 219.039L237.972 219.478C237.905 219.485 237.839 219.488 237.773 219.488Z" fill="#2F2E41"/>
<path d="M249.543 151.354C249.373 151.354 249.204 151.352 249.034 151.346C240.878 151.102 234.497 144.958 232.735 143.081C232.511 142.842 232.35 142.551 232.266 142.235C232.182 141.918 232.178 141.586 232.254 141.268L236.96 121.45L235.711 104.222C235.515 101.83 235.83 99.4251 236.635 97.1639C237.441 94.9028 238.718 92.8371 240.383 91.1028C241.77 89.6436 243.457 88.4983 245.328 87.7448C247.199 86.9912 249.211 86.6469 251.227 86.7352C259.167 87.1124 265.431 94.1777 265.487 102.82C265.575 116.205 265.179 117.124 265.049 117.427C261.087 126.633 263.251 139.557 264.009 143.299C264.076 143.633 264.057 143.978 263.953 144.303C263.849 144.627 263.664 144.92 263.414 145.153C259.056 149.269 254.392 151.354 249.543 151.354Z" fill="#5F97CA"/>
<path d="M270.027 146.316C269.574 146.316 269.135 146.163 268.781 145.882C268.427 145.601 268.18 145.209 268.079 144.77L263.224 123.716L256.719 99.6517C256.441 98.6313 256.402 97.5611 256.604 96.5233C256.807 95.4856 257.245 94.5078 257.887 93.6652C258.47 92.8756 259.27 92.271 260.19 91.9245C261.111 91.5781 262.113 91.5045 263.075 91.7129C265.177 92.1893 266.812 93.9419 267.341 96.2871L272.657 119.852L275.309 143.732C275.366 144.255 275.213 144.78 274.883 145.192C274.553 145.604 274.072 145.869 273.547 145.93L270.256 146.303C270.18 146.312 270.103 146.316 270.027 146.316Z" fill="#5F97CA"/>
<path d="M130.291 23.2823H11.5617C8.49535 23.2823 5.55458 22.0696 3.38634 19.911C1.2181 17.7524 0 14.8247 0 11.772C0 8.71929 1.2181 5.7916 3.38634 3.633C5.55458 1.4744 8.49535 0.261719 11.5617 0.261719H130.291C133.358 0.261719 136.299 1.4744 138.467 3.633C140.635 5.7916 141.853 8.71929 141.853 11.772C141.853 14.8247 140.635 17.7524 138.467 19.911C136.299 22.0696 133.358 23.2823 130.291 23.2823Z" fill="#E6E6E6"/>
<path d="M11.5617 4.02466C9.49781 4.02466 7.51845 4.84089 6.05906 6.29379C4.59967 7.74669 3.77979 9.71725 3.77979 11.772C3.77979 13.8267 4.59967 15.7972 6.05906 17.2501C7.51845 18.703 9.49781 19.5193 11.5617 19.5193H130.291C132.355 19.5193 134.335 18.703 135.794 17.2501C137.254 15.7972 138.073 13.8267 138.073 11.772C138.073 9.71725 137.254 7.74669 135.794 6.29379C134.335 4.84089 132.355 4.02466 130.291 4.02466H11.5617Z" fill="white"/>
<path d="M172.249 1.00586C169.401 1.00585 166.67 2.13204 164.657 4.13667C162.643 6.14131 161.512 8.86018 161.512 11.6952C161.512 14.5302 162.643 17.2491 164.657 19.2537C166.67 21.2584 169.401 22.3846 172.249 22.3846H172.249C175.097 22.3846 177.828 21.2584 179.841 19.2537C181.855 17.2491 182.986 14.5302 182.986 11.6952C182.986 8.86023 181.855 6.14135 179.841 4.1367C177.828 2.13205 175.097 1.00586 172.249 1.00586Z" fill="#5F97CA"/>
<path d="M171.23 16.1346C170.948 16.1351 170.672 16.0441 170.446 15.8753L170.432 15.8648L167.48 13.6161C167.343 13.5118 167.228 13.3816 167.142 13.2331C167.055 13.0845 166.999 12.9205 166.977 12.7504C166.954 12.5803 166.965 12.4074 167.01 12.2416C167.054 12.0759 167.131 11.9204 167.236 11.7843C167.341 11.6481 167.472 11.5338 167.621 11.4479C167.77 11.3621 167.935 11.3064 168.106 11.2839C168.277 11.2615 168.45 11.2728 168.617 11.3172C168.783 11.3616 168.94 11.4382 169.076 11.5427L170.989 13.0028L175.508 7.13291C175.613 6.99682 175.744 6.88261 175.893 6.79681C176.042 6.711 176.207 6.65528 176.377 6.63283C176.548 6.61037 176.722 6.62162 176.888 6.66593C177.054 6.71025 177.211 6.78675 177.347 6.89109L177.348 6.89137L177.32 6.93014L177.348 6.89137C177.624 7.10238 177.805 7.41369 177.85 7.75699C177.895 8.10028 177.802 8.44752 177.591 8.7225L172.275 15.6236C172.152 15.7827 171.994 15.9113 171.813 15.9997C171.632 16.088 171.433 16.1337 171.231 16.1331L171.23 16.1346Z" fill="white"/>
<path d="M130.291 62.2401H11.5617C8.49535 62.2401 5.55458 61.0274 3.38634 58.8688C1.2181 56.7102 0 53.7825 0 50.7298C0 47.6771 1.2181 44.7494 3.38634 42.5908C5.55458 40.4322 8.49535 39.2195 11.5617 39.2195H130.291C133.358 39.2195 136.299 40.4322 138.467 42.5908C140.635 44.7494 141.853 47.6771 141.853 50.7298C141.853 53.7825 140.635 56.7102 138.467 58.8688C136.299 61.0274 133.358 62.2401 130.291 62.2401Z" fill="#E6E6E6"/>
<path d="M11.5617 42.9827C9.49781 42.9827 7.51845 43.7989 6.05906 45.2518C4.59967 46.7047 3.77979 48.6753 3.77979 50.73C3.77979 52.7847 4.59967 54.7552 6.05906 56.2081C7.51845 57.661 9.49781 58.4773 11.5617 58.4773H130.291C132.355 58.4773 134.335 57.661 135.794 56.2081C137.254 54.7552 138.073 52.7847 138.073 50.73C138.073 48.6753 137.254 46.7047 135.794 45.2518C134.335 43.7989 132.355 42.9827 130.291 42.9827H11.5617Z" fill="white"/>
<path d="M172.249 39.9639C169.401 39.9639 166.67 41.0901 164.657 43.0947C162.643 45.0993 161.512 47.8182 161.512 50.6532C161.512 53.4882 162.643 56.2071 164.657 58.2117C166.67 60.2164 169.401 61.3426 172.249 61.3426H172.249C175.097 61.3426 177.828 60.2164 179.841 58.2118C181.855 56.2071 182.986 53.4882 182.986 50.6532C182.986 47.8182 181.855 45.0994 179.841 43.0947C177.828 41.0901 175.097 39.9639 172.249 39.9639Z" fill="#5F97CA"/>
<path d="M171.23 55.0924C170.948 55.0929 170.672 55.0019 170.446 54.833L170.432 54.8226L167.48 52.5739C167.343 52.4695 167.228 52.3394 167.142 52.1908C167.055 52.0423 166.999 51.8783 166.977 51.7082C166.954 51.538 166.965 51.3652 167.01 51.1994C167.054 51.0336 167.131 50.8782 167.236 50.742C167.341 50.6058 167.472 50.4916 167.621 50.4057C167.77 50.3199 167.935 50.2641 168.106 50.2417C168.277 50.2193 168.45 50.2306 168.617 50.275C168.783 50.3193 168.94 50.396 169.076 50.5004L170.989 51.9605L175.508 46.0907C175.613 45.9546 175.744 45.8404 175.893 45.7546C176.042 45.6688 176.207 45.613 176.377 45.5906C176.548 45.5681 176.722 45.5794 176.888 45.6237C177.054 45.668 177.211 45.7445 177.347 45.8488L177.348 45.8491L177.32 45.8879L177.348 45.8491C177.624 46.0601 177.805 46.3715 177.85 46.7147C177.895 47.058 177.802 47.4053 177.591 47.6803L172.275 54.5814C172.152 54.7404 171.994 54.8691 171.813 54.9574C171.632 55.0458 171.433 55.0914 171.231 55.0909L171.23 55.0924Z" fill="white"/>
<path d="M130.291 101.198H11.5617C8.49535 101.198 5.55458 99.9854 3.38634 97.8268C1.2181 95.6682 0 92.7405 0 89.6878C0 86.6351 1.2181 83.7074 3.38634 81.5488C5.55458 79.3902 8.49535 78.1775 11.5617 78.1775H130.291C133.358 78.1775 136.299 79.3902 138.467 81.5488C140.635 83.7074 141.853 86.6351 141.853 89.6878C141.853 92.7405 140.635 95.6682 138.467 97.8268C136.299 99.9854 133.358 101.198 130.291 101.198Z" fill="#E6E6E6"/>
<path d="M11.5617 81.9404C9.49781 81.9404 7.51845 82.7567 6.05906 84.2096C4.59967 85.6625 3.77979 87.633 3.77979 89.6877C3.77979 91.7424 4.59967 93.713 6.05906 95.1659C7.51845 96.6188 9.49781 97.435 11.5617 97.435H130.291C132.355 97.435 134.335 96.6188 135.794 95.1659C137.254 93.713 138.073 91.7424 138.073 89.6877C138.073 87.633 137.254 85.6625 135.794 84.2096C134.335 82.7567 132.355 81.9404 130.291 81.9404H11.5617Z" fill="white"/>
<path d="M172.249 78.9216C169.401 78.9216 166.67 80.0478 164.657 82.0525C162.643 84.0571 161.512 86.776 161.512 89.611C161.512 92.446 162.643 95.1648 164.657 97.1695C166.67 99.1741 169.401 100.3 172.249 100.3H172.249C175.097 100.3 177.828 99.1742 179.841 97.1695C181.855 95.1649 182.986 92.446 182.986 89.611C182.986 86.776 181.855 84.0571 179.841 82.0525C177.828 80.0478 175.097 78.9216 172.249 78.9216Z" fill="#E6E6E6"/>
<path d="M305.555 226.262H212.617C212.499 226.262 212.386 226.215 212.303 226.132C212.219 226.049 212.172 225.936 212.172 225.819C212.172 225.702 212.219 225.589 212.303 225.506C212.386 225.423 212.499 225.376 212.617 225.376H305.555C305.673 225.376 305.786 225.423 305.87 225.506C305.953 225.589 306 225.702 306 225.819C306 225.936 305.953 226.049 305.87 226.132C305.786 226.215 305.673 226.262 305.555 226.262Z" fill="#CCCCCC"/>
</g>
<defs>
<clipPath id="clip0">
<rect width="306" height="226" fill="white" transform="translate(0 0.261719)"/>
</clipPath>
</defs>
</svg>
