<svg width="304" height="329" viewBox="0 0 304 329" fill="none" xmlns="http://www.w3.org/2000/svg">
<g clip-path="url(#clip0)">
<path d="M192.835 186.12L61.4266 220.052C56.9691 221.197 52.2404 220.523 48.2779 218.177C44.3155 215.831 41.4429 212.005 40.2903 207.538L0.549014 52.7859C-0.593481 48.3162 0.078813 43.5745 2.41841 39.6012C4.75801 35.6279 8.57384 32.7474 13.0288 31.5916L135.283 0.0234375L166.574 14.0699L205.314 164.925C206.457 169.395 205.785 174.137 203.445 178.11C201.105 182.084 197.29 184.964 192.835 186.12Z" fill="#F2F2F2"/>
<path d="M14.2761 36.4437C11.1036 37.2667 8.38627 39.3179 6.72019 42.1474C5.05411 44.9769 4.57535 48.3536 5.38896 51.5366L45.1302 206.288C45.951 209.47 47.9966 212.194 50.8184 213.865C53.6401 215.536 57.0075 216.016 60.1818 215.2L191.59 181.268C194.762 180.445 197.48 178.394 199.146 175.564C200.812 172.735 201.291 169.358 200.477 166.175L162.337 17.6569L134.837 5.3125L14.2761 36.4437Z" fill="white"/>
<path d="M166.241 14.8683L145.904 20.1197C144.42 20.5031 142.844 20.2793 141.524 19.4977C140.204 18.7161 139.247 17.4406 138.865 15.9519L134.997 0.889873C134.98 0.823932 134.982 0.754539 135.002 0.689654C135.023 0.624769 135.061 0.567019 135.113 0.523025C135.165 0.47903 135.228 0.450573 135.295 0.440917C135.363 0.431261 135.431 0.440796 135.493 0.468431L166.298 14.1863C166.367 14.2169 166.424 14.268 166.462 14.3327C166.5 14.3975 166.518 14.4725 166.511 14.5474C166.505 14.6224 166.476 14.6936 166.427 14.7511C166.379 14.8085 166.314 14.8495 166.241 14.8683Z" fill="#F2F2F2"/>
<path d="M155.542 147.023L95.7136 162.472C95.346 162.567 94.9634 162.588 94.5876 162.535C94.2118 162.481 93.8502 162.354 93.5233 162.161C93.1965 161.967 92.9108 161.711 92.6827 161.407C92.4546 161.103 92.2885 160.756 92.1938 160.388C92.0992 160.019 92.0779 159.636 92.1311 159.259C92.1843 158.882 92.311 158.519 92.504 158.192C92.697 157.864 92.9524 157.577 93.2558 157.349C93.5592 157.12 93.9045 156.953 94.2721 156.858L154.1 141.41C154.468 141.315 154.851 141.293 155.226 141.347C155.602 141.4 155.964 141.527 156.291 141.721C156.618 141.914 156.903 142.17 157.131 142.475C157.359 142.779 157.525 143.125 157.62 143.494C157.715 143.862 157.736 144.246 157.683 144.623C157.63 145 157.503 145.362 157.31 145.69C157.117 146.018 156.862 146.304 156.558 146.533C156.255 146.762 155.909 146.928 155.542 147.023Z" fill="#CCCCCC"/>
<path d="M169.52 153.514L98.1462 171.944C97.4039 172.136 96.616 172.024 95.9559 171.633C95.2959 171.242 94.8176 170.605 94.6265 169.86C94.4353 169.116 94.5469 168.326 94.9366 167.664C95.3264 167.002 95.9624 166.523 96.7047 166.331L168.079 147.901C168.821 147.71 169.608 147.822 170.268 148.213C170.927 148.604 171.405 149.241 171.596 149.985C171.787 150.729 171.676 151.519 171.287 152.181C170.897 152.842 170.262 153.322 169.52 153.514Z" fill="#CCCCCC"/>
<path d="M71.2952 181.078C76.9371 181.078 81.5108 176.492 81.5108 170.835C81.5108 165.177 76.9371 160.591 71.2952 160.591C65.6533 160.591 61.0796 165.177 61.0796 170.835C61.0796 176.492 65.6533 181.078 71.2952 181.078Z" fill="#E6E6E6"/>
<path d="M149.181 120.215L69.7227 140.725C67.4263 141.315 64.9904 140.967 62.9492 139.758C60.9081 138.55 59.4284 136.578 58.8349 134.277L42.1834 69.4126C41.5951 67.1099 41.9416 64.6672 43.1471 62.6205C44.3525 60.5737 46.3184 59.09 48.6134 58.4949L128.071 37.985C130.368 37.395 132.804 37.7425 134.845 38.9513C136.886 40.16 138.366 42.1313 138.959 44.4326L155.611 109.297C156.199 111.6 155.852 114.042 154.647 116.089C153.441 118.136 151.476 119.62 149.181 120.215Z" fill="white"/>
<path d="M149.181 120.215L69.7227 140.725C67.4263 141.315 64.9904 140.967 62.9492 139.758C60.9081 138.55 59.4284 136.578 58.8349 134.277L42.1834 69.4126C41.5951 67.1099 41.9416 64.6672 43.1471 62.6205C44.3525 60.5737 46.3184 59.09 48.6134 58.4949L128.071 37.985C130.368 37.395 132.804 37.7425 134.845 38.9513C136.886 40.16 138.366 42.1313 138.959 44.4326L155.611 109.297C156.199 111.6 155.852 114.042 154.647 116.089C153.441 118.136 151.476 119.62 149.181 120.215ZM48.8756 59.5163C46.8506 60.0415 45.116 61.3507 44.0524 63.1566C42.9888 64.9626 42.683 67.1179 43.2021 69.1496L59.8536 134.014C60.3773 136.045 61.6829 137.784 63.4839 138.851C65.2849 139.917 67.4343 140.224 69.4605 139.703L148.918 119.193C150.943 118.668 152.678 117.359 153.742 115.553C154.805 113.747 155.111 111.592 154.592 109.56L137.94 44.6955C137.417 42.665 136.111 40.9256 134.31 39.8591C132.509 38.7925 130.36 38.4859 128.334 39.0065L48.8756 59.5163Z" fill="#E6E6E6"/>
<path d="M124.04 59.7948L83.939 70.1459C83.5884 70.244 83.2137 70.205 82.8907 70.0368C82.5677 69.8685 82.3204 69.5836 82.1989 69.2395C82.1423 69.0598 82.1229 68.8704 82.1417 68.6829C82.1606 68.4953 82.2173 68.3136 82.3085 68.1488C82.3997 67.984 82.5234 67.8396 82.6721 67.7243C82.8208 67.6091 82.9914 67.5254 83.1734 67.4784L123.994 56.9417C125.643 57.7795 125.209 59.4931 124.04 59.7949L124.04 59.7948Z" fill="#F2F2F2"/>
<path d="M125.851 66.848L85.7495 77.1991C85.3989 77.2972 85.0243 77.2582 84.7012 77.09C84.3782 76.9217 84.131 76.6368 84.0094 76.2927C83.9529 76.113 83.9334 75.9236 83.9523 75.7361C83.9711 75.5486 84.0279 75.3669 84.1191 75.2021C84.2103 75.0373 84.334 74.8928 84.4827 74.7776C84.6314 74.6623 84.8019 74.5786 84.9839 74.5316L125.805 63.9949C127.454 64.8327 127.02 66.5463 125.85 66.8481L125.851 66.848Z" fill="#F2F2F2"/>
<path d="M78.1111 83.4532L65.8726 86.6123C65.4729 86.715 65.0489 86.6545 64.6936 86.4441C64.3383 86.2337 64.0807 85.8906 63.9775 85.49L60.2597 71.0079C60.1573 70.6071 60.2176 70.1819 60.4274 69.8256C60.6372 69.4693 60.9794 69.2111 61.3789 69.1075L73.6175 65.9485C74.0172 65.8459 74.4411 65.9064 74.7964 66.1168C75.1517 66.3272 75.4092 66.6702 75.5126 67.0707L79.2303 81.5529C79.3328 81.9537 79.2725 82.3789 79.0627 82.7352C78.8528 83.0914 78.5106 83.3497 78.1111 83.4532V83.4532Z" fill="#E6E6E6"/>
<path d="M129.441 81.3201L68.2393 97.1177C67.8887 97.2159 67.514 97.1769 67.191 97.0086C66.868 96.8404 66.6207 96.5554 66.4992 96.2114C66.4426 96.0316 66.4232 95.8422 66.442 95.6547C66.4609 95.4672 66.5176 95.2855 66.6088 95.1207C66.7 94.9559 66.8237 94.8115 66.9724 94.6962C67.1211 94.5809 67.2917 94.4972 67.4737 94.4503L129.396 78.4668C131.045 79.3046 130.611 81.0182 129.441 81.3201L129.441 81.3201Z" fill="#F2F2F2"/>
<path d="M131.253 88.3755L70.0508 104.173C69.7002 104.271 69.3256 104.232 69.0025 104.064C68.6795 103.896 68.4323 103.611 68.3107 103.267C68.2542 103.087 68.2347 102.898 68.2536 102.71C68.2724 102.523 68.3291 102.341 68.4203 102.176C68.5115 102.011 68.6353 101.867 68.784 101.752C68.9327 101.636 69.1032 101.553 69.2852 101.506L131.207 85.5222C132.856 86.36 132.422 88.0736 131.253 88.3755V88.3755Z" fill="#F2F2F2"/>
<path d="M133.063 95.4265L71.8609 111.224C71.5103 111.322 71.1356 111.283 70.8126 111.115C70.4896 110.947 70.2423 110.662 70.1208 110.318C70.0642 110.138 70.0448 109.949 70.0636 109.761C70.0825 109.574 70.1392 109.392 70.2304 109.227C70.3216 109.062 70.4453 108.918 70.594 108.803C70.7427 108.687 70.9133 108.604 71.0953 108.557L133.017 92.5732C134.666 93.4111 134.232 95.1247 133.063 95.4265Z" fill="#F2F2F2"/>
<path d="M134.874 102.481L73.6719 118.279C73.3213 118.377 72.9467 118.338 72.6236 118.17C72.3006 118.001 72.0533 117.716 71.9318 117.372C71.8753 117.193 71.8558 117.003 71.8746 116.816C71.8935 116.628 71.9502 116.447 72.0414 116.282C72.1326 116.117 72.2563 115.973 72.405 115.857C72.5537 115.742 72.7243 115.658 72.9063 115.611L134.828 99.6279C136.477 100.466 136.043 102.179 134.874 102.481L134.874 102.481Z" fill="#F2F2F2"/>
<path d="M136.684 109.533L75.482 125.33C75.1314 125.428 74.7567 125.389 74.4337 125.221C74.1107 125.053 73.8634 124.768 73.7419 124.424C73.6853 124.244 73.6659 124.055 73.6847 123.867C73.7036 123.68 73.7603 123.498 73.8515 123.333C73.9427 123.169 74.0664 123.024 74.2151 122.909C74.3638 122.794 74.5344 122.71 74.7164 122.663L136.638 106.679C138.287 107.517 137.853 109.231 136.684 109.533Z" fill="#F2F2F2"/>
<path d="M72.0489 174.425C71.8264 174.483 71.5912 174.467 71.3788 174.379L71.3656 174.373L68.5827 173.19C68.4535 173.136 68.3364 173.056 68.238 172.956C68.1396 172.855 68.062 172.737 68.0094 172.606C67.9568 172.476 67.9304 172.336 67.9317 172.196C67.9329 172.055 67.9618 171.916 68.0167 171.787C68.0716 171.657 68.1514 171.54 68.2515 171.441C68.3516 171.343 68.4701 171.265 68.6003 171.213C68.7304 171.16 68.8695 171.134 69.0098 171.135C69.15 171.137 69.2886 171.166 69.4176 171.221L71.2209 171.99L73.5839 166.416C73.6387 166.287 73.7184 166.17 73.8183 166.072C73.9183 165.973 74.0366 165.896 74.1665 165.843C74.2963 165.79 74.4353 165.764 74.5753 165.765C74.7154 165.767 74.8538 165.796 74.9827 165.851L74.983 165.851L74.9688 165.887L74.9836 165.851C75.2437 165.962 75.4492 166.172 75.5549 166.435C75.6607 166.698 75.658 166.992 75.5476 167.254L72.7675 173.808C72.703 173.959 72.6047 174.093 72.4802 174.2C72.3557 174.307 72.2083 174.383 72.0494 174.424L72.0489 174.425Z" fill="white"/>
<path d="M243.239 245.092H107.544C102.942 245.086 98.5306 243.251 95.2768 239.988C92.023 236.726 90.1927 232.302 90.1875 227.688V67.8872C90.1927 63.2729 92.023 58.8492 95.2768 55.5864C98.5306 52.3237 102.942 50.4884 107.544 50.4832H233.786L260.595 71.9106V227.688C260.59 232.302 258.76 236.726 255.506 239.988C252.252 243.251 247.841 245.086 243.239 245.092Z" fill="#E6E6E6"/>
<path d="M107.544 55.4934C104.267 55.4971 101.125 56.8041 98.8083 59.1275C96.4912 61.451 95.1878 64.6013 95.1841 67.8872V227.688C95.1878 230.974 96.4912 234.124 98.8083 236.447C101.125 238.771 104.267 240.078 107.544 240.081H243.239C246.516 240.078 249.658 238.771 251.975 236.447C254.292 234.124 255.595 230.974 255.599 227.688V74.3243L232.038 55.4934H107.544Z" fill="white"/>
<path d="M216.846 101.959H155.066C154.3 101.959 153.564 101.654 153.022 101.11C152.48 100.567 152.176 99.8295 152.176 99.0608C152.176 98.2922 152.48 97.555 153.022 97.0115C153.564 96.4679 154.3 96.1626 155.066 96.1626H216.846C217.613 96.1626 218.348 96.4679 218.89 97.0115C219.432 97.555 219.736 98.2922 219.736 99.0608C219.736 99.8295 219.432 100.567 218.89 101.11C218.348 101.654 217.613 101.959 216.846 101.959Z" fill="#5F97CA"/>
<path d="M228.769 111.741H155.066C154.3 111.74 153.566 111.434 153.025 110.891C152.484 110.347 152.18 109.611 152.18 108.843C152.18 108.075 152.484 107.338 153.025 106.795C153.566 106.251 154.3 105.945 155.066 105.944H228.769C229.149 105.944 229.525 106.018 229.876 106.164C230.227 106.309 230.546 106.523 230.815 106.792C231.084 107.061 231.297 107.381 231.443 107.733C231.588 108.084 231.663 108.462 231.663 108.843C231.663 109.223 231.588 109.601 231.443 109.953C231.297 110.304 231.084 110.624 230.815 110.893C230.546 111.162 230.227 111.376 229.876 111.521C229.525 111.667 229.149 111.741 228.769 111.741Z" fill="#5F97CA"/>
<path d="M216.846 139.997H155.068C154.302 139.997 153.567 140.302 153.025 140.845C152.483 141.389 152.178 142.126 152.178 142.895C152.178 143.663 152.483 144.4 153.025 144.944C153.567 145.487 154.302 145.793 155.068 145.793H216.846C217.613 145.793 218.348 145.487 218.89 144.944C219.432 144.4 219.737 143.663 219.737 142.895C219.737 142.126 219.432 141.389 218.89 140.845C218.348 140.302 217.613 139.997 216.846 139.997Z" fill="#CCCCCC"/>
<path d="M228.77 149.78H155.068C154.302 149.78 153.567 150.085 153.025 150.629C152.483 151.172 152.178 151.909 152.178 152.678C152.178 153.447 152.483 154.184 153.025 154.727C153.567 155.271 154.302 155.576 155.068 155.576H228.77C229.536 155.576 230.271 155.271 230.813 154.727C231.355 154.184 231.66 153.447 231.66 152.678C231.66 151.909 231.355 151.172 230.813 150.629C230.271 150.085 229.536 149.78 228.77 149.78Z" fill="#CCCCCC"/>
<path d="M216.846 189.631H155.066C154.3 189.631 153.564 189.325 153.022 188.782C152.48 188.238 152.176 187.501 152.176 186.732C152.176 185.964 152.48 185.227 153.022 184.683C153.564 184.14 154.3 183.834 155.066 183.834H216.846C217.613 183.834 218.348 184.14 218.89 184.683C219.432 185.227 219.736 185.964 219.736 186.732C219.736 187.501 219.432 188.238 218.89 188.782C218.348 189.325 217.613 189.631 216.846 189.631Z" fill="#CCCCCC"/>
<path d="M228.769 199.412H155.066C154.3 199.411 153.566 199.105 153.025 198.562C152.484 198.019 152.18 197.282 152.18 196.514C152.18 195.746 152.484 195.009 153.025 194.466C153.566 193.923 154.3 193.617 155.066 193.616H228.769C229.149 193.615 229.525 193.69 229.876 193.835C230.227 193.981 230.546 194.194 230.815 194.463C231.084 194.732 231.297 195.052 231.443 195.404C231.588 195.756 231.663 196.133 231.663 196.514C231.663 196.895 231.588 197.272 231.443 197.624C231.297 197.976 231.084 198.296 230.815 198.565C230.546 198.834 230.227 199.047 229.876 199.193C229.525 199.338 229.149 199.413 228.769 199.412Z" fill="#CCCCCC"/>
<path d="M129.339 114.195C134.981 114.195 139.555 109.609 139.555 103.952C139.555 98.2943 134.981 93.708 129.339 93.708C123.697 93.708 119.124 98.2943 119.124 103.952C119.124 109.609 123.697 114.195 129.339 114.195Z" fill="#5F97CA"/>
<path d="M128.327 107.859C128.097 107.86 127.874 107.785 127.69 107.647L127.678 107.638L125.278 105.797C125.166 105.711 125.072 105.605 125.002 105.483C124.932 105.362 124.886 105.227 124.867 105.088C124.849 104.948 124.858 104.806 124.894 104.67C124.93 104.535 124.993 104.407 125.078 104.295C125.163 104.184 125.27 104.09 125.391 104.02C125.513 103.95 125.647 103.904 125.786 103.886C125.925 103.867 126.067 103.877 126.202 103.913C126.338 103.95 126.465 104.013 126.576 104.099L128.131 105.295L131.805 100.487C131.891 100.376 131.997 100.282 132.118 100.212C132.239 100.142 132.373 100.096 132.512 100.078C132.651 100.059 132.792 100.069 132.927 100.105C133.063 100.141 133.19 100.204 133.301 100.289L133.301 100.29L133.278 100.321L133.302 100.29C133.526 100.462 133.673 100.717 133.71 100.998C133.747 101.28 133.671 101.564 133.499 101.789L129.177 107.441C129.077 107.571 128.948 107.677 128.801 107.749C128.654 107.821 128.492 107.859 128.328 107.858L128.327 107.859Z" fill="white"/>
<path d="M140.605 147.786C140.605 149.132 140.342 150.464 139.828 151.707C139.315 152.95 138.563 154.08 137.615 155.031C136.666 155.983 135.54 156.738 134.301 157.253C133.061 157.768 131.733 158.033 130.391 158.034C130.303 158.035 130.215 158.032 130.128 158.023C128.119 157.971 126.17 157.327 124.525 156.17C122.88 155.013 121.612 153.396 120.879 151.52C120.146 149.644 119.981 147.593 120.405 145.623C120.828 143.654 121.822 141.853 123.261 140.447C124.7 139.041 126.521 138.092 128.495 137.718C130.47 137.344 132.51 137.563 134.361 138.346C136.213 139.13 137.792 140.443 138.903 142.122C140.013 143.801 140.605 145.771 140.605 147.786Z" fill="#CCCCCC"/>
<path d="M129.339 201.867C134.981 201.867 139.555 197.281 139.555 191.623C139.555 185.966 134.981 181.38 129.339 181.38C123.697 181.38 119.124 185.966 119.124 191.623C119.124 197.281 123.697 201.867 129.339 201.867Z" fill="#CCCCCC"/>
<path d="M260.073 72.6003H239.073C237.539 72.6003 236.069 71.9896 234.985 70.9026C233.901 69.8155 233.292 68.3412 233.292 66.8038V51.2505C233.292 51.1824 233.311 51.1157 233.347 51.058C233.383 51.0003 233.435 50.954 233.496 50.9243C233.557 50.8947 233.625 50.8829 233.693 50.8904C233.76 50.8978 233.824 50.9242 233.878 50.9665L260.298 71.9541C260.356 72.0008 260.399 72.0647 260.42 72.1369C260.441 72.2091 260.439 72.2861 260.414 72.3571C260.39 72.4282 260.344 72.4898 260.283 72.5333C260.221 72.5769 260.148 72.6003 260.073 72.6003Z" fill="#CCCCCC"/>
<path d="M140.605 147.787C140.605 149.132 140.342 150.464 139.829 151.707C139.315 152.951 138.563 154.08 137.615 155.032C136.666 155.983 135.54 156.738 134.301 157.253C133.061 157.768 131.733 158.034 130.391 158.034C130.303 158.036 130.215 158.032 130.128 158.023C128.808 154.723 128.299 151.152 128.645 147.613C128.99 144.073 130.178 140.669 132.111 137.687C134.487 138.095 136.643 139.333 138.197 141.181C139.752 143.029 140.604 145.369 140.605 147.787Z" fill="#5F97CA"/>
<path d="M152.176 142.897C152.177 142.128 152.482 141.391 153.025 140.848C153.567 140.304 154.302 139.998 155.069 139.997H170.463C171.362 141.83 172.001 143.781 172.362 145.793H155.069C154.302 145.792 153.567 145.488 153.025 144.945C152.483 144.402 152.177 143.666 152.176 142.897Z" fill="#5F97CA"/>
<path d="M172.719 149.78C172.72 151.738 172.462 153.687 171.951 155.576H155.068C154.302 155.576 153.567 155.271 153.025 154.727C152.483 154.184 152.178 153.447 152.178 152.678C152.178 151.909 152.483 151.172 153.025 150.629C153.567 150.085 154.302 149.78 155.068 149.78H172.719Z" fill="#5F97CA"/>
<path d="M210.809 185.525C210.374 186.242 209.672 186.755 208.858 186.953C208.045 187.151 207.187 187.016 206.472 186.579L169.653 164.059C169.299 163.843 168.991 163.559 168.747 163.223C168.503 162.887 168.327 162.507 168.229 162.103C168.132 161.699 168.114 161.28 168.178 160.869C168.242 160.459 168.386 160.065 168.602 159.71C168.818 159.355 169.101 159.046 169.436 158.802C169.771 158.557 170.151 158.38 170.553 158.282C170.956 158.184 171.374 158.167 171.784 158.231C172.193 158.295 172.586 158.44 172.94 158.656L209.759 181.176C210.473 181.613 210.985 182.317 211.182 183.133C211.379 183.948 211.245 184.809 210.809 185.525Z" fill="#3F3D56"/>
<path d="M173.991 163.005C171.391 167.28 167.585 170.685 163.055 172.791C158.525 174.896 153.473 175.607 148.54 174.834C143.607 174.061 139.013 171.839 135.34 168.448C131.666 165.057 129.078 160.65 127.902 155.784C126.727 150.917 127.016 145.811 128.735 141.11C130.453 136.409 133.523 132.325 137.557 129.374C141.59 126.422 146.406 124.737 151.395 124.53C156.384 124.323 161.322 125.604 165.584 128.211C171.294 131.713 175.386 137.342 176.962 143.865C178.538 150.388 177.47 157.272 173.991 163.005ZM136.274 139.936C134.323 143.142 133.365 146.856 133.52 150.608C133.675 154.359 134.936 157.981 137.143 161.015C139.35 164.048 142.405 166.357 145.921 167.649C149.437 168.942 153.257 169.16 156.896 168.275C160.536 167.391 163.832 165.445 166.368 162.682C168.905 159.919 170.567 156.464 171.145 152.754C171.723 149.044 171.191 145.246 169.617 141.839C168.042 138.432 165.495 135.57 162.298 133.614C158.009 130.998 152.861 130.194 147.982 131.379C143.103 132.564 138.892 135.642 136.274 139.936Z" fill="#3F3D56"/>
<path d="M254.877 153.882C262.012 153.882 267.795 148.083 267.795 140.929C267.795 133.775 262.012 127.976 254.877 127.976C247.743 127.976 241.959 133.775 241.959 140.929C241.959 148.083 247.743 153.882 254.877 153.882Z" fill="#A0616A"/>
<path d="M254.042 213.546C253.793 212.768 253.711 211.946 253.801 211.133C253.891 210.321 254.151 209.536 254.564 208.832C254.978 208.127 255.535 207.518 256.199 207.044C256.863 206.571 257.62 206.243 258.42 206.083C258.673 206.033 258.929 206.002 259.187 205.988L272.794 184.089L260.365 172.24C259.89 171.788 259.509 171.245 259.245 170.644C258.98 170.043 258.837 169.395 258.823 168.738C258.809 168.081 258.926 167.428 259.165 166.816C259.405 166.205 259.763 165.647 260.219 165.175C260.674 164.703 261.219 164.326 261.821 164.066C262.423 163.806 263.07 163.668 263.725 163.661C264.38 163.653 265.03 163.776 265.638 164.021C266.246 164.267 266.799 164.631 267.266 165.093L284.427 182.061L284.462 182.103C284.992 182.913 285.249 183.873 285.192 184.841C285.136 185.808 284.77 186.732 284.149 187.474L265.083 210.085C265.14 210.267 265.188 210.451 265.225 210.637C265.385 211.439 265.373 212.265 265.192 213.062C265.011 213.859 264.664 214.609 264.173 215.262C263.683 215.915 263.06 216.457 262.347 216.852C261.633 217.247 260.844 217.486 260.032 217.554C259.867 217.569 259.704 217.576 259.541 217.576C258.318 217.571 257.128 217.179 256.141 216.455C255.153 215.731 254.419 214.713 254.042 213.546Z" fill="#A0616A"/>
<path d="M233.601 321.207L227.153 321.207L224.086 296.267L233.603 296.268L233.601 321.207Z" fill="#A0616A"/>
<path d="M235.246 327.475L214.455 327.474V327.21C214.455 326.144 214.664 325.089 215.071 324.105C215.477 323.12 216.073 322.226 216.825 321.472C217.576 320.719 218.468 320.121 219.45 319.713C220.432 319.305 221.484 319.095 222.547 319.095H222.548L235.246 319.096L235.246 327.475Z" fill="#2F2E41"/>
<path d="M297.692 312.267L292.151 315.575L276.791 295.721L284.968 290.839L297.692 312.267Z" fill="#A0616A"/>
<path d="M302.302 316.809L284.438 327.474L284.303 327.248C283.76 326.332 283.401 325.318 283.248 324.264C283.095 323.209 283.151 322.135 283.412 321.102C283.674 320.069 284.135 319.098 284.771 318.243C285.406 317.389 286.203 316.669 287.116 316.124L287.117 316.124L298.028 309.61L302.302 316.809Z" fill="#2F2E41"/>
<path d="M223.272 310.224C218.953 259.222 216.383 211.841 232.174 192.513L232.296 192.363L258.87 203.022L258.914 203.117C259.003 203.313 267.841 222.807 265.779 235.918L272.334 266.153L293.707 302.037C293.879 302.326 293.987 302.648 294.026 302.983C294.064 303.317 294.031 303.656 293.929 303.976C293.827 304.297 293.659 304.592 293.434 304.842C293.21 305.092 292.935 305.292 292.628 305.427L283.34 309.525C282.816 309.754 282.227 309.785 281.682 309.614C281.136 309.443 280.67 309.081 280.369 308.594L257.12 270.579L243.988 241.422C243.917 241.263 243.796 241.133 243.643 241.051C243.491 240.968 243.315 240.939 243.144 240.966C242.973 240.994 242.816 241.077 242.697 241.203C242.578 241.329 242.503 241.491 242.485 241.664L235.205 310.276C235.145 310.859 234.87 311.399 234.436 311.791C234.001 312.183 233.437 312.399 232.852 312.398H225.632C225.039 312.395 224.469 312.17 224.033 311.768C223.597 311.366 223.326 310.816 223.272 310.224Z" fill="#2F2E41"/>
<path d="M232.263 192.917L232.137 192.856L232.117 192.717C231.124 185.75 232.299 178.009 235.609 169.709C237.24 165.647 240.273 162.308 244.154 160.3C248.035 158.292 252.506 157.749 256.753 158.769C259.2 159.374 261.494 160.481 263.491 162.021C265.489 163.561 267.145 165.5 268.356 167.716C269.551 169.909 270.279 172.327 270.494 174.816C270.709 177.306 270.406 179.813 269.604 182.18C265.431 194.415 260.018 205.863 259.964 205.978L259.85 206.217L232.263 192.917Z" fill="#5F97CA"/>
<path d="M203.27 175.564C203.91 175.058 204.649 174.692 205.439 174.492C206.23 174.292 207.054 174.262 207.857 174.403C208.66 174.545 209.424 174.855 210.099 175.313C210.774 175.771 211.345 176.367 211.774 177.062C211.909 177.282 212.029 177.512 212.132 177.75L237.353 182.861L244.069 167.038C244.325 166.433 244.699 165.885 245.167 165.426C245.636 164.967 246.191 164.606 246.8 164.363C247.409 164.12 248.06 164.001 248.715 164.011C249.37 164.022 250.017 164.163 250.617 164.426C251.218 164.689 251.761 165.068 252.214 165.542C252.668 166.017 253.023 166.576 253.259 167.189C253.496 167.802 253.609 168.455 253.593 169.112C253.576 169.769 253.429 170.416 253.162 171.016L243.321 193.077L243.294 193.124C242.723 193.907 241.916 194.483 240.993 194.769C240.069 195.055 239.078 195.035 238.167 194.712L210.369 184.722C210.22 184.839 210.064 184.948 209.904 185.049C209.211 185.479 208.435 185.758 207.627 185.867C206.819 185.976 205.997 185.912 205.215 185.68C204.433 185.449 203.709 185.054 203.09 184.522C202.471 183.99 201.971 183.332 201.623 182.593C201.552 182.444 201.488 182.293 201.431 182.14C201.008 180.99 200.958 179.734 201.288 178.553C201.618 177.373 202.312 176.326 203.27 175.564Z" fill="#A0616A"/>
<path d="M301.544 154.801C300.3 152.59 298.487 150.565 296.09 149.748C292.995 148.692 289.644 149.816 286.462 150.566C284.01 151.144 281.449 151.498 278.977 151.01C276.506 150.523 274.123 149.08 272.998 146.821C271.344 143.496 272.738 139.532 272.637 135.818C272.585 133.796 272.076 131.813 271.149 130.017C270.222 128.221 268.9 126.66 267.283 125.45C265.666 124.241 263.797 123.416 261.816 123.037C259.835 122.657 257.794 122.734 255.847 123.26C252.8 122.379 250.041 122.297 248.156 124.646C245.785 124.646 243.51 125.59 241.834 127.272C240.157 128.953 239.215 131.234 239.215 133.612H247.764C247.359 135.798 247.822 138.056 249.055 139.904C250.564 142.127 253.189 143.736 253.694 146.377C254.184 148.937 252.448 151.366 250.628 153.226C248.808 155.087 246.697 156.931 246.128 159.474C245.78 161.405 246.175 163.396 247.235 165.046C248.292 166.675 249.604 168.124 251.119 169.336C257.949 175.204 266.066 179.367 274.807 181.488C280.963 182.974 287.696 183.359 293.41 180.625C295.696 179.532 297.734 177.978 299.396 176.062C301.058 174.145 302.309 171.907 303.072 169.485C303.835 167.063 304.093 164.509 303.83 161.983C303.567 159.457 302.789 157.012 301.544 154.801Z" fill="#2F2E41"/>
<path d="M303.474 328.023H203.544C203.404 328.023 203.27 327.968 203.172 327.869C203.073 327.77 203.018 327.636 203.018 327.496C203.018 327.356 203.073 327.222 203.172 327.123C203.27 327.024 203.404 326.969 203.544 326.969H303.474C303.614 326.969 303.747 327.024 303.846 327.123C303.945 327.222 304 327.356 304 327.496C304 327.636 303.945 327.77 303.846 327.869C303.747 327.968 303.614 328.023 303.474 328.023Z" fill="#CCCCCC"/>
</g>
<defs>
<clipPath id="clip0">
<rect width="304" height="328" fill="white" transform="translate(0 0.0234375)"/>
</clipPath>
</defs>
</svg>
