<svg width="397" height="240" viewBox="0 0 397 240" fill="none" xmlns="http://www.w3.org/2000/svg">
<g clip-path="url(#clip0)">
<path d="M26.0327 175.255L23.6487 165.858C19.4215 164.068 15.0966 162.517 10.6946 161.214L10.3936 165.581L9.17301 160.77C3.71386 159.212 0 158.525 0 158.525C0 158.525 5.01657 177.59 15.5385 192.165L27.7988 194.317L18.2741 195.69C19.5982 197.282 21.0212 198.789 22.5346 200.202C37.841 214.401 54.8894 220.915 60.6134 214.753C66.3373 208.59 58.5692 192.084 43.2628 177.885C38.5176 173.483 32.5568 169.951 26.5899 167.171L26.0327 175.255Z" fill="#E6E6E6"/>
<path d="M48.7069 165.05L51.5265 155.775C48.8338 152.058 45.9336 148.497 42.8395 145.107L40.323 148.69L41.7667 143.94C37.8992 139.787 35.0749 137.281 35.0749 137.281C35.0749 137.281 29.5086 156.192 30.9772 174.105L40.3594 182.281L31.496 178.535C31.8062 180.582 32.2448 182.607 32.8094 184.599C38.5684 204.661 49.7932 219.044 57.8807 216.726C65.9682 214.407 67.8557 196.264 62.0967 176.202C60.3113 169.983 57.0356 163.88 53.3656 158.417L48.7069 165.05Z" fill="#E6E6E6"/>
<path d="M397 218.121H0.0351562V219.122H397V218.121Z" fill="white"/>
<path d="M62.7529 114.458C62.7529 114.458 59.6616 151.605 58.9978 159.565C58.5427 164.554 57.4267 169.462 55.6791 174.158C55.6791 174.158 54.3516 176.811 54.3516 179.465V213.294C54.3516 213.294 51.6967 213.294 52.3604 215.947C53.0242 218.601 53.6879 223.244 53.6879 223.244H63.644C63.644 223.244 62.9803 221.254 64.9715 220.591C66.9627 219.927 64.9715 214.621 64.9715 214.621L75.5913 174.821L91.521 141.655C91.521 141.655 100.813 171.505 102.805 174.821C102.805 174.821 110.106 211.968 111.433 215.284C112.761 218.601 113.424 218.601 112.761 219.927C112.097 221.254 112.097 222.581 112.761 223.244C113.424 223.907 126.035 223.244 126.035 223.244L122.717 176.148L116.743 119.765L86.2111 110.479L62.7529 114.458Z" fill="#2F2E41"/>
<path d="M60.9895 217.937C60.9895 217.937 57.6708 205.998 52.3609 215.284C47.051 224.571 47.051 227.887 47.051 227.887C47.051 227.887 38.4224 240.491 50.3697 239.164C62.317 237.837 59.662 231.867 59.662 231.867C59.662 231.867 64.3082 229.214 64.3082 227.224C64.3082 225.234 60.9895 217.937 60.9895 217.937Z" fill="#2F2E41"/>
<path d="M114.752 216.611C114.752 216.611 118.071 204.671 123.381 213.957C128.691 223.244 128.691 226.561 128.691 226.561C128.691 226.561 137.319 239.164 125.372 237.837C113.425 236.511 116.08 230.541 116.08 230.541C116.08 230.541 111.434 227.887 111.434 225.897C111.434 223.907 114.752 216.611 114.752 216.611Z" fill="#2F2E41"/>
<path d="M83.5571 24.9094C83.5571 24.9094 84.8846 33.5327 80.9022 35.5226C76.9197 37.5126 89.5308 44.8092 92.8495 44.8092C96.1682 44.8092 102.142 38.176 102.142 38.176C102.142 38.176 98.8231 28.2261 99.4869 26.2361L83.5571 24.9094Z" fill="#A0616A"/>
<path d="M90.8575 31.5428C98.5555 31.5428 104.796 25.3062 104.796 17.613C104.796 9.91972 98.5555 3.68311 90.8575 3.68311C83.1594 3.68311 76.9189 9.91972 76.9189 17.613C76.9189 25.3062 83.1594 31.5428 90.8575 31.5428Z" fill="#A0616A"/>
<path d="M118.071 46.1359L101.479 36.0891C101.479 36.0891 92.0376 46.7993 81.8237 34.8594L64.3086 39.5027L66.9636 84.6089C66.9636 84.6089 62.9811 102.519 64.3086 105.835C65.6361 109.152 60.9899 110.479 62.3174 111.142C63.6448 111.805 62.3174 116.449 62.3174 116.449C62.3174 116.449 88.2032 129.715 116.744 119.765L114.089 111.142C114.45 110.015 114.518 108.814 114.286 107.653C114.054 106.493 113.529 105.41 112.762 104.509C112.762 104.509 115.416 100.529 112.098 97.2121C112.098 97.2121 113.425 91.2421 110.107 88.5888L109.443 79.3023L111.434 74.659L118.071 46.1359Z" fill="#CFCCE0"/>
<path d="M83.7247 11.1448C83.7247 11.1448 82.0629 14.7388 88.71 13.3012C88.71 13.3012 91.2026 14.7388 91.2026 12.5824C91.2026 12.5824 94.5261 16.1764 95.357 14.02C96.1879 11.8636 97.8497 14.7388 97.8497 14.7388L99.5114 11.1448L101.173 13.3012H106.989C106.989 13.3012 108.651 -1.07483 88.7099 0.362775C68.7689 1.80038 78.5789 24.5777 78.5789 24.5777C78.5789 24.5777 78.7394 20.4892 80.4012 22.6456C82.0629 24.802 83.7247 11.1448 83.7247 11.1448Z" fill="#2F2E41"/>
<path d="M124.045 72.6692L124.708 86.5991C124.708 86.5991 127.363 112.469 122.053 123.745V129.715C122.053 129.715 120.726 144.972 114.089 144.308C107.451 143.645 116.08 122.419 116.08 122.419L114.752 93.2323L113.425 76.6491L124.045 72.6692Z" fill="#A0616A"/>
<path d="M110.77 46.7989L117.391 45.7239C122.16 50.3037 125.409 56.2355 126.699 62.7188C128.69 73.332 129.354 75.322 129.354 75.322L113.425 79.3019L104.796 62.7188L110.77 46.7989Z" fill="#CFCCE0"/>
<path d="M187.006 39.229H82.2617V91.2288H187.006V39.229Z" fill="white"/>
<path d="M93.6985 42.3562C91.0075 40.7389 87.7628 40.8624 86.5293 40.986C86.999 42.1321 88.4085 45.0556 91.0995 46.6736C93.797 48.295 97.0374 48.1677 98.2691 48.045C97.7995 46.8993 96.3899 43.9747 93.6985 42.3562Z" fill="#5F97CA"/>
<path d="M106.344 74.4478H89.5247C89.0274 74.4472 88.5349 74.5446 88.0753 74.7344C87.6157 74.9243 87.198 75.2028 86.8462 75.554C86.4943 75.9052 86.2152 76.3223 86.0248 76.7814C85.8343 77.2405 85.7363 77.7327 85.7363 78.2297C85.7363 78.7267 85.8343 79.2188 86.0248 79.6779C86.2152 80.137 86.4943 80.5541 86.8462 80.9053C87.198 81.2565 87.6157 81.535 88.0753 81.7249C88.5349 81.9147 89.0274 82.0121 89.5247 82.0115H106.344C106.841 82.0121 107.333 81.9147 107.793 81.7249C108.253 81.535 108.67 81.2565 109.022 80.9053C109.374 80.5541 109.653 80.137 109.844 79.6779C110.034 79.2188 110.132 78.7267 110.132 78.2297C110.132 77.7327 110.034 77.2405 109.844 76.7814C109.653 76.3223 109.374 75.9052 109.022 75.554C108.67 75.2028 108.253 74.9243 107.793 74.7344C107.333 74.5446 106.841 74.4472 106.344 74.4478Z" fill="#5F97CA"/>
<path d="M182.506 34.5276H88.2077C87.1107 34.5276 86.0245 34.7435 85.011 35.163C83.9976 35.5826 83.0767 36.1975 82.3011 36.9726C81.5254 37.7478 80.9101 38.6681 80.4903 39.6809C80.0705 40.6938 79.8545 41.7793 79.8545 42.8756V88.7912C79.8545 91.0052 80.7346 93.1285 82.3011 94.6941C83.8676 96.2596 85.9923 97.1391 88.2077 97.1391H182.506C184.722 97.1391 186.846 96.2596 188.413 94.6941C189.979 93.1285 190.859 91.0052 190.859 88.7912V42.8756C190.859 41.7793 190.643 40.6938 190.224 39.6809C189.804 38.6681 189.188 37.7478 188.413 36.9726C187.637 36.1975 186.716 35.5826 185.703 35.163C184.689 34.7435 183.603 34.5276 182.506 34.5276ZM85.8746 40.2222C86.0608 40.1885 90.4764 39.4376 94.1327 41.6363C97.7889 43.8346 99.1936 48.0856 99.2515 48.2653L99.3993 48.7237L98.9248 48.8078C98.2479 48.9134 97.5636 48.9636 96.8785 48.958C94.7052 48.9995 92.5604 48.4593 90.6665 47.3933C87.0103 45.1954 85.6058 40.9444 85.5479 40.7647L85.4001 40.3063L85.8746 40.2222ZM106.344 82.8519H89.5254C88.2987 82.8519 87.1223 82.3649 86.2549 81.4981C85.3875 80.6312 84.9002 79.4555 84.9002 78.2296C84.9002 77.0037 85.3875 75.828 86.2549 74.9611C87.1223 74.0943 88.2987 73.6073 89.5254 73.6073H106.344C107.571 73.6073 108.747 74.0943 109.615 74.9611C110.482 75.828 110.969 77.0037 110.969 78.2296C110.969 79.4555 110.482 80.6312 109.615 81.4981C108.747 82.3649 107.571 82.8519 106.344 82.8519ZM182.87 82.0115C182.866 83.3477 182.334 84.628 181.388 85.5728C180.443 86.5176 179.162 87.0501 177.825 87.0541H165.211C163.874 87.0501 162.592 86.5176 161.647 85.5728C160.702 84.628 160.169 83.3477 160.165 82.0115V74.4477C160.169 73.1115 160.702 71.8312 161.647 70.8864C162.592 69.9416 163.874 69.4091 165.211 69.4052H177.825C179.162 69.4091 180.443 69.9416 181.388 70.8864C182.334 71.8312 182.866 73.1115 182.87 74.4477V82.0115Z" fill="#5F97CA"/>
<path d="M169.204 80.5405H163.738C163.348 80.5405 162.974 80.6955 162.698 80.9713C162.422 81.2471 162.267 81.6212 162.267 82.0113C162.267 82.4013 162.422 82.7754 162.698 83.0512C162.974 83.3271 163.348 83.482 163.738 83.482H169.204C169.595 83.482 169.969 83.3271 170.245 83.0512C170.521 82.7754 170.676 82.4013 170.676 82.0113C170.676 81.6212 170.521 81.2471 170.245 80.9713C169.969 80.6955 169.595 80.5405 169.204 80.5405ZM169.204 82.6416H163.738C163.655 82.6418 163.573 82.6257 163.496 82.5941C163.42 82.5625 163.35 82.5161 163.291 82.4576C163.232 82.399 163.186 82.3295 163.154 82.2529C163.122 82.1763 163.106 82.0942 163.106 82.0113C163.106 81.9283 163.122 81.8462 163.154 81.7697C163.186 81.6931 163.232 81.6235 163.291 81.565C163.35 81.5064 163.42 81.46 163.496 81.4284C163.573 81.3969 163.655 81.3807 163.738 81.3809H169.204C169.371 81.3814 169.531 81.448 169.649 81.5662C169.767 81.6843 169.833 81.8444 169.833 82.0113C169.833 82.1781 169.767 82.3382 169.649 82.4564C169.531 82.5745 169.371 82.6411 169.204 82.6416Z" fill="#5F97CA"/>
<path d="M179.296 80.5405H173.83C173.44 80.5405 173.065 80.6955 172.789 80.9713C172.513 81.2471 172.358 81.6212 172.358 82.0113C172.358 82.4013 172.513 82.7754 172.789 83.0512C173.065 83.3271 173.44 83.482 173.83 83.482H179.296C179.687 83.482 180.061 83.3271 180.337 83.0512C180.613 82.7754 180.768 82.4013 180.768 82.0113C180.768 81.6212 180.613 81.2471 180.337 80.9713C180.061 80.6955 179.687 80.5405 179.296 80.5405ZM179.296 82.6416H173.83C173.747 82.6418 173.665 82.6257 173.588 82.5941C173.511 82.5625 173.442 82.5161 173.383 82.4576C173.324 82.399 173.278 82.3295 173.246 82.2529C173.214 82.1763 173.198 82.0942 173.198 82.0113C173.198 81.9283 173.214 81.8462 173.246 81.7697C173.278 81.6931 173.324 81.6235 173.383 81.565C173.442 81.5064 173.511 81.46 173.588 81.4284C173.665 81.3969 173.747 81.3807 173.83 81.3809H179.296C179.463 81.3814 179.623 81.448 179.741 81.5662C179.859 81.6843 179.925 81.8444 179.925 82.0113C179.925 82.1781 179.859 82.3382 179.741 82.4564C179.623 82.5745 179.463 82.6411 179.296 82.6416Z" fill="#5F97CA"/>
<path d="M169.204 76.7588H163.738C163.348 76.7588 162.974 76.9137 162.698 77.1896C162.422 77.4654 162.267 77.8395 162.267 78.2295C162.267 78.6196 162.422 78.9937 162.698 79.2695C162.974 79.5453 163.348 79.7003 163.738 79.7003H169.204C169.595 79.7003 169.969 79.5453 170.245 79.2695C170.521 78.9937 170.676 78.6196 170.676 78.2295C170.676 77.8395 170.521 77.4654 170.245 77.1896C169.969 76.9137 169.595 76.7588 169.204 76.7588ZM169.204 78.8599H163.738C163.655 78.8599 163.573 78.8436 163.497 78.8119C163.42 78.7802 163.351 78.7338 163.292 78.6752C163.234 78.6167 163.187 78.5472 163.156 78.4707C163.124 78.3943 163.108 78.3123 163.108 78.2295C163.108 78.1468 163.124 78.0648 163.156 77.9883C163.187 77.9118 163.234 77.8424 163.292 77.7838C163.351 77.7253 163.42 77.6789 163.497 77.6472C163.573 77.6155 163.655 77.5992 163.738 77.5992H169.204C169.287 77.5992 169.369 77.6155 169.446 77.6472C169.522 77.6789 169.592 77.7253 169.65 77.7838C169.709 77.8424 169.755 77.9118 169.787 77.9883C169.819 78.0648 169.835 78.1468 169.835 78.2295C169.835 78.3123 169.819 78.3943 169.787 78.4707C169.755 78.5472 169.709 78.6167 169.65 78.6752C169.592 78.7338 169.522 78.7802 169.446 78.8119C169.369 78.8436 169.287 78.8599 169.204 78.8599Z" fill="#5F97CA"/>
<path d="M179.296 76.7588H173.83C173.44 76.7588 173.065 76.9137 172.789 77.1896C172.513 77.4654 172.358 77.8395 172.358 78.2295C172.358 78.6196 172.513 78.9937 172.789 79.2695C173.065 79.5453 173.44 79.7003 173.83 79.7003H179.296C179.687 79.7003 180.061 79.5453 180.337 79.2695C180.613 78.9937 180.768 78.6196 180.768 78.2295C180.768 77.8395 180.613 77.4654 180.337 77.1896C180.061 76.9137 179.687 76.7588 179.296 76.7588ZM179.296 78.8599H173.83C173.747 78.8599 173.665 78.8436 173.589 78.8119C173.512 78.7802 173.443 78.7338 173.384 78.6752C173.326 78.6167 173.279 78.5472 173.247 78.4707C173.216 78.3943 173.199 78.3123 173.199 78.2295C173.199 78.1468 173.216 78.0648 173.247 77.9883C173.279 77.9118 173.326 77.8424 173.384 77.7838C173.443 77.7253 173.512 77.6789 173.589 77.6472C173.665 77.6155 173.747 77.5992 173.83 77.5992H179.296C179.379 77.5992 179.461 77.6155 179.538 77.6472C179.614 77.6789 179.684 77.7253 179.742 77.7838C179.801 77.8424 179.847 77.9118 179.879 77.9883C179.911 78.0648 179.927 78.1468 179.927 78.2295C179.927 78.3123 179.911 78.3943 179.879 78.4707C179.847 78.5472 179.801 78.6167 179.742 78.6752C179.684 78.7338 179.614 78.7802 179.538 78.8119C179.461 78.8436 179.379 78.8599 179.296 78.8599Z" fill="#5F97CA"/>
<path d="M169.204 72.9768H163.738C163.348 72.9768 162.974 73.1318 162.698 73.4076C162.422 73.6834 162.267 74.0575 162.267 74.4476C162.267 74.8376 162.422 75.2117 162.698 75.4875C162.974 75.7633 163.348 75.9183 163.738 75.9183H169.204C169.595 75.9183 169.969 75.7633 170.245 75.4875C170.521 75.2117 170.676 74.8376 170.676 74.4476C170.676 74.0575 170.521 73.6834 170.245 73.4076C169.969 73.1318 169.595 72.9768 169.204 72.9768ZM169.204 75.0779H163.738C163.655 75.0781 163.573 75.062 163.496 75.0304C163.42 74.9988 163.35 74.9524 163.291 74.8939C163.232 74.8353 163.186 74.7657 163.154 74.6892C163.122 74.6126 163.106 74.5305 163.106 74.4476C163.106 74.3646 163.122 74.2825 163.154 74.206C163.186 74.1294 163.232 74.0598 163.291 74.0013C163.35 73.9427 163.42 73.8963 163.496 73.8647C163.573 73.8331 163.655 73.817 163.738 73.8172H169.204C169.371 73.8177 169.531 73.8843 169.649 74.0024C169.767 74.1206 169.833 74.2807 169.833 74.4476C169.833 74.6144 169.767 74.7745 169.649 74.8927C169.531 75.0108 169.371 75.0774 169.204 75.0779Z" fill="#5F97CA"/>
<path d="M179.296 72.9768H173.83C173.44 72.9768 173.065 73.1318 172.789 73.4076C172.513 73.6834 172.358 74.0575 172.358 74.4476C172.358 74.8376 172.513 75.2117 172.789 75.4875C173.065 75.7633 173.44 75.9183 173.83 75.9183H179.296C179.687 75.9183 180.061 75.7633 180.337 75.4875C180.613 75.2117 180.768 74.8376 180.768 74.4476C180.768 74.0575 180.613 73.6834 180.337 73.4076C180.061 73.1318 179.687 72.9768 179.296 72.9768ZM179.296 75.0779H173.83C173.747 75.0781 173.665 75.062 173.588 75.0304C173.511 74.9988 173.442 74.9524 173.383 74.8939C173.324 74.8353 173.278 74.7657 173.246 74.6892C173.214 74.6126 173.198 74.5305 173.198 74.4476C173.198 74.3646 173.214 74.2825 173.246 74.206C173.278 74.1294 173.324 74.0598 173.383 74.0013C173.442 73.9427 173.511 73.8963 173.588 73.8647C173.665 73.8331 173.747 73.817 173.83 73.8172H179.296C179.463 73.8177 179.623 73.8843 179.741 74.0024C179.859 74.1206 179.925 74.2807 179.925 74.4476C179.925 74.6144 179.859 74.7745 179.741 74.8927C179.623 75.0108 179.463 75.0774 179.296 75.0779Z" fill="#5F97CA"/>
<path d="M54.3522 64.7089C54.3522 64.7089 48.3785 89.9153 55.6796 89.9153C62.9808 89.9153 80.238 61.3923 80.238 61.3923C80.238 61.3923 98.1589 52.1057 90.8578 48.7891C83.5567 45.4724 74.2643 54.0957 74.2643 54.0957L63.5423 68.9725L62.9807 61.3923L54.3522 64.7089Z" fill="#A0616A"/>
<path d="M68.2907 43.4827L64.3083 39.5027C64.3083 39.5027 56.3434 44.146 55.6797 48.7893C55.0159 53.4325 51.6973 68.0257 51.6973 68.0257L63.9764 69.0207L67.9589 63.0508L68.2907 43.4827Z" fill="#CFCCE0"/>
<path d="M256.946 34.0463C256.446 32.5708 250.176 27.5551 254.018 26.712L257.169 30.9109L271.656 16.4333L273.113 17.8895L256.946 34.0463Z" fill="#5F97CA"/>
<path d="M256.946 83.2761C256.446 81.8005 250.176 76.7848 254.018 75.9417L257.169 80.1406L271.656 65.6631L273.113 67.1192L256.946 83.2761Z" fill="#5F97CA"/>
<path d="M256.946 133.209C256.446 131.734 250.176 126.718 254.018 125.875L257.169 130.074L271.656 115.596L273.113 117.052L256.946 133.209Z" fill="#5F97CA"/>
<path d="M300.827 32.5279C303.296 32.5279 305.297 30.5277 305.297 28.0603C305.297 25.593 303.296 23.5928 300.827 23.5928C298.358 23.5928 296.356 25.593 296.356 28.0603C296.356 30.5277 298.358 32.5279 300.827 32.5279Z" fill="white"/>
<path d="M389.562 27.6135H317.59V28.507H389.562V27.6135Z" fill="white"/>
<path d="M300.827 81.7576C303.296 81.7576 305.297 79.7574 305.297 77.2901C305.297 74.8227 303.296 72.8225 300.827 72.8225C298.358 72.8225 296.356 74.8227 296.356 77.2901C296.356 79.7574 298.358 81.7576 300.827 81.7576Z" fill="white"/>
<path d="M389.562 76.843H317.59V77.7365H389.562V76.843Z" fill="white"/>
<path d="M300.827 131.69C303.296 131.69 305.297 129.69 305.297 127.223C305.297 124.755 303.296 122.755 300.827 122.755C298.358 122.755 296.356 124.755 296.356 127.223C296.356 129.69 298.358 131.69 300.827 131.69Z" fill="white"/>
<path d="M389.562 126.776H317.59V127.669H389.562V126.776Z" fill="white"/>
<path d="M268.237 139.866H245.886V117.081H261.085V117.975H246.78V138.972H267.343V128.697H268.237V139.866Z" fill="white"/>
<path d="M268.237 89.8294H245.886V67.0449H261.085V67.9384H246.78V88.9359H267.343V78.6605H268.237V89.8294Z" fill="white"/>
<path d="M268.237 38.8995H245.886V16.115H261.085V17.0085H246.78V38.0059H267.343V27.7306H268.237V38.8995Z" fill="white"/>
</g>
<defs>
<clipPath id="clip0">
<rect width="397" height="239" fill="white" transform="translate(0 0.261719)"/>
</clipPath>
</defs>
</svg>
