<svg width="341" height="295" viewBox="0 0 341 295" fill="none" xmlns="http://www.w3.org/2000/svg">
<g clip-path="url(#clip0)">
<path opacity="0.1" d="M241.124 40.1626C213.818 40.1993 187.535 32.4349 162.395 23.8094C137.255 15.1839 112.309 5.52508 85.5108 1.43218C68.276 -1.1987 48.6777 -0.956867 35.2055 8.59567C22.2374 17.7854 18.4822 32.9955 16.6703 47.0476C15.3077 57.6188 14.6794 68.714 19.7826 78.3838C23.326 85.0966 29.39 90.6295 33.664 97.0272C48.5828 119.283 39.611 147.714 25.1123 170.487C18.3141 181.172 10.3506 191.413 5.21087 202.71C0.0711269 214.006 -2.03664 226.816 3.20539 237.966C8.39993 249.018 20.1333 257.039 32.7251 262.516C58.296 273.663 88.0678 276.052 117.04 276.972C181.171 279.013 245.427 274.85 309.512 270.688C333.227 269.149 357.048 267.599 380.274 263.139C393.169 260.666 406.447 256.995 415.591 248.948C427.196 238.732 429.571 222.053 421.125 210.064C406.962 189.955 369.618 186.162 359.463 164.404C353.863 152.426 358.692 138.689 365.804 127.143C381.059 102.37 407.317 80.1792 407.759 52.4706C408.062 33.4425 394.407 14.8797 374.012 6.60968C352.635 -2.05246 323.488 0.175367 308.511 16.3198C293.11 32.9515 265.234 40.137 241.124 40.1626Z" fill="#3D8060"/>
<path d="M379.857 31.23H28.8492C28.0199 31.23 27.2246 31.5604 26.6382 32.1486C26.0517 32.7369 25.7223 33.5347 25.7223 34.3665V43.505H382.984V34.3665C382.984 33.5347 382.655 32.7369 382.068 32.1486C381.482 31.5604 380.686 31.23 379.857 31.23Z" fill="#3F3D56"/>
<path d="M25.7223 43.5049V249.154C25.7223 250.831 26.3866 252.44 27.569 253.626C28.7514 254.812 30.3551 255.478 32.0273 255.478H376.679C378.351 255.478 379.955 254.812 381.137 253.626C382.32 252.44 382.984 250.831 382.984 249.154V43.5049H25.7223Z" fill="white"/>
<path opacity="0.8" d="M31.3807 38.7414C32.1877 38.7414 32.8419 38.0852 32.8419 37.2757C32.8419 36.4663 32.1877 35.8101 31.3807 35.8101C30.5738 35.8101 29.9196 36.4663 29.9196 37.2757C29.9196 38.0852 30.5738 38.7414 31.3807 38.7414Z" fill="#FA5959"/>
<path opacity="0.8" d="M35.3991 38.7414C36.2061 38.7414 36.8603 38.0852 36.8603 37.2757C36.8603 36.4663 36.2061 35.8101 35.3991 35.8101C34.5921 35.8101 33.9379 36.4663 33.9379 37.2757C33.9379 38.0852 34.5921 38.7414 35.3991 38.7414Z" fill="#FED253"/>
<path opacity="0.8" d="M39.4174 38.7414C40.2244 38.7414 40.8786 38.0852 40.8786 37.2757C40.8786 36.4663 40.2244 35.8101 39.4174 35.8101C38.6104 35.8101 37.9562 36.4663 37.9562 37.2757C37.9562 38.0852 38.6104 38.7414 39.4174 38.7414Z" fill="#8CCF4D"/>
<path opacity="0.05" d="M346.056 77.7942H58.9315V204.436H346.056V77.7942Z" fill="black"/>
<path d="M343.864 78.7544H61.1233V202.604H343.864V78.7544Z" fill="#3F3D56"/>
<path d="M306.238 134.083H189.343V146.542H306.238V134.083Z" fill="white"/>
<path d="M306.239 156.802H281.033V169.26H306.239V156.802Z" fill="#3D8060"/>
<path d="M200.85 140.126H198.735L200.616 138.243C200.65 138.208 200.669 138.161 200.669 138.112C200.669 138.064 200.65 138.017 200.616 137.982C200.599 137.965 200.579 137.952 200.557 137.942C200.534 137.933 200.511 137.928 200.486 137.928C200.462 137.928 200.438 137.933 200.416 137.942C200.394 137.952 200.374 137.965 200.357 137.982L198.475 139.869V137.744C198.475 137.696 198.456 137.649 198.422 137.615C198.388 137.58 198.341 137.561 198.293 137.561C198.245 137.562 198.199 137.582 198.165 137.616C198.131 137.65 198.111 137.696 198.11 137.744V139.869L196.233 137.971C196.216 137.954 196.195 137.941 196.173 137.931C196.151 137.922 196.127 137.917 196.103 137.917C196.079 137.917 196.055 137.922 196.033 137.931C196.01 137.941 195.99 137.954 195.973 137.971C195.939 138.006 195.921 138.053 195.921 138.102C195.921 138.15 195.939 138.197 195.973 138.232L197.854 140.115H195.736C195.688 140.116 195.642 140.136 195.608 140.17C195.574 140.204 195.554 140.25 195.553 140.298C195.553 140.347 195.572 140.393 195.607 140.428C195.641 140.462 195.687 140.481 195.736 140.481H197.854L195.973 142.368C195.939 142.403 195.921 142.45 195.921 142.499C195.921 142.547 195.939 142.594 195.973 142.629C196.008 142.662 196.055 142.68 196.103 142.68C196.151 142.68 196.197 142.662 196.233 142.629L198.11 140.742V142.863C198.11 142.912 198.129 142.958 198.164 142.993C198.198 143.027 198.244 143.046 198.293 143.046C198.341 143.046 198.388 143.027 198.422 142.993C198.456 142.958 198.475 142.912 198.475 142.863V140.742L200.357 142.629C200.392 142.662 200.438 142.68 200.486 142.68C200.535 142.68 200.581 142.662 200.616 142.629C200.65 142.594 200.669 142.547 200.669 142.499C200.669 142.45 200.65 142.403 200.616 142.368L198.735 140.481H200.85C200.898 140.481 200.945 140.462 200.979 140.428C201.013 140.393 201.033 140.347 201.033 140.298C201.03 140.252 201.009 140.208 200.975 140.176C200.941 140.144 200.897 140.126 200.85 140.126Z" fill="#3D8060"/>
<path d="M208.521 140.126H206.406L208.287 138.243C208.321 138.208 208.34 138.161 208.34 138.112C208.34 138.064 208.321 138.017 208.287 137.982C208.27 137.965 208.25 137.952 208.228 137.942C208.206 137.933 208.182 137.928 208.158 137.928C208.134 137.928 208.11 137.933 208.087 137.942C208.065 137.952 208.045 137.965 208.028 137.982L206.147 139.869V137.744C206.147 137.696 206.127 137.649 206.093 137.615C206.059 137.58 206.013 137.561 205.964 137.561C205.916 137.562 205.87 137.582 205.836 137.616C205.802 137.65 205.782 137.696 205.781 137.744V139.869L203.904 137.971C203.887 137.954 203.867 137.941 203.844 137.931C203.822 137.922 203.798 137.917 203.774 137.917C203.75 137.917 203.726 137.922 203.704 137.931C203.682 137.941 203.661 137.954 203.644 137.971C203.611 138.006 203.592 138.053 203.592 138.102C203.592 138.15 203.611 138.197 203.644 138.232L205.526 140.115H203.407C203.359 140.116 203.313 140.136 203.279 140.17C203.245 140.204 203.225 140.25 203.224 140.298C203.224 140.347 203.244 140.393 203.278 140.428C203.312 140.462 203.359 140.481 203.407 140.481H205.526L203.644 142.368C203.611 142.403 203.592 142.45 203.592 142.499C203.592 142.547 203.611 142.594 203.644 142.629C203.68 142.662 203.726 142.68 203.774 142.68C203.822 142.68 203.869 142.662 203.904 142.629L205.781 140.742V142.863C205.781 142.912 205.801 142.958 205.835 142.993C205.869 143.027 205.916 143.046 205.964 143.046C206.013 143.046 206.059 143.027 206.093 142.993C206.127 142.958 206.147 142.912 206.147 142.863V140.742L208.028 142.629C208.063 142.662 208.11 142.68 208.158 142.68C208.206 142.68 208.252 142.662 208.287 142.629C208.321 142.594 208.34 142.547 208.34 142.499C208.34 142.45 208.321 142.403 208.287 142.368L206.406 140.481H208.521C208.57 140.481 208.616 140.462 208.65 140.428C208.685 140.393 208.704 140.347 208.704 140.298C208.701 140.252 208.681 140.208 208.647 140.176C208.613 140.144 208.568 140.126 208.521 140.126Z" fill="#3D8060"/>
<path d="M216.192 140.126H214.077L215.959 138.243C215.992 138.208 216.011 138.161 216.011 138.112C216.011 138.064 215.992 138.017 215.959 137.982C215.942 137.965 215.921 137.952 215.899 137.942C215.877 137.933 215.853 137.928 215.829 137.928C215.805 137.928 215.781 137.933 215.759 137.942C215.736 137.952 215.716 137.965 215.699 137.982L213.818 139.869V137.744C213.818 137.696 213.799 137.649 213.765 137.615C213.73 137.58 213.684 137.561 213.635 137.561C213.587 137.562 213.541 137.582 213.507 137.616C213.473 137.65 213.454 137.696 213.453 137.744V139.869L211.575 137.971C211.558 137.954 211.538 137.941 211.516 137.931C211.493 137.922 211.469 137.917 211.445 137.917C211.421 137.917 211.397 137.922 211.375 137.931C211.353 137.941 211.333 137.954 211.316 137.971C211.282 138.006 211.263 138.053 211.263 138.102C211.263 138.15 211.282 138.197 211.316 138.232L213.197 140.115H211.078C211.03 140.116 210.984 140.136 210.95 140.17C210.916 140.204 210.897 140.25 210.896 140.298C210.896 140.347 210.915 140.393 210.949 140.428C210.983 140.462 211.03 140.481 211.078 140.481H213.197L211.316 142.368C211.282 142.403 211.263 142.45 211.263 142.499C211.263 142.547 211.282 142.594 211.316 142.629C211.351 142.662 211.397 142.68 211.445 142.68C211.494 142.68 211.54 142.662 211.575 142.629L213.453 140.742V142.863C213.453 142.912 213.472 142.958 213.506 142.993C213.54 143.027 213.587 143.046 213.635 143.046C213.684 143.046 213.73 143.027 213.765 142.993C213.799 142.958 213.818 142.912 213.818 142.863V140.742L215.699 142.629C215.734 142.662 215.781 142.68 215.829 142.68C215.877 142.68 215.923 142.662 215.959 142.629C215.992 142.594 216.011 142.547 216.011 142.499C216.011 142.45 215.992 142.403 215.959 142.368L214.077 140.481H216.192C216.241 140.481 216.287 140.462 216.322 140.428C216.356 140.393 216.375 140.347 216.375 140.298C216.372 140.252 216.352 140.208 216.318 140.176C216.284 140.144 216.239 140.126 216.192 140.126Z" fill="#3D8060"/>
<path d="M223.864 140.126H221.749L223.63 138.243C223.664 138.208 223.682 138.161 223.682 138.112C223.682 138.064 223.664 138.017 223.63 137.982C223.613 137.965 223.593 137.952 223.57 137.942C223.548 137.933 223.524 137.928 223.5 137.928C223.476 137.928 223.452 137.933 223.43 137.942C223.408 137.952 223.388 137.965 223.371 137.982L221.489 139.869V137.744C221.489 137.696 221.47 137.649 221.436 137.615C221.402 137.58 221.355 137.561 221.307 137.561C221.258 137.562 221.213 137.582 221.178 137.616C221.144 137.65 221.125 137.696 221.124 137.744V139.869L219.246 137.971C219.229 137.954 219.209 137.941 219.187 137.931C219.165 137.922 219.141 137.917 219.117 137.917C219.093 137.917 219.069 137.922 219.046 137.931C219.024 137.941 219.004 137.954 218.987 137.971C218.953 138.006 218.934 138.053 218.934 138.102C218.934 138.15 218.953 138.197 218.987 138.232L220.868 140.115H218.75C218.701 140.116 218.655 140.136 218.621 140.17C218.587 140.204 218.568 140.25 218.567 140.298C218.567 140.347 218.586 140.393 218.62 140.428C218.655 140.462 218.701 140.481 218.75 140.481H220.868L218.987 142.368C218.953 142.403 218.934 142.45 218.934 142.499C218.934 142.547 218.953 142.594 218.987 142.629C219.022 142.662 219.069 142.68 219.117 142.68C219.165 142.68 219.211 142.662 219.246 142.629L221.124 140.742V142.863C221.124 142.912 221.143 142.958 221.177 142.993C221.212 143.027 221.258 143.046 221.307 143.046C221.355 143.046 221.402 143.027 221.436 142.993C221.47 142.958 221.489 142.912 221.489 142.863V140.742L223.371 142.629C223.406 142.662 223.452 142.68 223.5 142.68C223.548 142.68 223.595 142.662 223.63 142.629C223.664 142.594 223.682 142.547 223.682 142.499C223.682 142.45 223.664 142.403 223.63 142.368L221.749 140.481H223.864C223.912 140.481 223.959 140.462 223.993 140.428C224.027 140.393 224.046 140.347 224.046 140.298C224.044 140.252 224.023 140.208 223.989 140.176C223.955 140.144 223.91 140.126 223.864 140.126Z" fill="#3D8060"/>
<path d="M231.535 140.126H229.42L231.301 138.243C231.335 138.208 231.354 138.161 231.354 138.112C231.354 138.064 231.335 138.017 231.301 137.982C231.284 137.965 231.264 137.952 231.242 137.942C231.219 137.933 231.196 137.928 231.171 137.928C231.147 137.928 231.124 137.933 231.101 137.942C231.079 137.952 231.059 137.965 231.042 137.982L229.161 139.869V137.744C229.161 137.696 229.141 137.649 229.107 137.615C229.073 137.58 229.026 137.561 228.978 137.561C228.93 137.562 228.884 137.582 228.85 137.616C228.816 137.65 228.796 137.696 228.795 137.744V139.869L226.918 137.971C226.901 137.954 226.88 137.941 226.858 137.931C226.836 137.922 226.812 137.917 226.788 137.917C226.764 137.917 226.74 137.922 226.718 137.931C226.695 137.941 226.675 137.954 226.658 137.971C226.625 138.006 226.606 138.053 226.606 138.102C226.606 138.15 226.625 138.197 226.658 138.232L228.54 140.115H226.421C226.373 140.116 226.327 140.136 226.293 140.17C226.259 140.204 226.239 140.25 226.238 140.298C226.238 140.347 226.257 140.393 226.292 140.428C226.326 140.462 226.372 140.481 226.421 140.481H228.54L226.658 142.368C226.625 142.403 226.606 142.45 226.606 142.499C226.606 142.547 226.625 142.594 226.658 142.629C226.693 142.662 226.74 142.68 226.788 142.68C226.836 142.68 226.882 142.662 226.918 142.629L228.795 140.742V142.863C228.795 142.912 228.814 142.958 228.849 142.993C228.883 143.027 228.929 143.046 228.978 143.046C229.026 143.046 229.073 143.027 229.107 142.993C229.141 142.958 229.161 142.912 229.161 142.863V140.742L231.042 142.629C231.077 142.662 231.123 142.68 231.171 142.68C231.22 142.68 231.266 142.662 231.301 142.629C231.335 142.594 231.354 142.547 231.354 142.499C231.354 142.45 231.335 142.403 231.301 142.368L229.42 140.481H231.535C231.583 140.481 231.63 140.462 231.664 140.428C231.698 140.393 231.718 140.347 231.718 140.298C231.715 140.252 231.694 140.208 231.66 140.176C231.626 140.144 231.582 140.126 231.535 140.126Z" fill="#3D8060"/>
<path d="M239.206 140.126H237.091L238.972 138.243C239.006 138.208 239.025 138.161 239.025 138.112C239.025 138.064 239.006 138.017 238.972 137.982C238.955 137.965 238.935 137.952 238.913 137.942C238.891 137.933 238.867 137.928 238.843 137.928C238.819 137.928 238.795 137.933 238.773 137.942C238.75 137.952 238.73 137.965 238.713 137.982L236.832 139.869V137.744C236.832 137.696 236.813 137.649 236.778 137.615C236.744 137.58 236.698 137.561 236.649 137.561C236.601 137.562 236.555 137.582 236.521 137.616C236.487 137.65 236.467 137.696 236.467 137.744V139.869L234.589 137.971C234.572 137.954 234.552 137.941 234.529 137.931C234.507 137.922 234.483 137.917 234.459 137.917C234.435 137.917 234.411 137.922 234.389 137.931C234.367 137.941 234.346 137.954 234.33 137.971C234.296 138.006 234.277 138.053 234.277 138.102C234.277 138.15 234.296 138.197 234.33 138.232L236.211 140.115H234.092C234.044 140.116 233.998 140.136 233.964 140.17C233.93 140.204 233.91 140.25 233.909 140.298C233.909 140.347 233.929 140.393 233.963 140.428C233.997 140.462 234.044 140.481 234.092 140.481H236.211L234.33 142.368C234.296 142.403 234.277 142.45 234.277 142.499C234.277 142.547 234.296 142.594 234.33 142.629C234.365 142.662 234.411 142.68 234.459 142.68C234.507 142.68 234.554 142.662 234.589 142.629L236.467 140.742V142.863C236.467 142.912 236.486 142.958 236.52 142.993C236.554 143.027 236.601 143.046 236.649 143.046C236.698 143.046 236.744 143.027 236.778 142.993C236.813 142.958 236.832 142.912 236.832 142.863V140.742L238.713 142.629C238.748 142.662 238.795 142.68 238.843 142.68C238.891 142.68 238.937 142.662 238.972 142.629C239.006 142.594 239.025 142.547 239.025 142.499C239.025 142.45 239.006 142.403 238.972 142.368L237.091 140.481H239.206C239.255 140.481 239.301 140.462 239.335 140.428C239.37 140.393 239.389 140.347 239.389 140.298C239.386 140.252 239.366 140.208 239.332 140.176C239.298 140.144 239.253 140.126 239.206 140.126Z" fill="#3D8060"/>
<path d="M246.878 140.126H244.762L246.644 138.243C246.677 138.208 246.696 138.161 246.696 138.112C246.696 138.064 246.677 138.017 246.644 137.982C246.627 137.965 246.607 137.952 246.584 137.942C246.562 137.933 246.538 137.928 246.514 137.928C246.49 137.928 246.466 137.933 246.444 137.942C246.422 137.952 246.401 137.965 246.384 137.982L244.503 139.869V137.744C244.503 137.696 244.484 137.649 244.45 137.615C244.415 137.58 244.369 137.561 244.32 137.561C244.272 137.562 244.226 137.582 244.192 137.616C244.158 137.65 244.139 137.696 244.138 137.744V139.869L242.26 137.971C242.243 137.954 242.223 137.941 242.201 137.931C242.178 137.922 242.155 137.917 242.13 137.917C242.106 137.917 242.082 137.922 242.06 137.931C242.038 137.941 242.018 137.954 242.001 137.971C241.967 138.006 241.948 138.053 241.948 138.102C241.948 138.15 241.967 138.197 242.001 138.232L243.882 140.115H241.763C241.715 140.116 241.669 140.136 241.635 140.17C241.601 140.204 241.582 140.25 241.581 140.298C241.581 140.347 241.6 140.393 241.634 140.428C241.668 140.462 241.715 140.481 241.763 140.481H243.882L242.001 142.368C241.967 142.403 241.948 142.45 241.948 142.499C241.948 142.547 241.967 142.594 242.001 142.629C242.036 142.662 242.082 142.68 242.13 142.68C242.179 142.68 242.225 142.662 242.26 142.629L244.138 140.742V142.863C244.138 142.912 244.157 142.958 244.191 142.993C244.226 143.027 244.272 143.046 244.32 143.046C244.369 143.046 244.415 143.027 244.45 142.993C244.484 142.958 244.503 142.912 244.503 142.863V140.742L246.384 142.629C246.42 142.662 246.466 142.68 246.514 142.68C246.562 142.68 246.609 142.662 246.644 142.629C246.677 142.594 246.696 142.547 246.696 142.499C246.696 142.45 246.677 142.403 246.644 142.368L244.762 140.481H246.878C246.926 140.481 246.972 140.462 247.007 140.428C247.041 140.393 247.06 140.347 247.06 140.298C247.057 140.252 247.037 140.208 247.003 140.176C246.969 140.144 246.924 140.126 246.878 140.126Z" fill="#3D8060"/>
<path d="M254.549 140.126H252.434L254.315 138.243C254.349 138.208 254.368 138.161 254.368 138.112C254.368 138.064 254.349 138.017 254.315 137.982C254.298 137.965 254.278 137.952 254.256 137.942C254.233 137.933 254.209 137.928 254.185 137.928C254.161 137.928 254.137 137.933 254.115 137.942C254.093 137.952 254.073 137.965 254.056 137.982L252.174 139.869V137.744C252.174 137.696 252.155 137.649 252.121 137.615C252.087 137.58 252.04 137.561 251.992 137.561C251.944 137.562 251.898 137.582 251.864 137.616C251.83 137.65 251.81 137.696 251.809 137.744V139.869L249.931 137.971C249.914 137.954 249.894 137.941 249.872 137.931C249.85 137.922 249.826 137.917 249.802 137.917C249.778 137.917 249.754 137.922 249.731 137.931C249.709 137.941 249.689 137.954 249.672 137.971C249.638 138.006 249.619 138.053 249.619 138.102C249.619 138.15 249.638 138.197 249.672 138.232L251.553 140.115H249.435C249.386 140.116 249.341 140.136 249.306 140.17C249.272 140.204 249.253 140.25 249.252 140.298C249.252 140.347 249.271 140.393 249.305 140.428C249.34 140.462 249.386 140.481 249.435 140.481H251.553L249.672 142.368C249.638 142.403 249.619 142.45 249.619 142.499C249.619 142.547 249.638 142.594 249.672 142.629C249.707 142.662 249.754 142.68 249.802 142.68C249.85 142.68 249.896 142.662 249.931 142.629L251.809 140.742V142.863C251.809 142.912 251.828 142.958 251.863 142.993C251.897 143.027 251.943 143.046 251.992 143.046C252.04 143.046 252.087 143.027 252.121 142.993C252.155 142.958 252.174 142.912 252.174 142.863V140.742L254.056 142.629C254.091 142.662 254.137 142.68 254.185 142.68C254.233 142.68 254.28 142.662 254.315 142.629C254.349 142.594 254.368 142.547 254.368 142.499C254.368 142.45 254.349 142.403 254.315 142.368L252.434 140.481H254.549C254.597 140.481 254.644 140.462 254.678 140.428C254.712 140.393 254.731 140.347 254.731 140.298C254.729 140.252 254.708 140.208 254.674 140.176C254.64 140.144 254.595 140.126 254.549 140.126Z" fill="#3D8060"/>
<path d="M262.22 140.126H260.105L261.986 138.243C262.02 138.208 262.039 138.161 262.039 138.112C262.039 138.064 262.02 138.017 261.986 137.982C261.969 137.965 261.949 137.952 261.927 137.942C261.905 137.933 261.881 137.928 261.857 137.928C261.832 137.928 261.809 137.933 261.786 137.942C261.764 137.952 261.744 137.965 261.727 137.982L259.846 139.869V137.744C259.846 137.696 259.826 137.649 259.792 137.615C259.758 137.58 259.711 137.561 259.663 137.561C259.615 137.562 259.569 137.582 259.535 137.616C259.501 137.65 259.481 137.696 259.48 137.744V139.869L257.603 137.971C257.586 137.954 257.565 137.941 257.543 137.931C257.521 137.922 257.497 137.917 257.473 137.917C257.449 137.917 257.425 137.922 257.403 137.931C257.38 137.941 257.36 137.954 257.343 137.971C257.31 138.006 257.291 138.053 257.291 138.102C257.291 138.15 257.31 138.197 257.343 138.232L259.225 140.115H257.106C257.058 140.116 257.012 140.136 256.978 140.17C256.944 140.204 256.924 140.25 256.923 140.298C256.923 140.347 256.942 140.393 256.977 140.428C257.011 140.462 257.057 140.481 257.106 140.481H259.225L257.343 142.368C257.31 142.403 257.291 142.45 257.291 142.499C257.291 142.547 257.31 142.594 257.343 142.629C257.378 142.662 257.425 142.68 257.473 142.68C257.521 142.68 257.567 142.662 257.603 142.629L259.48 140.742V142.863C259.48 142.912 259.5 142.958 259.534 142.993C259.568 143.027 259.615 143.046 259.663 143.046C259.711 143.046 259.758 143.027 259.792 142.993C259.826 142.958 259.846 142.912 259.846 142.863V140.742L261.727 142.629C261.762 142.662 261.808 142.68 261.857 142.68C261.905 142.68 261.951 142.662 261.986 142.629C262.02 142.594 262.039 142.547 262.039 142.499C262.039 142.45 262.02 142.403 261.986 142.368L260.105 140.481H262.22C262.269 140.481 262.315 140.462 262.349 140.428C262.383 140.393 262.403 140.347 262.403 140.298C262.4 140.252 262.379 140.208 262.345 140.176C262.312 140.144 262.267 140.126 262.22 140.126Z" fill="#3D8060"/>
<path d="M269.891 140.126H267.776L269.658 138.243C269.691 138.208 269.71 138.161 269.71 138.112C269.71 138.064 269.691 138.017 269.658 137.982C269.641 137.965 269.62 137.952 269.598 137.942C269.576 137.933 269.552 137.928 269.528 137.928C269.504 137.928 269.48 137.933 269.458 137.942C269.435 137.952 269.415 137.965 269.398 137.982L267.517 139.869V137.744C267.517 137.696 267.498 137.649 267.463 137.615C267.429 137.58 267.383 137.561 267.334 137.561C267.286 137.562 267.24 137.582 267.206 137.616C267.172 137.65 267.153 137.696 267.152 137.744V139.869L265.274 137.971C265.257 137.954 265.237 137.941 265.214 137.931C265.192 137.922 265.168 137.917 265.144 137.917C265.12 137.917 265.096 137.922 265.074 137.931C265.052 137.941 265.032 137.954 265.015 137.971C264.981 138.006 264.962 138.053 264.962 138.102C264.962 138.15 264.981 138.197 265.015 138.232L266.896 140.115H264.777C264.729 140.116 264.683 140.136 264.649 140.17C264.615 140.204 264.595 140.25 264.594 140.298C264.594 140.347 264.614 140.393 264.648 140.428C264.682 140.462 264.729 140.481 264.777 140.481H266.896L265.015 142.368C264.981 142.403 264.962 142.45 264.962 142.499C264.962 142.547 264.981 142.594 265.015 142.629C265.05 142.662 265.096 142.68 265.144 142.68C265.192 142.68 265.239 142.662 265.274 142.629L267.152 140.742V142.863C267.152 142.912 267.171 142.958 267.205 142.993C267.239 143.027 267.286 143.046 267.334 143.046C267.383 143.046 267.429 143.027 267.463 142.993C267.498 142.958 267.517 142.912 267.517 142.863V140.742L269.398 142.629C269.433 142.662 269.48 142.68 269.528 142.68C269.576 142.68 269.622 142.662 269.658 142.629C269.691 142.594 269.71 142.547 269.71 142.499C269.71 142.45 269.691 142.403 269.658 142.368L267.776 140.481H269.891C269.94 140.481 269.986 140.462 270.02 140.428C270.055 140.393 270.074 140.347 270.074 140.298C270.071 140.252 270.051 140.208 270.017 140.176C269.983 140.144 269.938 140.126 269.891 140.126Z" fill="#3D8060"/>
<path d="M277.563 140.126H275.448L277.329 138.243C277.363 138.208 277.381 138.161 277.381 138.112C277.381 138.064 277.363 138.017 277.329 137.982C277.312 137.965 277.292 137.952 277.269 137.942C277.247 137.933 277.223 137.928 277.199 137.928C277.175 137.928 277.151 137.933 277.129 137.942C277.107 137.952 277.086 137.965 277.069 137.982L275.188 139.869V137.744C275.188 137.696 275.169 137.649 275.135 137.615C275.1 137.58 275.054 137.561 275.006 137.561C274.957 137.562 274.911 137.582 274.877 137.616C274.843 137.65 274.824 137.696 274.823 137.744V139.869L272.945 137.971C272.928 137.954 272.908 137.941 272.886 137.931C272.864 137.922 272.84 137.917 272.816 137.917C272.792 137.917 272.768 137.922 272.745 137.931C272.723 137.941 272.703 137.954 272.686 137.971C272.652 138.006 272.633 138.053 272.633 138.102C272.633 138.15 272.652 138.197 272.686 138.232L274.567 140.115H272.449C272.4 140.116 272.354 140.136 272.32 140.17C272.286 140.204 272.267 140.25 272.266 140.298C272.266 140.347 272.285 140.393 272.319 140.428C272.354 140.462 272.4 140.481 272.449 140.481H274.567L272.686 142.368C272.652 142.403 272.633 142.45 272.633 142.499C272.633 142.547 272.652 142.594 272.686 142.629C272.721 142.662 272.767 142.68 272.816 142.68C272.864 142.68 272.91 142.662 272.945 142.629L274.823 140.742V142.863C274.823 142.912 274.842 142.958 274.876 142.993C274.911 143.027 274.957 143.046 275.006 143.046C275.054 143.046 275.1 143.027 275.135 142.993C275.169 142.958 275.188 142.912 275.188 142.863V140.742L277.069 142.629C277.105 142.662 277.151 142.68 277.199 142.68C277.247 142.68 277.294 142.662 277.329 142.629C277.363 142.594 277.381 142.547 277.381 142.499C277.381 142.45 277.363 142.403 277.329 142.368L275.448 140.481H277.563C277.611 140.481 277.658 140.462 277.692 140.428C277.726 140.393 277.745 140.347 277.745 140.298C277.742 140.252 277.722 140.208 277.688 140.176C277.654 140.144 277.609 140.126 277.563 140.126Z" fill="#3D8060"/>
<path d="M336.372 184.701C336.362 184.258 336.307 183.817 336.208 183.385C335.879 182.147 335.137 180.648 333.917 180.274C332.657 179.887 331.441 179.372 330.286 178.735C330.067 174.807 330.966 170.788 329.987 166.981C329.621 165.588 329.019 164.254 328.858 162.829C328.657 161.056 329.139 159.165 328.434 157.531C327.879 156.241 326.659 155.332 325.347 154.856C324.036 154.379 322.622 154.251 321.23 154.123C319.477 153.98 313.8 153.306 311.82 154.878C311.684 154.984 311.561 155.107 311.455 155.244C311.411 155.305 311.372 155.368 311.338 155.435L311.32 155.464C311.28 155.54 311.247 155.62 311.221 155.702C311.194 155.792 311.173 155.884 311.159 155.977C311.159 156.006 311.159 156.036 311.159 156.065C311.159 156.094 311.159 156.193 311.159 156.259V156.358C311.159 156.424 311.159 156.49 311.159 156.56C311.159 156.629 311.159 156.611 311.159 156.637C311.185 156.966 311.232 157.296 311.232 157.622C311.236 157.785 311.221 157.947 311.188 158.106C311.067 158.538 310.861 158.942 310.582 159.293L310.516 159.388C310.476 159.447 310.436 159.502 310.399 159.561C310.363 159.619 310.334 159.663 310.304 159.714C310.275 159.766 310.246 159.799 310.22 159.846C310.185 159.907 310.153 159.969 310.125 160.033C310.125 160.07 310.085 160.103 310.071 160.14C310.025 160.239 309.988 160.342 309.961 160.447C309.875 160.766 309.868 161.1 309.939 161.422C310.038 161.833 310.207 162.224 310.439 162.576C310.531 162.726 310.629 162.873 310.732 163.02L310.987 163.368C310.94 163.708 310.914 164.05 310.911 164.394C310.911 165.541 311.171 166.673 311.671 167.706C312.171 168.738 312.897 169.642 313.797 170.352C313.941 171.899 313.925 173.457 313.749 175.001C313.716 175.324 313.676 175.65 313.632 175.973C313.588 176.295 313.555 176.507 313.512 176.775C312.977 176.852 312.432 176.81 311.915 176.654C311.677 176.547 311.433 176.453 311.185 176.372C310.122 176.104 309.037 177.167 307.985 176.845C307.985 176.896 307.955 176.944 307.937 176.991C307.718 176.854 307.465 176.78 307.207 176.775C306.582 176.746 306.074 176.291 305.621 175.863L304.229 174.547C304.139 174.467 304.058 174.376 303.988 174.276C303.913 174.133 303.857 173.982 303.82 173.825C303.586 173.067 303.02 172.462 302.472 171.887C302.368 171.756 302.231 171.656 302.074 171.597C302.014 171.588 301.952 171.588 301.891 171.597C301.854 171.546 301.814 171.497 301.771 171.451C301.676 171.342 301.575 171.239 301.468 171.143C300.803 170.528 300.737 170 300.16 169.311C299.657 168.654 299.2 167.962 298.794 167.241C298.746 166.856 298.681 166.46 298.6 166.061C298.416 165.146 298.148 164.251 297.8 163.386L297.07 161.763L296.986 161.847C296.456 161.056 295.89 160.623 295.382 160.726C294.531 160.902 294.111 162.558 294.246 164.723L294.538 166.922C294.538 166.977 294.564 167.032 294.578 167.087C294.526 167.347 294.499 167.612 294.498 167.878C294.498 168.186 294.783 168.413 294.933 168.688C295.172 169.06 295.299 169.494 295.298 169.938C295.28 170.095 295.232 170.245 295.225 170.399C295.245 170.744 295.364 171.075 295.568 171.352L297.395 174.43L297.76 175.075L297.782 175.104C297.897 175.329 298.065 175.523 298.271 175.668C298.343 176.439 298.547 177.192 298.874 177.893C298.936 178.032 299.006 178.164 299.079 178.296C299.57 179.105 300.148 179.859 300.803 180.542L301.672 181.52C302.531 182.48 303.389 183.444 304.321 184.331C304.654 184.686 305.057 184.969 305.504 185.162C305.723 185.25 305.962 185.278 306.195 185.244C306.429 185.21 306.649 185.115 306.834 184.968C306.834 185.422 306.834 185.877 306.834 186.331C306.97 186.34 307.101 186.384 307.213 186.46C307.326 186.536 307.416 186.641 307.475 186.764C307.534 186.887 307.559 187.023 307.548 187.159C307.537 187.295 307.489 187.425 307.411 187.537C306.644 189.512 305.87 191.505 304.708 193.275C305.528 193.762 306.288 194.343 306.973 195.008C307.417 195.502 307.812 196.038 308.153 196.609C308.186 196.88 308.211 197.148 308.226 197.415C308.496 201.783 306.812 206.118 305.303 210.28C304.869 211.46 304.394 212.695 304.43 213.922C304.144 214.1 303.871 214.297 303.612 214.512C303.912 215.297 303.795 215.996 303.762 216.836C303.751 217.339 303.648 217.835 303.459 218.301C303.3 218.624 303.124 218.938 302.933 219.243C301.986 220.917 301.778 222.907 301.588 224.82C301.475 225.974 301.921 227.385 301.398 228.418C300.496 230.191 299.696 232.082 299.572 234.054C299.568 234.497 299.511 234.939 299.404 235.369C299.291 235.735 299.09 236.047 298.987 236.406C298.882 236.887 298.857 237.382 298.914 237.872C298.984 239.628 298.724 241.382 298.147 243.042C297.691 244.35 297.186 245.75 297.544 247.094C296.663 248.023 296.119 249.222 295.999 250.498C295.99 250.825 295.951 251.15 295.882 251.469C295.771 251.796 295.624 252.109 295.444 252.404C294.709 253.747 294.364 255.271 294.45 256.801C293.354 258.292 292.807 260.132 292.481 261.96C292.156 263.788 292.014 265.65 291.597 267.456C291.042 269.845 290.038 272.26 289.84 274.708C288.657 275.466 288.145 276.936 287.919 278.324C287.692 279.713 287.656 281.171 287.075 282.454C286.775 283.121 286.344 283.718 286.059 284.399C285.86 284.942 285.713 285.503 285.621 286.074C285.446 286.968 285.292 287.965 285.508 288.822C285.198 289.151 284.836 289.427 284.438 289.639C284.496 289.412 284.543 289.185 284.584 288.954C283.641 289.811 281.932 289.511 281.179 290.541C280.953 290.873 280.865 291.28 280.933 291.676C281.001 292.072 281.221 292.426 281.544 292.662C281.78 292.806 282.034 292.916 282.301 292.988C284.127 293.575 286.005 294.165 287.882 293.853C288.104 293.829 288.319 293.761 288.514 293.652C288.758 293.471 288.959 293.238 289.102 292.97C289.384 292.523 289.665 292.076 289.943 291.629C290.615 291.83 291.3 291.991 291.992 292.109C292.061 292.695 292.112 293.281 292.138 293.868C292.503 293.941 292.993 293.963 293.165 293.622C293.217 293.493 293.238 293.354 293.227 293.215C293.227 292.955 293.263 292.611 293.285 292.259H293.358C294.473 292.304 295.582 292.079 296.591 291.603C296.2 288.357 297.49 285.184 298.607 282.113C299.787 278.881 300.799 275.591 301.818 272.3C302.549 269.985 303.356 267.742 304.072 265.423C304.973 262.491 305.878 259.56 306.787 256.629C307.181 255.339 307.579 254.064 308.032 252.781C308.986 250.186 310.117 247.66 311.418 245.222C311.784 244.529 312.149 243.844 312.449 243.126C312.814 242.25 313.073 241.334 313.366 240.429C314.002 238.572 314.769 236.762 315.66 235.014C315.685 234.966 315.703 234.922 315.729 234.878C316.025 236.091 316.321 237.322 316.518 238.542C316.785 240.038 316.806 241.568 316.58 243.071C316.405 244.093 316.072 245.105 316.113 246.142C316.167 247.574 316.931 248.875 317.307 250.257C317.55 251.29 317.687 252.346 317.716 253.408C317.819 255.057 318.71 256.907 318.082 258.435C316.127 263.275 317.073 268.742 315.959 273.825C315.386 276.434 313.629 278.885 313.767 281.552C313.865 283.446 314.03 285.334 314.264 287.217C314.32 287.811 314.475 288.392 314.721 288.936C314.867 289.222 315.034 289.496 315.221 289.757C315.061 289.819 314.925 289.984 314.808 290.332C314.509 291.248 314.808 292.384 315.619 292.897C315.95 293.074 316.306 293.198 316.675 293.263C317.172 293.405 317.686 293.476 318.202 293.476C318.363 293.467 318.523 293.447 318.681 293.417C319.245 293.655 319.822 293.863 320.408 294.04C320.408 294.19 320.438 294.34 320.456 294.491C320.457 294.569 320.474 294.647 320.507 294.718C320.54 294.789 320.587 294.853 320.646 294.905C320.737 294.947 320.838 294.965 320.938 294.956H322.922C322.922 294.791 322.922 294.623 322.922 294.458C323.149 294.481 323.378 294.457 323.595 294.386C323.812 294.316 324.012 294.2 324.182 294.047C324.358 293.823 324.482 293.563 324.547 293.285C325.088 291.446 325.625 289.605 326.158 287.763C326.798 285.727 327.064 283.592 326.944 281.461C326.239 274.708 327.788 267.933 327.283 261.161C326.98 257.091 327.189 252.999 327.904 248.981C328.069 248.073 328.27 247.149 328.343 246.244C328.503 244.537 328.306 242.811 328.427 241.114C328.467 240.521 328.547 239.931 328.62 239.341C329.121 235.679 329.383 231.989 329.406 228.293C329.395 227.069 329.319 225.846 329.179 224.629C329.56 224.532 329.906 224.329 330.177 224.043C330.502 223.618 330.418 223.021 330.414 222.478C330.414 221.181 330.958 219.957 331.397 218.734C331.959 217.046 332.42 215.325 332.777 213.582C333.155 212.177 333.361 210.731 333.391 209.276C333.391 209.13 333.384 208.983 333.369 208.837C333.507 208.741 333.622 208.616 333.705 208.47C333.801 208.255 333.86 208.026 333.881 207.792C334.012 206.858 334.147 205.92 334.279 204.982C334.376 204.31 334.472 203.64 334.567 202.97L335.729 194.839C335.828 194.132 335.93 193.429 336.029 192.725L336.332 190.622C336.365 190.373 336.401 190.124 336.427 189.889C337.318 188.394 336.467 186.401 336.372 184.701ZM326.681 215.143C326.25 214.117 325.848 213.065 325.95 211.958H325.91C326.006 211.618 325.989 211.255 325.862 210.925C325.749 210.658 325.552 210.431 325.431 210.163C325.302 209.837 325.235 209.488 325.234 209.137C325.143 206.908 325.319 204.677 325.756 202.49C325.804 202.234 325.855 201.974 325.903 201.717C326.056 201.628 326.196 201.519 326.319 201.391C326.511 201.171 326.67 200.924 326.79 200.658C327.203 199.826 327.579 198.98 327.926 198.119C328.04 197.84 328.204 197.518 328.485 197.448C328.427 199.592 328.646 201.779 327.777 203.714C327.611 204.026 327.489 204.359 327.411 204.703C327.331 205.249 327.557 205.803 327.477 206.345C327.437 206.627 327.316 206.887 327.269 207.166C327.233 207.302 327.233 207.446 327.271 207.583C327.308 207.719 327.38 207.843 327.481 207.943C327.529 207.977 327.582 208.004 327.638 208.023C327.616 208.17 327.598 208.32 327.583 208.463C327.554 208.763 327.539 209.045 327.521 209.221C327.437 210.118 327.404 211.018 327.422 211.918C327.422 212.889 327.459 213.86 327.444 214.85C327.458 215.134 327.41 215.417 327.305 215.681C327.233 215.818 327.139 215.941 327.028 216.048C326.922 215.718 326.805 215.428 326.681 215.143Z" fill="url(#paint0_linear)"/>
<path d="M297.845 172.627C298.96 172.398 299.339 169.646 298.692 166.48C298.045 163.314 296.617 160.933 295.503 161.162C294.388 161.391 294.009 164.143 294.655 167.309C295.302 170.475 296.73 172.856 297.845 172.627Z" fill="#FBBEBE"/>
<path d="M314.867 290.401C314.567 291.31 314.867 292.446 315.678 292.941C316.006 293.116 316.36 293.24 316.726 293.307C317.222 293.448 317.735 293.518 318.25 293.516C318.882 293.487 319.488 293.237 320.12 293.15C320.193 293.131 320.27 293.142 320.335 293.179C320.367 293.213 320.391 293.254 320.405 293.298C320.419 293.342 320.422 293.389 320.416 293.435C320.423 293.796 320.449 294.155 320.496 294.513C320.497 294.591 320.514 294.669 320.547 294.74C320.579 294.812 320.627 294.875 320.686 294.927C320.777 294.969 320.878 294.987 320.978 294.978H322.958C323.003 293.233 322.813 291.49 322.392 289.797C322.365 289.667 322.315 289.543 322.246 289.43C322.078 289.246 321.857 289.118 321.614 289.064C321.13 288.862 320.607 288.771 320.083 288.797C319.444 288.881 318.911 289.295 318.366 289.639C317.822 289.984 317.081 290.288 316.419 290.112C315.758 289.936 315.207 289.383 314.867 290.401Z" fill="#3F3D56"/>
<path d="M285.796 288.793C285.24 289.391 284.557 289.856 283.798 290.156L283.462 290.317C283.416 290.335 283.376 290.367 283.349 290.409C283.342 290.437 283.342 290.467 283.349 290.495C283.355 290.524 283.368 290.55 283.385 290.573C283.665 291.007 284.078 291.338 284.562 291.514C285.046 291.691 285.575 291.704 286.067 291.552C286.284 291.497 286.486 291.392 286.655 291.244C286.933 290.913 287.093 290.497 287.108 290.064C287.218 289.617 287.199 289.148 287.053 288.712C286.545 287.565 286.359 288.085 285.796 288.793Z" fill="#FBBEBE"/>
<path d="M293.387 293.307C293.399 293.446 293.377 293.585 293.325 293.714C293.154 294.051 292.675 294.033 292.302 293.959C292.246 292.716 292.096 291.479 291.853 290.258C291.144 290.226 290.633 290.9 290.253 291.504L289.274 293.062C289.132 293.33 288.933 293.563 288.69 293.743C288.494 293.85 288.279 293.919 288.058 293.945C286.187 294.256 284.299 293.666 282.494 293.08C282.228 293.008 281.974 292.9 281.738 292.757C281.416 292.52 281.198 292.167 281.13 291.772C281.062 291.377 281.149 290.971 281.373 290.64C282.129 289.614 283.828 289.907 284.77 289.057C284.672 289.655 284.51 290.241 284.288 290.804C285.548 290.614 286.396 289.456 287.411 288.683C287.666 288.466 287.973 288.319 288.302 288.258C288.549 288.237 288.796 288.263 289.033 288.335C290.204 288.631 291.299 289.171 292.248 289.921C292.631 290.226 293.23 290.654 293.398 291.123C293.577 291.684 293.387 292.71 293.387 293.307Z" fill="#3F3D56"/>
<path d="M318.516 172.411C322.684 172.411 326.063 169.022 326.063 164.841C326.063 160.66 322.684 157.271 318.516 157.271C314.348 157.271 310.969 160.66 310.969 164.841C310.969 169.022 314.348 172.411 318.516 172.411Z" fill="#FBBEBE"/>
<path d="M333.384 209.537C333.353 210.984 333.149 212.422 332.774 213.82C332.417 215.556 331.955 217.269 331.393 218.95C330.958 220.17 330.414 221.394 330.418 222.687C330.418 223.226 330.505 223.823 330.177 224.248C329.884 224.547 329.515 224.758 329.11 224.86C328.908 224.914 328.721 225.015 328.565 225.154C328.409 225.293 328.288 225.468 328.211 225.663C327.868 225.149 327.612 224.582 327.451 223.985C326.796 221.972 326.187 219.948 325.625 217.913C325.573 217.796 325.551 217.668 325.56 217.54C325.569 217.413 325.609 217.289 325.676 217.18C325.769 217.099 325.877 217.038 325.994 217.001C326.368 216.847 326.711 216.626 327.006 216.348C327.144 216.225 327.258 216.077 327.342 215.912C327.448 215.65 327.497 215.367 327.484 215.084C327.484 214.113 327.484 213.146 327.459 212.175C327.443 211.278 327.478 210.382 327.561 209.489C327.561 209.313 327.594 209.031 327.623 208.731C327.678 208.155 327.788 207.488 328.098 207.265C328.562 206.953 329.95 207.371 330.476 207.444C331.382 207.569 332.303 207.716 333.187 207.888C333.315 208.428 333.381 208.981 333.384 209.537Z" fill="#3F3D56"/>
<path d="M302.911 173.316C302.618 173.902 301.917 174.184 301.376 174.554L299.524 175.83C299.401 175.941 299.256 176.027 299.098 176.081C298.94 176.135 298.774 176.157 298.607 176.145C298.457 176.089 298.319 176.003 298.201 175.893C298.084 175.783 297.99 175.651 297.924 175.503C297.925 175.494 297.925 175.484 297.924 175.474L297.541 174.829L295.714 171.759C295.511 171.484 295.393 171.155 295.375 170.813C295.375 170.656 295.429 170.509 295.444 170.352C295.449 169.909 295.322 169.475 295.079 169.106C294.933 168.831 294.64 168.604 294.648 168.296C294.634 167.892 294.703 167.489 294.852 167.112C295.044 166.765 295.319 166.47 295.652 166.255C295.824 166.13 295.999 166.013 296.182 165.889C296.279 165.822 296.386 165.773 296.5 165.742C296.803 165.68 297.102 165.933 297.409 165.944C298.728 166.83 299.236 168.509 300.273 169.718C300.858 170.407 300.916 170.934 301.577 171.55C301.683 171.645 301.786 171.748 301.884 171.854C302.015 171.997 302.126 172.157 302.213 172.33C302.334 172.645 303.06 173.015 302.911 173.316Z" fill="#3F3D56"/>
<path d="M315.864 172.415C316.408 173.569 316.832 174.837 316.675 176.104C316.643 176.448 316.534 176.78 316.357 177.075C315.831 177.885 314.728 178.032 313.767 178.079C313.565 178.062 313.361 178.086 313.168 178.149C312.975 178.212 312.796 178.313 312.642 178.446C312.514 178.633 312.451 178.857 312.464 179.084C312.476 179.311 312.563 179.527 312.712 179.699C313.02 180.029 313.404 180.281 313.829 180.432C315.349 181.102 316.989 181.656 318.64 181.502C319.408 181.428 320.153 181.205 320.916 181.091C321.749 181.001 322.585 180.954 323.422 180.952C324.416 180.915 325.406 180.817 326.396 180.718L329.019 180.457C329.162 180.46 329.301 180.409 329.409 180.315C329.603 180.087 329.355 179.754 329.113 179.582C327.722 178.548 325.95 177.838 325.157 176.284C324.792 175.551 324.679 174.679 324.408 173.888C324.138 173.096 323.707 172.382 323.539 171.575C323.449 170.868 323.409 170.156 323.418 169.443C323.428 168.724 323.167 168.028 322.688 167.494C322.166 167.006 321.409 166.882 320.701 166.852C318.955 166.775 317.095 167.193 315.857 168.428C315.524 168.761 315.239 169.161 314.896 169.461C314.553 169.762 314.085 169.85 314.312 170.245C314.538 170.641 314.984 170.887 315.225 171.235C315.469 171.61 315.683 172.005 315.864 172.415Z" fill="#FBBEBE"/>
<path d="M330.743 183.074C330.282 185.895 329.533 188.662 328.507 191.329C327.991 192.534 327.552 193.77 327.192 195.03C326.911 196.166 326.966 197.382 326.706 198.522C326.385 199.94 326.063 201.362 325.804 202.791C325.369 204.973 325.195 207.199 325.285 209.423C325.286 209.773 325.353 210.12 325.482 210.445C325.603 210.709 325.797 210.936 325.91 211.207C325.995 211.445 326.029 211.699 326.012 211.951C325.994 212.203 325.925 212.449 325.808 212.673C325.62 213.092 325.366 213.478 325.055 213.816C321.65 214.835 318.008 214.501 314.461 214.718C311.192 214.915 307.886 215.59 304.664 215.029C304.299 213.563 304.909 212.028 305.431 210.599C306.947 206.447 308.624 202.124 308.354 197.774C308.325 197.267 308.268 196.762 308.182 196.261C307.652 193.179 308.229 189.988 309.154 187.002C309.727 185.14 309.702 183.158 309.57 181.22C309.505 180.59 309.496 179.956 309.544 179.325C309.597 178.681 309.836 178.066 310.231 177.555C310.231 177.53 310.264 177.504 310.282 177.478C310.301 177.453 310.443 177.456 310.556 177.478C310.585 177.491 310.616 177.497 310.648 177.497C310.679 177.497 310.71 177.491 310.739 177.478L310.779 177.453C310.795 177.442 310.813 177.436 310.832 177.436C310.851 177.436 310.87 177.442 310.885 177.453C310.969 177.504 311.017 177.68 311.199 177.713C311.469 177.754 311.741 177.78 312.014 177.79C312.342 177.8 312.668 177.846 312.986 177.929H313.029C313.504 178.009 313.992 177.968 314.447 177.808C314.749 177.732 315.041 177.619 315.316 177.471C315.397 177.383 315.901 177.303 316.003 177.24C316.335 177.039 316.262 176.093 316.332 175.705C316.37 175.315 316.462 174.933 316.606 174.569C316.772 174.3 317.002 174.077 317.274 173.918C317.547 173.759 317.854 173.669 318.169 173.657C318.798 173.642 319.427 173.698 320.043 173.825C321.406 174.019 322.801 173.986 324.138 174.302C324.81 174.459 325.545 174.697 326.162 174.39C326.33 174.43 326.356 174.576 326.356 174.756C326.34 174.926 326.305 175.095 326.253 175.258C326.019 176.269 326.812 177.2 327.543 177.933C327.851 178.278 328.216 178.569 328.62 178.794C328.986 178.962 329.351 179.032 329.716 179.215C330.012 179.374 330.263 179.604 330.447 179.886C330.657 180.209 330.799 180.572 330.863 180.952C330.942 181.661 330.901 182.378 330.743 183.074Z" fill="#3F3D56"/>
<path opacity="0.1" d="M330.743 183.074C330.282 185.895 329.533 188.662 328.507 191.329C327.991 192.534 327.552 193.77 327.192 195.03C326.911 196.166 326.965 197.382 326.706 198.522C326.385 199.94 326.063 201.362 325.804 202.791C325.727 202.835 325.647 202.875 325.566 202.912C325.112 203.129 324.63 203.285 324.134 203.373C323.244 203.481 322.342 203.452 321.46 203.285L316.248 202.586C314.165 202.303 311.948 201.963 310.403 200.548C309.544 199.771 308.982 198.745 308.364 197.756C308.336 197.249 308.279 196.744 308.193 196.243C307.663 193.161 308.24 189.97 309.164 186.983C309.738 185.122 309.712 183.14 309.581 181.201C309.516 180.572 309.507 179.938 309.555 179.307C309.608 178.663 309.847 178.048 310.242 177.537C310.349 177.506 310.457 177.481 310.567 177.464C310.641 177.449 310.715 177.439 310.79 177.435H310.896C311.019 177.435 311.142 177.45 311.261 177.479C311.51 177.558 311.754 177.652 311.992 177.761H312.036C312.349 177.864 312.678 177.911 313.007 177.9C313.49 177.9 313.986 177.823 314.469 177.79C315.064 177.697 315.674 177.806 316.2 178.101C316.54 178.375 316.862 178.67 317.165 178.985C317.53 179.272 317.941 179.497 318.381 179.648C321.525 180.852 325.014 180.778 328.105 179.443C328.402 179.273 328.739 179.187 329.081 179.193C329.333 179.243 329.572 179.345 329.782 179.494C330.001 179.622 330.217 179.747 330.439 179.86C330.65 180.183 330.792 180.546 330.856 180.927C330.94 181.644 330.901 182.37 330.743 183.074Z" fill="black"/>
<path d="M333.925 180.648C332.47 180.202 331.072 179.588 329.76 178.816C329.549 178.669 329.311 178.566 329.059 178.516C328.716 178.511 328.379 178.597 328.08 178.765C324.99 180.1 321.502 180.174 318.359 178.97C317.92 178.817 317.509 178.593 317.143 178.307C316.839 177.993 316.517 177.698 316.178 177.424C314.976 176.643 313.314 177.559 311.97 177.057C311.732 176.95 311.488 176.856 311.239 176.775C310.176 176.508 309.095 177.57 308.05 177.248C307.662 178.308 307.374 179.402 307.192 180.516C307.043 181.796 306.964 183.083 306.955 184.371C306.955 185.144 306.918 185.917 306.955 186.69C307.083 186.712 307.206 186.759 307.316 186.831C307.425 186.902 307.519 186.995 307.59 187.104C307.638 187.232 307.658 187.369 307.648 187.505C307.638 187.641 307.598 187.773 307.532 187.892C306.768 189.86 305.994 191.85 304.836 193.612C305.652 194.1 306.409 194.68 307.093 195.342C308.372 196.697 309 198.599 310.381 199.852C311.937 201.263 314.155 201.607 316.226 201.886L321.439 202.586C322.321 202.751 323.224 202.782 324.116 202.677C324.611 202.587 325.091 202.43 325.545 202.212C325.841 202.088 326.111 201.909 326.341 201.684C326.534 201.465 326.692 201.218 326.812 200.951C327.225 200.123 327.601 199.277 327.948 198.419C328.069 198.115 328.251 197.76 328.58 197.734C330.516 195.983 332.343 194.187 334.279 192.436C335.057 191.789 335.755 191.051 336.357 190.237C337.318 188.812 336.445 186.793 336.357 185.071C336.347 184.63 336.292 184.192 336.193 183.763C335.879 182.513 335.141 181.018 333.925 180.648Z" fill="#3D8060"/>
<path opacity="0.1" d="M302.911 173.316C302.618 173.902 301.917 174.184 301.376 174.554L299.524 175.83C299.401 175.941 299.256 176.027 299.098 176.081C298.94 176.135 298.774 176.157 298.608 176.145C298.457 176.089 298.319 176.003 298.201 175.893C298.084 175.783 297.99 175.651 297.924 175.503C297.924 175.419 297.924 175.328 297.924 175.24C297.91 174.943 297.95 174.646 298.041 174.364C298.223 173.95 298.504 173.587 298.86 173.309C299.547 172.655 300.365 172.156 301.26 171.843C301.399 171.789 301.551 171.773 301.698 171.799C301.755 171.814 301.809 171.837 301.859 171.869C301.989 172.012 302.1 172.172 302.187 172.345C302.334 172.645 303.061 173.015 302.911 173.316Z" fill="black"/>
<path d="M307.272 177.178C306.651 177.149 306.144 176.698 305.691 176.269L304.306 174.98C304.213 174.901 304.132 174.81 304.065 174.708C303.99 174.566 303.934 174.415 303.897 174.258C303.603 173.518 303.143 172.855 302.553 172.323C302.45 172.192 302.312 172.093 302.155 172.037C302.006 172.01 301.853 172.025 301.713 172.081C300.818 172.394 300 172.893 299.312 173.547C298.957 173.825 298.676 174.188 298.494 174.602C298.402 174.884 298.363 175.181 298.377 175.478C298.386 176.446 298.603 177.401 299.013 178.277C299.075 178.413 299.144 178.548 299.218 178.68C299.705 179.488 300.281 180.239 300.934 180.919L301.804 181.894C302.659 182.854 303.513 183.814 304.441 184.697C304.774 185.053 305.177 185.335 305.625 185.525C305.85 185.617 306.095 185.645 306.335 185.607C306.575 185.568 306.799 185.463 306.984 185.305C307.159 185.102 307.291 184.865 307.371 184.609C307.934 183.143 308.467 181.619 308.5 180.04C308.508 179.407 308.481 178.775 308.419 178.145C308.365 177.479 307.893 177.218 307.272 177.178Z" fill="#3D8060"/>
<path d="M329.409 228.477C329.388 232.162 329.127 235.843 328.628 239.495C328.555 240.085 328.474 240.675 328.434 241.265C328.314 242.976 328.511 244.694 328.35 246.394C328.266 247.314 328.076 248.227 327.915 249.124C327.201 253.131 326.993 257.212 327.294 261.271C327.798 268.024 326.253 274.781 326.955 281.516C327.04 282.825 326.967 284.14 326.739 285.433C326.608 286.235 326.419 287.026 326.173 287.8C325.64 289.634 325.104 291.466 324.566 293.296C324.502 293.574 324.377 293.835 324.2 294.058C324.014 294.22 323.795 294.34 323.559 294.41C323.323 294.48 323.074 294.499 322.83 294.465C320.723 294.399 318.739 293.487 316.825 292.596C316.605 292.509 316.401 292.385 316.222 292.23C315.824 291.816 315.857 291.164 315.682 290.618C315.506 290.072 315.031 289.559 314.761 288.998C314.539 288.468 314.404 287.905 314.363 287.331C314.119 285.455 313.954 283.571 313.866 281.681C313.727 279.02 315.481 276.573 316.058 273.986C317.154 268.9 316.226 263.448 318.173 258.622C318.787 257.098 317.895 255.251 317.808 253.609C317.776 252.55 317.639 251.497 317.398 250.465C317.033 249.088 316.262 247.791 316.208 246.361C316.167 245.328 316.5 244.321 316.671 243.302C316.899 241.803 316.878 240.276 316.609 238.784C316.416 237.553 316.12 236.322 315.824 235.12L315.758 235.255C314.868 237 314.103 238.806 313.468 240.66C313.176 241.558 312.92 242.474 312.555 243.346C312.255 244.079 311.886 244.749 311.524 245.438C310.227 247.867 309.098 250.383 308.145 252.968C307.692 254.236 307.294 255.533 306.9 256.804L304.193 265.598C303.462 267.911 302.662 270.146 301.946 272.454C300.934 275.752 299.923 279.02 298.746 282.245C297.65 285.304 296.346 288.474 296.737 291.706C295.73 292.181 294.624 292.406 293.512 292.362C291.629 292.195 289.782 291.745 288.032 291.028C287.334 290.768 286.611 290.475 286.14 289.899C285.329 288.906 285.53 287.452 285.775 286.188C285.867 285.618 286.014 285.058 286.213 284.517C286.491 283.842 286.943 283.245 287.228 282.578C287.802 281.3 287.838 279.852 288.065 278.463C288.291 277.075 288.796 275.609 289.979 274.854C290.18 272.414 291.181 270.006 291.733 267.621C292.149 265.815 292.288 263.957 292.617 262.125C292.945 260.293 293.475 258.461 294.578 256.977C294.491 255.446 294.836 253.923 295.572 252.58C295.75 252.285 295.895 251.971 296.007 251.645C296.075 251.327 296.114 251.003 296.123 250.678C296.244 249.405 296.787 248.209 297.665 247.281C297.3 245.944 297.807 244.548 298.264 243.251C298.839 241.595 299.099 239.847 299.031 238.095C298.975 237.606 298.998 237.111 299.101 236.629C299.203 236.263 299.404 235.952 299.521 235.6C299.625 235.169 299.68 234.728 299.685 234.284C299.828 232.302 300.628 230.433 301.512 228.663C302.038 227.63 301.592 226.227 301.702 225.076C301.892 223.164 302.1 221.185 303.046 219.518C303.221 219.203 303.411 218.902 303.568 218.576C303.759 218.11 303.861 217.613 303.871 217.11C303.904 216.271 304.021 215.575 303.722 214.794C305.676 213.164 308.343 212.706 310.885 212.596C313.428 212.486 315.999 212.717 318.487 212.175C319.218 212.01 319.948 211.783 320.719 211.673C322.469 211.416 324.244 211.816 325.972 212.211C325.851 213.311 326.253 214.366 326.703 215.388C328.457 219.529 329.377 223.977 329.409 228.477Z" fill="#33313F"/>
<path opacity="0.1" d="M320.807 229.316L316.609 238.784C316.416 237.553 316.12 236.322 315.824 235.12L315.758 235.255V235.057L318.045 230.012L320.807 229.316Z" fill="black"/>
<path opacity="0.1" d="M333.384 209.537C333.142 209.718 332.853 209.826 332.551 209.848C332.088 209.865 331.626 209.801 331.185 209.661L327.897 208.837C327.794 208.811 327.694 208.776 327.598 208.731C327.652 208.155 327.762 207.488 328.072 207.265C328.536 206.953 329.924 207.371 330.451 207.444C331.356 207.569 332.277 207.716 333.161 207.888C333.298 208.427 333.373 208.98 333.384 209.537Z" fill="black"/>
<path d="M336.164 187.734C336.233 188.039 336.332 188.339 336.39 188.647C336.488 189.402 336.463 190.168 336.313 190.915L336.014 193.011L335.714 195.118L334.556 203.227L334.271 205.235L333.87 208.038C333.851 208.271 333.791 208.499 333.694 208.712C333.575 208.911 333.407 209.077 333.208 209.196C333.008 209.314 332.783 209.381 332.551 209.39C332.088 209.404 331.626 209.341 331.185 209.203L327.897 208.375C327.753 208.349 327.616 208.293 327.495 208.21C327.395 208.111 327.322 207.988 327.285 207.852C327.248 207.716 327.247 207.573 327.283 207.437C327.331 207.158 327.451 206.898 327.492 206.62C327.572 206.077 327.345 205.52 327.426 204.982C327.505 204.639 327.627 204.307 327.791 203.996C328.887 201.567 328.251 198.731 328.624 196.092C328.959 194.016 329.834 192.065 331.159 190.435C331.977 189.406 332.917 188.481 333.957 187.679C334.366 187.361 335.017 186.705 335.532 186.58C336.193 186.441 336.054 187.273 336.164 187.734Z" fill="#3D8060"/>
<path d="M311.283 156.171C311.042 156.941 311.418 157.787 311.247 158.571C311.06 159.436 310.249 160.037 310.019 160.905C309.654 162.228 310.772 163.434 311.59 164.533C314.622 168.615 314.224 174.265 313.186 179.245C312.352 183.24 311.197 187.161 309.734 190.97C309.278 192.154 308.774 193.356 307.875 194.242C309.555 193.759 311.342 193.271 313.026 193.74C315.159 194.334 317 196.411 319.163 195.939C320.463 195.649 321.376 194.491 322.545 193.85C324.737 192.667 327.378 193.41 329.822 193.792C330.349 193.916 330.9 193.888 331.411 193.711C331.802 193.5 332.134 193.194 332.376 192.821C333.466 191.417 334.119 189.722 334.253 187.947C334.311 187.064 334.181 186.178 333.872 185.348C333.563 184.519 333.081 183.765 332.46 183.136C331.941 182.645 331.32 182.249 330.922 181.67C330.534 180.994 330.327 180.23 330.319 179.45C330.03 175.419 331.009 171.304 330.001 167.406C329.636 166.017 329.04 164.687 328.88 163.265C328.679 161.495 329.157 159.601 328.456 157.981C327.904 156.695 326.688 155.783 325.376 155.314C324.065 154.845 322.662 154.713 321.27 154.581C319.269 154.413 312.12 153.551 311.283 156.171Z" fill="#33313F"/>
<g opacity="0.1">
<path opacity="0.1" d="M313.186 179.245C312.356 183.223 311.207 187.128 309.753 190.922C310.005 190.42 310.216 189.893 310.417 189.369C311.882 185.56 313.036 181.639 313.869 177.643C314.911 172.66 315.309 167.017 312.277 162.932C311.546 161.957 310.607 160.902 310.64 159.759C310.37 160.104 310.16 160.493 310.019 160.909C309.654 162.232 310.772 163.437 311.59 164.537C314.622 168.615 314.224 174.265 313.186 179.245Z" fill="black"/>
<path opacity="0.1" d="M311.29 158.201C311.584 157.836 311.802 157.417 311.933 156.967C311.99 156.422 311.975 155.873 311.89 155.332C311.608 155.545 311.397 155.837 311.283 156.171C311.068 156.82 311.316 157.523 311.29 158.201Z" fill="black"/>
<path opacity="0.1" d="M333.062 191.208C332.821 191.581 332.489 191.886 332.098 192.095C331.587 192.276 331.035 192.304 330.509 192.176C328.065 191.809 325.395 191.055 323.232 192.238C322.06 192.876 321.15 194.034 319.846 194.327C317.687 194.81 315.846 192.733 313.712 192.128C312.2 191.707 310.607 192.055 309.084 192.495C308.781 193.142 308.373 193.734 307.875 194.246C309.555 193.762 311.342 193.275 313.026 193.744C315.159 194.338 317 196.415 319.163 195.943C320.463 195.653 321.376 194.495 322.545 193.854C324.737 192.671 327.378 193.414 329.822 193.795C330.349 193.92 330.9 193.892 331.411 193.715C331.802 193.504 332.134 193.198 332.376 192.824C333.038 191.948 333.549 190.968 333.888 189.922C333.644 190.37 333.368 190.8 333.062 191.208Z" fill="black"/>
</g>
<path d="M107.846 145.271C104.51 145.271 101.808 144.049 99.7402 141.606C97.7197 139.116 96.7094 135.873 96.7094 131.879C96.7094 127.885 97.7197 124.667 99.7402 122.223C101.808 119.733 104.51 118.488 107.846 118.488C111.135 118.488 113.813 119.709 115.881 122.153C117.948 124.596 118.982 127.838 118.982 131.879C118.982 135.92 117.948 139.163 115.881 141.606C113.813 144.049 111.135 145.271 107.846 145.271ZM137.731 118.84H141.889L108.198 168.178H104.04L137.731 118.84ZM107.846 142.099C110.148 142.099 111.981 141.207 113.343 139.421C114.753 137.589 115.458 135.075 115.458 131.879C115.458 128.684 114.753 126.194 113.343 124.408C111.981 122.576 110.148 121.659 107.846 121.659C105.496 121.659 103.64 122.576 102.278 124.408C100.915 126.241 100.234 128.731 100.234 131.879C100.234 135.028 100.915 137.518 102.278 139.351C103.64 141.183 105.496 142.099 107.846 142.099ZM138.083 168.531C134.794 168.531 132.115 167.309 130.048 164.866C127.98 162.375 126.947 159.133 126.947 155.139C126.947 151.145 127.98 147.926 130.048 145.483C132.115 142.992 134.794 141.747 138.083 141.747C141.419 141.747 144.098 142.992 146.118 145.483C148.186 147.926 149.219 151.145 149.219 155.139C149.219 159.133 148.186 162.375 146.118 164.866C144.098 167.309 141.419 168.531 138.083 168.531ZM138.083 165.359C140.432 165.359 142.289 164.443 143.651 162.61C145.014 160.777 145.695 158.287 145.695 155.139C145.695 151.991 145.014 149.5 143.651 147.668C142.289 145.835 140.432 144.919 138.083 144.919C135.781 144.919 133.925 145.835 132.515 147.668C131.152 149.453 130.471 151.944 130.471 155.139C130.471 158.334 131.152 160.848 132.515 162.681C133.925 164.466 135.781 165.359 138.083 165.359Z" fill="white"/>
</g>
<defs>
<linearGradient id="paint0_linear" x1="280.934" y1="224.402" x2="336.825" y2="224.402" gradientUnits="userSpaceOnUse">
<stop stop-color="#808080" stop-opacity="0.25"/>
<stop offset="0.54" stop-color="#808080" stop-opacity="0.12"/>
<stop offset="1" stop-color="#808080" stop-opacity="0.1"/>
</linearGradient>
<clipPath id="clip0">
<rect width="426" height="295" fill="white" transform="translate(0.166016)"/>
</clipPath>
</defs>
</svg>
