<svg width="315" height="268" viewBox="0 0 315 268" fill="none" xmlns="http://www.w3.org/2000/svg">
<g clip-path="url(#clip0)">
<path d="M198.15 36.513C195.183 42.6771 189.725 47.266 184.009 51.0013C177.944 54.9495 171.425 58.1453 164.593 60.5186C163.653 60.8488 162.703 61.1647 161.754 61.4619H121.098C120.835 61.16 120.581 60.844 120.336 60.5186C117.784 57.1324 116.416 52.8453 116.928 48.6431C117.6 43.1346 121.77 38.0693 127.181 36.895C132.592 35.7254 138.76 38.9654 140.401 44.2665C141.308 34.0464 142.352 23.3971 147.768 14.691C152.671 6.81015 161.171 1.16953 170.375 0.160257C175.789 -0.405422 181.252 0.597887 186.115 3.05128C186.561 3.27766 187.003 3.51347 187.436 3.75872C190.354 5.41881 192.93 7.62309 195.023 10.253C200.764 17.5443 202.169 28.1417 198.15 36.513Z" fill="#F2F2F2"/>
<path d="M187.436 3.75898C187.447 3.88277 187.426 4.0074 187.375 4.12066C187.324 4.23393 187.245 4.33195 187.145 4.40513C168.732 19.4473 154.169 38.6863 144.67 60.5189C144.529 60.8302 144.392 61.1461 144.261 61.4621H142.39C142.521 61.1461 142.653 60.8302 142.789 60.5189C144.571 56.3497 146.541 52.2655 148.699 48.2661C153.369 39.6312 158.863 31.4716 165.105 23.902C171.347 16.3233 178.318 9.38039 185.917 3.17419C185.978 3.12496 186.044 3.08375 186.115 3.05157C186.247 2.99448 186.39 2.96796 186.534 2.97398C186.678 2.98001 186.818 3.01843 186.945 3.08638C187.072 3.15434 187.182 3.25009 187.267 3.36653C187.352 3.48296 187.41 3.6171 187.436 3.75898Z" fill="white"/>
<path d="M188.212 60.5188H9.09819C7.55541 60.517 6.0388 60.9185 4.69775 61.6837C4.37654 61.8666 4.06725 62.0698 3.77176 62.2921C2.65284 63.1243 1.74386 64.2079 1.11769 65.4561C0.491524 66.7043 0.165587 68.0823 0.166016 69.4796V162.861C0.168121 165.237 1.10986 167.515 2.78451 169.195C4.45916 170.875 6.72987 171.82 9.09819 171.822H188.212C190.58 171.82 192.851 170.875 194.525 169.195C196.2 167.515 197.142 165.237 197.144 162.861V69.4796C197.142 67.1037 196.2 64.8258 194.525 63.1458C192.851 61.4657 190.58 60.521 188.212 60.5188ZM196.204 162.861C196.201 164.987 195.358 167.024 193.86 168.527C192.361 170.03 190.33 170.876 188.212 170.879H9.09819C6.97951 170.876 4.94848 170.03 3.45035 168.527C1.95222 167.024 1.10924 164.987 1.10624 162.861V69.4796C1.11292 67.7853 1.65156 66.136 2.64567 64.7662C3.63977 63.3964 5.03881 62.3756 6.64409 61.8488C6.70997 61.8299 6.77102 61.8063 6.83691 61.7875C7.57124 61.5709 8.33278 61.4613 9.09819 61.4621H188.212C190.33 61.4651 192.361 62.3108 193.86 63.8137C195.358 65.3166 196.201 67.3542 196.204 69.4796V162.861Z" fill="#3F3D56"/>
<path d="M252.72 182.326C253.339 181.921 253.861 181.386 254.251 180.757C254.641 180.128 254.889 179.421 254.977 178.685C255.065 177.95 254.991 177.204 254.761 176.5C254.53 175.797 254.149 175.152 253.643 174.612L256.451 141.028L248.41 141.915L246.206 174.602C245.359 175.515 244.874 176.707 244.844 177.954C244.814 179.2 245.241 180.415 246.044 181.367C246.847 182.319 247.97 182.942 249.2 183.119C250.431 183.296 251.683 183.014 252.72 182.326Z" fill="#FFB8B8"/>
<path d="M224.099 262.432L218.335 262.431L215.594 240.129L224.1 240.129L224.099 262.432Z" fill="#FFB8B8"/>
<path d="M214.218 260.779H225.334V267.8H207.22C207.22 266.878 207.401 265.965 207.753 265.113C208.104 264.261 208.62 263.487 209.27 262.835C209.92 262.183 210.691 261.666 211.54 261.313C212.389 260.961 213.299 260.779 214.218 260.779Z" fill="#2F2E41"/>
<path d="M264.999 262.432L259.235 262.431L256.493 240.129L265 240.129L264.999 262.432Z" fill="#FFB8B8"/>
<path d="M255.119 260.779H266.234V267.8H248.12C248.12 265.938 248.857 264.152 250.17 262.835C251.482 261.519 253.262 260.779 255.119 260.779Z" fill="#2F2E41"/>
<path d="M224.196 248.618C224.134 248.618 224.071 248.616 224.008 248.611L215.85 247.956C215.527 247.93 215.212 247.837 214.926 247.683C214.64 247.529 214.389 247.317 214.188 247.061C213.988 246.805 213.843 246.51 213.762 246.194C213.68 245.879 213.665 245.55 213.717 245.229L226.085 168.486L226.913 157.662C226.95 157.156 227.149 156.675 227.481 156.293C227.813 155.91 228.26 155.646 228.754 155.539L241.194 152.809C241.652 152.707 242.129 152.745 242.565 152.918C243 153.091 243.374 153.392 243.637 153.781L246.67 158.229C247.861 159.958 249.156 161.613 250.546 163.185C252.698 165.644 256.357 171.104 256.686 180.039C256.774 182.974 257.078 185.899 257.595 188.789L267.61 242.913C267.661 243.23 267.646 243.555 267.567 243.866C267.488 244.178 267.347 244.47 267.151 244.724C266.956 244.979 266.711 245.191 266.431 245.347C266.151 245.503 265.842 245.6 265.523 245.632L257.79 246.219C257.237 246.274 256.682 246.13 256.226 245.812C255.769 245.494 255.44 245.023 255.298 244.484L241.581 193.312C241.554 193.212 241.495 193.123 241.413 193.06C241.331 192.997 241.23 192.963 241.127 192.963C241.023 192.963 240.923 192.998 240.841 193.061C240.759 193.125 240.7 193.213 240.673 193.314L226.467 246.867C226.333 247.369 226.038 247.812 225.628 248.129C225.217 248.446 224.714 248.618 224.196 248.618Z" fill="#2F2E41"/>
<path d="M245.889 118.03C252.266 118.03 257.435 112.844 257.435 106.447C257.435 100.049 252.266 94.8633 245.889 94.8633C239.512 94.8633 234.342 100.049 234.342 106.447C234.342 112.844 239.512 118.03 245.889 118.03Z" fill="#FFB8B8"/>
<path d="M226.318 159.404L226.079 142.862C225.2 132.282 229.87 126.727 233.943 123.933C234.993 123.221 236.177 122.731 237.421 122.492C238.666 122.253 239.946 122.27 241.184 122.542L250.271 124.513C251.537 124.79 252.733 125.321 253.788 126.074C254.843 126.828 255.734 127.789 256.409 128.898C257.054 129.944 257.477 131.113 257.653 132.33C257.829 133.548 257.753 134.789 257.43 135.976C256.799 138.197 255.399 140.121 253.481 141.4C245.673 146.93 245.123 156.218 245.118 156.312L245.109 156.504L226.318 159.404Z" fill="#3D8060"/>
<path d="M254.756 147.103H246.764C246.203 147.102 245.665 146.879 245.269 146.481C244.872 146.083 244.649 145.543 244.649 144.981V131.068C244.649 129.442 245.292 127.882 246.439 126.733C247.585 125.583 249.139 124.937 250.76 124.937C252.381 124.937 253.935 125.583 255.082 126.733C256.228 127.882 256.872 129.442 256.872 131.068V144.981C256.871 145.543 256.648 146.083 256.251 146.481C255.855 146.879 255.317 147.102 254.756 147.103Z" fill="#3D8060"/>
<path d="M201.098 149.731C200.627 150.295 200.043 150.752 199.383 151.073C198.723 151.394 198.003 151.571 197.271 151.592C196.538 151.613 195.809 151.478 195.132 151.196C194.455 150.915 193.845 150.492 193.343 149.956C188.789 145.165 196.233 137.971 200.804 142.773C200.965 142.938 201.115 143.115 201.252 143.301L224.3 142.726L227.052 137.678L235.506 140.972C233.883 143.497 232.019 153.408 227.774 152.926C227.217 152.941 201.667 149.772 201.098 149.731Z" fill="#FFB8B8"/>
<path d="M231.931 145.912L225.488 141.168C225.037 140.835 224.735 140.335 224.65 139.779C224.565 139.223 224.703 138.656 225.035 138.202L233.24 126.985C233.715 126.336 234.312 125.787 234.999 125.37C235.685 124.953 236.446 124.675 237.24 124.553C238.033 124.431 238.842 124.466 239.622 124.658C240.401 124.85 241.136 125.194 241.783 125.67C242.43 126.146 242.977 126.746 243.393 127.434C243.809 128.123 244.086 128.887 244.208 129.683C244.329 130.478 244.294 131.291 244.103 132.073C243.911 132.855 243.569 133.591 243.094 134.24L234.889 145.457C234.556 145.91 234.058 146.212 233.504 146.298C232.95 146.383 232.384 146.244 231.931 145.912Z" fill="#3D8060"/>
<path d="M248.201 112.468C248.574 111.688 248.703 110.813 248.572 109.958C248.441 109.104 248.057 108.308 247.468 107.676C245.296 105.479 241.902 106.945 238.966 106.73C234.076 106.371 230.746 100.522 232.206 95.826C233.666 91.1304 238.854 88.2166 243.747 88.5255C248.641 88.8345 253.071 91.8711 256.02 95.8004C258.039 92.5411 262.998 92.1609 266.199 94.262C269.399 96.363 271.055 100.203 271.74 103.978C272.424 107.753 272.312 111.633 272.889 115.426C274.286 124.622 280.201 133.28 288.761 136.855C297.321 140.429 308.275 138.132 313.875 130.719C314.964 139.703 313.053 148.795 308.443 156.574C303.832 164.352 296.782 170.378 288.394 173.709C283.755 175.551 278.633 176.529 273.75 175.505C265.866 173.852 259.734 167.088 257.061 159.466C254.389 151.844 254.709 143.481 256.007 135.507C256.806 130.595 257.692 124.778 254.121 121.323C253.119 120.487 251.939 119.89 250.672 119.579C250.001 119.377 249.384 119.023 248.869 118.545C248.354 118.068 247.955 117.478 247.702 116.822C247.448 116.166 247.347 115.461 247.407 114.76C247.466 114.059 247.685 113.38 248.045 112.777C248.103 112.674 248.155 112.571 248.201 112.468Z" fill="#2F2E41"/>
<path d="M289.653 268H182.467C182.342 268 182.222 267.95 182.134 267.862C182.046 267.773 181.996 267.653 181.996 267.528C181.996 267.403 182.046 267.283 182.134 267.195C182.222 267.106 182.342 267.057 182.467 267.057H289.653C289.777 267.057 289.897 267.106 289.985 267.195C290.073 267.283 290.123 267.403 290.123 267.528C290.123 267.653 290.073 267.773 289.985 267.862C289.897 267.95 289.777 268 289.653 268Z" fill="#3F3D56"/>
<path d="M98.4593 116.13C97.7458 116.13 97.0441 115.949 96.4195 115.603L2.84642 63.9353C2.7372 63.8749 2.65634 63.7736 2.62162 63.6534C2.58691 63.5333 2.60117 63.4043 2.66129 63.2947C2.72141 63.1851 2.82246 63.104 2.9422 63.0692C3.06194 63.0344 3.19056 63.0487 3.29978 63.109L96.8729 114.777C97.3501 115.041 97.8854 115.182 98.4305 115.187C98.9756 115.192 99.5133 115.06 99.9951 114.804L195.108 64.4681C195.163 64.4391 195.223 64.4211 195.284 64.4153C195.346 64.4094 195.408 64.4158 195.467 64.4341C195.526 64.4523 195.581 64.4821 195.629 64.5217C195.676 64.5613 195.715 64.6098 195.744 64.6647C195.773 64.7195 195.791 64.7795 195.797 64.8413C195.802 64.903 195.796 64.9653 195.777 65.0245C195.759 65.0837 195.729 65.1387 195.69 65.1864C195.65 65.234 195.602 65.2734 195.547 65.3022L100.434 115.638C99.8253 115.961 99.1475 116.13 98.4593 116.13Z" fill="#3F3D56"/>
<path d="M30.0496 148.241H16.8864C15.8889 148.241 14.9324 147.843 14.227 147.135C13.5217 146.428 13.1255 145.468 13.1255 144.468C13.1255 143.467 13.5217 142.507 14.227 141.8C14.9324 141.092 15.8889 140.695 16.8864 140.695H30.0496C31.0471 140.695 32.0037 141.092 32.709 141.8C33.4143 142.507 33.8105 143.467 33.8105 144.468C33.8105 145.468 33.4143 146.428 32.709 147.135C32.0037 147.843 31.0471 148.241 30.0496 148.241Z" fill="#3F3D56"/>
<path d="M45.5634 160.974H16.8864C15.8889 160.974 14.9324 160.577 14.227 159.869C13.5217 159.162 13.1255 158.202 13.1255 157.201C13.1255 156.201 13.5217 155.241 14.227 154.534C14.9324 153.826 15.8889 153.428 16.8864 153.428H45.5634C46.5608 153.428 47.5174 153.826 48.2227 154.534C48.9281 155.241 49.3243 156.201 49.3243 157.201C49.3243 158.202 48.9281 159.162 48.2227 159.869C47.5174 160.577 46.5608 160.974 45.5634 160.974Z" fill="#3F3D56"/>
<path d="M98.4216 131.262C106.73 131.262 113.465 124.505 113.465 116.17C113.465 107.835 106.73 101.078 98.4216 101.078C90.1132 101.078 83.3779 107.835 83.3779 116.17C83.3779 124.505 90.1132 131.262 98.4216 131.262Z" fill="#3D8060"/>
</g>
<defs>
<clipPath id="clip0">
<rect width="314" height="268" fill="white" transform="translate(0.166016)"/>
</clipPath>
</defs>
</svg>
