<svg width="177" height="62" viewBox="0 0 177 62" fill="none" xmlns="http://www.w3.org/2000/svg">
<path d="M0.883137 59.0977V51.8047H2.60193V59.0977H0.883137ZM1.74728 50.7696C1.47189 50.7696 1.23608 50.6794 1.03982 50.4989C0.846735 50.3154 0.750192 50.0954 0.750192 49.839C0.750192 49.5794 0.846735 49.3594 1.03982 49.179C1.23608 48.9954 1.47189 48.9036 1.74728 48.9036C2.0195 48.9036 2.25216 48.9954 2.44524 49.179C2.6415 49.3594 2.73962 49.5794 2.73962 49.839C2.73962 50.0954 2.6415 50.3154 2.44524 50.4989C2.25216 50.6794 2.0195 50.7696 1.74728 50.7696ZM9.1634 54.8244V59.0977H7.44461V51.8047H9.08743V53.0439H9.1729C9.34383 52.6261 9.61446 52.3 9.98481 52.0658C10.3583 51.8284 10.8126 51.7097 11.3475 51.7097C12.1104 51.7097 12.7181 51.9518 13.1708 52.4361C13.6234 52.9204 13.8481 53.5931 13.845 54.4541V59.0977H12.1262V54.72C12.1262 54.2325 11.9996 53.8511 11.7463 53.5757C11.4963 53.3003 11.1497 53.1626 10.7065 53.1626C10.2444 53.1626 9.87086 53.3098 9.58598 53.6042C9.30426 53.8985 9.1634 54.3053 9.1634 54.8244ZM22.3092 51.8047V53.1341H20.8706V56.9041C20.8706 57.2238 20.9386 57.4453 21.0747 57.5688C21.214 57.6891 21.4055 57.7492 21.6492 57.7492C21.8075 57.7492 21.9753 57.7271 22.1525 57.6827L22.4422 59.0264C22.132 59.1309 21.7949 59.1879 21.4308 59.1974C20.7566 59.2164 20.2074 59.0518 19.7833 58.7036C19.3591 58.3554 19.1486 57.8505 19.1518 57.1889V53.1341H18.1167V51.8047H19.1518V50.0574H20.8706V51.8047H22.3092ZM29.9722 59.2401C28.877 59.2401 28.0129 58.903 27.3798 58.2288C26.7467 57.5545 26.4302 56.6429 26.4302 55.4939C26.4302 54.75 26.5711 54.0916 26.8528 53.5187C27.1377 52.9458 27.5412 52.501 28.0635 52.1845C28.589 51.868 29.1951 51.7097 29.882 51.7097C30.341 51.7097 30.7667 51.7841 31.1593 51.9329C31.5549 52.0785 31.9079 52.2969 32.2181 52.5881C32.5283 52.8793 32.772 53.2655 32.9493 53.7466C33.1265 54.2246 33.2152 54.7738 33.2152 55.3942V55.9212H28.1347C28.1411 56.5385 28.312 57.0228 28.6475 57.3741C28.9862 57.7255 29.4357 57.9011 29.996 57.9011C30.3727 57.9011 30.6955 57.8204 30.9646 57.659C31.2336 57.4976 31.4251 57.2649 31.5391 56.961L33.1439 57.1415C32.9888 57.784 32.6311 58.2952 32.0709 58.6751C31.5106 59.0518 30.8111 59.2401 29.9722 59.2401ZM28.1395 54.7627H31.5676C31.5613 54.2626 31.4046 53.8526 31.0975 53.5329C30.7937 53.2101 30.3964 53.0486 29.9058 53.0486C29.4056 53.0486 28.9926 53.2148 28.6665 53.5472C28.3437 53.8764 28.168 54.2816 28.1395 54.7627ZM37.7445 59.0977V51.8047H39.411V53.0202H39.487C39.6168 52.6023 39.8431 52.2779 40.166 52.0468C40.4888 51.8157 40.8623 51.7002 41.2865 51.7002C41.5239 51.7002 41.7297 51.716 41.9038 51.7477V53.3288C41.698 53.2623 41.4321 53.2291 41.1061 53.2291C40.6313 53.2291 40.2388 53.3778 39.9286 53.6754C39.6184 53.9698 39.4633 54.348 39.4633 54.8102V59.0977H37.7445ZM47.8397 54.8244V59.0977H46.1209V51.8047H47.7637V53.0439H47.8492C48.0201 52.6261 48.2907 52.3 48.6611 52.0658C49.0346 51.8284 49.4888 51.7097 50.0238 51.7097C50.7866 51.7097 51.3944 51.9518 51.847 52.4361C52.2997 52.9204 52.5244 53.5931 52.5212 54.4541V59.0977H50.8024V54.72C50.8024 54.2325 50.6758 53.8511 50.4226 53.5757C50.1725 53.3003 49.8259 53.1626 49.3828 53.1626C48.9206 53.1626 48.5471 53.3098 48.2622 53.6042C47.9805 53.8985 47.8397 54.3053 47.8397 54.8244ZM59.4424 59.2448C58.9707 59.2448 58.5529 59.1641 58.1889 59.0027C57.828 58.8381 57.54 58.588 57.3247 58.2525C57.1095 57.917 57.0019 57.5166 57.0019 57.0512C57.0019 56.7347 57.0541 56.453 57.1586 56.2061C57.263 55.9592 57.3975 55.7582 57.5621 55.6031C57.7299 55.448 57.9388 55.3166 58.1889 55.209C58.439 55.0982 58.6874 55.0175 58.9343 54.9669C59.1812 54.913 59.4598 54.8687 59.77 54.8339C60.4727 54.7579 60.9048 54.701 61.0662 54.663C61.3353 54.5997 61.4967 54.4936 61.5505 54.3449C61.5663 54.2974 61.5742 54.242 61.5742 54.1787V54.1502C61.5742 53.7893 61.4682 53.5124 61.2561 53.3193C61.0441 53.123 60.7386 53.0249 60.3398 53.0249C59.9441 53.0249 59.6181 53.112 59.3617 53.286C59.1084 53.4601 58.9359 53.6817 58.8441 53.9508L57.2393 53.7229C57.426 53.0708 57.7916 52.5723 58.3361 52.2272C58.8837 51.8822 59.5484 51.7097 60.3303 51.7097C60.6246 51.7097 60.9064 51.735 61.1754 51.7857C61.4445 51.8331 61.7104 51.9186 61.9731 52.0421C62.2358 52.1623 62.4621 52.3159 62.6521 52.5026C62.8451 52.6862 63.0002 52.9252 63.1174 53.2196C63.2345 53.514 63.293 53.8463 63.293 54.2167V59.0977H61.6407V58.0958H61.5837C61.4128 58.4313 61.1469 58.7067 60.7861 58.922C60.4252 59.1372 59.9773 59.2448 59.4424 59.2448ZM59.8887 57.9819C60.392 57.9819 60.7987 57.8363 61.1089 57.545C61.4223 57.2538 61.579 56.8993 61.579 56.4815V55.6221C61.4397 55.736 60.9143 55.8547 60.0026 55.9782C59.1068 56.1048 58.6589 56.453 58.6589 57.0228C58.6589 57.3298 58.7713 57.5672 58.9961 57.735C59.2208 57.8996 59.5183 57.9819 59.8887 57.9819ZM69.8153 49.3737V59.0977H68.0965V49.3737H69.8153ZM84.2784 59.2401C83.1832 59.2401 82.3191 58.903 81.686 58.2288C81.0529 57.5545 80.7364 56.6429 80.7364 55.4939C80.7364 54.75 80.8772 54.0916 81.159 53.5187C81.4438 52.9458 81.8474 52.501 82.3697 52.1845C82.8952 51.868 83.5013 51.7097 84.1882 51.7097C84.6472 51.7097 85.0729 51.7841 85.4654 51.9329C85.8611 52.0785 86.214 52.2969 86.5242 52.5881C86.8345 52.8793 87.0782 53.2655 87.2554 53.7466C87.4327 54.2246 87.5213 54.7738 87.5213 55.3942V55.9212H82.4409C82.4473 56.5385 82.6182 57.0228 82.9537 57.3741C83.2924 57.7255 83.7419 57.9011 84.3022 57.9011C84.6788 57.9011 85.0017 57.8204 85.2708 57.659C85.5398 57.4976 85.7313 57.2649 85.8453 56.961L87.4501 57.1415C87.295 57.784 86.9373 58.2952 86.3771 58.6751C85.8168 59.0518 85.1172 59.2401 84.2784 59.2401ZM82.4457 54.7627H85.8738C85.8674 54.2626 85.7107 53.8526 85.4037 53.5329C85.0998 53.2101 84.7026 53.0486 84.2119 53.0486C83.7118 53.0486 83.2987 53.2148 82.9727 53.5472C82.6498 53.8764 82.4742 54.2816 82.4457 54.7627ZM95.2318 59.2401C94.5196 59.2401 93.8976 59.0802 93.3658 58.7605C92.8341 58.4408 92.4289 57.9977 92.1503 57.4311C91.875 56.8645 91.7373 56.214 91.7373 55.4796C91.7373 54.7421 91.8781 54.0885 92.1598 53.5187C92.4416 52.9489 92.8467 52.5058 93.3753 52.1892C93.904 51.8695 94.5196 51.7097 95.2223 51.7097C96.1118 51.7097 96.8414 51.9487 97.4112 52.4266C97.981 52.9046 98.2959 53.5393 98.356 54.3306H96.7132C96.6436 53.9634 96.4806 53.6659 96.2242 53.438C95.9709 53.2101 95.6449 53.0961 95.2461 53.0961C94.7111 53.0961 94.2822 53.3066 93.9594 53.7276C93.6397 54.1486 93.4798 54.7231 93.4798 55.4512C93.4798 56.1919 93.6381 56.7759 93.9546 57.2032C94.2743 57.6273 94.7048 57.8394 95.2461 57.8394C95.6259 57.8394 95.9472 57.7318 96.2099 57.5166C96.4727 57.2981 96.6404 56.9943 96.7132 56.6049H98.356C98.2927 57.3931 97.981 58.0293 97.4207 58.5136C96.8636 58.9979 96.134 59.2401 95.2318 59.2401ZM107.871 58.7748C107.342 59.085 106.727 59.2401 106.024 59.2401C105.321 59.2401 104.704 59.085 104.172 58.7748C103.643 58.4614 103.237 58.0214 102.952 57.4548C102.67 56.8851 102.529 56.2267 102.529 55.4796C102.529 54.7326 102.67 54.0742 102.952 53.5045C103.237 52.9347 103.643 52.4931 104.172 52.1798C104.704 51.8664 105.321 51.7097 106.024 51.7097C106.727 51.7097 107.342 51.8664 107.871 52.1798C108.403 52.4931 108.809 52.9347 109.091 53.5045C109.376 54.0742 109.518 54.7326 109.518 55.4796C109.518 56.2267 109.376 56.8851 109.091 57.4548C108.809 58.0214 108.403 58.4614 107.871 58.7748ZM106.033 57.8632C106.41 57.8632 106.731 57.7555 106.997 57.5403C107.263 57.3251 107.459 57.0418 107.586 56.6904C107.713 56.3359 107.776 55.9307 107.776 55.4749C107.776 55.0191 107.713 54.6139 107.586 54.2594C107.462 53.9049 107.266 53.6184 106.997 53.4C106.731 53.1816 106.41 53.0724 106.033 53.0724C105.745 53.0724 105.487 53.1357 105.259 53.2623C105.035 53.3858 104.851 53.5567 104.709 53.7751C104.566 53.9935 104.457 54.2467 104.381 54.5348C104.308 54.8228 104.272 55.1362 104.272 55.4749C104.272 55.9307 104.335 56.3359 104.462 56.6904C104.588 57.0418 104.786 57.3251 105.055 57.5403C105.324 57.7555 105.65 57.8632 106.033 57.8632ZM119.817 53.7324L118.25 53.9033C118.177 53.6406 118.027 53.4237 117.799 53.2528C117.574 53.0787 117.276 52.9917 116.906 52.9917C116.545 52.9917 116.244 53.0708 116.004 53.2291C115.763 53.3842 115.645 53.5836 115.648 53.8273C115.645 54.0394 115.724 54.2135 115.885 54.3496C116.047 54.4826 116.311 54.5902 116.678 54.6725L117.922 54.9384C118.612 55.0871 119.125 55.3245 119.46 55.6506C119.799 55.9734 119.97 56.3944 119.973 56.9136C119.97 57.6036 119.679 58.1639 119.1 58.5944C118.52 59.0249 117.773 59.2401 116.859 59.2401C115.969 59.2401 115.252 59.0533 114.708 58.6798C114.163 58.3063 113.837 57.7824 113.73 57.1082L115.406 56.9468C115.478 57.2728 115.638 57.5213 115.885 57.6922C116.135 57.86 116.458 57.9439 116.854 57.9439C117.256 57.9439 117.582 57.8616 117.832 57.697C118.085 57.5324 118.212 57.3235 118.212 57.0702C118.212 56.6619 117.884 56.3849 117.229 56.2393L115.985 55.9782C114.611 55.6933 113.927 55.008 113.934 53.9223C113.934 53.4791 114.056 53.0898 114.299 52.7543C114.546 52.4187 114.893 52.1608 115.339 51.9803C115.785 51.7999 116.3 51.7097 116.882 51.7097C117.718 51.7097 118.386 51.8885 118.886 52.2462C119.386 52.6039 119.696 53.0993 119.817 53.7324ZM125.534 61.8183C125.075 61.8183 124.702 61.7566 124.414 61.6331L124.812 60.2989C125.066 60.3686 125.289 60.4034 125.482 60.4034C125.675 60.4034 125.846 60.3416 125.995 60.2182C126.147 60.0979 126.276 59.9064 126.384 59.6437L126.531 59.2496L123.886 51.8047H125.71L127.391 57.3124H127.467L129.152 51.8047L130.99 51.8142L128.06 59.9808C127.617 61.2058 126.775 61.8183 125.534 61.8183ZM141.022 53.7324L139.455 53.9033C139.382 53.6406 139.232 53.4237 139.004 53.2528C138.779 53.0787 138.482 52.9917 138.111 52.9917C137.75 52.9917 137.45 53.0708 137.209 53.2291C136.969 53.3842 136.85 53.5836 136.853 53.8273C136.85 54.0394 136.929 54.2135 137.09 54.3496C137.252 54.4826 137.516 54.5902 137.883 54.6725L139.127 54.9384C139.817 55.0871 140.33 55.3245 140.666 55.6506C141.004 55.9734 141.175 56.3944 141.179 56.9136C141.175 57.6036 140.884 58.1639 140.305 58.5944C139.726 59.0249 138.979 59.2401 138.064 59.2401C137.174 59.2401 136.457 59.0533 135.913 58.6798C135.369 58.3063 135.042 57.7824 134.935 57.1082L136.611 56.9468C136.684 57.2728 136.844 57.5213 137.09 57.6922C137.341 57.86 137.663 57.9439 138.059 57.9439C138.461 57.9439 138.787 57.8616 139.037 57.697C139.29 57.5324 139.417 57.3235 139.417 57.0702C139.417 56.6619 139.089 56.3849 138.434 56.2393L137.19 55.9782C135.816 55.6933 135.133 55.008 135.139 53.9223C135.139 53.4791 135.261 53.0898 135.505 52.7543C135.752 52.4187 136.098 52.1608 136.544 51.9803C136.991 51.7999 137.505 51.7097 138.088 51.7097C138.923 51.7097 139.591 51.8885 140.091 52.2462C140.591 52.6039 140.902 53.0993 141.022 53.7324ZM149.313 51.8047V53.1341H147.874V56.9041C147.874 57.2238 147.942 57.4453 148.078 57.5688C148.218 57.6891 148.409 57.7492 148.653 57.7492C148.811 57.7492 148.979 57.7271 149.156 57.6827L149.446 59.0264C149.136 59.1309 148.798 59.1879 148.434 59.1974C147.76 59.2164 147.211 59.0518 146.787 58.7036C146.363 58.3554 146.152 57.8505 146.155 57.1889V53.1341H145.12V51.8047H146.155V50.0574H147.874V51.8047H149.313ZM156.976 59.2401C155.881 59.2401 155.016 58.903 154.383 58.2288C153.75 57.5545 153.434 56.6429 153.434 55.4939C153.434 54.75 153.575 54.0916 153.856 53.5187C154.141 52.9458 154.545 52.501 155.067 52.1845C155.593 51.868 156.199 51.7097 156.886 51.7097C157.345 51.7097 157.77 51.7841 158.163 51.9329C158.559 52.0785 158.911 52.2969 159.222 52.5881C159.532 52.8793 159.776 53.2655 159.953 53.7466C160.13 54.2246 160.219 54.7738 160.219 55.3942V55.9212H155.138C155.145 56.5385 155.316 57.0228 155.651 57.3741C155.99 57.7255 156.439 57.9011 157 57.9011C157.376 57.9011 157.699 57.8204 157.968 57.659C158.237 57.4976 158.429 57.2649 158.543 56.961L160.148 57.1415C159.992 57.784 159.635 58.2952 159.074 58.6751C158.514 59.0518 157.815 59.2401 156.976 59.2401ZM155.143 54.7627H158.571C158.565 54.2626 158.408 53.8526 158.101 53.5329C157.797 53.2101 157.4 53.0486 156.909 53.0486C156.409 53.0486 155.996 53.2148 155.67 53.5472C155.347 53.8764 155.172 54.2816 155.143 54.7627ZM164.748 59.0977V51.8047H166.391V53.0439H166.476C166.628 52.6261 166.88 52.3 167.231 52.0658C167.586 51.8284 168.005 51.7097 168.49 51.7097C168.977 51.7097 169.392 51.8284 169.734 52.0658C170.075 52.3 170.318 52.6261 170.46 53.0439H170.536C170.701 52.6324 170.976 52.3079 171.362 52.0705C171.748 51.83 172.202 51.7097 172.725 51.7097C173.412 51.7097 173.962 51.9265 174.377 52.3602C174.795 52.7938 175.004 53.4079 175.004 54.2024V59.0977H173.28V54.4683C173.28 54.0378 173.165 53.7118 172.934 53.4902C172.703 53.2686 172.403 53.1578 172.036 53.1578C171.628 53.1578 171.305 53.286 171.068 53.5424C170.833 53.7957 170.716 54.1312 170.716 54.549V59.0977H169.031V54.3971C169.031 54.0236 168.917 53.7244 168.689 53.4997C168.464 53.2718 168.17 53.1578 167.806 53.1578C167.429 53.1578 167.111 53.2987 166.851 53.5804C166.595 53.8621 166.467 54.223 166.467 54.663V59.0977H164.748Z" fill="#171A22"/>
<path d="M139.729 11.6803C137.692 11.6803 136.131 9.88441 134.608 8.5312C134.489 8.42506 134.363 8.32353 134.23 8.22662C133.115 7.40607 131.609 6.9958 129.71 6.9958C127.812 6.9958 126.33 7.3877 125.265 8.1715C124.199 8.94306 123.667 9.95344 123.667 11.2026C123.654 11.8517 123.795 12.4396 124.089 12.9662C124.395 13.4806 124.836 13.9214 125.412 14.2889C125.987 14.644 126.606 14.9441 127.267 15.189C127.941 15.4339 128.725 15.6605 129.619 15.8687L132.999 16.677C134.689 17.0567 136.195 17.5527 137.518 18.165C138.853 18.7651 140.035 19.5122 141.063 20.4062C142.092 21.288 142.882 22.3473 143.433 23.5843C143.996 24.8212 144.278 26.2051 144.278 27.736C144.266 31.2019 142.968 33.9513 140.384 35.9843C137.8 38.0051 134.23 39.0154 129.674 39.0154C125.032 39.0154 121.37 37.9622 118.688 35.8557C116.973 34.5011 115.787 32.761 115.128 30.6353C114.475 28.528 116.336 26.6705 118.542 26.6705C120.609 26.6705 122.146 28.4724 123.479 30.0523C123.741 30.3619 124.042 30.6431 124.383 30.8957C125.718 31.8632 127.451 32.347 129.582 32.347C131.59 32.347 133.201 31.9245 134.413 31.0794C135.626 30.2221 136.238 29.1015 136.25 27.7176C136.238 26.5174 135.718 25.5683 134.689 24.8702C133.66 24.1599 132.05 23.5414 129.857 23.0148L125.761 21.9861C118.915 20.345 115.498 16.9281 115.51 11.7354C115.498 10.0575 115.847 8.50829 116.557 7.08765C117.28 5.65476 118.266 4.44843 119.515 3.46868C120.776 2.48892 122.289 1.72349 124.052 1.17237C125.816 0.621259 127.72 0.345703 129.766 0.345703C133.929 0.345703 137.285 1.39282 139.833 3.48705C141.306 4.69291 142.366 6.10992 143.012 7.73808C143.828 9.79854 141.945 11.6803 139.729 11.6803Z" fill="#FF642D"/>
<path d="M107.272 4.16585V34.727C107.272 36.8368 105.562 38.5471 103.452 38.5471C101.342 38.5471 99.6317 36.8368 99.6317 34.727V4.16585C99.6317 2.05604 101.342 0.345703 103.452 0.345703C105.562 0.345703 107.272 2.05604 107.272 4.16585Z" fill="#FF642D"/>
<path d="M90.7179 38.5468C92.8277 38.5468 94.5381 36.8364 94.5381 34.7266V17.536C94.5381 15.4262 92.8277 13.7158 90.7179 13.7158C88.6081 13.7158 86.8978 15.4262 86.8978 17.536V34.7266C86.8978 36.8364 88.6081 38.5468 90.7179 38.5468Z" fill="#FF642D"/>
<path d="M77.9841 38.4058C80.0939 38.4058 81.8042 36.6954 81.8042 34.5856V28.9969C81.8042 26.8871 80.0939 25.1768 77.9841 25.1768C75.8742 25.1768 74.1639 26.8871 74.1639 28.9969V34.5856C74.1639 36.6954 75.8742 38.4058 77.9841 38.4058Z" fill="#FF642D"/>
<path d="M59.2059 4.83754C59.2059 2.641 60.9865 0.860352 63.1831 0.860352C65.3796 0.860352 67.1603 2.641 67.1603 4.83755V25.293C67.1603 28.0118 66.5112 30.4122 65.213 32.4942C63.9271 34.564 62.1023 36.1683 59.7386 37.3073C57.375 38.4462 54.65 39.0157 51.5638 39.0157C48.4653 39.0157 45.7342 38.4462 43.3706 37.3073C41.0069 36.1683 39.1821 34.564 37.8962 32.4942C36.6103 30.4122 35.9673 28.0118 35.9673 25.293V4.83755C35.9673 2.641 37.7479 0.860352 39.9445 0.860352C42.141 0.860352 43.9217 2.641 43.9217 4.83755V24.6133C43.9217 26.781 44.6198 28.5568 46.0159 29.9407C47.4243 31.3246 49.2736 32.0166 51.5638 32.0166C53.854 32.0166 55.6971 31.3246 57.0933 29.9407C58.5017 28.5568 59.2059 26.781 59.2059 24.6133V4.83754Z" fill="#FF642D"/>
<path d="M4.61392 38.483C2.41737 38.483 0.636719 36.7023 0.636719 34.5058V4.07204C0.636719 2.29827 2.07464 0.860352 3.84841 0.860352H15.48C17.5743 0.860352 19.4725 1.17265 21.1749 1.79724C22.8772 2.42184 24.2917 3.29749 25.4184 4.42421C26.5574 5.55093 27.433 6.8981 28.0454 8.46571C28.6577 10.0333 28.9639 11.7479 28.9639 13.6094C28.9639 15.4832 28.6516 17.2039 28.027 18.7715C27.4147 20.3269 26.5268 21.6618 25.3633 22.7763C24.2121 23.8785 22.7731 24.7419 21.0463 25.3665C19.3317 25.9788 17.4089 26.285 15.2779 26.285H8.59111V34.5058C8.59111 36.7023 6.81046 38.483 4.61392 38.483ZM8.59111 19.9105H13.992C16.2087 19.9105 17.8927 19.341 19.0439 18.202C20.1951 17.0631 20.7707 15.5322 20.7707 13.6094C20.7707 11.6744 20.1951 10.1497 19.0439 9.03519C17.8927 7.92072 16.1965 7.36348 13.9553 7.36348H8.59111V19.9105Z" fill="#FF642D"/>
<path d="M154.517 38.483C152.73 38.483 151.281 37.0342 151.281 35.2471V4.08686C151.281 2.30491 152.726 0.860352 154.508 0.860352H173.353C175.164 0.860352 176.632 2.32846 176.632 4.13947C176.632 5.95048 175.164 7.41859 173.353 7.41859H159.236V16.3834H172.049C173.86 16.3834 175.328 17.8515 175.328 19.6625C175.328 21.4735 173.86 22.9416 172.049 22.9416H159.236V31.9247H173.427C175.238 31.9247 176.706 33.3929 176.706 35.2039C176.706 37.0149 175.238 38.483 173.427 38.483H154.517Z" fill="#FF642D"/>
</svg>
