<svg width="366" height="298" viewBox="0 0 366 298" fill="none" xmlns="http://www.w3.org/2000/svg">
<g clip-path="url(#clip0)">
<path d="M89.9273 189.887L87.3957 188.315C87.1542 188.166 86.9168 188.005 86.6753 187.852C92.0652 186.928 96.9799 184.2 100.612 180.115C104.244 176.031 106.377 170.834 106.66 165.378C106.943 159.922 105.36 154.532 102.171 150.095C98.9813 145.657 94.3755 142.435 89.1103 140.959L89.2351 150.878L83.7814 140.09H83.7049C80.5447 139.942 77.3862 140.418 74.41 141.49C71.4338 142.562 68.6982 144.209 66.3592 146.337C64.0203 148.466 62.1239 151.033 60.7784 153.894C59.4329 156.754 58.6646 159.851 58.5174 163.008C58.4932 163.467 58.5174 163.921 58.5174 164.375C56.6217 162.212 54.895 159.892 53.756 157.351C51.4498 152.209 51.4055 146.378 51.5866 139.298C51.9488 125.262 52.5566 111.121 53.3455 97.0241C59.0405 96.3907 64.3229 93.75 68.2444 89.5761C72.1658 85.4022 74.4694 79.9686 74.7416 74.2507C74.7738 73.5149 74.7617 72.7872 74.7416 72.0675C74.7416 71.8865 74.7416 71.7056 74.7134 71.5287C74.6651 70.8291 74.6007 70.1375 74.492 69.454C74.492 69.3414 74.4518 69.2329 74.4317 69.1243C74.3351 68.5453 74.2143 67.9744 74.0775 67.4075C74.0252 67.1984 73.9728 67.0054 73.9165 66.7762C73.7474 66.165 73.5623 65.57 73.3449 64.9628C73.2725 64.7658 73.188 64.5608 73.1115 64.3758C72.9425 63.9376 72.7573 63.5033 72.5601 63.0771C72.4555 62.852 72.3548 62.6268 72.2462 62.4057C72.214 62.3494 72.1938 62.2891 72.1617 62.2328C69.6183 57.2125 65.3931 53.2423 60.2216 51.0133C55.0501 48.7844 49.2598 48.4378 43.8589 50.0339L44.0199 62.9404L38.6266 52.2775C34.1917 54.8157 30.6848 58.7032 28.6176 63.3729C26.5505 68.0426 26.0312 73.25 27.1356 78.2353H27.1115C27.1477 78.4081 27.2 78.569 27.2403 78.7419C27.3167 79.0595 27.3972 79.3731 27.4858 79.6867C27.5985 80.0888 27.7273 80.4909 27.8601 80.893C27.9607 81.1865 28.0573 81.484 28.17 81.7775C28.335 82.2037 28.5202 82.6178 28.7053 83.032C28.814 83.2732 28.9106 83.5225 29.0273 83.7597C29.3332 84.3843 29.6659 84.9914 30.0255 85.5811C30.1502 85.7902 30.2911 85.9832 30.428 86.1882C30.6855 86.5903 30.9431 86.9924 31.2329 87.3663C31.406 87.6035 31.5911 87.8287 31.7723 88.0619C32.0379 88.3956 32.3076 88.7253 32.5772 89.043C32.7744 89.2721 32.9797 89.4893 33.185 89.7104C33.4828 90.02 33.7847 90.3215 34.0986 90.6191C34.3039 90.8161 34.5011 91.0212 34.7305 91.2061C35.0847 91.5197 35.455 91.8213 35.8293 92.1148C36.0185 92.2595 36.2036 92.4164 36.3968 92.5611C36.9683 92.9632 37.556 93.3652 38.1637 93.7673C38.2764 93.8397 38.4012 93.896 38.5139 93.9643C39.025 94.2619 39.5402 94.5433 40.0715 94.8047C40.3009 94.9172 40.5344 95.0137 40.7678 95.1183C41.2025 95.3153 41.6412 95.5203 42.092 95.6731C42.3536 95.7737 42.6192 95.8661 42.8969 95.9586C43.3397 96.1074 43.7905 96.2441 44.2453 96.3607C44.5109 96.433 44.7806 96.5094 45.0502 96.5738C45.5413 96.6904 46.0444 96.7869 46.5515 96.8753L46.6481 96.8954C46.3181 102.841 46.0229 108.79 45.7626 114.743C44.328 111.796 42.3054 109.172 39.819 107.034C37.3326 104.896 34.4349 103.288 31.3038 102.309C28.1726 101.33 24.8742 101 21.6111 101.341C18.348 101.682 15.189 102.685 12.3282 104.29L16.5865 115.95L7.81633 107.506C3.11986 111.796 0.320146 117.773 0.0322705 124.124C-0.0799304 126.352 0.126064 128.584 0.644048 130.754C1.74528 135.449 4.23308 139.704 7.78482 142.969C11.3366 146.234 15.7884 148.358 20.5629 149.065C25.3375 149.771 30.2145 149.029 34.5614 146.933C38.9084 144.838 42.5248 141.486 44.9416 137.312C44.9416 137.915 44.9013 138.518 44.8852 139.125C44.7242 145.373 44.523 153.149 47.6422 160.093C49.7553 164.797 53.1523 168.617 56.4969 172.043C58.6824 174.274 60.9484 176.429 63.2707 178.516C65.555 181.585 68.5378 184.065 71.9725 185.753C75.788 188.693 79.7404 191.455 83.8257 194.004L86.3774 195.588C88.6716 197.007 91.0221 198.467 93.3243 199.983C92.9218 199.943 92.5193 199.898 92.1169 199.878C87.009 199.641 81.9578 201.032 77.6934 203.85C73.429 206.669 70.1724 210.77 68.3944 215.559L83.4473 227.794L66.8891 223.958C66.8942 228.028 67.9318 232.03 69.9048 235.591C71.8779 239.151 74.7221 242.154 78.1718 244.319C81.6215 246.484 85.5641 247.74 89.6315 247.97C93.6988 248.2 97.7582 247.396 101.43 245.634C101.06 246.101 100.687 246.564 100.311 247.025C99.5709 247.945 98.8397 248.859 98.1179 249.767C88.3214 262.159 85.5966 273.928 90.4465 282.898L96.347 279.714C91.6258 270.985 98.7257 259.807 103.378 253.921C104.087 253.023 104.806 252.125 105.536 251.227C111.802 243.439 118.894 234.641 118.721 223.834C118.46 207.554 102.622 197.759 89.9273 189.887Z" fill="#F2F2F2"/>
<path d="M322.97 140.834L325.502 139.262C325.743 139.113 325.981 138.952 326.222 138.799C320.833 137.872 315.92 135.142 312.291 131.056C308.661 126.97 306.531 121.772 306.25 116.317C305.969 110.861 307.554 105.473 310.745 101.036C313.935 96.6002 318.542 93.3802 323.807 91.9057L323.683 101.825L329.136 91.0372H329.205C332.365 90.8896 335.523 91.3654 338.5 92.4373C341.476 93.5092 344.212 95.1563 346.55 97.2845C348.889 99.4127 350.786 101.98 352.131 104.841C353.477 107.701 354.245 110.798 354.392 113.955C354.416 114.414 354.392 114.868 354.392 115.322C356.288 113.159 358.015 110.839 359.154 108.298C361.46 103.156 361.504 97.3256 361.323 90.2451C360.961 76.2088 360.353 62.0679 359.564 47.9712C353.869 47.3378 348.587 44.6971 344.665 40.5232C340.744 36.3493 338.44 30.9157 338.168 25.1978C338.136 24.462 338.148 23.7343 338.168 23.0146C338.168 22.8337 338.168 22.6527 338.196 22.4758C338.245 21.7762 338.309 21.0846 338.418 20.4011C338.418 20.2885 338.458 20.18 338.478 20.0714C338.575 19.4924 338.695 18.9215 338.832 18.3546C338.885 18.1455 338.937 17.9525 338.993 17.7233C339.162 17.1122 339.347 16.5171 339.565 15.91C339.637 15.7129 339.722 15.5079 339.798 15.3229C339.967 14.8847 340.152 14.4504 340.35 14.0242C340.454 13.7991 340.555 13.5739 340.668 13.3528C340.696 13.2965 340.716 13.2362 340.748 13.1799C343.29 8.16236 347.512 4.19373 352.681 1.96422C357.849 -0.265293 363.635 -0.614621 369.035 0.976995L368.874 13.8835L374.267 3.22056C378.703 5.75838 382.212 9.64634 384.28 14.3169C386.348 18.9875 386.867 24.1961 385.762 29.1824H385.786C385.75 29.3553 385.698 29.5161 385.657 29.689C385.581 30.0066 385.5 30.3202 385.412 30.6339C385.299 31.0359 385.17 31.438 385.038 31.8401C384.937 32.1336 384.84 32.4311 384.728 32.7246C384.563 33.1508 384.377 33.565 384.192 33.9791C384.084 34.2203 383.987 34.4696 383.87 34.7069C383.564 35.3314 383.232 35.9385 382.872 36.5282C382.747 36.7373 382.606 36.9303 382.47 37.1354C382.212 37.5374 381.954 37.9395 381.665 38.3134C381.492 38.5507 381.306 38.7758 381.125 39.009C380.86 39.3427 380.59 39.6724 380.32 39.9901C380.123 40.2193 379.918 40.4364 379.713 40.6575C379.419 40.9671 379.113 41.2687 378.799 41.5662C378.594 41.7632 378.396 41.9683 378.167 42.1532C377.813 42.4668 377.443 42.7684 377.068 43.0619C376.879 43.2067 376.694 43.3635 376.501 43.5082C375.929 43.9103 375.342 44.3124 374.734 44.6943C374.621 44.7667 374.496 44.823 374.384 44.8913C373.873 45.1889 373.357 45.4703 372.826 45.7317C372.597 45.8443 372.363 45.9408 372.13 46.0453C371.695 46.2423 371.256 46.4474 370.806 46.6002C370.544 46.7007 370.278 46.7931 370.001 46.8856C369.558 47.0344 369.107 47.1711 368.652 47.2877C368.387 47.3601 368.117 47.4365 367.847 47.5008C367.356 47.6174 366.853 47.7139 366.346 47.8023H366.25C366.58 53.7503 366.875 59.6997 367.135 65.6503C368.57 62.7027 370.592 60.0792 373.079 57.9408C375.565 55.8025 378.463 54.1944 381.594 53.2154C384.725 52.2364 388.023 51.9072 391.286 52.2478C394.55 52.5885 397.709 53.5919 400.569 55.1965L396.311 66.8566L405.073 58.4533C409.77 62.7432 412.569 68.7201 412.857 75.0709C412.97 77.2988 412.764 79.5312 412.246 81.7011C411.144 86.3956 408.657 90.6514 405.105 93.9164C401.553 97.1814 397.101 99.305 392.327 100.012C387.552 100.719 382.675 99.976 378.328 97.8804C373.981 95.7847 370.365 92.4326 367.948 88.2589C367.948 88.862 367.992 89.4651 368.004 90.0722C368.165 96.3204 368.367 104.097 365.247 111.04C363.134 115.745 359.737 119.564 356.393 122.99C354.207 125.221 351.941 127.377 349.619 129.463C347.335 132.532 344.352 135.013 340.917 136.701C337.102 139.64 333.149 142.402 329.064 144.951L326.512 146.535C324.218 147.955 321.867 149.414 319.565 150.93C319.968 150.89 320.37 150.845 320.773 150.825C325.881 150.588 330.932 151.979 335.196 154.798C339.461 157.616 342.717 161.717 344.495 166.506L329.442 178.741L346 174.905C345.995 178.975 344.958 182.977 342.985 186.538C341.012 190.098 338.167 193.101 334.718 195.266C331.268 197.431 327.325 198.687 323.258 198.917C319.191 199.147 315.131 198.343 311.459 196.581C311.829 197.048 312.202 197.511 312.578 197.972C313.319 198.892 314.05 199.806 314.772 200.715C324.568 213.106 327.293 224.875 322.443 233.845L316.543 230.661C321.264 221.932 314.164 210.754 309.511 204.868C308.803 203.97 308.084 203.072 307.354 202.174C301.095 194.406 294.003 185.601 294.176 174.801C294.438 158.501 310.26 148.706 322.97 140.834Z" fill="#F2F2F2"/>
<path d="M258.697 298C368.769 298 458 292.06 458 284.732C458 277.404 368.769 271.463 258.697 271.463C148.625 271.463 59.3947 277.404 59.3947 284.732C59.3947 292.06 148.625 298 258.697 298Z" fill="#F2F2F2"/>
<path d="M265.391 285.134L193.672 284.217L193.881 282.38L197.351 252.067H260.336L264.968 282.38L265.322 284.676L265.391 285.134Z" fill="#2F2E41"/>
<path opacity="0.1" d="M265.322 284.675H229.529L193.672 284.217L193.881 282.379H264.968L265.322 284.675Z" fill="black"/>
<path d="M276.886 282.838H181.718V285.134H276.886V282.838Z" fill="#3F3D56"/>
<path d="M367.686 70.005C367.69 69.2199 367.539 68.4417 367.242 67.7149C366.944 66.9881 366.506 66.3269 365.953 65.7691C365.4 65.2113 364.742 64.7678 364.018 64.4639C363.293 64.16 362.516 64.0017 361.73 63.998H95.9605C95.1746 64.0017 94.397 64.16 93.6723 64.4639C92.9476 64.7678 92.2899 65.2113 91.7367 65.7691C91.1836 66.3269 90.7459 66.9881 90.4485 67.7149C90.1512 68.4417 90 69.2199 90.0037 70.005V230.939H367.686V70.005Z" fill="#3F3D56"/>
<path d="M90.0037 229.334V248.183C90.0037 249.762 90.6313 251.275 91.7484 252.391C92.8655 253.507 94.3806 254.134 95.9605 254.134H361.729C363.309 254.134 364.824 253.507 365.942 252.391C367.059 251.275 367.686 249.762 367.686 248.183V229.334H90.0037Z" fill="#3F3D56"/>
<path d="M357.568 74.1018H101.495V218.771H357.568V74.1018Z" fill="#2F2E41"/>
<path d="M230.209 246.981C231.15 246.982 232.078 246.77 232.924 246.359C233.77 245.949 234.511 245.352 235.091 244.613C235.269 244.387 235.43 244.15 235.574 243.901L232.169 243.343L235.852 243.371C236.205 242.603 236.397 241.771 236.418 240.926C236.439 240.082 236.287 239.242 235.973 238.457L231.03 241.019L235.587 237.673C235.159 236.939 234.584 236.3 233.899 235.796C233.213 235.292 232.431 234.935 231.602 234.746C230.772 234.557 229.912 234.541 229.076 234.698C228.24 234.855 227.445 235.182 226.74 235.659C226.036 236.135 225.437 236.752 224.981 237.47C224.526 238.187 224.222 238.991 224.091 239.831C223.959 240.671 224.001 241.529 224.215 242.351C224.43 243.174 224.811 243.944 225.335 244.613C225.915 245.351 226.655 245.947 227.499 246.358C228.344 246.768 229.27 246.981 230.209 246.981Z" fill="#3D8060"/>
<path opacity="0.1" d="M236.428 254.134L265.041 282.838L260.649 254.134H236.428Z" fill="black"/>
<path d="M313.274 273.723L320.982 269.22C319.938 267.444 318.606 265.853 317.041 264.511L302.508 269.027L313.894 262.336C311.074 260.793 307.901 260.01 304.687 260.064C301.472 260.119 298.327 261.008 295.561 262.645C292.796 264.282 290.504 266.611 288.913 269.401C287.321 272.192 286.484 275.348 286.485 278.56C286.485 288.776 294.776 289.13 304.999 289.13C315.222 289.13 323.513 288.776 323.513 278.56C323.517 275.976 322.976 273.419 321.928 271.057L313.274 273.723Z" fill="#57B894"/>
<path opacity="0.1" d="M315.238 283.654C314.416 282.833 313.499 282.114 312.506 281.511C311.109 280.582 309.66 279.637 308.01 279.32C306.565 279.042 305.068 279.275 303.582 279.195C301.02 279.038 298.608 277.933 296.817 276.095C295.762 275.009 294.937 273.683 293.669 272.842C292.305 271.95 290.574 271.757 288.96 271.978C288.49 272.048 288.023 272.145 287.564 272.267C286.837 274.279 286.466 276.401 286.469 278.54C286.469 288.756 294.76 289.11 304.983 289.11C309.946 289.11 314.454 289.026 317.778 287.771L317.223 286.734C316.694 285.628 316.027 284.593 315.238 283.654Z" fill="black"/>
<path opacity="0.3" d="M121.382 129.914H112.869V132.495H121.382V129.914Z" fill="#3D8060"/>
<path opacity="0.3" d="M348.524 129.99H340.011V132.571H348.524V129.99Z" fill="#3D8060"/>
<path opacity="0.3" d="M121.458 148.059H112.945V150.64H121.458V148.059Z" fill="#3D8060"/>
<path opacity="0.3" d="M121.534 166.205H113.022V168.786H121.534V166.205Z" fill="#3D8060"/>
<path opacity="0.3" d="M121.611 184.346H113.098V186.927H121.611V184.346Z" fill="#3D8060"/>
<g opacity="0.2">
<path opacity="0.2" d="M123.796 131.156H121.381V131.257H123.796V131.156Z" fill="#F2F2F2"/>
<path opacity="0.2" d="M332.698 131.257H327.953V131.156H332.698V131.257ZM323.204 131.257H318.458V131.156H323.204V131.257ZM313.709 131.257H308.96V131.156H313.709V131.257ZM304.214 131.257H299.465V131.156H304.214V131.257ZM294.72 131.257H289.97V131.156H294.72V131.257ZM285.221 131.257H280.476V131.156H285.221V131.257ZM275.726 131.257H270.977V131.156H275.726V131.257ZM266.232 131.257H261.482V131.156H266.232V131.257ZM256.737 131.257H251.988V131.156H256.737V131.257ZM247.239 131.257H242.493V131.156H247.239V131.257ZM237.744 131.257H232.995V131.156H237.744V131.257ZM228.249 131.257H223.5V131.156H228.249V131.257ZM218.755 131.257H214.005V131.156H218.755V131.257ZM209.256 131.257H204.511V131.156H209.256V131.257ZM199.761 131.257H195.016V131.156H199.761V131.257ZM190.267 131.257H185.534V131.156H190.283L190.267 131.257ZM180.772 131.257H176.023V131.156H180.772V131.257ZM171.273 131.257H166.528V131.156H171.273V131.257ZM161.779 131.257H157.034V131.156H161.787L161.779 131.257ZM152.284 131.257H147.535V131.156H152.284V131.257ZM142.79 131.257H138.04V131.156H142.79V131.257ZM133.291 131.257H128.546V131.156H133.291V131.257Z" fill="#F2F2F2"/>
<path opacity="0.2" d="M339.863 131.156H337.448V131.257H339.863V131.156Z" fill="#F2F2F2"/>
<path opacity="0.2" d="M123.796 131.156H121.381V131.257H123.796V131.156Z" fill="#F2F2F2"/>
<path opacity="0.2" d="M332.698 131.257H327.953V131.156H332.698V131.257ZM323.204 131.257H318.458V131.156H323.204V131.257ZM313.709 131.257H308.96V131.156H313.709V131.257ZM304.214 131.257H299.465V131.156H304.214V131.257ZM294.72 131.257H289.97V131.156H294.72V131.257ZM285.221 131.257H280.476V131.156H285.221V131.257ZM275.726 131.257H270.977V131.156H275.726V131.257ZM266.232 131.257H261.482V131.156H266.232V131.257ZM256.737 131.257H251.988V131.156H256.737V131.257ZM247.239 131.257H242.493V131.156H247.239V131.257ZM237.744 131.257H232.995V131.156H237.744V131.257ZM228.249 131.257H223.5V131.156H228.249V131.257ZM218.755 131.257H214.005V131.156H218.755V131.257ZM209.256 131.257H204.511V131.156H209.256V131.257ZM199.761 131.257H195.016V131.156H199.761V131.257ZM190.267 131.257H185.534V131.156H190.283L190.267 131.257ZM180.772 131.257H176.023V131.156H180.772V131.257ZM171.273 131.257H166.528V131.156H171.273V131.257ZM161.779 131.257H157.034V131.156H161.787L161.779 131.257ZM152.284 131.257H147.535V131.156H152.284V131.257ZM142.79 131.257H138.04V131.156H142.79V131.257ZM133.291 131.257H128.546V131.156H133.291V131.257Z" fill="#F2F2F2"/>
<path opacity="0.2" d="M339.863 131.156H337.448V131.257H339.863V131.156Z" fill="#F2F2F2"/>
</g>
<path opacity="0.3" d="M121.382 111.821H112.869V114.402H121.382V111.821Z" fill="#3D8060"/>
<path opacity="0.3" d="M348.524 111.897H340.011V114.478H348.524V111.897Z" fill="#3D8060"/>
<g opacity="0.2">
<path opacity="0.2" d="M123.796 113.063H121.381V113.163H123.796V113.063Z" fill="#F2F2F2"/>
<path opacity="0.2" d="M332.698 113.163H327.953V113.063H332.698V113.163ZM323.204 113.163H318.458V113.063H323.204V113.163ZM313.709 113.163H308.96V113.063H313.709V113.163ZM304.214 113.163H299.465V113.063H304.214V113.163ZM294.72 113.163H289.97V113.063H294.72V113.163ZM285.221 113.163H280.476V113.063H285.221V113.163ZM275.726 113.163H270.977V113.063H275.726V113.163ZM266.232 113.163H261.482V113.063H266.232V113.163ZM256.737 113.163H251.988V113.063H256.737V113.163ZM247.239 113.163H242.493V113.063H247.239V113.163ZM237.744 113.163H232.995V113.063H237.744V113.163ZM228.249 113.163H223.5V113.063H228.249V113.163ZM218.755 113.163H214.005V113.063H218.755V113.163ZM209.256 113.163H204.511V113.063H209.256V113.163ZM199.761 113.163H195.016V113.063H199.761V113.163ZM190.267 113.163H185.534V113.063H190.283L190.267 113.163ZM180.772 113.163H176.023V113.063H180.772V113.163ZM171.273 113.163H166.528V113.063H171.273V113.163ZM161.779 113.163H157.034V113.063H161.787L161.779 113.163ZM152.284 113.163H147.535V113.063H152.284V113.163ZM142.79 113.163H138.04V113.063H142.79V113.163ZM133.291 113.163H128.546V113.063H133.291V113.163Z" fill="#F2F2F2"/>
<path opacity="0.2" d="M339.863 113.063H337.448V113.163H339.863V113.063Z" fill="#F2F2F2"/>
</g>
<path opacity="0.3" d="M348.524 148.059H340.011V150.64H348.524V148.059Z" fill="#3D8060"/>
<g opacity="0.2">
<path opacity="0.2" d="M123.796 149.226H121.381V149.326H123.796V149.226Z" fill="#F2F2F2"/>
<path opacity="0.2" d="M332.698 149.322H327.953V149.221H332.698V149.322ZM323.204 149.322H318.458V149.221H323.204V149.322ZM313.709 149.322H308.96V149.221H313.709V149.322ZM304.214 149.322H299.465V149.221H304.214V149.322ZM294.72 149.322H289.97V149.221H294.72V149.322ZM285.221 149.322H280.476V149.221H285.221V149.322ZM275.726 149.322H270.977V149.221H275.726V149.322ZM266.232 149.322H261.482V149.221H266.232V149.322ZM256.737 149.322H251.988V149.221H256.737V149.322ZM247.239 149.322H242.493V149.221H247.239V149.322ZM237.744 149.322H232.995V149.221H237.744V149.322ZM228.249 149.322H223.5V149.221H228.249V149.322ZM218.755 149.322H214.005V149.221H218.755V149.322ZM209.256 149.322H204.511V149.221H209.256V149.322ZM199.761 149.322H195.016V149.221H199.761V149.322ZM190.267 149.322H185.534V149.221H190.283L190.267 149.322ZM180.772 149.322H176.023V149.221H180.772V149.322ZM171.273 149.322H166.528V149.221H171.273V149.322ZM161.779 149.322H157.034V149.221H161.787L161.779 149.322ZM152.284 149.322H147.535V149.221H152.284V149.322ZM142.79 149.322H138.04V149.221H142.79V149.322ZM133.291 149.322H128.546V149.221H133.291V149.322Z" fill="#F2F2F2"/>
<path opacity="0.2" d="M339.863 149.225H337.448V149.326H339.863V149.225Z" fill="#F2F2F2"/>
<path opacity="0.2" d="M123.796 149.226H121.381V149.326H123.796V149.226Z" fill="#F2F2F2"/>
<path opacity="0.2" d="M332.698 149.322H327.953V149.221H332.698V149.322ZM323.204 149.322H318.458V149.221H323.204V149.322ZM313.709 149.322H308.96V149.221H313.709V149.322ZM304.214 149.322H299.465V149.221H304.214V149.322ZM294.72 149.322H289.97V149.221H294.72V149.322ZM285.221 149.322H280.476V149.221H285.221V149.322ZM275.726 149.322H270.977V149.221H275.726V149.322ZM266.232 149.322H261.482V149.221H266.232V149.322ZM256.737 149.322H251.988V149.221H256.737V149.322ZM247.239 149.322H242.493V149.221H247.239V149.322ZM237.744 149.322H232.995V149.221H237.744V149.322ZM228.249 149.322H223.5V149.221H228.249V149.322ZM218.755 149.322H214.005V149.221H218.755V149.322ZM209.256 149.322H204.511V149.221H209.256V149.322ZM199.761 149.322H195.016V149.221H199.761V149.322ZM190.267 149.322H185.534V149.221H190.283L190.267 149.322ZM180.772 149.322H176.023V149.221H180.772V149.322ZM171.273 149.322H166.528V149.221H171.273V149.322ZM161.779 149.322H157.034V149.221H161.787L161.779 149.322ZM152.284 149.322H147.535V149.221H152.284V149.322ZM142.79 149.322H138.04V149.221H142.79V149.322ZM133.291 149.322H128.546V149.221H133.291V149.322Z" fill="#F2F2F2"/>
<path opacity="0.2" d="M339.863 149.225H337.448V149.326H339.863V149.225Z" fill="#F2F2F2"/>
</g>
<path opacity="0.3" d="M348.524 166.128H340.011V168.71H348.524V166.128Z" fill="#3D8060"/>
<g opacity="0.2">
<path opacity="0.2" d="M123.796 167.29H121.381V167.391H123.796V167.29Z" fill="#F2F2F2"/>
<path opacity="0.2" d="M332.698 167.391H327.953V167.29H332.698V167.391ZM323.204 167.391H318.458V167.29H323.204V167.391ZM313.709 167.391H308.96V167.29H313.709V167.391ZM304.214 167.391H299.465V167.29H304.214V167.391ZM294.72 167.391H289.97V167.29H294.72V167.391ZM285.221 167.391H280.476V167.29H285.221V167.391ZM275.726 167.391H270.977V167.29H275.726V167.391ZM266.232 167.391H261.482V167.29H266.232V167.391ZM256.737 167.391H251.988V167.29H256.737V167.391ZM247.239 167.391H242.493V167.29H247.239V167.391ZM237.744 167.391H232.995V167.29H237.744V167.391ZM228.249 167.391H223.5V167.29H228.249V167.391ZM218.755 167.391H214.005V167.29H218.755V167.391ZM209.256 167.391H204.511V167.29H209.256V167.391ZM199.761 167.391H195.016V167.29H199.761V167.391ZM190.267 167.391H185.534V167.29H190.283L190.267 167.391ZM180.772 167.391H176.023V167.29H180.772V167.391ZM171.273 167.391H166.528V167.29H171.273V167.391ZM161.779 167.391H157.034V167.29H161.787L161.779 167.391ZM152.284 167.391H147.535V167.29H152.284V167.391ZM142.79 167.391H138.04V167.29H142.79V167.391ZM133.291 167.391H128.546V167.29H133.291V167.391Z" fill="#F2F2F2"/>
<path opacity="0.2" d="M339.863 167.29H337.448V167.391H339.863V167.29Z" fill="#F2F2F2"/>
<path opacity="0.2" d="M123.796 167.29H121.381V167.391H123.796V167.29Z" fill="#F2F2F2"/>
<path opacity="0.2" d="M332.698 167.391H327.953V167.29H332.698V167.391ZM323.204 167.391H318.458V167.29H323.204V167.391ZM313.709 167.391H308.96V167.29H313.709V167.391ZM304.214 167.391H299.465V167.29H304.214V167.391ZM294.72 167.391H289.97V167.29H294.72V167.391ZM285.221 167.391H280.476V167.29H285.221V167.391ZM275.726 167.391H270.977V167.29H275.726V167.391ZM266.232 167.391H261.482V167.29H266.232V167.391ZM256.737 167.391H251.988V167.29H256.737V167.391ZM247.239 167.391H242.493V167.29H247.239V167.391ZM237.744 167.391H232.995V167.29H237.744V167.391ZM228.249 167.391H223.5V167.29H228.249V167.391ZM218.755 167.391H214.005V167.29H218.755V167.391ZM209.256 167.391H204.511V167.29H209.256V167.391ZM199.761 167.391H195.016V167.29H199.761V167.391ZM190.267 167.391H185.534V167.29H190.283L190.267 167.391ZM180.772 167.391H176.023V167.29H180.772V167.391ZM171.273 167.391H166.528V167.29H171.273V167.391ZM161.779 167.391H157.034V167.29H161.787L161.779 167.391ZM152.284 167.391H147.535V167.29H152.284V167.391ZM142.79 167.391H138.04V167.29H142.79V167.391ZM133.291 167.391H128.546V167.29H133.291V167.391Z" fill="#F2F2F2"/>
<path opacity="0.2" d="M339.863 167.29H337.448V167.391H339.863V167.29Z" fill="#F2F2F2"/>
</g>
<path opacity="0.3" d="M348.524 184.194H340.011V186.775H348.524V184.194Z" fill="#3D8060"/>
<g opacity="0.2">
<path opacity="0.2" d="M123.796 185.359H121.381V185.46H123.796V185.359Z" fill="#F2F2F2"/>
<path opacity="0.2" d="M332.698 185.46H327.953V185.359H332.698V185.46ZM323.204 185.46H318.458V185.359H323.204V185.46ZM313.709 185.46H308.96V185.359H313.709V185.46ZM304.214 185.46H299.465V185.359H304.214V185.46ZM294.72 185.46H289.97V185.359H294.72V185.46ZM285.221 185.46H280.476V185.359H285.221V185.46ZM275.726 185.46H270.977V185.359H275.726V185.46ZM266.232 185.46H261.482V185.359H266.232V185.46ZM256.737 185.46H251.988V185.359H256.737V185.46ZM247.239 185.46H242.493V185.359H247.239V185.46ZM237.744 185.46H232.995V185.359H237.744V185.46ZM228.249 185.46H223.5V185.359H228.249V185.46ZM218.755 185.46H214.005V185.359H218.755V185.46ZM209.256 185.46H204.511V185.359H209.256V185.46ZM199.761 185.46H195.016V185.359H199.761V185.46ZM190.267 185.46H185.534V185.359H190.283L190.267 185.46ZM180.772 185.46H176.023V185.359H180.772V185.46ZM171.273 185.46H166.528V185.359H171.273V185.46ZM161.779 185.46H157.034V185.359H161.787L161.779 185.46ZM152.284 185.46H147.535V185.359H152.284V185.46ZM142.79 185.46H138.04V185.359H142.79V185.46ZM133.291 185.46H128.546V185.359H133.291V185.46Z" fill="#F2F2F2"/>
<path opacity="0.2" d="M339.863 185.359H337.448V185.46H339.863V185.359Z" fill="#F2F2F2"/>
<path opacity="0.2" d="M123.796 185.359H121.381V185.46H123.796V185.359Z" fill="#F2F2F2"/>
<path opacity="0.2" d="M332.698 185.46H327.953V185.359H332.698V185.46ZM323.204 185.46H318.458V185.359H323.204V185.46ZM313.709 185.46H308.96V185.359H313.709V185.46ZM304.214 185.46H299.465V185.359H304.214V185.46ZM294.72 185.46H289.97V185.359H294.72V185.46ZM285.221 185.46H280.476V185.359H285.221V185.46ZM275.726 185.46H270.977V185.359H275.726V185.46ZM266.232 185.46H261.482V185.359H266.232V185.46ZM256.737 185.46H251.988V185.359H256.737V185.46ZM247.239 185.46H242.493V185.359H247.239V185.46ZM237.744 185.46H232.995V185.359H237.744V185.46ZM228.249 185.46H223.5V185.359H228.249V185.46ZM218.755 185.46H214.005V185.359H218.755V185.46ZM209.256 185.46H204.511V185.359H209.256V185.46ZM199.761 185.46H195.016V185.359H199.761V185.46ZM190.267 185.46H185.534V185.359H190.283L190.267 185.46ZM180.772 185.46H176.023V185.359H180.772V185.46ZM171.273 185.46H166.528V185.359H171.273V185.46ZM161.779 185.46H157.034V185.359H161.787L161.779 185.46ZM152.284 185.46H147.535V185.359H152.284V185.46ZM142.79 185.46H138.04V185.359H142.79V185.46ZM133.291 185.46H128.546V185.359H133.291V185.46Z" fill="#F2F2F2"/>
<path opacity="0.2" d="M339.863 185.359H337.448V185.46H339.863V185.359Z" fill="#F2F2F2"/>
</g>
<path d="M149.133 113.188V185.637" stroke="#F2F2F2" stroke-width="0.1" stroke-miterlimit="10"/>
<path d="M178.514 113.188V185.637" stroke="#F2F2F2" stroke-width="0.1" stroke-miterlimit="10"/>
<path d="M207.896 113.188V185.637" stroke="#F2F2F2" stroke-width="0.1" stroke-miterlimit="10"/>
<path d="M237.277 113.188V185.637" stroke="#F2F2F2" stroke-width="0.1" stroke-miterlimit="10"/>
<path d="M266.659 113.188V185.637" stroke="#F2F2F2" stroke-width="0.1" stroke-miterlimit="10"/>
<path d="M296.04 113.188V185.637" stroke="#F2F2F2" stroke-width="0.1" stroke-miterlimit="10"/>
<path d="M325.421 113.188V185.637" stroke="#F2F2F2" stroke-width="0.1" stroke-miterlimit="10"/>
<path opacity="0.3" d="M331.776 108.298L328.416 111.796C328.348 111.869 328.291 111.952 328.247 112.042L326.162 116.332C326.079 116.504 325.946 116.647 325.78 116.743C325.614 116.838 325.423 116.881 325.232 116.866L324.564 116.814C324.37 116.8 324.185 116.727 324.034 116.605C323.883 116.483 323.773 116.317 323.719 116.131L323.075 113.903C323.019 113.708 322.902 113.537 322.741 113.413C322.58 113.289 322.384 113.219 322.181 113.214C321.979 113.21 321.779 113.269 321.613 113.385C321.446 113.501 321.321 113.667 321.256 113.859L320.173 117.027C320.109 117.216 319.987 117.381 319.824 117.497C319.662 117.613 319.467 117.675 319.267 117.675H315.134C314.907 117.674 314.688 117.592 314.515 117.445C314.343 117.298 314.228 117.094 314.192 116.87L313.025 109.573C312.994 109.373 312.9 109.189 312.757 109.046C312.614 108.903 312.43 108.809 312.23 108.778C312.03 108.746 311.826 108.779 311.646 108.872C311.466 108.964 311.32 109.111 311.23 109.291L305.245 121.092C305.183 121.214 305.096 121.322 304.989 121.407C304.882 121.493 304.757 121.554 304.624 121.587C304.492 121.62 304.353 121.625 304.218 121.6C304.084 121.575 303.956 121.521 303.844 121.442L300.286 118.933C300.092 118.797 299.854 118.737 299.619 118.765C299.383 118.794 299.167 118.908 299.01 119.086L297.662 120.642C297.622 120.688 297.587 120.738 297.557 120.791L293.959 127.011C293.868 127.17 293.732 127.3 293.568 127.383C293.405 127.467 293.22 127.501 293.037 127.481L290.844 127.264C290.69 127.249 290.536 127.271 290.393 127.328L288.429 128.112C288.201 128.198 287.95 128.194 287.725 128.1C287.501 128.007 287.321 127.832 287.221 127.61L286.791 126.625C286.713 126.448 286.584 126.299 286.42 126.198C286.256 126.096 286.066 126.046 285.873 126.054L283.627 126.158C283.488 126.164 283.352 126.201 283.229 126.265C283.106 126.33 282.999 126.421 282.915 126.532L282.279 127.361C282.174 127.497 282.035 127.603 281.875 127.667C281.715 127.73 281.54 127.75 281.37 127.722C281.2 127.695 281.041 127.622 280.909 127.512C280.777 127.402 280.677 127.258 280.621 127.095L279.816 124.823C279.766 124.682 279.684 124.554 279.575 124.451C279.467 124.347 279.336 124.271 279.192 124.227C279.049 124.184 278.897 124.175 278.75 124.201C278.602 124.227 278.462 124.287 278.343 124.377L274.519 127.24L270.293 130.645C270.148 130.761 269.973 130.833 269.789 130.851C269.605 130.87 269.419 130.835 269.254 130.75L265.974 129.049C265.798 128.959 265.599 128.925 265.403 128.953L258.758 129.882C258.565 129.908 258.385 129.991 258.241 130.122C258.097 130.253 257.997 130.424 257.953 130.613L256.773 135.732C256.737 135.891 256.659 136.039 256.549 136.16C256.438 136.281 256.298 136.372 256.143 136.423C255.987 136.474 255.82 136.485 255.659 136.453C255.499 136.421 255.348 136.349 255.224 136.242C255.113 136.148 254.983 136.08 254.842 136.044C254.702 136.008 254.555 136.004 254.413 136.032C254.271 136.061 254.137 136.122 254.021 136.209C253.906 136.297 253.812 136.41 253.747 136.54L252.841 138.353C252.773 138.487 252.675 138.604 252.554 138.693C252.433 138.782 252.293 138.842 252.145 138.868L250.088 139.21C249.956 139.233 249.829 139.283 249.718 139.358L246.478 141.513C246.322 141.618 246.138 141.674 245.951 141.674H244.433C244.247 141.675 244.064 141.62 243.908 141.518C243.752 141.416 243.63 141.27 243.556 141.099L243.153 140.138C243.102 140.022 243.028 139.917 242.935 139.829C242.843 139.742 242.734 139.674 242.614 139.629C242.495 139.585 242.368 139.565 242.241 139.57C242.113 139.575 241.989 139.606 241.873 139.66L238.356 141.304C238.214 141.371 238.058 141.402 237.901 141.394C237.745 141.386 237.593 141.34 237.458 141.26L235.848 140.291C235.7 140.202 235.53 140.155 235.357 140.154H231.803C231.615 140.155 231.432 140.211 231.276 140.315L227.73 142.667C227.593 142.758 227.436 142.812 227.272 142.824C227.109 142.836 226.945 142.806 226.796 142.736L225.186 141.976C224.999 141.888 224.788 141.864 224.585 141.907C224.383 141.95 224.199 142.057 224.063 142.213L223.299 143.086C223.199 143.201 223.072 143.291 222.93 143.347C222.788 143.404 222.634 143.425 222.482 143.409C222.33 143.393 222.184 143.341 222.056 143.257C221.929 143.172 221.823 143.058 221.749 142.925L221.52 142.523C221.457 142.412 221.374 142.314 221.273 142.236C221.173 142.158 221.057 142.1 220.934 142.067C220.811 142.035 220.683 142.026 220.557 142.044C220.43 142.061 220.309 142.104 220.2 142.169L217.41 143.821C217.266 143.904 217.102 143.948 216.935 143.948C216.769 143.948 216.605 143.904 216.46 143.821L215.309 143.182C215.179 143.109 215.034 143.068 214.885 143.061C214.736 143.055 214.588 143.084 214.452 143.146L213.357 143.644C213.234 143.7 213.101 143.728 212.966 143.729C212.831 143.729 212.697 143.701 212.574 143.646C212.451 143.592 212.34 143.512 212.25 143.412C212.159 143.312 212.091 143.194 212.049 143.065L211.341 140.959C211.28 140.765 211.159 140.596 210.996 140.477C210.832 140.357 210.634 140.294 210.431 140.295H209.401C209.239 140.296 209.079 140.254 208.938 140.175L204.982 138.007C204.82 137.92 204.638 137.881 204.455 137.895C204.273 137.908 204.098 137.974 203.951 138.084L201.049 140.255C200.884 140.379 200.684 140.445 200.478 140.444H196.827C196.639 140.444 196.456 140.5 196.3 140.605L195.616 141.059C195.503 141.135 195.376 141.185 195.242 141.207C195.109 141.23 194.972 141.223 194.841 141.189C194.71 141.154 194.588 141.092 194.482 141.007C194.377 140.921 194.292 140.814 194.231 140.693L194.066 140.368C193.988 140.208 193.866 140.074 193.716 139.98C193.565 139.886 193.391 139.837 193.213 139.837H191.382C191.236 139.837 191.093 139.871 190.962 139.935C190.832 139.999 190.718 140.092 190.629 140.207L189.494 141.658C189.4 141.779 189.278 141.875 189.139 141.938C189 142.002 188.848 142.031 188.695 142.024C188.543 142.016 188.394 141.972 188.262 141.895C188.13 141.818 188.018 141.711 187.936 141.582L187.614 141.079C187.482 140.869 187.271 140.719 187.029 140.662C186.787 140.604 186.531 140.645 186.318 140.774L185.377 141.337C185.216 141.432 185.031 141.479 184.845 141.471C184.658 141.463 184.478 141.401 184.326 141.292L180.531 138.546C180.463 138.498 180.39 138.458 180.313 138.426L177.347 137.288C177.116 137.204 176.862 137.212 176.637 137.311C176.412 137.41 176.234 137.592 176.139 137.818L174.075 142.844C174.045 142.915 174.025 142.989 174.014 143.065L173.346 147.593C173.317 147.784 173.23 147.962 173.097 148.103L171.684 149.619C171.538 149.774 171.344 149.875 171.133 149.908C170.923 149.941 170.707 149.903 170.521 149.8L168.07 148.441C167.948 148.373 167.812 148.332 167.673 148.322C167.533 148.312 167.394 148.333 167.263 148.383C167.132 148.432 167.014 148.51 166.917 148.611C166.82 148.711 166.746 148.832 166.701 148.964L165.148 153.503C165.112 153.603 165.095 153.707 165.095 153.813V156.676C165.095 156.861 165.04 157.043 164.938 157.198C164.836 157.353 164.69 157.475 164.52 157.548L162.028 158.65C161.89 158.709 161.739 158.735 161.589 158.726C161.438 158.716 161.293 158.671 161.163 158.594L159.287 157.492C159.101 157.383 158.882 157.34 158.668 157.371L155.379 157.842C155.191 157.869 154.999 157.838 154.829 157.755C154.658 157.672 154.516 157.54 154.421 157.375L153.866 156.426C153.746 156.222 153.554 156.07 153.327 156L151.833 155.534C151.659 155.478 151.473 155.474 151.297 155.522C151.12 155.57 150.961 155.667 150.839 155.803L148.766 158.103C148.603 158.283 148.377 158.395 148.135 158.417L145.076 158.674C144.934 158.682 144.796 158.723 144.673 158.795L139.34 161.858C139.174 161.953 138.983 161.995 138.792 161.98C138.601 161.965 138.419 161.893 138.27 161.774L136.756 160.568C136.587 160.433 136.377 160.36 136.161 160.359H130.429C130.286 160.359 130.145 160.327 130.016 160.265C129.887 160.203 129.774 160.113 129.685 160.001L128.24 158.2C128.153 158.092 128.044 158.004 127.92 157.943C127.796 157.881 127.661 157.848 127.523 157.844C127.384 157.84 127.247 157.866 127.12 157.921C126.993 157.975 126.879 158.057 126.787 158.159L125.048 160.089C124.891 160.264 124.803 160.49 124.802 160.725V184.704C124.802 184.957 124.903 185.199 125.082 185.378C125.261 185.557 125.503 185.657 125.756 185.657H332.525C332.651 185.657 332.775 185.632 332.891 185.584C333.007 185.536 333.112 185.465 333.201 185.376C333.29 185.288 333.36 185.182 333.408 185.066C333.455 184.95 333.48 184.826 333.479 184.7L333.423 108.978C333.425 108.786 333.371 108.598 333.265 108.438C333.159 108.277 333.008 108.153 332.831 108.079C332.653 108.006 332.458 107.988 332.27 108.027C332.082 108.066 331.91 108.16 331.776 108.298Z" fill="#3D8060"/>
<path opacity="0.3" d="M331.591 139.35L328.476 141.425C328.367 141.499 328.27 141.59 328.19 141.694L326.254 144.248C326.137 144.399 325.985 144.52 325.812 144.601C325.638 144.682 325.448 144.721 325.256 144.714L324.624 144.682C324.407 144.671 324.198 144.601 324.018 144.479C323.838 144.357 323.696 144.188 323.606 143.99L323.204 143.134C323.114 142.933 322.969 142.761 322.786 142.638C322.603 142.515 322.389 142.446 322.168 142.439C321.948 142.432 321.73 142.487 321.539 142.598C321.349 142.708 321.193 142.871 321.091 143.065L320.286 144.605C320.185 144.794 320.035 144.952 319.851 145.062C319.667 145.172 319.457 145.229 319.243 145.229H315.25C314.987 145.23 314.731 145.142 314.524 144.98C314.317 144.818 314.17 144.591 314.107 144.336L313.149 140.504C313.096 140.291 312.984 140.096 312.826 139.943C312.668 139.79 312.47 139.684 312.254 139.638C312.039 139.591 311.815 139.606 311.607 139.68C311.4 139.755 311.217 139.885 311.081 140.058L305.325 147.327C305.163 147.534 304.936 147.68 304.68 147.742C304.425 147.804 304.156 147.778 303.916 147.669L300.218 146.001C300.024 145.91 299.809 145.874 299.597 145.896C299.384 145.918 299.181 145.997 299.01 146.125L297.686 147.102C297.623 147.149 297.565 147.203 297.513 147.263L294.019 151.127C293.902 151.262 293.755 151.368 293.591 151.437C293.426 151.507 293.248 151.538 293.069 151.529L290.787 151.384C290.663 151.377 290.538 151.388 290.417 151.417L288.36 151.943C288.126 152.004 287.878 151.992 287.651 151.907C287.424 151.822 287.229 151.669 287.093 151.469L286.859 151.123C286.748 150.961 286.597 150.829 286.421 150.74C286.245 150.65 286.05 150.607 285.853 150.612L283.559 150.681C283.294 150.685 283.039 150.782 282.838 150.954L282.275 151.425C282.141 151.536 281.985 151.617 281.816 151.662C281.648 151.706 281.472 151.712 281.3 151.68C281.129 151.648 280.967 151.579 280.826 151.477C280.685 151.375 280.568 151.243 280.484 151.091L279.888 150.013C279.743 149.75 279.502 149.552 279.216 149.46C278.929 149.368 278.618 149.389 278.347 149.519L274.487 151.372L270.216 153.576C270.077 153.647 269.925 153.69 269.769 153.702C269.612 153.714 269.455 153.694 269.307 153.644L265.906 152.518C265.753 152.468 265.591 152.449 265.431 152.462L258.846 153.021C258.623 153.044 258.41 153.129 258.233 153.266C258.055 153.403 257.919 153.587 257.84 153.797L256.886 156.459C256.828 156.618 256.737 156.764 256.618 156.885C256.498 157.007 256.354 157.101 256.195 157.161C256.036 157.221 255.866 157.246 255.696 157.235C255.526 157.223 255.361 157.175 255.212 157.094L255.171 157.074C254.927 156.938 254.642 156.895 254.368 156.951C254.094 157.007 253.85 157.159 253.678 157.379L252.93 158.336C252.731 158.585 252.441 158.746 252.125 158.782L250.064 159.004C249.948 159.015 249.834 159.044 249.726 159.088L246.462 160.483C246.315 160.544 246.158 160.575 245.999 160.576H244.429C244.237 160.576 244.048 160.529 243.878 160.439C243.709 160.349 243.563 160.22 243.455 160.061L243.23 159.731C243.088 159.525 242.885 159.369 242.649 159.286C242.413 159.203 242.157 159.197 241.918 159.269L238.259 160.375C238.008 160.45 237.739 160.44 237.494 160.347L235.796 159.695C235.668 159.645 235.531 159.617 235.393 159.615H231.747C231.589 159.615 231.433 159.647 231.288 159.711L227.666 161.247C227.411 161.357 227.126 161.373 226.861 161.291L225.07 160.757C224.895 160.705 224.711 160.694 224.532 160.724C224.352 160.755 224.182 160.827 224.035 160.934L223.25 161.509C223.013 161.682 222.719 161.761 222.426 161.729C222.133 161.697 221.863 161.557 221.669 161.336L221.552 161.203C221.394 161.022 221.184 160.895 220.951 160.836C220.718 160.778 220.473 160.792 220.248 160.877L217.33 161.991C217.07 162.086 216.785 162.086 216.525 161.991L215.245 161.533C215.011 161.452 214.758 161.445 214.52 161.513L213.313 161.862C213.049 161.939 212.766 161.92 212.514 161.81C212.262 161.7 212.056 161.505 211.933 161.259L211.482 160.355C211.383 160.159 211.233 159.995 211.047 159.88C210.861 159.765 210.646 159.704 210.427 159.703H209.381C209.244 159.706 209.108 159.684 208.978 159.639L204.917 158.216C204.771 158.163 204.616 158.141 204.462 158.149C204.307 158.157 204.155 158.196 204.016 158.264L201.049 159.687C200.89 159.763 200.715 159.803 200.538 159.804H196.791C196.632 159.804 196.475 159.836 196.328 159.896L195.563 160.226C195.324 160.327 195.058 160.347 194.806 160.283C194.555 160.218 194.331 160.072 194.171 159.868C194.061 159.726 193.92 159.612 193.759 159.533C193.598 159.454 193.42 159.414 193.241 159.414H191.349C191.077 159.413 190.812 159.507 190.601 159.679L189.502 160.58C189.276 160.767 188.988 160.862 188.695 160.847C188.403 160.832 188.126 160.708 187.92 160.499L187.671 160.25C187.509 160.088 187.305 159.976 187.081 159.928C186.857 159.88 186.624 159.899 186.411 159.981L185.316 160.403C185.017 160.514 184.685 160.503 184.394 160.371L180.543 158.585C180.475 158.553 180.403 158.529 180.329 158.513L177.307 157.769C177.068 157.71 176.817 157.727 176.589 157.818C176.361 157.908 176.167 158.069 176.035 158.276L174.135 161.235C174.062 161.349 174.009 161.474 173.978 161.605L173.403 164.118C173.334 164.405 173.162 164.657 172.92 164.826L171.664 165.686C171.511 165.791 171.335 165.859 171.151 165.882C170.967 165.906 170.78 165.886 170.605 165.823L168.021 164.906C167.751 164.811 167.456 164.817 167.19 164.924C166.924 165.03 166.706 165.23 166.576 165.485L165.216 168.026C165.127 168.197 165.08 168.388 165.079 168.581V169.727C165.078 169.984 164.993 170.234 164.837 170.439C164.681 170.643 164.462 170.792 164.214 170.861L161.952 171.488C161.712 171.556 161.456 171.545 161.223 171.456L159.251 170.712C159.085 170.648 158.906 170.623 158.728 170.64L155.327 170.949C155.146 170.967 154.963 170.942 154.793 170.876C154.623 170.811 154.471 170.706 154.349 170.571L153.946 170.125C153.779 169.937 153.554 169.81 153.306 169.763L151.757 169.449C151.599 169.419 151.436 169.421 151.278 169.455C151.121 169.489 150.971 169.554 150.839 169.646L148.799 171.098C148.616 171.226 148.402 171.301 148.179 171.315L145.052 171.48C144.933 171.487 144.817 171.512 144.705 171.552L139.276 173.563C139.124 173.62 138.961 173.645 138.799 173.635C138.637 173.626 138.478 173.582 138.334 173.506L136.764 172.702C136.599 172.618 136.415 172.574 136.229 172.574H130.393C130.124 172.574 129.862 172.481 129.652 172.312L128.24 171.182C128.039 171.022 127.792 170.932 127.536 170.924C127.28 170.917 127.028 170.994 126.819 171.142L125.306 172.22C125.153 172.329 125.028 172.473 124.942 172.64C124.856 172.808 124.811 172.993 124.811 173.181V184.483C124.811 184.795 124.935 185.095 125.156 185.316C125.377 185.537 125.677 185.661 125.99 185.661H332.3C332.613 185.661 332.912 185.537 333.134 185.316C333.355 185.095 333.479 184.795 333.479 184.483L333.423 140.347C333.426 140.133 333.37 139.922 333.261 139.737C333.153 139.552 332.996 139.4 332.808 139.297C332.619 139.195 332.407 139.146 332.192 139.155C331.978 139.164 331.77 139.232 331.591 139.35Z" fill="#3D8060"/>
<path d="M332.425 141.867C333.981 141.867 335.242 140.607 335.242 139.053C335.242 137.498 333.981 136.238 332.425 136.238C330.869 136.238 329.607 137.498 329.607 139.053C329.607 140.607 330.869 141.867 332.425 141.867Z" fill="#3D8060"/>
<path opacity="0.3" d="M332.243 166.896L328.416 168.171C328.342 168.196 328.272 168.23 328.206 168.272L326.105 169.659C325.953 169.758 325.773 169.809 325.59 169.803L324.282 169.771C324.161 169.769 324.041 169.741 323.93 169.691C323.819 169.64 323.72 169.568 323.638 169.478L322.833 168.593C322.753 168.505 322.656 168.433 322.548 168.383C322.44 168.332 322.323 168.304 322.204 168.299C322.085 168.294 321.966 168.313 321.854 168.354C321.743 168.396 321.64 168.459 321.553 168.541L320.197 169.811C320.032 169.969 319.813 170.057 319.585 170.057H314.884C314.717 170.058 314.552 170.012 314.41 169.923C314.267 169.835 314.153 169.709 314.079 169.558L313.005 167.415C312.949 167.303 312.87 167.204 312.773 167.125C312.677 167.045 312.564 166.987 312.444 166.953C312.323 166.919 312.197 166.911 312.073 166.929C311.949 166.947 311.831 166.991 311.725 167.057L305.072 171.267C304.87 171.393 304.627 171.435 304.395 171.384L299.839 170.358C299.671 170.319 299.494 170.33 299.332 170.39L297.67 171.006C297.626 171.019 297.584 171.038 297.545 171.062L293.87 173.096C293.729 173.174 293.569 173.212 293.408 173.209L290.687 173.121C290.64 173.116 290.593 173.116 290.546 173.121L287.93 173.454C287.702 173.482 287.472 173.423 287.286 173.289L286.755 172.887C286.597 172.771 286.406 172.711 286.211 172.714L283.341 172.755C283.227 172.755 283.113 172.778 283.007 172.823L281.719 173.366C281.562 173.431 281.389 173.45 281.221 173.421C281.052 173.392 280.896 173.315 280.77 173.201L279.715 172.268C279.608 172.171 279.478 172.102 279.338 172.066C279.198 172.031 279.051 172.03 278.91 172.063L274.507 173.125L269.979 174.295C269.857 174.321 269.731 174.321 269.609 174.295L265.785 173.659C265.723 173.655 265.662 173.655 265.6 173.659L258.528 173.977C258.393 173.983 258.26 174.02 258.141 174.085C258.022 174.149 257.919 174.24 257.84 174.351L256.773 175.818C256.667 175.967 256.517 176.08 256.344 176.141C256.172 176.203 255.984 176.209 255.807 176.16L254.668 175.847C254.547 175.815 254.42 175.808 254.296 175.828C254.172 175.847 254.054 175.892 253.948 175.959L252.809 176.687C252.678 176.768 252.528 176.815 252.374 176.824L249.959 176.956C249.914 176.952 249.868 176.952 249.822 176.956L246.337 177.7C246.275 177.713 246.211 177.719 246.148 177.72H244.103C243.913 177.72 243.729 177.66 243.576 177.547L243.045 177.145C242.951 177.075 242.844 177.025 242.731 176.997C242.618 176.968 242.5 176.963 242.385 176.98L238.034 177.632C237.934 177.648 237.832 177.648 237.732 177.632L235.687 177.23C235.631 177.224 235.574 177.224 235.518 177.23H231.594C231.532 177.224 231.47 177.224 231.409 177.23L227.428 178.074C227.322 178.094 227.213 178.094 227.106 178.074L224.736 177.716C224.586 177.696 224.434 177.712 224.293 177.764L222.771 178.319C222.649 178.365 222.518 178.383 222.388 178.372C222.258 178.361 222.132 178.321 222.019 178.255L221.298 177.853C221.115 177.745 220.899 177.708 220.691 177.748L217.068 178.436C216.96 178.456 216.85 178.456 216.742 178.436L214.999 178.126C214.905 178.112 214.808 178.112 214.714 178.126L212.79 178.404C212.652 178.425 212.512 178.413 212.38 178.37C212.247 178.327 212.127 178.253 212.029 178.154L211.393 177.547C211.223 177.381 210.995 177.287 210.757 177.286H209.232C209.181 177.29 209.13 177.29 209.079 177.286L204.627 176.506C204.507 176.48 204.382 176.48 204.261 176.506L200.896 177.31C200.828 177.326 200.758 177.334 200.687 177.334H196.634C196.572 177.328 196.51 177.328 196.449 177.334L195.076 177.628C194.845 177.692 194.598 177.663 194.388 177.547L194.01 177.302C193.865 177.21 193.698 177.162 193.527 177.161H191.076C190.96 177.162 190.845 177.185 190.738 177.23L189.023 177.929C188.905 177.979 188.778 178.002 188.65 177.997C188.522 177.992 188.396 177.959 188.282 177.901L187.373 177.443C187.196 177.354 186.996 177.326 186.801 177.362L185.006 177.708C184.884 177.734 184.758 177.734 184.636 177.708L180.474 176.743H180.382L176.844 176.305C176.608 176.278 176.371 176.345 176.184 176.49L174.171 178.05C174.059 178.137 173.969 178.25 173.91 178.38L173.459 179.381C173.408 179.491 173.335 179.59 173.246 179.671C173.156 179.753 173.05 179.815 172.936 179.855L171.39 180.382C171.247 180.434 171.093 180.446 170.943 180.418L167.506 179.807C167.369 179.783 167.228 179.792 167.095 179.831C166.962 179.871 166.839 179.941 166.737 180.036L165.373 181.311C165.283 181.395 165.212 181.496 165.164 181.609C165.115 181.722 165.091 181.843 165.091 181.966C165.091 182.182 165.013 182.391 164.871 182.553C164.729 182.716 164.533 182.821 164.319 182.851L161.739 183.209C161.643 183.225 161.545 183.225 161.449 183.209L159.114 182.766C159.045 182.758 158.975 182.758 158.905 182.766L155.005 182.943C154.841 182.949 154.679 182.912 154.534 182.835L153.85 182.461C153.745 182.401 153.628 182.364 153.508 182.352L151.459 182.147C151.323 182.133 151.185 182.149 151.057 182.195L148.642 183.052C148.552 183.083 148.459 183.101 148.364 183.104L144.931 183.196C144.884 183.192 144.837 183.192 144.79 183.196L138.974 184.27C138.848 184.296 138.718 184.296 138.592 184.27L136.611 183.763C136.538 183.746 136.462 183.736 136.386 183.735H130.143C130.029 183.736 129.915 183.715 129.809 183.671L127.853 182.891C127.649 182.813 127.422 182.813 127.217 182.891L125.398 183.538C125.224 183.599 125.073 183.713 124.966 183.863C124.859 184.014 124.802 184.194 124.802 184.379V184.781C124.802 184.898 124.825 185.015 124.869 185.123C124.914 185.232 124.98 185.331 125.063 185.414C125.146 185.498 125.244 185.564 125.353 185.609C125.462 185.654 125.578 185.677 125.696 185.677H332.573C332.691 185.677 332.808 185.654 332.916 185.609C333.025 185.564 333.124 185.498 333.207 185.414C333.29 185.331 333.355 185.232 333.4 185.123C333.445 185.015 333.467 184.898 333.467 184.781L333.415 167.785C333.42 167.641 333.391 167.498 333.329 167.367C333.268 167.237 333.176 167.123 333.061 167.036C332.946 166.949 332.811 166.891 332.669 166.866C332.527 166.842 332.381 166.852 332.243 166.896Z" fill="#3D8060"/>
<path d="M177.468 160.765C179.024 160.765 180.285 159.504 180.285 157.95C180.285 156.396 179.024 155.135 177.468 155.135C175.912 155.135 174.65 156.396 174.65 157.95C174.65 159.504 175.912 160.765 177.468 160.765Z" fill="#3D8060"/>
<path d="M312.703 143.073C314.259 143.073 315.52 141.813 315.52 140.259C315.52 138.704 314.259 137.444 312.703 137.444C311.147 137.444 309.885 138.704 309.885 140.259C309.885 141.813 311.147 143.073 312.703 143.073Z" fill="#3D8060"/>
<path d="M242.671 161.971C244.227 161.971 245.488 160.711 245.488 159.156C245.488 157.602 244.227 156.342 242.671 156.342C241.115 156.342 239.853 157.602 239.853 159.156C239.853 160.711 241.115 161.971 242.671 161.971Z" fill="#3D8060"/>
<path d="M279.297 151.919C280.853 151.919 282.114 150.659 282.114 149.105C282.114 147.55 280.853 146.29 279.297 146.29C277.741 146.29 276.479 147.55 276.479 149.105C276.479 150.659 277.741 151.919 279.297 151.919Z" fill="#3D8060"/>
<path d="M333.825 140.323C333.824 140.111 333.766 139.902 333.656 139.72C333.546 139.538 333.389 139.389 333.201 139.289C333.014 139.189 332.802 139.141 332.59 139.151C332.377 139.161 332.171 139.229 331.994 139.346L328.879 141.421C328.769 141.495 328.673 141.586 328.593 141.69L326.657 144.244C326.54 144.395 326.388 144.516 326.214 144.597C326.041 144.678 325.85 144.717 325.659 144.71L325.027 144.678C324.81 144.667 324.6 144.597 324.421 144.475C324.241 144.353 324.098 144.184 324.009 143.986L323.606 143.13C323.516 142.929 323.371 142.757 323.188 142.634C323.005 142.511 322.791 142.442 322.571 142.435C322.351 142.428 322.133 142.483 321.942 142.594C321.751 142.704 321.596 142.867 321.493 143.062L320.688 144.601C320.588 144.79 320.437 144.948 320.254 145.058C320.07 145.168 319.86 145.225 319.646 145.225H315.653C315.39 145.226 315.134 145.138 314.926 144.976C314.719 144.815 314.572 144.588 314.51 144.332L313.552 140.5C313.499 140.287 313.387 140.092 313.228 139.939C313.07 139.786 312.872 139.68 312.657 139.634C312.441 139.587 312.217 139.602 312.01 139.676C311.802 139.751 311.62 139.881 311.483 140.054L305.728 147.323C305.565 147.53 305.338 147.676 305.083 147.738C304.827 147.8 304.558 147.775 304.319 147.665L300.62 145.997C300.427 145.906 300.212 145.87 299.999 145.892C299.786 145.914 299.584 145.993 299.413 146.121L298.089 147.098C298.025 147.146 297.967 147.199 297.915 147.259L294.422 151.123C294.304 151.258 294.158 151.364 293.993 151.433C293.829 151.503 293.651 151.534 293.472 151.525L291.19 151.38C291.066 151.373 290.941 151.384 290.82 151.413L288.763 151.939C288.528 152 288.281 151.988 288.054 151.903C287.827 151.818 287.632 151.665 287.495 151.465L287.262 151.119C287.15 150.957 287 150.825 286.824 150.736C286.648 150.646 286.453 150.603 286.255 150.608L283.961 150.677C283.697 150.681 283.442 150.778 283.241 150.95L282.677 151.421C282.544 151.532 282.387 151.613 282.219 151.658C282.05 151.702 281.874 151.708 281.703 151.676C281.532 151.644 281.37 151.575 281.228 151.473C281.087 151.371 280.97 151.239 280.886 151.087L280.291 150.009C280.145 149.746 279.905 149.548 279.618 149.456C279.332 149.364 279.021 149.385 278.749 149.515L274.889 151.368L270.619 153.572C270.48 153.643 270.327 153.686 270.171 153.698C270.015 153.71 269.858 153.69 269.709 153.64L266.308 152.514C266.155 152.464 265.994 152.445 265.833 152.458L259.249 153.021C259.025 153.044 258.813 153.129 258.635 153.266C258.457 153.403 258.321 153.587 258.243 153.797L257.289 156.459C257.231 156.618 257.139 156.764 257.02 156.885C256.901 157.007 256.757 157.101 256.598 157.161C256.439 157.221 256.268 157.247 256.099 157.235C255.929 157.223 255.764 157.175 255.614 157.094L255.574 157.074C255.33 156.938 255.045 156.895 254.771 156.951C254.497 157.007 254.252 157.159 254.081 157.379L253.332 158.336C253.133 158.585 252.844 158.746 252.527 158.783L250.467 159.004C250.35 159.015 250.236 159.044 250.128 159.088L246.864 160.483C246.717 160.544 246.56 160.575 246.401 160.576H244.832C244.64 160.576 244.451 160.529 244.281 160.439C244.111 160.349 243.966 160.22 243.858 160.061L243.632 159.731C243.491 159.525 243.288 159.369 243.052 159.286C242.816 159.203 242.56 159.197 242.32 159.269L238.662 160.375C238.411 160.45 238.142 160.44 237.897 160.347L236.198 159.695C236.07 159.645 235.934 159.617 235.796 159.615H232.149C231.991 159.615 231.835 159.647 231.691 159.711L228.068 161.247C227.814 161.357 227.528 161.373 227.263 161.291L225.472 160.757C225.298 160.705 225.114 160.694 224.934 160.724C224.755 160.755 224.585 160.827 224.438 160.934L223.653 161.509C223.415 161.682 223.121 161.761 222.828 161.729C222.536 161.697 222.266 161.557 222.071 161.336L221.954 161.203C221.796 161.023 221.586 160.895 221.353 160.836C221.12 160.778 220.875 160.792 220.65 160.877L217.732 161.991C217.472 162.086 217.187 162.086 216.927 161.991L215.648 161.533C215.414 161.452 215.161 161.445 214.923 161.513L213.716 161.862C213.451 161.939 213.168 161.92 212.916 161.81C212.664 161.7 212.459 161.505 212.335 161.259L211.884 160.355C211.786 160.159 211.635 159.995 211.449 159.88C211.263 159.765 211.049 159.704 210.83 159.703H209.783C209.646 159.706 209.51 159.684 209.381 159.639L205.32 158.216C205.174 158.163 205.019 158.141 204.864 158.149C204.709 158.157 204.558 158.196 204.418 158.264L201.452 159.687C201.292 159.763 201.118 159.803 200.941 159.804H197.194C197.035 159.805 196.878 159.836 196.731 159.896L195.966 160.226C195.727 160.327 195.461 160.347 195.209 160.283C194.957 160.218 194.734 160.072 194.573 159.868C194.463 159.727 194.322 159.612 194.161 159.533C194 159.454 193.823 159.414 193.644 159.414H191.752C191.479 159.413 191.215 159.507 191.003 159.679L189.905 160.58C189.679 160.767 189.391 160.862 189.098 160.847C188.805 160.832 188.529 160.708 188.323 160.499L188.073 160.25C187.912 160.088 187.707 159.976 187.483 159.928C187.26 159.881 187.027 159.899 186.813 159.981L185.719 160.403C185.419 160.514 185.088 160.503 184.797 160.371L180.945 158.586C180.877 158.553 180.806 158.529 180.732 158.513L177.709 157.769C177.471 157.71 177.22 157.727 176.992 157.818C176.763 157.909 176.569 158.069 176.437 158.276L174.538 161.235C174.465 161.349 174.412 161.474 174.381 161.605L173.805 164.118C173.736 164.405 173.564 164.657 173.322 164.826L172.066 165.686C171.914 165.791 171.738 165.859 171.554 165.882C171.37 165.906 171.183 165.886 171.008 165.823L168.424 164.906C168.154 164.811 167.858 164.817 167.592 164.924C167.326 165.03 167.108 165.23 166.979 165.485L165.619 168.026C165.529 168.198 165.482 168.388 165.482 168.581V169.727C165.481 169.984 165.396 170.234 165.239 170.439C165.083 170.644 164.865 170.792 164.616 170.861L162.354 171.488C162.114 171.556 161.859 171.545 161.626 171.456L159.654 170.712C159.487 170.648 159.308 170.623 159.131 170.64L155.73 170.949C155.548 170.967 155.365 170.942 155.196 170.876C155.026 170.811 154.874 170.706 154.752 170.571L154.349 170.125C154.181 169.937 153.956 169.81 153.709 169.763L152.16 169.45C152.001 169.419 151.838 169.421 151.681 169.455C151.523 169.489 151.374 169.554 151.242 169.647L149.201 171.098C149.019 171.226 148.804 171.301 148.581 171.315L145.454 171.48C145.336 171.487 145.219 171.512 145.108 171.552L139.678 173.563C139.526 173.62 139.364 173.645 139.202 173.635C139.039 173.626 138.881 173.582 138.737 173.506L137.167 172.702C137.001 172.618 136.818 172.574 136.632 172.574H130.796C130.526 172.574 130.265 172.481 130.055 172.312L128.642 171.182C128.442 171.022 128.195 170.932 127.939 170.924C127.682 170.917 127.431 170.994 127.222 171.142L125.708 172.22C125.555 172.329 125.43 172.473 125.344 172.64C125.258 172.808 125.213 172.993 125.213 173.181" stroke="#3D8060" stroke-miterlimit="10"/>
<path opacity="0.2" d="M348.524 202.158H113.07V202.198H348.524V202.158Z" fill="#F2F2F2"/>
<path opacity="0.3" d="M149.294 204.188C150.405 204.188 151.306 203.288 151.306 202.178C151.306 201.068 150.405 200.168 149.294 200.168C148.182 200.168 147.281 201.068 147.281 202.178C147.281 203.288 148.182 204.188 149.294 204.188Z" fill="#3D8060"/>
<path opacity="0.3" d="M178.675 204.188C179.787 204.188 180.688 203.288 180.688 202.178C180.688 201.068 179.787 200.168 178.675 200.168C177.564 200.168 176.663 201.068 176.663 202.178C176.663 203.288 177.564 204.188 178.675 204.188Z" fill="#3D8060"/>
<path opacity="0.3" d="M208.057 204.188C209.168 204.188 210.069 203.288 210.069 202.178C210.069 201.068 209.168 200.168 208.057 200.168C206.945 200.168 206.044 201.068 206.044 202.178C206.044 203.288 206.945 204.188 208.057 204.188Z" fill="#3D8060"/>
<path opacity="0.3" d="M237.438 204.188C238.55 204.188 239.451 203.288 239.451 202.178C239.451 201.068 238.55 200.168 237.438 200.168C236.327 200.168 235.426 201.068 235.426 202.178C235.426 203.288 236.327 204.188 237.438 204.188Z" fill="#3D8060"/>
<path opacity="0.3" d="M266.82 204.188C267.931 204.188 268.832 203.288 268.832 202.178C268.832 201.068 267.931 200.168 266.82 200.168C265.708 200.168 264.807 201.068 264.807 202.178C264.807 203.288 265.708 204.188 266.82 204.188Z" fill="#3D8060"/>
<path opacity="0.3" d="M296.201 204.188C297.312 204.188 298.213 203.288 298.213 202.178C298.213 201.068 297.312 200.168 296.201 200.168C295.089 200.168 294.188 201.068 294.188 202.178C294.188 203.288 295.089 204.188 296.201 204.188Z" fill="#3D8060"/>
<path opacity="0.3" d="M325.582 204.188C326.694 204.188 327.595 203.288 327.595 202.178C327.595 201.068 326.694 200.168 325.582 200.168C324.471 200.168 323.57 201.068 323.57 202.178C323.57 203.288 324.471 204.188 325.582 204.188Z" fill="#3D8060"/>
<path d="M96.4756 279.706C95.2682 277.49 96.6366 274.776 98.2023 272.802C99.7679 270.828 101.668 268.781 101.627 266.252C101.567 262.634 97.7233 260.495 94.6524 258.577C92.3716 257.152 90.2692 255.461 88.3897 253.539C87.6031 252.8 86.952 251.929 86.4658 250.966C85.8299 249.55 85.846 247.942 85.8862 246.394C86.0231 241.226 86.2793 236.067 86.655 230.918" stroke="#3F3D56" stroke-width="4" stroke-miterlimit="10"/>
<path d="M80.815 230.645C80.8578 229.7 81.1383 228.78 81.6308 227.972C82.1232 227.164 82.8116 226.493 83.6324 226.021L84.8962 228.518L84.8559 225.494C85.4605 225.317 86.0901 225.241 86.7194 225.269C87.8311 225.324 88.9016 225.707 89.7958 226.369C90.69 227.031 91.3679 227.943 91.7439 228.99C92.1199 230.036 92.1772 231.171 91.9086 232.25C91.64 233.329 91.0574 234.304 90.2345 235.053C89.4116 235.802 88.3851 236.29 87.2846 236.457C86.1841 236.623 85.0589 236.46 84.0508 235.989C83.0428 235.517 82.1971 234.758 81.6205 233.807C81.0439 232.856 80.7622 231.756 80.8109 230.645H80.815Z" fill="#57B894"/>
<path d="M90.8892 268.838C91.4818 269.985 92.451 270.894 93.6346 271.412C94.8181 271.93 96.144 272.027 97.3901 271.685C98.6361 271.342 99.7266 270.583 100.479 269.533C101.231 268.483 101.599 267.207 101.521 265.919C101.444 264.63 100.925 263.407 100.052 262.455C99.1797 261.503 98.0059 260.88 96.7277 260.689C95.4496 260.499 94.1448 260.753 93.032 261.41C91.9192 262.066 91.0661 263.084 90.6155 264.294L94.1453 267.161L90.2614 266.264C90.2628 267.16 90.478 268.042 90.8892 268.838Z" fill="#57B894"/>
<path d="M93.6786 257.881C95.0821 257.98 96.4719 257.551 97.5748 256.678C98.6776 255.805 99.4136 254.552 99.6382 253.164C99.8627 251.777 99.5594 250.356 98.788 249.18C98.0166 248.005 96.8329 247.16 95.4696 246.812L95.5018 249.136L94.2219 246.607C93.4808 246.571 92.7398 246.681 92.0414 246.932C91.3431 247.182 90.7012 247.568 90.1526 248.068C89.604 248.567 89.1595 249.169 88.8445 249.84C88.5296 250.511 88.3505 251.238 88.3175 251.979C88.2844 252.63 88.3661 253.282 88.5589 253.905C88.8984 255.014 89.5724 255.991 90.4887 256.702C91.4051 257.414 92.5191 257.826 93.6786 257.881Z" fill="#57B894"/>
<path d="M79.9658 248.766C80.8328 248.798 81.6956 248.629 82.4867 248.273C83.2778 247.918 83.976 247.384 84.5268 246.714C85.0775 246.044 85.466 245.257 85.662 244.412C85.8579 243.568 85.856 242.69 85.6564 241.846C85.4568 241.003 85.0649 240.216 84.5112 239.549C83.9575 238.882 83.257 238.351 82.4644 237.999C81.6717 237.646 80.8082 237.481 79.9413 237.517C79.0744 237.552 78.2274 237.787 77.4663 238.204L78.4645 240.938L76.4118 238.968C75.3118 239.974 74.6561 241.375 74.5886 242.864C74.5618 243.387 74.6092 243.91 74.7294 244.42C75.0113 245.614 75.6748 246.684 76.6195 247.468C77.5642 248.253 78.7389 248.708 79.9658 248.766Z" fill="#57B894"/>
<path opacity="0.1" d="M81.5756 232.149C82.8797 232.289 84.1475 232.695 85.4556 232.776C86.7637 232.856 88.2005 232.543 89.0297 231.529C89.4724 230.983 89.6978 230.287 90.0721 229.692C90.4296 229.135 90.919 228.675 91.4969 228.353C91.8377 229.065 92.025 229.84 92.0465 230.629C92.0681 231.417 91.9234 232.202 91.6219 232.931C91.3205 233.66 90.8689 234.318 90.2966 234.862C89.7243 235.405 89.044 235.823 88.2998 236.087C87.5556 236.351 86.7641 236.456 85.9767 236.394C85.1894 236.333 84.4236 236.107 83.7293 235.731C83.0349 235.356 82.4274 234.838 81.9461 234.213C81.4649 233.587 81.1206 232.867 80.9357 232.1C81.1503 232.108 81.3637 232.124 81.5756 232.149Z" fill="black"/>
<path opacity="0.1" d="M79.9658 248.766C80.9401 248.816 81.9104 248.612 82.782 248.174C83.6535 247.736 84.3964 247.08 84.938 246.27C85.4796 245.459 85.8012 244.522 85.8715 243.55C85.9418 242.578 85.7583 241.605 85.339 240.725C84.8908 241.026 84.5054 241.411 84.204 241.859C83.8015 242.466 83.556 243.165 83.0851 243.724C82.2037 244.758 80.7024 245.095 79.338 245.035C77.9735 244.975 76.6574 244.585 75.3131 244.46C75.1239 244.46 74.9348 244.432 74.7416 244.428C75.0244 245.619 75.6867 246.686 76.6289 247.468C77.5711 248.251 78.7421 248.706 79.9658 248.766Z" fill="black"/>
<path opacity="0.1" d="M93.6784 257.881C94.6457 257.931 95.6096 257.732 96.477 257.301C97.3445 256.871 98.0863 256.225 98.6308 255.424C99.1754 254.624 99.5042 253.697 99.5857 252.733C99.6671 251.769 99.4984 250.8 99.0959 249.92C98.6272 250.226 98.2181 250.614 97.8884 251.066C97.4497 251.685 97.176 252.397 96.681 252.968C95.7271 254.029 94.1252 254.403 92.6843 254.367C91.2434 254.331 89.9353 253.997 88.5468 253.889C88.8841 255.002 89.5587 255.984 90.4777 256.699C91.3967 257.414 92.5149 257.827 93.6784 257.881Z" fill="black"/>
<path opacity="0.1" d="M90.8892 268.838C91.5003 270.202 92.6289 271.268 94.0268 271.801C95.4247 272.334 96.9774 272.291 98.3432 271.68C99.709 271.07 100.776 269.942 101.31 268.546C101.843 267.149 101.8 265.598 101.189 264.234C100.723 264.537 100.305 264.908 99.9491 265.336C99.4098 265.991 99.0556 266.735 98.4358 267.346C97.2806 268.48 95.4171 268.954 93.7548 268.99C92.7975 268.994 91.8407 268.943 90.8892 268.838Z" fill="black"/>
<path d="M104.996 277.157C104.996 277.157 100.537 277.02 99.1924 276.063C97.8481 275.106 92.3502 273.968 92.0041 275.5C91.6579 277.032 85.3027 283.14 90.3337 283.164C95.3648 283.188 102.03 282.38 103.374 281.555C104.719 280.731 104.996 277.157 104.996 277.157Z" fill="#656380"/>
<path opacity="0.2" d="M90.2452 282.629C95.2802 282.669 101.941 281.849 103.282 281.021C104.304 280.397 104.71 278.166 104.847 277.141H104.996C104.996 277.141 104.714 280.731 103.386 281.563C102.058 282.396 95.3809 283.204 90.3458 283.172C88.8928 283.172 88.3937 282.645 88.4219 281.881C88.6111 282.331 89.1625 282.621 90.2452 282.629Z" fill="black"/>
</g>
<defs>
<clipPath id="clip0">
<rect width="458" height="298" fill="white"/>
</clipPath>
</defs>
</svg>
