<svg width="341" height="315" viewBox="0 0 341 315" fill="none" xmlns="http://www.w3.org/2000/svg">
<g clip-path="url(#clip0)">
<path opacity="0.1" d="M127.171 12.3553C139.341 1.51744 158.451 -0.683313 175.84 0.17012C230.468 2.88451 279.778 29.2343 322.429 59.0412C337.869 69.8316 353.072 81.4597 363.096 96.3197C383.498 126.573 377.448 168.478 349.075 193.398C339.423 201.877 327.724 208.376 315.707 214.141C294.356 224.386 271.301 232.608 247.059 234.951C229.768 236.619 212.264 235.263 195.08 232.932C147.056 226.429 99.9284 212.027 60.4244 187.42C43.0982 176.621 26.7644 163.2 19.6236 145.728C12.4827 128.256 17.0535 106.138 34.7632 95.7863C42.082 91.5112 50.8321 89.5791 59.3964 87.7656C72.0055 85.0947 84.8163 82.4632 96.1919 77.0384C107.943 71.4318 121.861 60.5901 119.52 48.1955C117.005 34.8725 115.029 23.1654 127.171 12.3553Z" fill="#3D8060"/>
<path opacity="0.1" d="M68.9965 63.573C75.8751 63.573 81.4514 58.0007 81.4514 51.1271C81.4514 44.2534 75.8751 38.6812 68.9965 38.6812C62.1178 38.6812 56.5415 44.2534 56.5415 51.1271C56.5415 58.0007 62.1178 63.573 68.9965 63.573Z" fill="#3D8060"/>
<path opacity="0.1" d="M42.9043 29.1985C47.1625 29.1985 50.6145 25.7491 50.6145 21.4939C50.6145 17.2388 47.1625 13.7893 42.9043 13.7893C38.6461 13.7893 35.1941 17.2388 35.1941 21.4939C35.1941 25.7491 38.6461 29.1985 42.9043 29.1985Z" fill="#3D8060"/>
<path opacity="0.1" d="M272.957 315C291.353 315 306.265 313.514 306.265 311.681C306.265 309.848 291.353 308.362 272.957 308.362C254.562 308.362 239.649 309.848 239.649 311.681C239.649 313.514 254.562 315 272.957 315Z" fill="#3D8060"/>
<path d="M84.7807 192.54L84.6344 200.422L83.464 264.315L73.4447 287.761L38.9148 288.156V196.171L74.9511 193.318L84.7807 192.54Z" fill="#5F5D7E"/>
<path opacity="0.1" d="M84.7807 192.54L84.6344 200.422L83.464 264.315L73.4447 287.761L38.9148 288.156V196.171L74.9511 193.318L84.7807 192.54Z" fill="black"/>
<path d="M84.7806 192.54L84.6343 200.422L83.4639 264.315L73.4446 287.761L76.0819 200.573L76.074 200.517L74.951 193.318L84.7806 192.54Z" fill="#5F5D7E"/>
<path opacity="0.1" d="M74.9511 193.318L84.7807 192.54L84.6344 200.422L76.0741 200.517L38.9148 200.932V196.171L74.9511 193.318Z" fill="black"/>
<path d="M395.166 188.719V196.171L0.166016 200.573V191.09L37.3332 183.583L360.767 181.212L395.166 188.719Z" fill="#5F5D7E"/>
<path opacity="0.1" d="M395.166 188.719V196.171L0.166016 200.573V191.09L395.166 188.719Z" fill="black"/>
<path d="M274.017 77.0342H153.706C148.723 77.0342 144.683 81.0709 144.683 86.0505V175.365C144.683 180.344 148.723 184.381 153.706 184.381H274.017C279 184.381 283.04 180.344 283.04 175.365V86.0505C283.04 81.0709 279 77.0342 274.017 77.0342Z" fill="#474157"/>
<path d="M272.111 86.7183H155.817V174.286H272.111V86.7183Z" fill="#EDEDF4"/>
<path d="M151.278 132.405C152.331 132.405 153.184 131.552 153.184 130.5C153.184 129.448 152.331 128.596 151.278 128.596C150.226 128.596 149.372 129.448 149.372 130.5C149.372 131.552 150.226 132.405 151.278 132.405Z" fill="#E6E8EC"/>
<path d="M277.263 133.847C278.999 133.847 280.406 132.441 280.406 130.706C280.406 128.971 278.999 127.565 277.263 127.565C275.527 127.565 274.12 128.971 274.12 130.706C274.12 132.441 275.527 133.847 277.263 133.847Z" fill="#E6E8EC"/>
<path d="M318.016 201.165C317.937 200.682 317.787 200.214 317.57 199.775C317.87 198.751 318.064 198.123 318.064 198.123C318.064 198.123 318.064 197.973 318.016 197.728C317.781 196.28 317.028 194.967 315.897 194.031C314.767 193.095 313.335 192.601 311.868 192.639C309.496 192.682 304.996 192.84 300.006 193.402C300.291 191.406 300.631 189.02 300.987 186.562L301.639 186.633C301.789 186.633 301.948 186.633 302.106 186.657H302.315C302.835 186.69 303.35 186.532 303.762 186.215C303.864 186.116 303.939 185.994 303.981 185.86C304.024 185.725 304.032 185.583 304.006 185.444C303.98 185.305 303.92 185.176 303.831 185.066C303.742 184.956 303.628 184.87 303.498 184.816C304.081 184.874 304.669 184.786 305.21 184.559C305.75 184.333 306.226 183.976 306.593 183.52C306.929 183.051 307.109 182.488 307.109 181.912C307.109 181.335 306.929 180.773 306.593 180.304C305.759 179.118 303.992 178.328 303.897 176.933C303.845 176.143 304.375 175.432 304.79 174.733C305.791 172.987 306.191 170.961 305.929 168.966C305.667 166.972 304.757 165.118 303.339 163.689C302.783 163.138 302.197 162.617 301.584 162.129C300.714 158.936 299.805 156.084 299.536 155.993C299.188 155.878 298.591 155.127 298.021 154.483C298.073 153.94 298.064 153.393 297.994 152.852C297.575 150.086 294.83 148.11 293.32 145.668C291.81 143.227 291.537 140.236 291.924 137.438C292.312 134.641 293.288 131.935 294.083 129.204C294.676 127.177 295.171 125.024 294.506 123.013C294.036 121.579 293.012 120.338 291.956 119.173C289.421 116.371 286.499 113.748 282.893 112.061C280.387 110.88 277.642 110.293 274.871 110.346H274.843L274.408 110.37L274.1 110.389L273.791 110.421L273.463 110.453C273.127 110.496 272.795 110.547 272.463 110.614C270.054 110.079 267.596 109.804 265.128 109.793H264.808C264.076 109.749 263.348 109.921 262.713 110.287C261.835 110.899 261.724 111.997 261.459 112.954C260.983 114.554 259.98 115.946 258.612 116.905C257.667 117.584 256.556 118.09 255.655 118.801C254.753 119.512 254.049 120.579 254.291 121.63C254.492 122.511 255.315 123.167 256.268 123.566C256.153 123.708 256.034 123.847 255.924 123.993C256.109 124.068 256.319 124.135 256.489 124.19C257.675 124.542 258.952 124.586 260.154 124.906C260.485 124.994 260.81 125.104 261.127 125.234C260.058 127.243 259.5 129.485 259.502 131.761C259.506 134.288 260.193 136.768 261.488 138.938C262.784 141.109 264.641 142.891 266.864 144.096C266.864 144.23 266.864 144.361 266.864 144.491C266.987 148.616 266.674 153.634 264.563 154.483C262.452 155.333 260.431 156.293 259.186 156.913L258.79 157.123C258.462 156.973 258.134 156.815 257.814 156.649C257.814 156.649 256.133 156.451 256.426 157.731C256.426 157.731 251.345 156.941 248.557 159.11C245.77 161.279 241.195 165.807 240.298 166.989C239.4 168.17 232.461 170.754 232.461 170.754C232.461 170.754 234.647 167.7 233.702 163.958C233.702 163.958 232.659 159.446 233.157 157.636C233.655 155.827 234.948 149.11 234.948 149.11C234.948 149.11 235.13 142.022 231.259 138.77C227.388 135.518 224.695 132.843 226.19 136.004C226.843 137.453 227.574 138.866 228.38 140.236C228.38 140.236 219.124 142.433 222.41 145.862C225.696 149.292 226.589 149.296 226.589 149.296C226.589 149.296 225.494 157.763 225.292 159.339C225.091 160.916 223.315 172.927 223.315 172.927C223.315 172.927 223.216 178.64 224.213 179.525C224.213 179.525 224.865 183.204 228.989 183.081C228.989 183.081 236.85 182.884 239.04 181.999C241.231 181.114 248.791 176.384 249.589 176.681C249.647 176.704 249.7 176.739 249.744 176.783C249.786 176.82 249.826 176.859 249.862 176.902C249.071 178.652 247.197 184.595 247.996 187.514C247.996 187.514 247.3 195.784 251.479 198.443C251.479 198.443 257.549 208.684 255.259 214.196C255.077 214.643 254.915 215.053 254.765 215.453C251.29 212.572 245.987 209.921 237.89 208.455C237.063 208.305 236.241 208.123 235.426 207.926C233.125 207.369 226.795 206.859 223.782 216.859C223.079 219.184 222.185 221.446 221.109 223.623C219.923 226.022 218.606 229.459 218.578 232.869C218.511 237.65 220.982 242.387 229.95 244.126C230.049 247.681 230.456 251.917 231.674 254.963C234.161 261.167 238.143 271.21 238.143 271.21C238.143 271.21 242.919 281.451 243.22 285.584C243.413 288.291 243.698 291.839 243.5 294.277C243.5 294.427 243.477 294.569 243.461 294.711C243.051 295.153 242.604 295.559 242.124 295.924C241.428 296.319 239.139 298.781 239.139 299.37C239.144 299.934 239.194 300.497 239.289 301.053C238.206 301.997 237.613 303.028 237.613 304.056C237.613 309.397 252.784 313.728 271.498 313.728C290.212 313.728 305.38 309.382 305.38 304.056C305.38 299.18 292.727 295.15 276.286 294.486C279.715 293.119 282.759 291.685 284.02 290.535C284.291 290.324 284.498 290.042 284.617 289.721L281.434 282.336C281.434 282.336 281.185 282.392 280.818 282.498L280.596 282.167C279.181 280.013 276.456 275.722 276.456 274.557C276.456 274.126 275.737 271.372 274.693 267.599V255.489C285.076 257.069 298.456 254.92 298.456 254.92L298.516 254.888H298.777V254.746C300.576 253.75 309.575 248.484 312.244 241.498C313.034 239.459 312.05 236.539 310.093 233.418C311.461 230.024 314.837 221.257 314.501 217.76C314.501 217.574 314.478 217.365 314.478 217.159C314.51 216.802 314.523 216.443 314.517 216.085C314.913 210.948 318.076 201.564 318.076 201.564C318.076 201.564 318.056 201.402 318.016 201.165ZM250.799 178.344C251.519 179.608 252.29 181.224 252.594 181.88C252.594 181.88 251.543 179.944 250.819 178.344H250.799ZM251.551 289.014L251.475 289.041V288.646C251.432 287.616 251.458 286.584 251.551 285.557C251.561 285.003 251.445 284.454 251.21 283.952C249.992 280.893 249.177 277.688 248.787 274.418C248.391 270.973 248.063 267.216 248.269 266.259C248.577 264.794 248.83 253.691 248.447 248.219L254.567 249.594L261.684 264.094C261.684 264.094 266.263 271.175 267.683 276.761V282.356C267.268 284.023 266.542 285.597 265.544 286.995C264.599 288.287 263.677 289.595 262.823 290.946C262.562 291.365 262.274 291.795 261.985 292.198C261.89 292.198 257.213 292.471 256.418 293.348C255.928 293.889 255.073 294.743 254.931 295.6L254.729 295.632C253.812 292.902 251.57 289.014 251.57 289.014H251.551Z" fill="url(#paint0_linear)"/>
<path opacity="0.1" d="M281.66 283.937L280.078 289.073L273.357 294.901L263.472 297.738C263.472 297.738 258.826 295.197 260.407 294.703C260.846 294.565 261.368 294.063 261.898 293.407C261.345 295.422 265.745 292.827 265.745 292.827C265.745 292.827 277.113 284.727 278.299 283.838C279.077 283.322 279.931 282.932 280.83 282.68C281.324 283.451 281.66 283.937 281.66 283.937Z" fill="black"/>
<path d="M281.66 283.937L280.078 289.073L273.357 294.901L263.472 297.738C263.472 297.738 258.826 295.197 260.407 294.703C260.846 294.565 261.368 294.063 261.898 293.407C262.375 292.799 262.816 292.163 263.219 291.503C264.065 290.144 264.982 288.832 265.919 287.552C267.286 285.607 268.144 283.351 268.414 280.989C269.106 275.556 262.088 264.592 262.088 264.592L249.336 238.416L267.129 240.589C267.129 240.589 276.717 273.482 276.717 275.063C276.717 276.248 279.422 280.535 280.83 282.696C281.324 283.451 281.66 283.937 281.66 283.937Z" fill="#FDC2CC"/>
<path d="M271.791 314.348C290.379 314.348 305.447 310.005 305.447 304.648C305.447 299.291 290.379 294.948 271.791 294.948C253.203 294.948 238.135 299.291 238.135 304.648C238.135 310.005 253.203 314.348 271.791 314.348Z" fill="#5F5D7E"/>
<path d="M284.823 290.258C284.703 290.58 284.498 290.862 284.23 291.076C281.786 293.317 272.649 296.647 267.003 298.457C265.523 298.973 264.014 299.402 262.483 299.741C261.099 299.84 258.233 298.951 256.256 297.738C254.279 296.525 256.058 294.802 256.857 293.913C257.655 293.024 262.392 292.759 262.392 292.759C260.119 296.541 265.749 293.222 265.749 293.222C265.749 293.222 277.117 285.122 278.303 284.233C279.489 283.344 281.664 282.85 281.664 282.85L284.823 290.258Z" fill="#3D8060"/>
<path opacity="0.3" d="M284.823 290.258C284.703 290.58 284.498 290.862 284.23 291.076C281.786 293.317 272.649 296.647 267.003 298.457C265.523 298.973 264.014 299.402 262.483 299.741C261.099 299.84 258.233 298.951 256.256 297.738C254.279 296.525 256.058 294.802 256.857 293.913C257.655 293.024 262.392 292.759 262.392 292.759C260.119 296.541 265.749 293.222 265.749 293.222C265.749 293.222 277.117 285.122 278.303 284.233C279.489 283.344 281.664 282.85 281.664 282.85L284.823 290.258Z" fill="black"/>
<path opacity="0.1" d="M284.23 291.084C281.786 293.324 272.649 296.655 267.002 298.465C272.119 294.134 280.699 291.87 284.23 291.084Z" fill="black"/>
<path opacity="0.1" d="M271.791 303.463C275.51 303.463 278.524 302.594 278.524 301.523C278.524 300.451 275.51 299.583 271.791 299.583C268.072 299.583 265.057 300.451 265.057 301.523C265.057 302.594 268.072 303.463 271.791 303.463Z" fill="black"/>
<path d="M274.966 250.356H268.046V301.523H274.966V250.356Z" fill="#5F5D7E"/>
<path opacity="0.1" d="M274.966 252.893V258.82C273.582 258.393 270.423 256.595 268.046 255.181V250.353H269.49L274.966 252.893Z" fill="black"/>
<path d="M258.664 228.08C258.664 228.08 281.51 222.205 287.195 217.808C292.881 213.41 315.209 234.102 312.26 241.909C309.31 249.716 298.571 255.37 298.571 255.37C298.571 255.37 268.873 260.199 263.816 250.127C258.759 240.056 258.664 228.08 258.664 228.08Z" fill="#474157"/>
<path opacity="0.1" d="M258.664 228.08C258.664 228.08 281.51 222.205 287.195 217.808C292.881 213.41 315.209 234.102 312.26 241.909C309.31 249.716 298.571 255.37 298.571 255.37C298.571 255.37 268.873 260.199 263.816 250.127C258.759 240.056 258.664 228.08 258.664 228.08Z" fill="black"/>
<path d="M256.687 225.709C256.687 225.709 279.533 219.834 285.218 215.437C290.904 211.039 313.232 231.731 310.282 239.538C307.333 247.346 296.594 253 296.594 253C296.594 253 266.896 257.828 261.839 247.757C256.782 237.685 256.687 225.709 256.687 225.709Z" fill="#474157"/>
<path d="M235.497 171.833L233.026 170.936C233.026 170.936 235.201 167.874 234.264 164.12C234.264 164.12 233.224 159.592 233.718 157.759C234.212 155.926 235.497 149.205 235.497 149.205C235.497 149.205 235.679 142.093 231.832 138.833C227.985 135.574 225.316 132.907 226.799 136.067C227.446 137.522 228.172 138.939 228.973 140.315C228.973 140.315 219.78 142.516 223.042 145.961C226.304 149.406 227.194 149.402 227.194 149.402C227.194 149.402 226.107 157.897 225.909 159.478C225.711 161.058 223.932 173.109 223.932 173.109C223.932 173.109 223.833 178.838 224.822 179.727C225.041 180.797 225.645 181.749 226.519 182.404C227.393 183.059 228.477 183.372 229.566 183.283C230.27 183.271 238.661 174.006 235.497 171.833Z" fill="#FDC2CC"/>
<path d="M295.202 153.658V159.189L289.469 161.058L279.703 168.241L277.113 170.145L265.547 165.503L258.233 157.798C258.233 157.798 258.589 157.605 259.205 157.285L259.601 157.075C260.838 156.455 262.788 155.495 264.943 154.637C267.097 153.78 267.35 148.754 267.228 144.614V144.218C267.129 141.314 266.833 138.94 266.833 138.94C266.833 138.94 268.038 138.711 269.794 138.45C274.661 137.727 283.744 136.751 282.945 139.73C282.712 140.743 282.712 141.795 282.945 142.808C282.969 142.919 282.992 143.033 283.02 143.144C283.842 146.735 286.389 150.497 286.389 150.497L294.297 153.341L294.518 153.421L295.202 153.658Z" fill="#FDC2CC"/>
<path d="M295.202 155.337V153.658C295.824 153.551 296.459 153.551 297.08 153.658C297.772 153.855 299.085 155.929 299.678 156.127C300.271 156.325 303.901 169.857 303.506 171.042C303.11 172.228 299.374 198.988 299.374 198.988L291.841 207.286L290.359 184.468L295.202 170.936V155.337Z" fill="#FDC2CC"/>
<path d="M256.157 217.468C256.157 217.468 249.273 218.949 250.147 221.122C251.021 223.295 254.872 223.394 254.872 223.394L256.157 217.468Z" fill="#FDC2CC"/>
<path d="M265.745 173.591L260.506 184.871L254.279 189.415L253.191 182.394C253.191 182.394 251.088 177.751 250.182 176.965C250.139 176.921 250.086 176.886 250.028 176.862C249.237 176.566 241.725 181.307 239.55 182.196C237.376 183.085 229.567 183.283 229.567 183.283L233.026 170.936C233.026 170.936 239.946 168.368 240.835 167.182C241.725 165.997 246.272 161.453 249.04 159.28C251.808 157.107 256.857 157.897 256.857 157.897L256.936 157.929L258.233 158.49L261.989 167.676L265.745 173.591Z" fill="#FDC2CC"/>
<path d="M252.005 286.118C251.912 287.148 251.887 288.182 251.93 289.215C251.958 290.318 252.005 291.254 252.005 291.254L249.732 295.995C249.732 295.995 241.923 298.564 243.208 297.477C243.654 297.102 243.884 296.126 243.998 294.834C244.192 292.392 243.911 288.832 243.718 286.118C243.421 281.969 238.676 271.696 238.676 271.696C238.676 271.696 234.722 261.621 232.251 255.398C229.78 249.175 230.67 237.915 230.67 237.915C230.67 237.915 231.065 229.42 232.844 226.851C234.624 224.283 241.543 223.394 241.543 223.394L244.789 234.153C244.789 234.153 247.458 244.228 248.447 245.71C249.435 247.192 249.139 264.873 248.743 266.75C248.542 267.71 248.882 271.491 249.261 274.936C249.649 278.213 250.457 281.427 251.665 284.498C251.901 285.005 252.018 285.559 252.005 286.118Z" fill="#FDC2CC"/>
<path opacity="0.1" d="M252.005 291.254L249.732 295.995C249.732 295.995 241.923 298.564 243.208 297.477C243.654 297.102 243.884 296.126 243.998 294.834C244.279 294.553 244.58 294.245 244.888 293.929C246.875 291.87 249.282 290.263 251.946 289.215C251.958 290.318 252.005 291.254 252.005 291.254Z" fill="black"/>
<path d="M255.572 298.311C255.574 298.329 255.574 298.348 255.572 298.366C255.176 300.243 248.652 302.811 248.652 302.811C248.652 302.811 244.501 303.502 242.128 304.095C241.947 304.144 241.758 304.161 241.571 304.146C239.74 304.008 239.657 300.488 239.657 299.947C239.657 299.405 241.931 296.884 242.622 296.489C243.405 295.841 244.14 295.137 244.821 294.383C246.85 292.284 249.307 290.644 252.025 289.575C252.025 289.575 255.888 296.363 255.572 298.311Z" fill="#3D8060"/>
<path opacity="0.3" d="M255.572 298.311C255.574 298.329 255.574 298.348 255.572 298.366C255.176 300.243 248.652 302.811 248.652 302.811C248.652 302.811 244.501 303.502 242.128 304.095C241.947 304.144 241.758 304.161 241.571 304.146C239.74 304.008 239.657 300.488 239.657 299.946C239.657 299.405 241.931 296.884 242.622 296.489C243.417 295.832 244.163 295.118 244.852 294.352C246.839 292.283 249.247 290.666 251.914 289.61L252.025 289.567C252.025 289.567 255.888 296.363 255.572 298.311Z" fill="black"/>
<path opacity="0.1" d="M255.572 298.311C255.574 298.329 255.574 298.348 255.572 298.366C255.176 300.243 248.652 302.811 248.652 302.811C248.652 302.811 244.501 303.502 242.128 304.095C241.947 304.144 241.758 304.161 241.571 304.147C243.722 302.673 248.937 299.136 249.641 299.057C250.345 298.978 253.812 297.983 255.572 298.311Z" fill="black"/>
<path opacity="0.1" d="M283.036 143.144C280.592 145.155 278.347 144.866 274.934 144.866C272.467 144.866 269.26 145.732 267.24 144.621C267.157 141.536 266.844 138.94 266.844 138.94C266.844 138.94 284.044 135.68 282.957 139.73C282.708 140.858 282.735 142.029 283.036 143.144Z" fill="black"/>
<path d="M288.184 131.844C288.184 135.59 286.695 139.183 284.044 141.832C281.393 144.481 277.797 145.969 274.049 145.969C273.685 145.969 273.321 145.969 272.965 145.929C270.224 145.718 267.604 144.712 265.426 143.036C263.248 141.359 261.607 139.084 260.703 136.49C259.799 133.895 259.672 131.094 260.337 128.428C261.003 125.762 262.431 123.348 264.449 121.482C266.466 119.615 268.984 118.377 271.695 117.919C274.406 117.461 277.191 117.802 279.711 118.902C282.23 120.002 284.374 121.812 285.88 124.11C287.385 126.409 288.187 129.096 288.188 131.844H288.184Z" fill="#FDC2CC"/>
<path opacity="0.1" d="M261.989 167.684L265.745 173.611L260.506 184.891L254.279 189.435L253.191 182.394C253.191 182.394 251.088 177.751 250.182 176.965C250.443 176.329 250.621 176.037 250.621 176.27C250.621 177.257 253.053 181.702 253.053 181.702C260.565 179.134 258.233 169.158 258.233 169.158C258.233 169.158 257.3 160.268 256.936 157.929L258.233 158.49L261.989 167.684Z" fill="black"/>
<path opacity="0.1" d="M295.202 153.658V159.189L289.469 161.058L279.703 168.241L277.113 170.146L265.547 165.503L258.233 157.798C258.233 157.798 258.589 157.605 259.205 157.285L259.601 157.075C264.689 159.387 270.197 160.236 274.132 160.541C275.941 160.694 277.758 160.735 279.572 160.663C294.467 158.292 294.91 154.697 294.538 153.421L295.202 153.658Z" fill="black"/>
<path d="M299.453 243.241C295.724 245.067 291.896 246.683 287.986 248.081C281.166 250.55 266.141 247.29 264.263 246.797C262.384 246.303 247.953 240.574 242.417 238.4C236.881 236.227 235.498 238.005 234.213 237.808C232.927 237.61 232.038 235.141 231.84 234.449C231.642 233.758 235.399 227.733 237.475 224.67C239.55 221.608 245.778 222.201 246.667 222.004C247.557 221.806 253.785 222.004 253.785 222.004C253.785 222.004 253.389 220.028 255.663 214.496C257.936 208.965 251.906 198.692 251.906 198.692C247.755 196.025 248.447 187.728 248.447 187.728C247.458 184.073 250.621 175.677 250.621 176.665C250.621 177.653 253.053 182.098 253.053 182.098C260.566 179.529 258.233 169.553 258.233 169.553C258.233 169.553 257.145 159.181 256.857 157.897C256.568 156.613 258.233 156.811 258.233 156.811C258.554 156.977 258.879 157.135 259.205 157.285C264.409 159.734 270.103 160.627 274.144 160.936C275.953 161.089 277.77 161.13 279.584 161.058C297.642 158.146 294.443 153.504 294.325 153.338L295.202 153.65C301.726 158.391 299.749 174.097 299.749 174.097L297.306 185.819L295.491 194.551C295.491 194.551 301.916 233.47 302.509 235.445C303.102 237.421 299.453 243.241 299.453 243.241Z" fill="#3D8060"/>
<path opacity="0.1" d="M251.313 225.461C250.918 225.757 246.47 234.943 249.732 237.512C252.994 240.08 251.313 225.461 251.313 225.461Z" fill="black"/>
<path opacity="0.1" d="M254.476 226.753C254.575 227.049 263.768 241.668 268.81 242.853L254.476 226.753Z" fill="black"/>
<path opacity="0.1" d="M276.622 111.069L275.152 111.381C275.557 111.231 275.972 111.109 276.393 111.013L276.622 111.069Z" fill="black"/>
<path opacity="0.1" d="M298.773 174.096L296.005 185.811C294.593 185.168 293.295 184.299 292.162 183.239C291.28 182.402 290.489 181.442 289.354 180.892C287.895 180.185 286.136 180.28 284.479 180.221C282.41 180.143 280.359 179.793 278.382 179.178C277.808 179.034 277.269 178.773 276.8 178.411C275.859 177.581 275.923 176.242 276.01 175.072C276.182 172.799 276.201 170.517 276.069 168.241C276.045 167.814 276.014 167.388 275.978 166.961C275.82 165.052 275.306 162.84 273.353 162.022C272.348 161.627 271.15 161.658 270.189 161.18C270.051 161.111 269.918 161.029 269.794 160.935C268.371 159.94 268.24 157.944 268.295 156.265C268.38 153.958 268.46 151.649 268.537 149.339C268.609 148.2 268.584 147.056 268.462 145.921C268.366 145.168 268.158 144.432 267.845 143.74C266.987 141.907 265.2 140.378 264.879 138.442C264.862 138.352 264.85 138.261 264.844 138.169C264.678 136.439 265.769 134.827 266.152 133.124C266.92 129.698 264.342 125.945 260.55 124.961C259.363 124.653 258.09 124.593 256.908 124.242C256.719 124.185 256.533 124.119 256.351 124.044C259.213 120.227 264.12 117.722 269.691 117.722C278.52 117.722 285.681 124.044 285.681 131.848C285.681 136.273 283.376 140.22 279.774 142.812C279.798 142.922 279.825 143.037 279.857 143.148C280.786 146.739 283.668 150.501 283.668 150.501L292.62 153.345L293.617 153.661C301.011 158.399 298.773 174.096 298.773 174.096Z" fill="black"/>
<path opacity="0.1" d="M303.632 185.444C303.545 185.444 303.462 185.424 303.379 185.408C303.465 185.399 303.552 185.412 303.632 185.444Z" fill="black"/>
<path d="M273.06 110.678C270.586 110.103 268.056 109.808 265.516 109.797C264.69 109.797 263.804 109.84 263.144 110.294C262.27 110.907 262.159 112.013 261.898 112.969C261.426 114.566 260.43 115.958 259.071 116.92C258.134 117.604 257.031 118.106 256.133 118.825C255.236 119.544 254.552 120.611 254.777 121.662C255.002 122.713 256.185 123.523 257.371 123.859C258.557 124.194 259.818 124.254 261.012 124.578C264.804 125.561 267.378 129.319 266.611 132.737C266.216 134.44 265.136 136.052 265.302 137.782C265.496 139.849 267.406 141.441 268.303 143.357C269.122 145.104 269.067 147.063 269.003 148.952L268.762 155.882C268.699 157.707 268.857 159.904 270.66 160.797C271.625 161.271 272.827 161.22 273.823 161.639C275.776 162.453 276.29 164.669 276.449 166.574C276.675 169.272 276.685 171.985 276.48 174.685C276.389 175.871 276.326 177.194 277.271 178.024C277.739 178.387 278.278 178.648 278.853 178.79C280.83 179.406 282.88 179.756 284.95 179.834C286.61 179.897 288.366 179.802 289.825 180.505C290.96 181.054 291.75 182.018 292.632 182.852C295.16 185.164 298.383 186.574 301.797 186.862C302.529 186.926 303.359 186.91 303.869 186.44C304.379 185.97 304.079 184.954 303.351 185.013C303.969 185.117 304.604 185.054 305.189 184.83C305.775 184.607 306.289 184.231 306.681 183.741C307.013 183.269 307.192 182.705 307.192 182.127C307.192 181.549 307.013 180.986 306.681 180.513C305.854 179.328 304.099 178.538 304.004 177.131C303.952 176.341 304.478 175.626 304.889 174.922C305.881 173.171 306.276 171.146 306.017 169.151C305.757 167.156 304.857 165.299 303.45 163.859C301.596 161.943 298.816 160.489 298.168 158.031C297.737 156.388 298.389 154.661 298.14 152.99C297.745 150.224 295.004 148.249 293.498 145.783C291.992 143.318 291.727 140.335 292.11 137.529C292.494 134.724 293.466 131.998 294.257 129.272C294.846 127.237 295.333 125.075 294.676 123.056C294.206 121.622 293.194 120.378 292.142 119.204C289.623 116.395 286.725 113.764 283.143 112.092C279.56 110.421 275.195 109.773 271.391 111.01" fill="#474157"/>
<path opacity="0.1" d="M273.06 110.678C270.586 110.103 268.056 109.808 265.516 109.797C264.69 109.797 263.804 109.84 263.144 110.294C262.27 110.907 262.159 112.013 261.898 112.969C261.426 114.566 260.43 115.958 259.071 116.92C258.134 117.604 257.031 118.106 256.133 118.825C255.236 119.544 254.552 120.611 254.777 121.662C255.002 122.713 256.185 123.523 257.371 123.859C258.557 124.194 259.818 124.254 261.012 124.578C264.804 125.561 267.378 129.319 266.611 132.737C266.216 134.44 265.136 136.052 265.302 137.782C265.496 139.849 267.406 141.441 268.303 143.357C269.122 145.104 269.067 147.063 269.003 148.952L268.762 155.882C268.699 157.707 268.857 159.904 270.66 160.797C271.625 161.271 272.827 161.22 273.823 161.639C275.776 162.453 276.29 164.669 276.449 166.574C276.675 169.272 276.685 171.985 276.48 174.685C276.389 175.871 276.326 177.194 277.271 178.024C277.739 178.387 278.278 178.648 278.853 178.79C280.83 179.406 282.88 179.756 284.95 179.834C286.61 179.897 288.366 179.802 289.825 180.505C290.96 181.054 291.75 182.018 292.632 182.852C295.16 185.164 298.383 186.574 301.797 186.862C302.529 186.926 303.359 186.91 303.869 186.44C304.379 185.97 304.079 184.954 303.351 185.013C303.969 185.117 304.604 185.054 305.189 184.83C305.775 184.607 306.289 184.231 306.681 183.741C307.013 183.269 307.192 182.705 307.192 182.127C307.192 181.549 307.013 180.986 306.681 180.513C305.854 179.328 304.099 178.538 304.004 177.131C303.952 176.341 304.478 175.626 304.889 174.922C305.881 173.171 306.276 171.146 306.017 169.151C305.757 167.156 304.857 165.299 303.45 163.859C301.596 161.943 298.816 160.489 298.168 158.031C297.737 156.388 298.389 154.661 298.14 152.99C297.745 150.224 295.004 148.249 293.498 145.783C291.992 143.318 291.727 140.335 292.11 137.529C292.494 134.724 293.466 131.998 294.257 129.272C294.846 127.237 295.333 125.075 294.676 123.056C294.206 121.622 293.194 120.378 292.142 119.204C289.623 116.395 286.725 113.764 283.143 112.092C279.56 110.421 275.195 109.773 271.391 111.01" fill="black"/>
<path opacity="0.1" d="M251.906 198.7C251.906 198.7 255.267 199.984 258.826 196.428C262.384 192.872 251.906 198.7 251.906 198.7Z" fill="black"/>
<g opacity="0.1">
<path opacity="0.1" d="M274.547 110.618C275.199 110.489 275.86 110.406 276.524 110.369C275.6 110.313 274.674 110.342 273.756 110.456L274.547 110.618Z" fill="black"/>
<path opacity="0.1" d="M294.372 182.852C293.486 182.018 292.699 181.054 291.561 180.505C290.106 179.802 288.346 179.897 286.685 179.833C284.616 179.758 282.565 179.407 280.588 178.79C280.013 178.648 279.475 178.387 279.007 178.024C278.066 177.194 278.133 175.859 278.216 174.685C278.421 171.985 278.41 169.272 278.184 166.574C278.022 164.669 277.512 162.453 275.555 161.639C274.555 161.22 273.357 161.271 272.392 160.797C270.589 159.904 270.415 157.707 270.49 155.882C270.572 153.572 270.652 151.263 270.731 148.956C270.798 147.063 270.85 145.103 270.031 143.357C269.134 141.441 267.224 139.852 267.03 137.782C266.868 136.055 267.959 134.44 268.343 132.737C269.11 129.311 266.532 125.561 262.74 124.578C261.554 124.269 260.281 124.206 259.099 123.859C257.916 123.511 256.77 122.76 256.525 121.685C256.279 120.611 256.979 119.568 257.877 118.845C258.774 118.122 259.878 117.624 260.819 116.94C262.178 115.978 263.173 114.586 263.642 112.989C263.907 112.033 264.037 110.931 264.887 110.314C265.375 110.012 265.935 109.848 266.508 109.84C266.156 109.84 265.805 109.82 265.457 109.82C264.63 109.82 263.745 109.864 263.084 110.314C262.21 110.931 262.1 112.033 261.839 112.989C261.367 114.586 260.371 115.977 259.012 116.94C258.075 117.624 256.971 118.125 256.074 118.845C255.176 119.564 254.492 120.63 254.718 121.685C254.943 122.74 256.113 123.507 257.296 123.859C258.478 124.21 259.743 124.254 260.937 124.578C264.729 125.561 267.303 129.319 266.536 132.737C266.141 134.44 265.061 136.055 265.227 137.782C265.421 139.852 267.331 141.441 268.228 143.357C269.047 145.103 268.995 147.063 268.928 148.956C268.846 151.263 268.766 153.572 268.687 155.882C268.624 157.707 268.782 159.904 270.585 160.797C271.55 161.271 272.752 161.22 273.748 161.639C275.701 162.453 276.215 164.669 276.373 166.574C276.599 169.272 276.61 171.985 276.405 174.685C276.314 175.871 276.251 177.194 277.196 178.024C277.664 178.387 278.202 178.648 278.777 178.79C280.754 179.407 282.805 179.758 284.874 179.833C286.535 179.897 288.291 179.802 289.75 180.505C290.884 181.054 291.675 182.018 292.561 182.852C295.087 185.164 298.309 186.575 301.722 186.862C302.164 186.915 302.611 186.898 303.047 186.811C299.81 186.438 296.774 185.052 294.372 182.852Z" fill="black"/>
</g>
<path opacity="0.1" d="M233.026 170.936C233.026 170.936 229.863 173.836 230.326 175.021C230.788 176.207 233.026 170.936 233.026 170.936Z" fill="black"/>
<path d="M235.96 208.214C233.678 207.657 227.388 207.143 224.395 217.175C223.698 219.505 222.81 221.774 221.742 223.959C218.871 229.85 215.162 241.964 231.472 244.631L270.616 253.521C270.616 253.521 291.572 256.089 292.956 255.102C294.34 254.114 294.142 251.941 294.142 251.941C294.142 251.941 271.012 251.941 266.465 244.829C261.918 237.717 261.72 228.037 261.72 228.037C261.72 228.037 262.289 213.09 238.392 208.748C237.601 208.597 236.77 208.412 235.96 208.214Z" fill="#474157"/>
<path opacity="0.1" d="M235.96 208.281C233.678 207.724 227.388 207.211 224.395 217.246C223.698 219.576 222.81 221.845 221.742 224.03C218.871 229.917 215.162 242.031 231.472 244.698L270.616 253.588C270.616 253.588 291.572 256.157 292.956 255.169C294.34 254.181 294.142 252.008 294.142 252.008C294.142 252.008 271.012 252.008 266.465 244.896C261.918 237.784 261.72 228.104 261.72 228.104C261.72 228.104 262.289 213.157 238.392 208.815C237.601 208.665 236.77 208.471 235.96 208.281Z" fill="black"/>
<path d="M318.017 197.993C317.79 196.547 317.046 195.232 315.922 194.293C314.798 193.354 313.372 192.855 311.908 192.888C306.277 192.991 288.947 193.741 280.897 198.996C280.897 198.996 274.768 202.947 272.989 202.947C271.21 202.947 247.091 223.493 282.874 241.866C282.874 241.866 302.051 247.318 309.563 234.517C309.563 234.517 314.901 220.767 314.505 216.006C314.11 211.245 318.064 198.404 318.064 198.404C318.064 198.404 318.056 198.25 318.017 197.993Z" fill="#474157"/>
<path opacity="0.1" d="M318.017 201.454C317.566 198.688 314.932 196.689 311.908 196.74C306.277 196.835 288.947 197.53 280.897 202.378C280.897 202.378 274.768 206.025 272.989 206.025C271.21 206.025 247.091 224.99 282.874 241.952C282.874 241.952 302.051 246.986 309.563 235.168C309.563 235.168 314.901 222.474 314.505 218.08C314.11 213.686 318.064 201.833 318.064 201.833C318.064 201.833 318.056 201.691 318.017 201.454Z" fill="black"/>
<path d="M298.887 241.861H292.561V255.323H298.887V241.861Z" fill="#5F5D7E"/>
<path opacity="0.1" d="M67.478 187.123C77.3135 187.123 85.2867 186.612 85.2867 185.981C85.2867 185.351 77.3135 184.839 67.478 184.839C57.6426 184.839 49.6694 185.351 49.6694 185.981C49.6694 186.612 57.6426 187.123 67.478 187.123Z" fill="black"/>
<path d="M82.424 141.943C82.0447 142.462 81.7411 143.033 81.5225 143.638C81.4672 143.788 81.4118 143.954 81.3564 144.116C81.2567 144.068 81.1519 144.033 81.0441 144.009C80.583 143.894 80.1066 143.852 79.6325 143.887C79.6325 143.705 79.6562 143.491 79.6602 143.31C79.7195 141.227 79.4743 138.323 77.4855 139.552C75.5797 140.737 76.9399 142.713 78.1695 143.981L78.4859 144.29C77.3629 145.08 77.1494 146.949 76.9636 148.889C76.7778 150.829 75.129 152.954 74.0337 154.159C73.923 154.282 73.8242 154.392 73.7253 154.495C73.2831 154.141 72.7706 153.885 72.2218 153.744C71.6731 153.603 71.1006 153.58 70.5424 153.677C70.4989 153.507 70.4475 153.33 70.3961 153.14C69.5104 149.947 67.6718 144.412 65.3271 143.199L65.6355 142.804C66.6319 141.5 67.7548 139.568 66.0981 139.07C64.4414 138.572 64.2912 140.749 64.3821 142.377C64.3821 142.583 64.4137 142.772 64.4296 142.954C64.0986 142.97 63.7743 143.053 63.4765 143.199C63.1788 143.344 62.9138 143.548 62.6977 143.8L62.4407 143.499C61.0964 141.919 58.6331 139.402 57.8858 141.302C57.1899 143.073 59.3606 145.368 60.8868 146.7L60.9817 146.783C59.9576 150.943 64.4177 154.341 66.8375 155.811L67.1499 156.001C63.8286 159.912 61.7765 167.241 61.7765 167.241L71.0762 168.901C71.0762 168.901 77.2443 163.587 76.4535 158.592H76.5168C82.681 157.36 84.0807 150.793 83.1199 146.893L83.2306 146.85C84.3529 146.39 85.3365 145.646 86.0854 144.693C87.8093 142.294 84.1875 139.592 82.424 141.943Z" fill="#3D8060"/>
<path opacity="0.1" d="M82.424 141.943C82.0447 142.462 81.7411 143.033 81.5225 143.638C81.4672 143.788 81.4118 143.954 81.3564 144.116C81.2567 144.068 81.1519 144.033 81.0441 144.009C80.583 143.894 80.1066 143.852 79.6325 143.887C79.6325 143.705 79.6562 143.491 79.6602 143.31C79.7195 141.227 79.4743 138.323 77.4855 139.552C75.5797 140.737 76.9399 142.713 78.1695 143.981L78.4859 144.29C77.3629 145.08 77.1494 146.949 76.9636 148.889C76.7778 150.829 75.129 152.954 74.0337 154.159C73.923 154.282 73.8242 154.392 73.7253 154.495C73.2831 154.141 72.7706 153.885 72.2218 153.744C71.6731 153.603 71.1006 153.58 70.5424 153.677C70.4989 153.507 70.4475 153.33 70.3961 153.14C69.5104 149.947 67.6718 144.412 65.3271 143.199L65.6355 142.804C66.6319 141.5 67.7548 139.568 66.0981 139.07C64.4414 138.572 64.2912 140.749 64.3821 142.377C64.3821 142.583 64.4137 142.772 64.4296 142.954C64.0986 142.97 63.7743 143.053 63.4765 143.199C63.1788 143.344 62.9138 143.548 62.6977 143.8L62.4407 143.499C61.0964 141.919 58.6331 139.402 57.8858 141.302C57.1899 143.073 59.3606 145.368 60.8868 146.7L60.9817 146.783C59.9576 150.943 64.4177 154.341 66.8375 155.811L67.1499 156.001C63.8286 159.912 61.7765 167.241 61.7765 167.241L71.0762 168.901C71.0762 168.901 77.2443 163.587 76.4535 158.592H76.5168C82.681 157.36 84.0807 150.793 83.1199 146.893L83.2306 146.85C84.3529 146.39 85.3365 145.646 86.0854 144.693C87.8093 142.294 84.1875 139.592 82.424 141.943Z" fill="black"/>
<path d="M63.9117 144.622L62.8362 147.802C62.8362 147.802 62.2312 147.375 61.4681 146.704C59.9419 145.372 57.7712 143.077 58.4671 141.307C59.2144 139.406 61.6777 141.915 63.022 143.503C63.5518 144.132 63.9117 144.622 63.9117 144.622Z" fill="#3D8060"/>
<path d="M66.2049 142.808C65.8741 143.241 65.5203 143.657 65.1453 144.053C65.0526 143.499 64.988 142.941 64.9515 142.381C64.8606 140.753 65.0346 138.592 66.6676 139.074C68.3005 139.556 67.1855 141.504 66.2049 142.808Z" fill="#3D8060"/>
<path d="M80.2334 143.31C80.2018 144.357 80.099 145.19 80.099 145.19C79.6201 144.818 79.167 144.415 78.7428 143.981C77.5131 142.705 76.1529 140.738 78.0588 139.552C80.0436 138.323 80.2888 141.227 80.2334 143.31Z" fill="#3D8060"/>
<path d="M86.6548 144.681C85.9032 145.634 84.9168 146.376 83.7921 146.834C83.4808 146.969 83.1612 147.084 82.8353 147.178L81.5542 145.38C81.6898 144.786 81.8669 144.203 82.084 143.634C82.3027 143.029 82.6062 142.458 82.9855 141.939C84.7648 139.592 88.3787 142.294 86.6548 144.681Z" fill="#3D8060"/>
<path opacity="0.1" d="M63.0101 143.503C63.5518 144.131 63.9116 144.621 63.9116 144.621L62.8361 147.802C62.8361 147.802 62.2311 147.375 61.468 146.704C61.6384 145.685 62.0596 144.725 62.6938 143.91C62.7886 143.764 62.9033 143.626 63.0101 143.503Z" fill="black"/>
<path opacity="0.1" d="M66.2048 142.808C65.8739 143.241 65.5202 143.657 65.1452 144.053C65.0525 143.499 64.9878 142.941 64.9514 142.381C65.4036 142.389 65.8421 142.538 66.2048 142.808Z" fill="black"/>
<path d="M71.535 155.436L68.8305 156.621C68.8305 156.621 68.2413 156.337 67.3912 155.807C64.5483 154.057 58.8349 149.659 62.6663 144.475C66.4977 139.292 69.6924 148.592 70.9498 153.136C71.3491 154.499 71.535 155.436 71.535 155.436Z" fill="#3D8060"/>
<path opacity="0.1" d="M78.739 143.982C79.1312 143.575 79.6649 143.334 80.2297 143.31C80.198 144.357 80.0952 145.191 80.0952 145.191C79.6164 144.819 79.1633 144.415 78.739 143.982Z" fill="black"/>
<path opacity="0.1" d="M83.7921 146.834C83.4808 146.969 83.1612 147.084 82.8353 147.178L81.5542 145.38C81.6898 144.786 81.8669 144.203 82.084 143.634C82.9183 144.124 83.5272 145.321 83.7921 146.834Z" fill="black"/>
<path d="M77.0704 158.581L76.6157 158.66C67.5492 160.039 73.6265 155.151 73.6265 155.151C73.6265 155.151 74.0219 154.776 74.5873 154.16C75.6825 152.954 77.3274 150.841 77.5172 148.889C77.8018 145.953 78.13 143.199 81.5976 144.009C85.0178 144.803 85.6702 156.862 77.0704 158.581Z" fill="#3D8060"/>
<path d="M76.9163 181.134H59.594V185.685H76.9163V181.134Z" fill="#474157"/>
<path d="M79.4745 166.341H56.842V182.224H79.4745V166.341Z" fill="#474157"/>
<path opacity="0.1" d="M76.75 181.134H59.4277V185.685H76.75V181.134Z" fill="black"/>
<path opacity="0.1" d="M79.4034 166.344H56.771V182.228H79.4034V166.344Z" fill="black"/>
<path d="M78.0549 181.134H60.7327V185.685H78.0549V181.134Z" fill="#474157"/>
<path opacity="0.1" d="M70.9655 153.156C71.3609 154.515 71.5507 155.451 71.5507 155.451L68.8462 156.637C68.8462 156.637 68.2571 156.352 67.407 155.823C68.4666 154.468 69.6607 153.452 70.9655 153.156Z" fill="black"/>
<path opacity="0.1" d="M77.0704 158.581L76.6157 158.66C67.5492 160.039 73.6265 155.151 73.6265 155.151C73.6265 155.151 74.0219 154.776 74.5873 154.159C76.2796 155.526 76.9952 157.04 77.0704 158.581Z" fill="black"/>
<path d="M62.3459 167.241C62.3459 167.241 67.4228 149.066 74.5439 154.677C81.6649 160.287 71.6456 168.901 71.6456 168.901L62.3459 167.241Z" fill="#3D8060"/>
<path opacity="0.1" d="M64.908 147.893C65.2224 147.893 65.4774 147.638 65.4774 147.324C65.4774 147.01 65.2224 146.755 64.908 146.755C64.5935 146.755 64.3386 147.01 64.3386 147.324C64.3386 147.638 64.5935 147.893 64.908 147.893Z" fill="black"/>
<path opacity="0.1" d="M64.8606 150.552C65.1751 150.552 65.43 150.297 65.43 149.983C65.43 149.669 65.1751 149.414 64.8606 149.414C64.5462 149.414 64.2913 149.669 64.2913 149.983C64.2913 150.297 64.5462 150.552 64.8606 150.552Z" fill="black"/>
<path opacity="0.1" d="M81.3763 148.415C81.6907 148.415 81.9456 148.16 81.9456 147.846C81.9456 147.531 81.6907 147.277 81.3763 147.277C81.0618 147.277 80.8069 147.531 80.8069 147.846C80.8069 148.16 81.0618 148.415 81.3763 148.415Z" fill="black"/>
<path opacity="0.1" d="M68.0869 162.026C68.4014 162.026 68.6563 161.771 68.6563 161.457C68.6563 161.143 68.4014 160.888 68.0869 160.888C67.7725 160.888 67.5176 161.143 67.5176 161.457C67.5176 161.771 67.7725 162.026 68.0869 162.026Z" fill="black"/>
<path opacity="0.1" d="M80.1902 152.828C80.5047 152.828 80.7596 152.573 80.7596 152.259C80.7596 151.945 80.5047 151.69 80.1902 151.69C79.8758 151.69 79.6208 151.945 79.6208 152.259C79.6208 152.573 79.8758 152.828 80.1902 152.828Z" fill="black"/>
<path opacity="0.1" d="M74.3067 158.707C74.6211 158.707 74.876 158.453 74.876 158.138C74.876 157.824 74.6211 157.569 74.3067 157.569C73.9922 157.569 73.7373 157.824 73.7373 158.138C73.7373 158.453 73.9922 158.707 74.3067 158.707Z" fill="black"/>
<path opacity="0.1" d="M66.8533 149.031C67.1678 149.031 67.4227 148.776 67.4227 148.462C67.4227 148.148 67.1678 147.893 66.8533 147.893C66.5389 147.893 66.2839 148.148 66.2839 148.462C66.2839 148.776 66.5389 149.031 66.8533 149.031Z" fill="black"/>
<path opacity="0.1" d="M79.8106 150.125C80.125 150.125 80.3799 149.87 80.3799 149.556C80.3799 149.242 80.125 148.987 79.8106 148.987C79.4961 148.987 79.2412 149.242 79.2412 149.556C79.2412 149.87 79.4961 150.125 79.8106 150.125Z" fill="black"/>
<path opacity="0.1" d="M77.865 154.535C78.1795 154.535 78.4344 154.28 78.4344 153.966C78.4344 153.651 78.1795 153.397 77.865 153.397C77.5506 153.397 77.2957 153.651 77.2957 153.966C77.2957 154.28 77.5506 154.535 77.865 154.535Z" fill="black"/>
<path opacity="0.1" d="M71.8828 161.599C72.1973 161.599 72.4522 161.344 72.4522 161.03C72.4522 160.716 72.1973 160.461 71.8828 160.461C71.5684 160.461 71.3135 160.716 71.3135 161.03C71.3135 161.344 71.5684 161.599 71.8828 161.599Z" fill="black"/>
<path opacity="0.1" d="M70.6492 158.802C70.9637 158.802 71.2186 158.547 71.2186 158.233C71.2186 157.919 70.9637 157.664 70.6492 157.664C70.3347 157.664 70.0798 157.919 70.0798 158.233C70.0798 158.547 70.3347 158.802 70.6492 158.802Z" fill="black"/>
<path opacity="0.1" d="M67.7073 152.496C68.0218 152.496 68.2767 152.241 68.2767 151.927C68.2767 151.613 68.0218 151.358 67.7073 151.358C67.3929 151.358 67.1379 151.613 67.1379 151.927C67.1379 152.241 67.3929 152.496 67.7073 152.496Z" fill="black"/>
<path opacity="0.1" d="M78.0549 181.134H60.7327V182.797H78.0549V181.134Z" fill="black"/>
<path d="M80.6132 166.341H57.9807V182.224H80.6132V166.341Z" fill="#474157"/>
<path opacity="0.1" d="M72.6419 164.159C72.9563 164.159 73.2113 163.905 73.2113 163.59C73.2113 163.276 72.9563 163.021 72.6419 163.021C72.3274 163.021 72.0725 163.276 72.0725 163.59C72.0725 163.905 72.3274 164.159 72.6419 164.159Z" fill="black"/>
<path opacity="0.1" d="M69.2259 164.871C69.5403 164.871 69.7952 164.616 69.7952 164.302C69.7952 163.988 69.5403 163.733 69.2259 163.733C68.9114 163.733 68.6565 163.988 68.6565 164.302C68.6565 164.616 68.9114 164.871 69.2259 164.871Z" fill="black"/>
<path d="M123.486 227.041C123.486 227.041 126.305 230.727 122.185 236.29C118.065 241.854 114.672 246.563 116.033 250.024C116.033 250.024 122.256 239.688 127.321 239.546C132.386 239.404 129.057 233.26 123.486 227.041Z" fill="#3D8060"/>
<path opacity="0.1" d="M123.486 227.041C123.732 227.396 123.927 227.785 124.063 228.195C129.002 233.995 131.635 239.408 126.886 239.546C122.462 239.684 117.156 247.587 115.883 249.562C115.926 249.716 115.977 249.87 116.033 250.017C116.033 250.017 122.256 239.681 127.321 239.538C132.386 239.396 129.057 233.26 123.486 227.041Z" fill="black"/>
<path d="M128.729 231.743C128.729 233.039 128.582 234.09 128.405 234.09C128.227 234.09 128.08 233.039 128.08 231.743C128.08 230.447 128.262 231.055 128.44 231.055C128.618 231.055 128.729 230.443 128.729 231.743Z" fill="#FFD037"/>
<path d="M130.528 233.291C129.389 233.912 128.397 234.287 128.31 234.129C128.223 233.971 129.077 233.339 130.22 232.719C131.362 232.098 130.908 232.549 131.01 232.719C131.113 232.888 131.671 232.671 130.528 233.291Z" fill="#FFD037"/>
<path d="M108.583 227.041C108.583 227.041 105.764 230.727 109.884 236.29C114.004 241.854 117.397 246.563 116.033 250.024C116.033 250.024 109.813 239.688 104.748 239.546C99.683 239.404 103.012 233.26 108.583 227.041Z" fill="#3D8060"/>
<path opacity="0.1" d="M108.583 227.041C108.337 227.396 108.143 227.785 108.006 228.195C103.068 233.995 100.434 239.408 105.183 239.546C109.607 239.684 114.914 247.587 116.187 249.562C116.144 249.716 116.092 249.868 116.033 250.017C116.033 250.017 109.813 239.684 104.748 239.55C99.683 239.416 103.012 233.26 108.583 227.041Z" fill="black"/>
<path d="M103.341 231.743C103.341 233.039 103.487 234.09 103.665 234.09C103.843 234.09 103.989 233.039 103.989 231.743C103.989 230.447 103.807 231.055 103.629 231.055C103.451 231.055 103.341 230.443 103.341 231.743Z" fill="#FFD037"/>
<path d="M101.541 233.291C102.68 233.912 103.673 234.287 103.76 234.129C103.847 233.971 102.993 233.339 101.85 232.719C100.707 232.098 101.162 232.549 101.059 232.719C100.956 232.888 100.399 232.671 101.541 233.291Z" fill="#FFD037"/>
<path opacity="0.1" d="M116.033 278.231C132.323 278.231 145.529 276.206 145.529 273.707C145.529 271.209 132.323 269.183 116.033 269.183C99.7422 269.183 86.5361 271.209 86.5361 273.707C86.5361 276.206 99.7422 278.231 116.033 278.231Z" fill="#3D8060"/>
<path d="M131.216 245.062L131.074 246.212L130.876 247.84L130.797 248.515L130.595 250.143L130.512 250.823L130.314 252.447L128.076 270.938C127.875 272.589 125.174 273.873 121.92 273.873H110.169C106.911 273.873 104.238 272.589 104.017 270.938L101.755 252.447L101.557 250.823L101.474 250.143L101.273 248.515L101.194 247.84L100.996 246.212L100.853 245.062C100.739 244.13 102.198 243.339 104.044 243.339H128.029C129.868 243.339 131.331 244.13 131.216 245.062Z" fill="#65617D"/>
<path d="M131.074 246.212L130.876 247.836H101.194L100.996 246.212H131.074Z" fill="#9D9CB5"/>
<path d="M130.797 248.515L130.599 250.143H101.474L101.273 248.515H130.797Z" fill="#9D9CB5"/>
<path d="M130.512 250.819L130.314 252.446H101.755L101.557 250.819H130.512Z" fill="#9D9CB5"/>
</g>
<defs>
<linearGradient id="paint0_linear" x1="268.311" y1="313.708" x2="268.311" y2="109.797" gradientUnits="userSpaceOnUse">
<stop stop-color="#808080" stop-opacity="0.25"/>
<stop offset="0.54" stop-color="#808080" stop-opacity="0.12"/>
<stop offset="1" stop-color="#808080" stop-opacity="0.1"/>
</linearGradient>
<clipPath id="clip0">
<rect width="395" height="315" fill="white" transform="translate(0.166016)"/>
</clipPath>
</defs>
</svg>
