<svg width="106" height="106" viewBox="0 0 106 106" fill="none" xmlns="http://www.w3.org/2000/svg">
<path d="M53 0.5C24.0078 0.5 0.5 24.0078 0.5 53C0.5 81.9922 24.0078 105.5 53 105.5C81.9922 105.5 105.5 81.9922 105.5 53C105.5 24.0078 81.9922 0.5 53 0.5ZM69.8867 53.8086L44.293 72.4297C44.1527 72.5305 43.9873 72.5907 43.815 72.6037C43.6427 72.6166 43.4701 72.5818 43.3163 72.5031C43.1625 72.4244 43.0334 72.3048 42.9431 72.1574C42.8529 72.0101 42.805 71.8408 42.8047 71.668V34.4492C42.8041 34.2761 42.8515 34.1062 42.9416 33.9583C43.0317 33.8105 43.1609 33.6905 43.3151 33.6116C43.4692 33.5327 43.6421 33.4981 43.8147 33.5115C43.9873 33.5249 44.1529 33.5858 44.293 33.6875L69.8867 52.2969C70.0076 52.3824 70.1063 52.4957 70.1743 52.6272C70.2424 52.7587 70.2779 52.9046 70.2779 53.0527C70.2779 53.2008 70.2424 53.3468 70.1743 53.4783C70.1063 53.6098 70.0076 53.7231 69.8867 53.8086Z" fill="white"/>
</svg>
