<svg width="398" height="360" viewBox="0 0 398 360" fill="none" xmlns="http://www.w3.org/2000/svg">
<g clip-path="url(#clip0)">
<path opacity="0.18" d="M260.616 0.104023C259.309 0.104023 257.871 0.234726 256.485 0.339288C228.873 2.25777 202.172 11.007 178.782 25.8001C174.14 28.7611 169.661 31.9724 165.368 35.4198C152.79 45.5101 141.507 57.8353 135.532 72.8008C132.42 80.6429 130.825 88.8903 128.994 97.0722C123.974 118.743 115.92 141.119 98.5173 154.973C76.8265 172.252 50.455 178.186 31.6014 199.896C12.957 221.37 -0.039204 246.165 1.98799e-05 275.181C1.98799e-05 347.42 62.4052 372.515 120.823 390.63C189.909 412.144 263.401 421.999 335.455 412.209C365.985 408.053 396.906 400.041 421.748 381.938C459.037 354.857 476.962 305.164 469.222 260.215C465.299 237.408 458.396 216.796 456.526 193.361C454.095 162.803 459.233 131.473 450.277 101.621C435.372 52.0975 383.596 19.7225 334.946 10.5341C310.104 5.85493 286.216 -0.889317 260.616 0.104023Z" fill="#3D8060"/>
<path d="M422.284 66.2923V107.947C422.315 109.856 421.97 111.752 421.268 113.527C420.566 115.303 419.521 116.922 418.193 118.294C416.864 119.665 415.279 120.762 413.527 121.521C411.774 122.28 409.89 122.686 407.98 122.717H376.157L361.775 143.538V122.717H334.71C330.854 122.651 327.181 121.06 324.497 118.291C321.813 115.522 320.338 111.802 320.394 107.947V66.2923C320.338 62.4373 321.813 58.7174 324.497 55.9487C327.181 53.1799 330.854 51.5883 334.71 51.5229H407.928C409.84 51.5434 411.728 51.9405 413.486 52.6916C415.244 53.4426 416.836 54.5328 418.172 55.8998C419.508 57.2668 420.561 58.8837 421.271 60.658C421.981 62.4323 422.334 64.3292 422.31 66.2401L422.284 66.2923Z" fill="url(#paint0_linear)"/>
<path d="M414.282 370.332C414.854 370.604 415.372 370.976 415.812 371.43C416.335 371.939 416.671 372.611 416.763 373.335C416.856 374.059 416.7 374.793 416.322 375.417C415.508 376.23 414.413 376.698 413.262 376.724L372.731 383.024C365.645 384.122 358.506 385.219 351.354 384.867C347.972 384.696 344.614 384.202 341.326 383.39C335.22 381.887 329.402 379.299 323.231 378.162C317.059 377.024 310.914 377.769 304.743 377.377C297.369 376.92 290.361 373.901 283.183 372.149C273.181 369.797 262.682 371.613 253.02 368.947C242.905 366.225 232.514 364.651 222.046 364.255C211.43 363.771 200.8 364.085 190.183 364.098C184.862 364.098 179.541 364.098 174.219 363.797C170.401 363.614 163.027 361.34 159.536 362.49C175.017 357.367 191.53 356.922 207.769 356.596C222.072 356.325 236.372 356.116 250.667 355.968C268.383 355.798 286.256 355.746 303.58 359.549L279.561 365.104C291.947 367.958 304.624 369.348 317.334 369.248L333.429 368.973C339.404 368.882 345.379 368.973 351.354 368.973C353.878 368.973 356.662 368.542 359.199 368.725C361.735 368.908 364.494 370.254 367.044 371.182C368.469 371.857 370.048 372.141 371.62 372.005C373.031 371.577 374.357 370.909 375.542 370.032C380.563 367.039 386.669 366.921 392.461 367.078C399.073 367.077 405.659 367.889 412.073 369.496C412.835 369.703 413.575 369.983 414.282 370.332Z" fill="url(#paint1_linear)"/>
<path d="M274.842 80.7349H182.966C172.496 80.7349 164.008 89.2199 164.008 99.6867V320.757C164.008 331.224 172.496 339.709 182.966 339.709H274.842C285.312 339.709 293.8 331.224 293.8 320.757V99.6867C293.8 89.2199 285.312 80.7349 274.842 80.7349Z" fill="#3D8060"/>
<path d="M272.906 83.9895H184.901C174.777 83.9895 166.571 92.1937 166.571 102.314V317.686C166.571 327.806 174.777 336.01 184.901 336.01H272.906C283.03 336.01 291.237 327.806 291.237 317.686V102.314C291.237 92.1937 283.03 83.9895 272.906 83.9895Z" fill="#473F47"/>
<path d="M287.851 104.719V312.706C287.865 315.004 287.425 317.283 286.558 319.411C285.691 321.54 284.413 323.477 282.797 325.112C281.181 326.747 279.259 328.047 277.14 328.939C275.021 329.832 272.748 330.298 270.448 330.311H187.503C184.463 330.315 181.476 329.512 178.848 327.985C176.174 326.43 173.957 324.2 172.417 321.518C170.877 318.837 170.07 315.798 170.075 312.706V104.719C170.054 100.075 171.877 95.6124 175.145 92.3115C178.413 89.0105 182.858 87.1409 187.503 87.1133H201.532V89.7273C201.55 91.389 202.055 93.0089 202.985 94.3865C203.914 95.7641 205.228 96.839 206.762 97.478C207.781 97.8835 208.868 98.092 209.965 98.0923H248.509C250.753 98.0785 252.9 97.1769 254.48 95.5848C256.061 93.9926 256.946 91.8396 256.942 89.5966V87.1133H270.514C275.007 87.1167 279.322 88.8701 282.542 92.0016C284.236 93.6565 285.579 95.6354 286.491 97.8204C287.403 100.005 287.865 102.351 287.851 104.719Z" fill="white"/>
<path d="M287.851 104.719V166.593H170.022V104.719C170.012 102.415 170.456 100.132 171.329 97.9995C172.203 95.8674 173.488 93.9282 175.111 92.2931C176.735 90.6579 178.665 89.3587 180.791 88.4699C182.918 87.5811 185.198 87.1201 187.503 87.1133H201.558V89.7273C201.576 91.389 202.081 93.0089 203.011 94.3865C203.94 95.7641 205.254 96.839 206.788 97.478C207.807 97.8835 208.894 98.092 209.991 98.0923H248.535C250.779 98.0785 252.926 97.1769 254.506 95.5848C256.087 93.9926 256.972 91.8396 256.969 89.5966V87.1133H270.54C275.033 87.1167 279.348 88.8701 282.569 92.0016C284.257 93.6587 285.595 95.6386 286.503 97.8234C287.41 100.008 287.869 102.353 287.851 104.719Z" fill="#3D8060"/>
<path d="M163.969 251.72H206.54C209.402 251.672 212.128 250.49 214.118 248.434C216.109 246.377 217.202 243.615 217.156 240.754V147.498C217.179 146.082 216.922 144.675 216.401 143.358C215.879 142.041 215.103 140.84 214.118 139.823C213.132 138.806 211.955 137.993 210.655 137.43C209.355 136.868 207.956 136.567 206.54 136.545H163.969V251.72Z" fill="url(#paint2_linear)"/>
<path d="M200.107 136.545H109.67C104.334 136.545 100.008 140.869 100.008 146.204V234.872C100.008 240.207 104.334 244.531 109.67 244.531H200.107C205.443 244.531 209.769 240.207 209.769 234.872V146.204C209.769 140.869 205.443 136.545 200.107 136.545Z" fill="white"/>
<path d="M142.239 215.45H130.472C130.25 215.453 130.03 215.413 129.824 215.332C129.618 215.25 129.43 215.129 129.271 214.975C129.112 214.821 128.985 214.637 128.897 214.433C128.809 214.23 128.762 214.011 128.759 213.79C128.746 213.655 128.746 213.52 128.759 213.385L131.112 197.988C131.853 193.135 132.594 188.29 133.335 183.454C133.91 179.637 134.49 175.821 135.074 172.004C135.61 168.515 136.133 165.025 136.669 161.548C136.713 160.968 136.935 160.416 137.304 159.967C137.674 159.517 138.174 159.193 138.735 159.039C138.98 158.987 139.23 158.961 139.48 158.96H159.301C161.956 158.939 164.599 159.309 167.146 160.058C168.151 160.357 169.119 160.765 170.035 161.274C171.578 162.118 172.902 163.31 173.903 164.755C174.904 166.201 175.554 167.859 175.801 169.6C176.037 171.155 176.037 172.737 175.801 174.292C175.741 174.575 175.719 174.865 175.736 175.154C175.679 175.225 175.647 175.312 175.644 175.403C175.397 176.964 175.039 178.506 174.572 180.017C173.54 183.512 171.595 186.67 168.937 189.166C167.511 190.438 165.891 191.475 164.139 192.237C162.519 192.947 160.821 193.46 159.079 193.766C157.725 194.027 156.352 194.171 154.973 194.198H147.822C147.142 194.178 146.48 194.411 145.961 194.85C145.442 195.289 145.104 195.903 145.011 196.577C144.801 197.753 144.631 198.942 144.461 200.132C144.226 201.648 144.017 203.177 143.782 204.706C143.546 206.235 143.246 208.144 142.971 209.934L142.239 215.45Z" fill="#3D8060"/>
<path d="M142.239 215.45H130.472C130.25 215.453 130.03 215.413 129.824 215.332C129.618 215.25 129.43 215.129 129.271 214.975C129.112 214.821 128.985 214.637 128.897 214.433C128.809 214.23 128.762 214.011 128.759 213.79C128.746 213.655 128.746 213.52 128.759 213.385L131.112 197.988C131.853 193.135 132.594 188.29 133.335 183.454C133.91 179.637 134.49 175.821 135.074 172.004C135.61 168.515 136.133 165.025 136.669 161.548C136.713 160.968 136.935 160.416 137.304 159.967C137.674 159.517 138.174 159.193 138.735 159.039C138.98 158.987 139.23 158.961 139.48 158.96H159.301C161.956 158.939 164.599 159.309 167.146 160.058C168.151 160.357 169.119 160.765 170.035 161.274C171.578 162.118 172.902 163.31 173.903 164.755C174.904 166.201 175.554 167.859 175.801 169.6C176.037 171.155 176.037 172.737 175.801 174.292C175.741 174.575 175.719 174.865 175.736 175.154C175.679 175.225 175.647 175.312 175.644 175.403C175.397 176.964 175.039 178.506 174.572 180.017C173.54 183.512 171.595 186.67 168.937 189.166C167.511 190.438 165.891 191.475 164.139 192.237C162.519 192.947 160.821 193.46 159.079 193.766C157.725 194.027 156.352 194.171 154.973 194.198H147.822C147.142 194.178 146.48 194.411 145.961 194.85C145.442 195.289 145.104 195.903 145.011 196.577C144.801 197.753 144.631 198.942 144.461 200.132C144.226 201.648 144.017 203.177 143.782 204.706C143.546 206.235 143.246 208.144 142.971 209.934L142.239 215.45Z" fill="url(#paint3_linear)"/>
<path d="M142.239 215.45L143.102 209.908C143.376 208.183 143.651 206.471 143.912 204.68C144.148 203.151 144.357 201.622 144.592 200.105C144.762 198.916 144.932 197.727 145.141 196.55C145.234 195.877 145.573 195.262 146.092 194.823C146.61 194.384 147.273 194.152 147.952 194.172H155.104C156.482 194.145 157.856 194.001 159.21 193.74C160.951 193.434 162.65 192.921 164.269 192.211C166.022 191.449 167.642 190.412 169.068 189.139C171.725 186.644 173.67 183.486 174.703 179.99C175.17 178.48 175.528 176.938 175.775 175.377C175.778 175.286 175.81 175.199 175.867 175.128C177.144 175.754 178.239 176.7 179.044 177.873C180.076 179.335 180.703 181.044 180.861 182.827C181.189 186.284 180.742 189.771 179.554 193.034C178.73 195.556 177.344 197.858 175.501 199.766C173.385 201.88 170.724 203.364 167.813 204.053C165.609 204.589 163.347 204.848 161.079 204.824H159.772C159.209 204.818 158.663 205.016 158.236 205.381C157.808 205.746 157.527 206.254 157.445 206.81C157.17 208.327 156.935 209.869 156.699 211.398C156.32 213.842 155.954 216.299 155.588 218.744L155.313 220.351C155.248 220.747 155.101 221.126 154.882 221.462C154.751 221.672 154.568 221.845 154.35 221.962C154.132 222.079 153.887 222.136 153.64 222.129H142.657C142.383 222.129 142.082 222.233 141.873 221.933C141.626 221.613 141.514 221.21 141.559 220.809C141.703 219.855 141.86 218.9 142.003 217.946C142.147 216.992 142.108 216.273 142.239 215.45Z" fill="#3D8060"/>
<path d="M365.762 353.315C365.762 353.315 369.763 357.079 368.979 359.759C368.194 362.438 364.599 364.216 364.102 367.483C363.605 370.751 361.67 372.528 359.918 372.528H351.55C351.55 372.528 350.243 370.228 353.381 369.535C356.519 368.842 357.669 365 357.473 361.432C357.397 358.657 357.497 355.881 357.774 353.119L364.403 351.524L365.762 353.315Z" fill="#FCBDBA"/>
<path d="M331.925 354.91C331.925 354.91 333.364 370.855 331.612 371.757H309.097C309.097 371.757 309.097 369.078 312.706 368.49C316.314 367.902 322.655 365.719 323.728 360.857C324.8 355.994 331.925 354.91 331.925 354.91Z" fill="#FCBDBA"/>
<path d="M347.929 240.506C343.313 229.801 340.489 226.743 341.025 223.41C341.431 220.939 339.796 177.35 339.796 177.35C339.247 177.167 338.149 177.01 337.547 176.88C336.605 176.66 335.733 176.206 335.012 175.559C334.292 174.913 333.748 174.094 333.429 173.181C332.43 169.998 331.958 166.674 332.03 163.339L331.441 163.456L321.492 165.495C321.492 165.495 321.714 168.724 321.714 171.769V171.848C321.739 173.119 321.35 174.364 320.604 175.395C319.859 176.425 318.798 177.185 317.582 177.559L315.229 178.252C312.945 185.341 311.484 192.67 310.875 200.092C310.182 211.15 317.53 215.96 310.875 238.075C303.985 260.634 350.491 246.4 347.929 240.506Z" fill="#FCBDBA"/>
<path d="M341.025 223.397C341.025 223.397 350.897 237.081 351.825 246.322C352.753 255.563 353.263 288.042 355.224 297.061C357.185 306.079 364.377 323.423 364.377 351.524C363.699 352.699 362.608 353.579 361.317 353.995C360.435 354.305 359.536 354.562 358.624 354.766C357.687 354.982 356.705 354.87 355.841 354.449C354.977 354.028 354.284 353.323 353.878 352.452C349.014 342.323 333.481 309.66 332.684 302.89C332.121 298.093 327.218 266.293 316.523 247.707C313.909 243.237 318.105 225.488 318.105 225.488L341.025 223.397Z" fill="#3D8060"/>
<path d="M364.39 351.603C363.726 352.75 362.666 353.615 361.409 354.034H361.395C360.509 354.343 359.605 354.6 358.689 354.805C357.754 355.02 356.774 354.908 355.913 354.487C355.051 354.065 354.36 353.361 353.956 352.492C349.079 342.362 333.56 309.7 332.762 302.916C331.331 292.877 329.234 282.943 326.486 273.181C324.002 264.307 320.733 255.066 316.55 247.812C313.935 243.329 318.132 225.593 318.132 225.593L341.025 223.514C341.025 223.514 350.897 237.186 351.825 246.44C352.753 255.693 353.263 288.173 355.224 297.178C357.185 306.184 364.39 323.41 364.39 351.603Z" fill="url(#paint4_linear)"/>
<path d="M361.395 353.969C360.509 354.277 359.605 354.535 358.689 354.74C357.754 354.955 356.774 354.843 355.913 354.421C355.051 354 354.36 353.296 353.956 352.426C349.079 342.297 333.56 309.634 332.762 302.851C331.35 292.795 329.271 282.844 326.539 273.064C327.201 271.965 328.272 271.174 329.517 270.863C330.761 270.551 332.079 270.746 333.18 271.404H333.259C337.77 273.861 339.339 282.775 340.123 287.363C341.339 294.682 340.868 302.446 343.849 309.216C345.444 312.85 347.994 316.052 349.184 319.855C349.895 322.989 350.35 326.176 350.544 329.384C351.43 335.839 354.01 341.945 358.022 347.081C359.657 349.133 361.618 351.368 361.395 353.969Z" fill="url(#paint5_linear)"/>
<path d="M321.492 165.483C321.492 165.483 321.714 168.711 321.714 171.756C327.297 171.599 330.239 166.358 331.442 163.444L321.492 165.483Z" fill="#FCBDBA"/>
<path d="M319.727 168.253C319.806 168.341 319.899 168.416 320.001 168.476C320.281 168.629 320.598 168.702 320.916 168.685C322.179 168.659 323.427 168.411 324.603 167.953C326.415 167.443 328.132 166.644 329.69 165.587C331.258 164.407 332.345 162.698 332.749 160.777C332.967 159.044 333.028 157.294 332.932 155.549C332.932 153.131 333.259 150.125 331.86 148.008C330.552 146.086 328.212 145.616 326.12 145.498C323.191 145.315 319.504 145.354 317.203 147.55C316.54 148.206 316.039 149.007 315.739 149.89C315.319 151.599 315.204 153.369 315.399 155.118C315.393 156.541 315.314 157.963 315.164 159.379C315.124 159.639 315.124 159.903 315.164 160.163C315.312 160.551 315.56 160.894 315.883 161.156C317.609 163.038 317.909 165.901 319.439 167.953C319.521 168.065 319.618 168.167 319.727 168.253Z" fill="#FCBDBA"/>
<path d="M320.119 145.263C320.119 145.263 323.728 155.196 329.271 156.673C334.815 158.15 337.221 156.608 337.221 156.608C334.461 154.102 332.647 150.724 332.082 147.04C332.082 147.04 322.838 140.531 320.119 145.263Z" fill="#473F47"/>
<path d="M322.499 163.117C322.163 163.506 321.742 163.812 321.267 164.009C320.793 164.207 320.279 164.291 319.766 164.254C319.336 164.223 318.921 164.079 318.565 163.836C318.209 163.592 317.924 163.258 317.739 162.868C319.317 162.499 320.968 162.585 322.499 163.117Z" fill="#FCBDBA"/>
<path d="M315.634 222.286L312.797 221.41C312.797 221.41 312.719 221.201 312.588 220.809C313.515 221.466 314.544 221.965 315.634 222.286Z" fill="#FCBDBA"/>
<path d="M313.582 224.024C313.582 224.024 307.11 244.819 306.691 251.903C306.273 258.987 319.073 352.544 319.583 355.772C320.093 359.001 323.78 360.804 323.78 360.804C325.061 361.451 326.545 361.569 327.911 361.131C329.544 360.788 331.067 360.048 332.344 358.974C332.344 358.974 337.377 292.316 334.266 268.45C332.362 253.71 331.306 238.872 331.102 224.011L313.582 224.024Z" fill="#3D8060"/>
<path d="M332.344 358.988C331.058 360.052 329.532 360.788 327.898 361.131C326.694 361.499 325.402 361.457 324.224 361.014C324.064 360.963 323.91 360.892 323.767 360.804C323.767 360.804 320.067 358.844 319.583 355.772C319.099 352.701 306.286 258.987 306.704 251.903C307.123 244.819 313.582 224.024 313.582 224.024H331.115C331.308 238.885 332.36 253.723 334.266 268.463C337.377 292.29 332.344 358.988 332.344 358.988Z" fill="url(#paint6_linear)"/>
<path d="M349.197 207.333C348.988 211.254 345.183 216.391 344.647 217.685C343.339 220.9 341.771 221.41 341.771 221.41C342.19 222.711 342.41 224.068 342.424 225.436C342.424 225.436 328.5 229.069 317.739 227.383C316.102 227.137 314.495 226.726 312.941 226.154C312.128 224.489 311.988 222.575 312.549 220.809C311.529 217.685 307.07 203.177 309.202 194.603C309.712 192.525 310.313 190.473 310.993 188.421C311.594 186.63 311.895 184.839 312.483 183.049C312.877 182.238 313.005 181.323 312.849 180.435C312.765 180.173 312.607 179.941 312.393 179.767C312.18 179.593 311.92 179.484 311.647 179.454C311.504 179.442 311.36 179.467 311.23 179.527C311.099 179.586 310.986 179.679 310.901 179.794C312.274 176.409 315.961 174.815 319.308 173.521C319.912 173.256 320.559 173.106 321.217 173.076C322.123 173.194 322.986 173.536 323.728 174.07C324.473 174.501 325.231 174.893 326.016 175.272C328.185 176.283 330.487 176.979 332.854 177.337C334.068 177.529 335.299 177.603 336.528 177.559C337.299 177.559 338.907 177.01 339.587 177.337C341.025 178.043 342.372 182.565 343.065 183.99C345.122 188.181 347.166 192.372 349.197 196.563C349.413 200.15 349.413 203.747 349.197 207.333Z" fill="white"/>
<path d="M320.969 187.297C320.797 189.643 320.185 191.935 319.165 194.054C318.867 194.587 318.526 195.094 318.145 195.57C317.321 196.642 316.34 197.609 315.595 198.746C313.412 202.092 313.66 206.484 313.987 210.51C314.34 214.98 314.758 219.541 316.497 223.58C317.122 224.75 317.542 226.019 317.739 227.331C316.102 227.085 314.495 226.674 312.941 226.102C312.128 224.437 311.988 222.523 312.549 220.757C311.529 217.633 307.07 203.125 309.202 194.551C309.712 192.473 310.313 190.421 310.993 188.369C311.594 186.578 311.895 184.787 312.483 182.997C312.877 182.186 313.006 181.271 312.849 180.383C312.765 180.121 312.607 179.888 312.393 179.714C312.18 179.54 311.92 179.432 311.647 179.402C312.01 178.776 312.449 178.196 312.954 177.677C313.432 177.117 314.038 176.68 314.721 176.405C315.404 176.129 316.144 176.023 316.876 176.096C317.817 176.252 318.68 176.711 319.334 177.403C321.583 180.017 321.413 183.912 320.969 187.297Z" fill="url(#paint7_linear)"/>
<path d="M322.172 163.391C322.172 163.391 321.949 164.385 319.557 164.228C319.557 164.228 317.53 164.11 317.595 163.012C319.114 162.559 320.748 162.694 322.172 163.391Z" fill="#FCBDBA"/>
<path d="M290.793 183.755C285.838 183.364 280.941 182.435 276.188 180.984C273.952 180.343 271.717 179.507 269.468 179.102C268.466 178.972 267.502 178.63 266.643 178.098C265.784 177.566 265.049 176.857 264.486 176.017C263.441 174.422 262.852 172.24 261.087 171.599L261.231 174.03C261.282 174.309 261.231 174.597 261.087 174.841C260.734 175.298 260.028 175.024 259.557 174.71L253.373 170.632C253.336 171.178 253.436 171.725 253.664 172.223C253.893 172.721 254.242 173.153 254.681 173.481C255.585 174.105 256.296 174.97 256.733 175.978C255.003 174.945 253.172 174.091 251.268 173.429C251.241 173.928 251.348 174.425 251.578 174.869C251.807 175.312 252.152 175.686 252.575 175.952C253.43 176.448 254.191 177.089 254.824 177.847C253.237 177.374 251.608 177.051 249.961 176.88C249.581 177.716 250.627 178.435 251.477 178.723L255.112 179.951C253.654 179.923 252.196 179.98 250.745 180.121C251.543 181.193 253.151 180.866 254.432 181.167C255.736 181.677 256.943 182.406 258.001 183.323C259.635 184.21 261.401 184.828 263.231 185.153C264.477 185.686 265.633 186.409 266.657 187.297C270.137 189.337 273.78 191.085 277.548 192.525C279.392 193.296 281.248 194.067 283.157 194.668C289.145 196.55 295.526 196.655 301.788 196.315C306.584 196.205 311.28 194.922 315.464 192.577C319.138 190.512 320.537 184.892 319.923 180.814C319.842 179.903 319.507 179.034 318.955 178.304C318.39 177.71 317.647 177.315 316.837 177.18C313.856 176.566 310.98 178.37 308.286 179.794C302.95 182.748 296.882 184.122 290.793 183.755Z" fill="#FCBDBA"/>
<path d="M314.967 153.602L316.746 150.295C316.733 151.347 317.023 152.381 317.582 153.273C318.141 154.166 318.944 154.878 319.897 155.327C320.545 155.53 321.162 155.825 321.727 156.203C322.184 156.665 322.525 157.23 322.721 157.849C323.904 160.967 324.416 164.298 324.224 167.626C323.897 173.39 319.949 184.212 325.636 188.473C327.731 189.82 330.144 190.59 332.631 190.708C332.359 193.046 332.25 195.4 332.304 197.753C332.195 200.173 332.761 202.576 333.939 204.693C336.201 208.131 341.078 208.889 344.778 207.307C345.803 206.717 346.937 206.34 348.112 206.196C349.929 206.196 351.367 207.713 353.041 208.418C354.291 208.856 355.633 208.966 356.938 208.737C358.243 208.508 359.467 207.948 360.493 207.111C362.785 205.213 364.321 202.558 364.822 199.625C365.324 196.692 364.757 193.677 363.226 191.126C361.918 189.14 360.088 187.584 358.859 185.558C355.433 179.899 359.16 172.75 357.264 166.58C356.428 163.839 354.632 161.491 352.204 159.967C349.445 158.255 345.85 157.601 344.045 154.856C341.64 151.21 343.758 146.06 342.254 141.943C341.13 138.885 338.188 136.937 335.207 135.839C331.834 134.633 328.223 134.24 324.669 134.695C321.115 135.149 317.719 136.437 314.758 138.453C309.908 141.76 309.581 150.164 314.967 153.602Z" fill="#473F47"/>
<path d="M270.684 144.217H237.121C235.432 144.217 234.062 145.587 234.062 147.276V147.367C234.062 149.056 235.432 150.426 237.121 150.426H270.684C272.373 150.426 273.743 149.056 273.743 147.367V147.276C273.743 145.587 272.373 144.217 270.684 144.217Z" fill="white"/>
<path d="M325.911 356.687C325.794 358.265 325.206 359.772 324.224 361.014C324.064 360.963 323.91 360.892 323.767 360.804C323.767 360.804 320.067 358.844 319.583 355.772C319.099 352.701 306.286 258.987 306.704 251.903C307.123 244.819 313.582 224.024 313.582 224.024L312.941 226.155C313.464 226.364 315.556 226.952 316.693 227.2C322.041 228.35 314.68 231.892 313.163 235.944C311.661 240.713 310.98 245.703 311.15 250.701C310.981 254.983 311.292 259.27 312.078 263.483C312.993 267.77 314.693 271.848 315.634 276.135C317.491 284.997 315.634 294.329 317.243 303.256C317.661 305.609 318.302 307.896 318.72 310.249C319.378 314.945 319.618 319.691 319.439 324.43C319.439 331.109 319.648 337.945 322.054 344.14C323.623 348.27 326.186 352.256 325.911 356.687Z" fill="url(#paint8_linear)"/>
<path d="M365.318 359.68C364.655 361.94 363.226 363.899 361.278 365.222C360.847 365.582 360.334 365.831 359.785 365.947C359.236 366.063 358.667 366.043 358.127 365.889C357.827 365.722 357.517 365.574 357.199 365.444C356.822 365.385 356.437 365.424 356.08 365.557C355.722 365.689 355.405 365.912 355.159 366.202C354.623 366.751 354.218 367.418 353.642 367.915C352.566 368.625 351.395 369.179 350.164 369.561C349.001 370.11 347.863 371.247 348.086 372.541C348.36 374.214 350.465 374.659 352.112 374.659C355.619 374.644 359.118 374.334 362.572 373.731C363.123 373.68 363.647 373.466 364.076 373.117C364.469 372.582 364.704 371.948 364.756 371.287C365.042 369.555 365.751 367.921 366.821 366.529C368.521 364.386 371.319 362.713 371.384 359.994C371.384 358.23 369.672 355.328 367.933 354.766C366.194 354.204 365.71 358.138 365.318 359.68Z" fill="#3D8060"/>
<path d="M279.287 198.746H233.709C232.301 198.746 231.159 199.887 231.159 201.295V201.387C231.159 202.794 232.301 203.935 233.709 203.935H279.287C280.695 203.935 281.836 202.794 281.836 201.387V201.295C281.836 199.887 280.695 198.746 279.287 198.746Z" fill="url(#paint9_linear)"/>
<path d="M279.287 212.862H233.709C232.301 212.862 231.159 214.003 231.159 215.411V215.502C231.159 216.91 232.301 218.051 233.709 218.051H279.287C280.695 218.051 281.836 216.91 281.836 215.502V215.411C281.836 214.003 280.695 212.862 279.287 212.862Z" fill="url(#paint10_linear)"/>
<path d="M279.287 226.965H233.709C232.301 226.965 231.159 228.106 231.159 229.514V229.605C231.159 231.013 232.301 232.154 233.709 232.154H279.287C280.695 232.154 281.836 231.013 281.836 229.605V229.514C281.836 228.106 280.695 226.965 279.287 226.965Z" fill="url(#paint11_linear)"/>
<path d="M279.287 241.068H233.709C232.301 241.068 231.159 242.209 231.159 243.616V243.708C231.159 245.115 232.301 246.257 233.709 246.257H279.287C280.695 246.257 281.836 245.115 281.836 243.708V243.616C281.836 242.209 280.695 241.068 279.287 241.068Z" fill="url(#paint12_linear)"/>
<path d="M279.287 255.171H233.709C232.301 255.171 231.159 256.312 231.159 257.719V257.811C231.159 259.218 232.301 260.36 233.709 260.36H279.287C280.695 260.36 281.836 259.218 281.836 257.811V257.719C281.836 256.312 280.695 255.171 279.287 255.171Z" fill="url(#paint13_linear)"/>
<path d="M417.616 66.2923V107.947C417.648 109.856 417.302 111.752 416.6 113.527C415.898 115.303 414.853 116.922 413.525 118.294C412.197 119.665 410.611 120.762 408.859 121.521C407.107 122.28 405.222 122.686 403.313 122.717H371.515L357.133 143.538V122.717H330.016C328.105 122.694 326.217 122.296 324.46 121.545C322.703 120.793 321.112 119.703 319.776 118.336C318.441 116.969 317.387 115.353 316.677 113.58C315.966 111.806 315.612 109.91 315.634 108V66.2923C315.605 64.3776 315.954 62.4758 316.662 60.6963C317.369 58.9167 318.421 57.2942 319.757 55.922C321.094 54.5499 322.688 53.4549 324.448 52.7C326.209 51.9451 328.101 51.5451 330.016 51.5229H403.234C405.144 51.5434 407.03 51.9397 408.786 52.6891C410.542 53.4385 412.134 54.5263 413.469 55.8906C414.805 57.2548 415.858 58.8686 416.57 60.6399C417.281 62.4112 417.637 64.3052 417.616 66.2139V66.2923Z" fill="white"/>
<path d="M362.363 114.116L362.624 107.437C359.158 107.267 355.814 106.105 352.989 104.091L354.675 99.7521C357.308 101.672 360.442 102.784 363.697 102.954C368.247 103.124 371.384 100.576 371.541 96.8244C371.698 93.0732 369.279 90.8774 364.651 88.6816C358.244 85.7931 354.348 82.6039 354.571 76.9184C354.78 71.4681 358.689 67.4817 364.599 66.7366L364.847 60.0447L368.77 60.2015L368.521 66.5667C371.428 66.723 374.247 67.6231 376.706 69.1808L374.98 73.5332C372.63 71.9293 369.874 71.0231 367.031 70.9191C362.128 70.7231 360.166 73.6769 360.075 76.291C359.944 79.7023 362.232 81.5191 367.645 84.1332C374.182 87.1524 377.281 90.6683 377.059 96.563C376.863 101.791 373.136 106.483 366.599 107.333L366.325 114.169L362.363 114.116Z" fill="#3D8060"/>
<path d="M260.686 290.275C261.924 290.275 262.704 291.358 262.704 293.14C262.704 295.114 261.874 296.365 260.55 296.365C259.226 296.365 258.533 295.306 258.533 293.481C258.533 291.389 259.275 290.275 260.686 290.275ZM262.704 290.838C262.698 290.933 262.698 291.028 262.704 291.123C262.522 290.672 262.2 290.291 261.786 290.037C261.371 289.783 260.886 289.669 260.401 289.712C258.452 289.712 257.221 291.166 257.221 293.481C257.221 295.548 258.409 296.915 260.21 296.915C260.744 296.937 261.271 296.793 261.72 296.503C262.169 296.212 262.517 295.79 262.716 295.294C262.716 295.529 262.716 295.913 262.685 296.377V296.748C262.876 296.71 263.071 296.691 263.267 296.692C263.442 296.69 263.616 296.709 263.786 296.748C263.756 296.272 263.737 294.923 263.737 293.066C263.737 290.436 263.83 286.766 263.904 285.801C263.713 285.844 263.518 285.864 263.322 285.863C263.094 285.86 262.867 285.839 262.642 285.801C262.697 286.723 262.716 287.54 262.716 289.514L262.704 290.838ZM249.665 294.923C249.671 295.532 249.642 296.142 249.578 296.748C249.783 296.714 249.99 296.696 250.197 296.692C250.404 296.697 250.611 296.716 250.816 296.748C250.741 295.678 250.741 295.511 250.741 294.446C250.741 292.293 250.772 291.971 250.977 291.432C251.117 291.118 251.351 290.853 251.647 290.675C251.942 290.497 252.285 290.414 252.629 290.436C252.91 290.417 253.191 290.475 253.442 290.604C253.693 290.733 253.904 290.927 254.052 291.166C254.321 291.72 254.428 292.337 254.362 292.949C254.362 293.945 254.287 295.931 254.213 296.748C254.418 296.717 254.625 296.698 254.832 296.692C255.05 296.694 255.267 296.713 255.482 296.748C255.43 296.027 255.416 295.305 255.438 294.582L255.5 292.107C255.533 291.784 255.494 291.458 255.385 291.152C255.276 290.846 255.101 290.569 254.872 290.339C254.643 290.109 254.365 289.933 254.06 289.824C253.754 289.714 253.428 289.674 253.105 289.706C252.622 289.694 252.146 289.818 251.729 290.063C251.312 290.308 250.972 290.664 250.748 291.092V290.405C250.748 290.158 250.748 290.052 250.779 289.786C250.602 289.829 250.422 289.85 250.24 289.848C250.033 289.845 249.826 289.824 249.621 289.786C249.708 290.752 249.751 291.822 249.751 292.627C249.751 292.701 249.751 292.936 249.751 293.246L249.665 294.923ZM246.292 293.14C246.292 294.075 246.249 294.786 246.249 295.294C246.068 295.586 245.821 295.832 245.527 296.01C245.234 296.189 244.902 296.295 244.559 296.321C244.383 296.325 244.208 296.292 244.044 296.226C243.88 296.16 243.731 296.062 243.607 295.937C243.482 295.812 243.384 295.664 243.318 295.5C243.252 295.336 243.219 295.161 243.223 294.985C243.206 294.67 243.301 294.359 243.492 294.108C243.682 293.856 243.955 293.68 244.262 293.611C244.559 293.512 245.642 293.277 246.292 293.14ZM242.789 291.346C242.972 291.018 243.243 290.747 243.571 290.563C243.898 290.38 244.271 290.291 244.646 290.306C244.872 290.293 245.098 290.328 245.309 290.41C245.52 290.492 245.71 290.618 245.868 290.78C246.026 290.942 246.147 291.136 246.224 291.349C246.3 291.562 246.33 291.789 246.311 292.014V292.546C245.767 292.861 245.156 293.044 244.528 293.079C243.872 293.121 243.235 293.32 242.672 293.66C242.457 293.839 242.285 294.065 242.169 294.32C242.053 294.575 241.997 294.853 242.004 295.133C242.004 296.228 242.796 296.94 244.027 296.94C244.454 296.936 244.876 296.841 245.262 296.659C245.649 296.477 245.992 296.214 246.267 295.888C246.269 296.013 246.297 296.136 246.349 296.25C246.402 296.364 246.477 296.465 246.571 296.548C246.665 296.631 246.775 296.693 246.894 296.731C247.013 296.768 247.139 296.781 247.264 296.767C247.602 296.764 247.935 296.688 248.241 296.544V296.259C248.143 296.277 248.043 296.277 247.944 296.259C247.425 296.259 247.326 296.037 247.326 294.458C247.326 294.118 247.326 293.419 247.375 292.93C247.425 292.441 247.375 292.175 247.375 291.965C247.375 290.523 246.502 289.681 244.999 289.681C244.147 289.696 243.323 289.99 242.653 290.517C242.653 290.727 242.653 290.814 242.653 290.931C242.653 291.049 242.653 291.142 242.653 291.352L242.789 291.346ZM235.586 286.723C235.704 288.431 235.722 288.951 235.722 291.76C235.722 293.97 235.673 295.845 235.586 296.748C236.094 296.748 237.696 296.692 238.142 296.692C238.81 296.692 240.518 296.692 240.976 296.748C240.935 296.614 240.917 296.474 240.921 296.334C240.918 296.169 240.937 296.005 240.976 295.845C239.876 296.008 238.765 296.087 237.653 296.08C237.307 296.08 237.251 296.08 236.997 296.08C236.954 295.084 236.892 293.122 236.892 292.324C236.892 289.811 236.935 288.134 237.041 286.754C236.837 286.796 236.63 286.817 236.422 286.816C236.141 286.81 235.861 286.779 235.586 286.723ZM228.649 291.371C228.649 290.956 228.649 290.882 228.649 290.882C228.649 290.882 228.649 290.702 228.649 290.479V289.458C228.649 288.549 228.649 288.313 228.736 287.348C229.144 287.275 229.559 287.24 229.973 287.243C231.638 287.243 232.449 287.911 232.449 289.279C232.449 290.807 231.378 291.655 229.435 291.655C229.155 291.656 228.876 291.635 228.6 291.593L228.649 291.371ZM227.331 286.723C227.405 287.602 227.461 288.895 227.461 289.947C227.461 293.914 227.43 295.368 227.331 296.754C227.571 296.721 227.813 296.703 228.055 296.699C228.299 296.701 228.543 296.72 228.785 296.754C228.711 296.012 228.668 294.898 228.649 292.15C229.113 292.15 229.138 292.15 229.676 292.15C230.671 292.223 231.666 292.009 232.542 291.531C232.949 291.286 233.284 290.937 233.511 290.519C233.738 290.101 233.85 289.63 233.835 289.155C233.835 287.552 232.721 286.68 230.58 286.68H229.584C229.188 286.68 228.785 286.68 228.457 286.68C228.083 286.718 227.707 286.732 227.331 286.723ZM219.757 287.008C222.294 287.008 223.81 288.802 223.81 291.804C223.81 294.657 222.25 296.47 219.769 296.47C219.145 296.486 218.527 296.35 217.969 296.073C217.41 295.795 216.927 295.386 216.563 294.879C215.986 293.942 215.701 292.854 215.746 291.754C215.696 290.652 215.981 289.56 216.563 288.623C216.922 288.112 217.4 287.697 217.958 287.415C218.515 287.133 219.132 286.993 219.757 287.008ZM219.757 286.531C216.384 286.531 214.274 288.536 214.274 291.729C214.274 294.923 216.384 296.94 219.769 296.94C223.154 296.94 225.276 294.935 225.276 291.816C225.276 288.524 223.197 286.531 219.757 286.531Z" fill="#3A3A39"/>
<path d="M187.348 295.415C187.348 302.078 192.749 307.479 199.412 307.479C206.075 307.479 211.476 302.078 211.476 295.415C211.476 288.752 206.075 283.351 199.412 283.351C192.749 283.351 187.348 288.752 187.348 295.415Z" fill="url(#paint14_linear)"/>
<path fill-rule="evenodd" clip-rule="evenodd" d="M190.529 292.089C190.173 293.101 189.987 294.165 189.978 295.239C189.945 296.175 190.051 297.112 190.294 298.017C190.749 299.41 191.496 300.69 192.487 301.77C193.477 302.851 194.688 303.706 196.037 304.28C197.13 304.672 198.285 304.865 199.446 304.849C201.927 304.761 204.296 303.799 206.136 302.132C207.012 301.245 207.703 300.192 208.168 299.035C208.633 297.878 208.864 296.64 208.846 295.393C208.859 294.249 208.668 293.111 208.283 292.033C208.149 291.684 207.996 291.344 207.825 291.012C206.964 289.403 205.658 288.075 204.064 287.186C202.469 286.297 200.653 285.885 198.831 285.998C197.01 286.112 195.259 286.746 193.787 287.826C192.315 288.905 191.184 290.385 190.529 292.089ZM195.832 293.06C194.496 293.357 193.642 293.642 192.324 294.019C191.884 294.019 191.643 293.92 191.55 293.555C191.247 292.318 192.757 290.399 193.524 289.595C194.939 288.169 196.814 287.292 198.815 287.119C200.482 287.046 202.139 287.415 203.617 288.19C205.306 289.096 206.574 290.626 207.151 292.454C207.307 292.77 207.359 293.127 207.299 293.475C207.219 293.927 206.959 293.988 206.482 294.007C205.294 293.63 202.943 292.887 201.779 292.844C199.799 292.576 197.788 292.649 195.832 293.06ZM192.299 296.705C192.909 296.767 193.511 296.895 194.093 297.089C194.964 297.338 195.764 297.79 196.426 298.407C197.391 299.571 197.989 300.994 198.147 302.497C198.147 302.986 198.029 303.296 197.59 303.376C195.319 303.791 192.515 300.239 191.705 298.425C191.34 297.584 191.067 296.501 192.299 296.705ZM202.404 303.153C201.587 303.543 200.789 303.618 200.709 302.535C200.823 301.713 201.031 300.908 201.328 300.133C201.592 299.415 202.015 298.766 202.565 298.234C203.37 297.46 206.427 296.26 207.182 296.736C207.504 296.934 207.46 297.497 207.299 298.067C206.894 299.215 206.247 300.263 205.403 301.14C204.559 302.018 203.536 302.704 202.404 303.153Z" fill="white"/>
<path d="M257.61 302.429H256.992V302.955C256.849 302.762 256.662 302.605 256.447 302.497C256.232 302.389 255.994 302.334 255.754 302.336C255.508 302.347 255.267 302.406 255.045 302.51C254.822 302.614 254.623 302.761 254.457 302.943C254.292 303.125 254.165 303.338 254.082 303.569C254 303.801 253.965 304.046 253.978 304.292C253.962 304.534 253.995 304.777 254.075 305.006C254.156 305.235 254.281 305.445 254.445 305.624C254.608 305.803 254.807 305.948 255.027 306.048C255.248 306.149 255.487 306.204 255.729 306.21C255.974 306.209 256.215 306.153 256.434 306.046C256.654 305.939 256.847 305.784 256.998 305.591V306.031C256.998 306.86 256.787 307.572 255.816 307.572C255.555 307.591 255.296 307.515 255.087 307.358C254.877 307.201 254.732 306.974 254.677 306.718L254.096 306.947C254.205 307.314 254.437 307.632 254.752 307.85C255.066 308.068 255.446 308.173 255.828 308.147C256.096 308.158 256.363 308.109 256.608 308.001C256.854 307.894 257.072 307.732 257.245 307.528C257.557 307.065 257.692 306.505 257.623 305.95L257.61 302.429ZM255.754 302.906C255.925 302.905 256.094 302.94 256.25 303.008C256.407 303.076 256.547 303.175 256.664 303.3C256.78 303.425 256.869 303.573 256.925 303.734C256.982 303.895 257.004 304.066 256.992 304.236C257.014 304.411 256.998 304.589 256.946 304.757C256.894 304.926 256.806 305.081 256.689 305.213C256.572 305.345 256.427 305.45 256.266 305.522C256.105 305.594 255.93 305.63 255.754 305.629C255.58 305.625 255.409 305.584 255.252 305.51C255.095 305.436 254.955 305.329 254.841 305.197C254.728 305.065 254.644 304.911 254.594 304.744C254.545 304.578 254.531 304.402 254.553 304.23C254.54 304.06 254.561 303.889 254.617 303.727C254.673 303.566 254.761 303.418 254.877 303.292C254.993 303.167 255.133 303.067 255.289 302.998C255.445 302.929 255.614 302.894 255.785 302.893L255.754 302.906ZM250.803 302.429H250.184V306.099H250.803V304.36C250.803 303.704 250.859 302.906 251.713 302.906C252.443 302.906 252.487 303.438 252.487 304.032V306.099H253.105V303.921C253.105 303.067 252.87 302.33 251.868 302.33C251.662 302.327 251.458 302.375 251.276 302.47C251.093 302.565 250.937 302.704 250.822 302.875L250.803 302.429ZM248.563 300.573C248.445 300.573 248.332 300.62 248.248 300.703C248.165 300.787 248.118 300.9 248.118 301.018C248.118 301.136 248.165 301.25 248.248 301.333C248.332 301.417 248.445 301.464 248.563 301.464C248.681 301.464 248.795 301.417 248.878 301.333C248.962 301.25 249.009 301.136 249.009 301.018C248.999 300.906 248.949 300.801 248.866 300.725C248.784 300.648 248.676 300.605 248.563 300.604V300.573ZM248.873 302.429H248.254V306.099H248.873V302.429ZM247.016 303.011C246.935 302.816 246.8 302.648 246.626 302.528C246.453 302.407 246.249 302.339 246.038 302.33C245.898 302.323 245.757 302.345 245.625 302.395C245.493 302.444 245.373 302.519 245.271 302.617C245.169 302.714 245.088 302.831 245.033 302.96C244.977 303.09 244.949 303.229 244.949 303.37C244.949 304.527 246.601 304.242 246.601 305.065C246.603 305.145 246.587 305.223 246.556 305.296C246.525 305.369 246.478 305.434 246.419 305.487C246.361 305.54 246.292 305.58 246.216 305.605C246.141 305.629 246.061 305.637 245.983 305.629C245.568 305.629 245.364 305.381 245.234 305.01L244.683 305.245C244.767 305.52 244.939 305.76 245.173 305.928C245.407 306.095 245.689 306.182 245.976 306.173C246.137 306.178 246.296 306.151 246.446 306.093C246.595 306.035 246.732 305.948 246.847 305.837C246.963 305.726 247.054 305.592 247.117 305.445C247.18 305.298 247.213 305.139 247.214 304.979C247.214 304.36 246.787 304.106 246.36 303.927C245.933 303.747 245.512 303.617 245.512 303.308C245.52 303.195 245.572 303.089 245.656 303.013C245.74 302.937 245.851 302.896 245.964 302.899C246.074 302.912 246.178 302.954 246.266 303.02C246.354 303.086 246.423 303.175 246.465 303.277L247.016 303.011ZM241.515 302.429H240.896V306.099H241.515V304.36C241.515 303.704 241.564 302.906 242.424 302.906C243.155 302.906 243.198 303.438 243.198 304.032V306.099H243.817V303.921C243.817 303.067 243.582 302.33 242.579 302.33C242.373 302.327 242.17 302.375 241.987 302.47C241.804 302.565 241.648 302.704 241.533 302.875L241.515 302.429ZM237.183 303.871C237.227 303.603 237.363 303.36 237.567 303.181C237.772 303.003 238.032 302.901 238.303 302.893C238.567 302.902 238.82 303.004 239.017 303.18C239.214 303.357 239.342 303.597 239.38 303.859L237.183 303.871ZM240.036 304.397C240.098 303.308 239.472 302.33 238.297 302.33C237.81 302.377 237.358 302.607 237.033 302.972C236.708 303.338 236.532 303.812 236.541 304.301C236.551 304.791 236.744 305.258 237.084 305.611C237.423 305.964 237.882 306.176 238.371 306.204C238.688 306.208 239.001 306.133 239.283 305.988C239.564 305.842 239.806 305.629 239.986 305.369L239.491 305.072C239.342 305.303 239.123 305.48 238.865 305.577C238.608 305.674 238.326 305.685 238.062 305.609C237.797 305.534 237.564 305.375 237.397 305.157C237.23 304.938 237.137 304.672 237.133 304.397H240.036ZM236.038 302.893C235.864 302.721 235.659 302.585 235.433 302.493C235.206 302.4 234.964 302.354 234.72 302.355C234.463 302.352 234.209 302.399 233.971 302.495C233.733 302.591 233.517 302.733 233.334 302.913C233.152 303.094 233.007 303.308 232.908 303.545C232.809 303.781 232.758 304.035 232.758 304.292C232.753 304.549 232.8 304.804 232.896 305.042C232.993 305.28 233.136 305.496 233.319 305.677C233.501 305.858 233.718 306.001 233.956 306.095C234.195 306.19 234.451 306.236 234.707 306.229C234.99 306.229 235.269 306.167 235.524 306.047C235.78 305.927 236.006 305.753 236.186 305.536L235.766 305.146C235.634 305.311 235.466 305.442 235.275 305.53C235.084 305.618 234.875 305.661 234.664 305.653C234.491 305.65 234.319 305.612 234.161 305.542C234.002 305.471 233.859 305.369 233.741 305.242C233.622 305.115 233.531 304.965 233.472 304.802C233.412 304.639 233.386 304.465 233.396 304.292C233.387 304.028 233.458 303.768 233.599 303.545C233.74 303.322 233.945 303.146 234.187 303.041C234.429 302.935 234.697 302.905 234.956 302.954C235.216 303.003 235.455 303.128 235.642 303.314L236.038 302.893ZM231.508 300.628C231.39 300.63 231.278 300.677 231.195 300.761C231.112 300.844 231.064 300.956 231.063 301.074C231.063 301.192 231.109 301.305 231.193 301.389C231.277 301.473 231.39 301.519 231.508 301.519C231.626 301.519 231.74 301.473 231.823 301.389C231.907 301.305 231.954 301.192 231.954 301.074C231.956 301.014 231.947 300.953 231.925 300.897C231.904 300.84 231.872 300.788 231.83 300.745C231.789 300.701 231.739 300.666 231.683 300.641C231.628 300.617 231.569 300.604 231.508 300.604V300.628ZM231.824 302.485H231.205V306.155H231.824V302.485ZM229.918 300.276H229.299V306.155H229.918V300.276ZM226.607 303.989V304.564H228.463V303.989H226.607ZM223.259 303.927C223.289 303.649 223.418 303.392 223.623 303.202C223.827 303.012 224.094 302.902 224.373 302.893C224.637 302.902 224.89 303.004 225.087 303.18C225.284 303.357 225.412 303.597 225.45 303.859L223.259 303.927ZM226.106 304.453C226.168 303.364 225.543 302.386 224.367 302.386C223.88 302.433 223.428 302.662 223.103 303.028C222.778 303.393 222.602 303.868 222.612 304.357C222.621 304.846 222.815 305.314 223.154 305.667C223.493 306.019 223.953 306.231 224.441 306.26C224.764 306.257 225.081 306.174 225.364 306.019C225.647 305.863 225.887 305.64 226.062 305.369L225.561 305.072C225.408 305.292 225.19 305.459 224.937 305.549C224.685 305.639 224.41 305.648 224.152 305.573C223.894 305.498 223.667 305.345 223.501 305.134C223.335 304.923 223.24 304.665 223.228 304.397L226.106 304.453ZM221.155 302.485H220.536V306.155H221.155V304.205C221.155 303.729 221.155 303.011 221.873 303.011H222.17V302.429H221.978C221.819 302.415 221.659 302.445 221.516 302.516C221.373 302.587 221.252 302.696 221.167 302.831L221.155 302.485ZM217.065 300.888H217.461C218.228 300.888 218.995 300.956 218.995 301.916C218.995 302.757 218.376 302.974 217.652 302.974H217.034L217.065 300.888ZM217.065 303.58H217.683C218.181 303.618 218.676 303.48 219.082 303.19C219.257 303.035 219.398 302.845 219.494 302.632C219.59 302.418 219.639 302.187 219.639 301.953C219.645 301.693 219.587 301.436 219.472 301.203C219.357 300.97 219.187 300.769 218.977 300.616C218.534 300.363 218.024 300.253 217.516 300.3H216.396V306.179H217.052L217.065 303.58Z" fill="#878786"/>
<path fill-rule="evenodd" clip-rule="evenodd" d="M261.521 302.522C261.521 303.37 261.41 308.048 261.596 308.438C261.64 308.534 261.704 308.621 261.783 308.692C261.861 308.763 261.953 308.818 262.054 308.853C262.871 309.112 263.669 307.763 264.121 307.237C264.238 307.107 264.294 307.002 264.43 306.86C264.659 307.33 265.445 309.032 265.903 309.849C266.169 310.319 266.571 310.771 267.14 310.4C267.611 310.109 267.574 309.669 267.388 309.236C266.942 308.19 266.008 306.848 265.829 306.068C266.658 305.901 268.496 305.814 268.712 305.09C268.892 304.471 268.44 304.236 268.05 303.964C266.813 303.091 263.465 300.684 263.347 300.604C261.163 299.118 261.491 300.901 261.491 302.522" fill="#3A3A39"/>
<path d="M209.242 305.529C209.304 305.469 209.377 305.422 209.457 305.39C209.537 305.358 209.623 305.342 209.709 305.343C209.795 305.344 209.88 305.363 209.96 305.397C210.039 305.431 210.111 305.48 210.171 305.542C210.231 305.603 210.278 305.676 210.31 305.757C210.342 305.837 210.358 305.922 210.357 306.008C210.356 306.095 210.338 306.18 210.303 306.259C210.269 306.338 210.22 306.41 210.158 306.47C207.962 308.604 205.18 310.036 202.167 310.583C199.153 311.129 196.046 310.766 193.24 309.539C190.434 308.312 188.057 306.278 186.412 303.694C184.767 301.111 183.929 298.096 184.005 295.035C184.08 291.973 185.066 289.004 186.836 286.505C188.606 284.006 191.081 282.091 193.944 281.004C196.807 279.917 199.929 279.707 202.911 280.402C205.894 281.096 208.602 282.664 210.691 284.904C210.749 284.967 210.795 285.041 210.826 285.121C210.856 285.202 210.87 285.288 210.867 285.374C210.864 285.46 210.845 285.545 210.809 285.624C210.773 285.702 210.723 285.773 210.66 285.832C210.597 285.891 210.523 285.937 210.442 285.967C210.361 285.997 210.275 286.012 210.189 286.009C210.103 286.006 210.018 285.986 209.94 285.95C209.861 285.915 209.79 285.864 209.731 285.801C207.821 283.753 205.345 282.32 202.618 281.686C199.89 281.051 197.036 281.243 194.418 282.237C191.8 283.231 189.538 284.982 187.919 287.267C186.3 289.552 185.399 292.267 185.329 295.067C185.26 297.866 186.026 300.622 187.529 302.985C189.033 305.347 191.206 307.208 193.771 308.331C196.337 309.453 199.178 309.786 201.934 309.287C204.689 308.788 207.234 307.48 209.242 305.529Z" fill="#3A3A39"/>
</g>
<defs>
<linearGradient id="paint0_linear" x1="509.806" y1="177.076" x2="250.143" y2="8.87399" gradientUnits="userSpaceOnUse">
<stop offset="0.01"/>
<stop offset="0.08" stop-opacity="0.69"/>
<stop offset="0.21" stop-opacity="0.32"/>
<stop offset="1" stop-opacity="0"/>
</linearGradient>
<linearGradient id="paint1_linear" x1="291.708" y1="251.694" x2="287.109" y2="402.877" gradientUnits="userSpaceOnUse">
<stop offset="0.01"/>
<stop offset="0.84" stop-opacity="0"/>
</linearGradient>
<linearGradient id="paint2_linear" x1="2512.79" y1="32558.3" x2="29043.2" y2="23052.5" gradientUnits="userSpaceOnUse">
<stop offset="0.01"/>
<stop offset="0.08" stop-opacity="0.69"/>
<stop offset="0.21" stop-opacity="0.32"/>
<stop offset="1" stop-opacity="0"/>
</linearGradient>
<linearGradient id="paint3_linear" x1="41.7211" y1="151.471" x2="526.181" y2="315.863" gradientUnits="userSpaceOnUse">
<stop offset="0.01"/>
<stop offset="0.13" stop-opacity="0.69"/>
<stop offset="0.25" stop-opacity="0.32"/>
<stop offset="1" stop-opacity="0"/>
</linearGradient>
<linearGradient id="paint4_linear" x1="11726.6" y1="18340.6" x2="18434.6" y2="17272.1" gradientUnits="userSpaceOnUse">
<stop offset="0.01"/>
<stop offset="0.84" stop-opacity="0"/>
</linearGradient>
<linearGradient id="paint5_linear" x1="9857.32" y1="8321.83" x2="10789.2" y2="8321.83" gradientUnits="userSpaceOnUse">
<stop offset="0.01"/>
<stop offset="0.13" stop-opacity="0.69"/>
<stop offset="0.25" stop-opacity="0.32"/>
<stop offset="1" stop-opacity="0"/>
</linearGradient>
<linearGradient id="paint6_linear" x1="7049.71" y1="18931.8" x2="13278.8" y2="18085" gradientUnits="userSpaceOnUse">
<stop offset="0.01"/>
<stop offset="0.13" stop-opacity="0.69"/>
<stop offset="0.25" stop-opacity="0.32"/>
<stop offset="1" stop-opacity="0"/>
</linearGradient>
<linearGradient id="paint7_linear" x1="3329.74" y1="9797.62" x2="3805.4" y2="9766.37" gradientUnits="userSpaceOnUse">
<stop offset="0.01"/>
<stop offset="0.13" stop-opacity="0.69"/>
<stop offset="0.25" stop-opacity="0.32"/>
<stop offset="1" stop-opacity="0"/>
</linearGradient>
<linearGradient id="paint8_linear" x1="5002.06" y1="15213.4" x2="6206.94" y2="15226.3" gradientUnits="userSpaceOnUse">
<stop offset="0.01"/>
<stop offset="0.13" stop-opacity="0.69"/>
<stop offset="0.25" stop-opacity="0.32"/>
<stop offset="1" stop-opacity="0"/>
</linearGradient>
<linearGradient id="paint9_linear" x1="11487.1" y1="-1408.3" x2="11485.1" y2="-499.825" gradientUnits="userSpaceOnUse">
<stop offset="0.01"/>
<stop offset="0.84" stop-opacity="0"/>
</linearGradient>
<linearGradient id="paint10_linear" x1="11487.1" y1="-1366.43" x2="11485.1" y2="-457.953" gradientUnits="userSpaceOnUse">
<stop offset="0.01"/>
<stop offset="0.84" stop-opacity="0"/>
</linearGradient>
<linearGradient id="paint11_linear" x1="11487.1" y1="-1324.54" x2="11485.1" y2="-416.016" gradientUnits="userSpaceOnUse">
<stop offset="0.01"/>
<stop offset="0.84" stop-opacity="0"/>
</linearGradient>
<linearGradient id="paint12_linear" x1="11487.1" y1="-1282.61" x2="11485.1" y2="-374.131" gradientUnits="userSpaceOnUse">
<stop offset="0.01"/>
<stop offset="0.84" stop-opacity="0"/>
</linearGradient>
<linearGradient id="paint13_linear" x1="11487.1" y1="-1240.72" x2="11485.1" y2="-332.245" gradientUnits="userSpaceOnUse">
<stop offset="0.01"/>
<stop offset="0.84" stop-opacity="0"/>
</linearGradient>
<linearGradient id="paint14_linear" x1="196.191" y1="294.31" x2="209.719" y2="298.958" gradientUnits="userSpaceOnUse">
<stop stop-color="#EFA200"/>
<stop offset="1" stop-color="#EE7400"/>
</linearGradient>
<clipPath id="clip0">
<rect width="471" height="416" fill="white"/>
</clipPath>
</defs>
</svg>
