<svg width="305" height="350" viewBox="0 0 305 350" fill="none" xmlns="http://www.w3.org/2000/svg">
<g clip-path="url(#clip0)">
<path opacity="0.24" d="M6.08331 312.564C-1.17018 293.388 -0.704937 272.206 1.22651 251.791C2.42485 239.157 4.2999 226.108 11.0952 215.39C30.1982 185.327 76.7924 187.475 101.986 162.285C117 147.265 122.52 124.209 139.05 110.878C150.385 101.723 165.251 98.5261 179.525 95.5966L272.911 76.421C285.261 73.8858 298.528 71.4351 310.109 76.421C321.268 81.2096 328.5 91.8714 336.727 100.801C343.649 108.315 351.748 115.061 356.365 124.166C369.441 149.976 349.542 180.982 353.955 209.566C357.12 230.115 372.24 246.375 384.378 263.262C396.517 280.149 406.357 302.297 397.68 321.198C392.21 333.099 380.233 341 367.644 344.669C355.054 348.338 341.738 348.331 328.627 348.296L185.376 347.979C140.03 347.88 93.1886 351.141 48.2931 349.606C28.4923 348.901 12.6671 329.958 6.08331 312.564Z" fill="#3D8060"/>
<path d="M51.1127 348.796V321.331H53.8266V300.494H56.5405V297.797H59.0288V295.938L61.4608 293.121H71.9639L74.3958 295.938V297.797H76.6162V300.494H79.3301L79.2526 310.564H81.755V262.128H79.9152V260.847H82.6784V247.115H83.7781V242.805H84.772V238.685H85.7659V234.559H86.8092V230.439H88.0921V226.319H89.1988V222.2H90.2491V218.08H90.7003L91.518 201.756L92.3286 218.08H92.8079V222.2H93.8582V226.319H94.965V230.439H96.2479V234.559H97.2911V238.685H98.2851V242.805H99.279V247.129H100.357V260.861H103.177V262.143H101.344V310.649H102.987V283.607H106.511V279.966H108.971C108.971 279.966 108.577 275.311 117.522 274.332V195.982L126.143 194.926V191.123H130.189V186.743L133.566 186.848L134.975 168.799L136.385 186.848L139.452 186.743V191.123H143.639V194.531L152.45 195.982V273.896H156.172L156.475 276.769L157.885 277.213V262.03H159.147V247.178H161.149V236.72H161.691V233.904H163.045V231.023H164.666V228.608H166.365V226.756H167.824V225.347H168.832V214.996H170.002V211.594L171.468 211.777L172.258 183.137L173.076 211.763L174.542 211.58L174.478 214.981H175.712V225.34L176.713 225.376V226.784H178.172V228.636H179.878V231.052H181.492V233.939H182.754V236.756H183.459V247.072H185.574V262.044H186.603V318.381H187.717V316.832H189.74V315.486H193.631V288.726L199.94 283.684L212.691 288.726V311.191H214.771V309.571H222.405V311.472H224.421V313.064H226.705V314.994H228.115V348.796H51.1127Z" fill="#3D8060"/>
<path d="M51.1127 348.796V321.331H53.8266V300.494H56.5405V297.797H59.0288V295.938L61.4608 293.121H71.9639L74.3958 295.938V297.797H76.6162V300.494H79.3301L79.2526 310.564H81.755V262.128H79.9152V260.847H82.6784V247.115H83.7781V242.805H84.772V238.685H85.7659V234.559H86.8092V230.439H88.0921V226.319H89.1988V222.2H90.2491V218.08H90.7003L91.518 201.756L92.3286 218.08H92.8079V222.2H93.8582V226.319H94.965V230.439H96.2479V234.559H97.2911V238.685H98.2851V242.805H99.279V247.129H100.357V260.861H103.177V262.143H101.344V310.649H102.987V283.607H106.511V279.966H108.971C108.971 279.966 108.577 275.311 117.522 274.332V195.982L126.143 194.926V191.123H130.189V186.743L133.566 186.848L134.975 168.799L136.385 186.848L139.452 186.743V191.123H143.639V194.531L152.45 195.982V273.896H156.172L156.475 276.769L157.885 277.213V262.03H159.147V247.178H161.149V236.72H161.691V233.904H163.045V231.023H164.666V228.608H166.365V226.756H167.824V225.347H168.832V214.996H170.002V211.594L171.468 211.777L172.258 183.137L173.076 211.763L174.542 211.58L174.478 214.981H175.712V225.34L176.713 225.376V226.784H178.172V228.636H179.878V231.052H181.492V233.939H182.754V236.756H183.459V247.072H185.574V262.044H186.603V318.381H187.717V316.832H189.74V315.486H193.631V288.726L199.94 283.684L212.691 288.726V311.191H214.771V309.571H222.405V311.472H224.421V313.064H226.705V314.994H228.115V348.796H51.1127Z" fill="url(#paint0_linear)"/>
<path d="M208.568 348.796V330.486H210.372V316.684H212.177V314.888H213.847V313.656L215.462 311.761H222.447L224.061 313.656V314.888H225.542V316.684H227.346L227.297 323.381H228.953V291.177H227.734V290.346H229.574V281.192H230.279V278.325H230.941V275.558H231.597V272.819H232.302V270.079H233.155V267.34H233.86V264.6H234.565V261.861H234.868L235.41 251.009L235.953 261.861H236.27V264.6H236.975V267.34H237.68V270.079H238.533V272.819H239.238V275.558H239.929V278.304H240.634V281.192H241.339V290.346H243.178V291.198H241.959V323.444H243.045V305.452H245.399V303.022H247.034C247.034 303.022 246.774 299.924 252.723 299.283V247.171L258.454 246.467V243.932H261.14V241.052L263.388 241.122L264.347 229.15L265.298 241.122L267.336 241.052V243.967H270.12V246.228L275.95 247.206V299.001H278.424L278.621 300.91L279.559 301.205V291.114H280.39V281.255H281.73V274.297H282.089V272.431H282.985V270.516H284.063V268.91H285.198V267.678H286.164V266.755H286.869V259.847H287.644V257.593L288.624 257.706L289.16 238.692L289.702 257.706L290.682 257.593L290.633 259.847H291.458V266.741H292.127V267.664H293.093V268.896H294.207V270.502H295.285V272.417H296.117V274.297H296.589V281.192H297.999V291.149H298.704V328.592H299.444V327.529H300.79V326.634H303.377V308.839L307.572 305.487L316.031 308.839V323.775H317.44V322.74H322.516V323.986H323.813V325.043H325.328V326.36H326.287V348.796H208.568Z" fill="#3D8060"/>
<path d="M208.568 348.796V330.486H210.372V316.684H212.177V314.888H213.847V313.656L215.462 311.761H222.447L224.061 313.656V314.888H225.542V316.684H227.346L227.297 323.381H228.953V291.177H227.734V290.346H229.574V281.192H230.279V278.325H230.941V275.558H231.597V272.819H232.302V270.079H233.155V267.34H233.86V264.6H234.565V261.861H234.868L235.41 251.009L235.953 261.861H236.27V264.6H236.975V267.34H237.68V270.079H238.533V272.819H239.238V275.558H239.929V278.304H240.634V281.192H241.339V290.346H243.178V291.198H241.959V323.444H243.045V305.452H245.399V303.022H247.034C247.034 303.022 246.774 299.924 252.723 299.283V247.171L258.454 246.467V243.932H261.14V241.052L263.388 241.122L264.347 229.15L265.298 241.122L267.336 241.052V243.967H270.12V246.228L275.95 247.206V299.001H278.424L278.621 300.91L279.559 301.205V291.114H280.39V281.255H281.73V274.297H282.089V272.431H282.985V270.516H284.063V268.91H285.198V267.678H286.164V266.755H286.869V259.847H287.644V257.593L288.624 257.706L289.16 238.692L289.702 257.706L290.682 257.593L290.633 259.847H291.458V266.741H292.127V267.664H293.093V268.896H294.207V270.502H295.285V272.417H296.117V274.297H296.589V281.192H297.999V291.149H298.704V328.592H299.444V327.529H300.79V326.634H303.377V308.839L307.572 305.487L316.031 308.839V323.775H317.44V322.74H322.516V323.986H323.813V325.043H325.328V326.36H326.287V348.796H208.568Z" fill="url(#paint1_linear)"/>
<path d="M185.834 111.371C185.834 111.371 178.919 121.11 178.785 128.92C178.651 136.73 179.744 139.054 181.112 138.913C182.479 138.772 200.454 121.371 200.454 121.371L185.834 111.371Z" fill="#3D8060"/>
<path d="M187.477 26.9924H179.385V37.6331H187.477V26.9924Z" fill="#3D8060"/>
<path d="M272.912 200.651C272.912 200.904 272.862 201.186 272.834 201.524C272.782 201.529 272.731 201.529 272.679 201.524L272.912 200.651Z" fill="#3D8060"/>
<path d="M253.322 221.333L253.964 230.918C253.343 231.249 252.963 231.432 252.963 231.432L253.322 221.333Z" fill="#3D8060"/>
<path d="M272.912 200.651C272.912 200.904 272.862 201.186 272.834 201.524C272.782 201.529 272.731 201.529 272.679 201.524L272.912 200.651Z" fill="#3D8060"/>
<path d="M204.768 124.237C205.529 123.202 206.397 122.335 207.687 122.279C207.957 122.25 208.216 122.157 208.443 122.007C208.67 121.858 208.857 121.657 208.991 121.42C209.255 120.945 209.443 120.432 209.547 119.899C209.731 119.195 209.851 118.11 210.309 117.589C211.795 118.653 213.208 119.815 214.538 121.068L212.832 133.913C210.125 130.687 207.503 127.434 204.768 124.237Z" fill="#3D8060"/>
<path d="M236.242 118.829C236.686 119.167 236.108 120.012 236.186 121.512C236.468 127.328 236.792 133.279 239.168 138.687C240.119 140.863 242.072 143.053 238.977 144.018C237.159 144.582 234.825 144.37 232.922 144.504L231.759 127.399V119.364C232.812 119.044 233.89 118.808 234.98 118.66C235.409 118.59 235.847 118.649 236.242 118.829Z" fill="#3D8060"/>
<path d="M204.768 124.237C205.529 123.202 206.397 122.335 207.687 122.279C207.957 122.25 208.216 122.157 208.443 122.007C208.67 121.858 208.857 121.657 208.991 121.42C209.255 120.945 209.443 120.432 209.547 119.899C209.731 119.195 209.851 118.11 210.309 117.589C211.795 118.653 213.208 119.815 214.538 121.068L212.832 133.913C210.125 130.687 207.503 127.434 204.768 124.237Z" fill="url(#paint2_linear)"/>
<path d="M236.242 118.829C236.686 119.167 236.108 120.012 236.186 121.512C236.468 127.328 236.792 133.279 239.168 138.687C240.119 140.863 242.072 143.053 238.977 144.018C237.159 144.582 234.825 144.37 232.922 144.504L231.759 127.399V119.364C232.812 119.044 233.89 118.808 234.98 118.66C235.409 118.59 235.847 118.649 236.242 118.829Z" fill="url(#paint3_linear)"/>
<path d="M221.185 95.8362L222.764 79.3577L224.343 95.8362H221.185Z" fill="#3D8060"/>
<path d="M236.785 107.47L253.28 109.054L236.785 110.632V107.47Z" fill="#3D8060"/>
<path d="M208.85 107.47L192.355 109.054L208.85 110.632V107.47Z" fill="#3D8060"/>
<path d="M229.708 97.3078L242.079 86.2939L232.034 99.4486L229.708 97.3078Z" fill="#3D8060"/>
<path d="M235.206 101.885L250.932 96.667L236.482 104.772L235.206 101.885Z" fill="#3D8060"/>
<path d="M209.787 101.885L194.061 96.667L208.511 104.772L209.787 101.885Z" fill="#3D8060"/>
<path d="M215.208 97.3078L202.837 86.2939L212.889 99.4486L215.208 97.3078Z" fill="#3D8060"/>
<path d="M185.383 56.3511C185.383 56.3511 191.023 60.9777 191.297 64.5058C191.572 68.0339 191.361 68.2804 191.481 70.1395C191.601 71.9986 196.049 90.8997 196.535 93.639C197.021 96.3784 196.965 102.829 197.635 104.843C198.304 106.857 203.669 125.843 203.669 125.843L189.225 130.835C189.225 130.835 187.766 122.955 186.849 117.596C185.933 112.237 184.897 105.237 184.474 102.808C184.051 100.378 182.458 95.9911 181.852 90.8785C181.245 85.766 181.668 67.6396 181.668 67.6396L185.383 56.3511Z" fill="#3D8060"/>
<path d="M192.242 74.1535C191.805 72.1042 191.537 70.6324 191.481 70.1465C191.361 68.386 191.53 68.0973 191.326 64.9283C193.229 63.6185 191.128 53.9849 190.621 54.2454C190.113 54.506 183.262 63.21 182.923 63.8297L182.028 66.541C181.822 67.625 181.685 68.7211 181.619 69.8226C181.619 70.8226 181.577 72.1113 181.556 73.569C181.556 75.3154 183.48 76.8858 185.13 76.8858C187.131 76.8858 188.654 75.7943 190.289 77.8295C191.347 79.1393 191.629 80.8998 191.784 82.5758C191.946 84.3268 192.016 86.085 191.995 87.8433C191.918 89.3494 191.918 90.8584 191.995 92.3644C192.32 95.9418 193.884 99.2727 194.286 102.836C194.625 105.644 194.599 108.485 194.209 111.287C193.603 115.455 192.799 119.61 191.925 123.723L198.614 108.23C198.128 106.54 197.754 105.28 197.606 104.843C196.937 102.829 197 96.3925 196.507 93.639C196.168 91.5475 193.567 80.3294 192.242 74.1535Z" fill="url(#paint4_linear)"/>
<path d="M186.934 66.2169H179.927L179.018 45.2737H187.85L186.934 66.2169Z" fill="#3D8060"/>
<path d="M187.223 65.9705H179.575V68.0056H187.223V65.9705Z" fill="#3D8060"/>
<path d="M185.411 72.3084H181.45L179.85 67.8367H187.012L185.411 72.3084Z" fill="#3D8060"/>
<path d="M184.079 71.231H182.719C182.189 71.231 181.76 71.6597 181.76 72.1887V72.4281C181.76 72.9571 182.189 73.3858 182.719 73.3858H184.079C184.609 73.3858 185.038 72.9571 185.038 72.4281V72.1887C185.038 71.6597 184.609 71.231 184.079 71.231Z" fill="#3D8060"/>
<path d="M188.287 42.3372H178.574C177.924 42.3372 177.397 42.8637 177.397 43.5132V44.1822C177.397 44.8317 177.924 45.3582 178.574 45.3582H188.287C188.938 45.3582 189.465 44.8317 189.465 44.1822V43.5132C189.465 42.8637 188.938 42.3372 188.287 42.3372Z" fill="#3D8060"/>
<path d="M188.302 44.4288H178.482L172.371 39.5486H194.491L188.302 44.4288Z" fill="#3D8060"/>
<path d="M194.561 37.6118H172.3V39.5484H194.561V37.6118Z" fill="#3D8060"/>
<path d="M194.561 31.5134H183.431H172.3L173.217 34.5697L172.3 37.633H183.431H194.561L193.645 34.5697L194.561 31.5134Z" fill="#3D8060"/>
<path d="M179.392 26.9714C177.037 23.0278 176.995 18.9927 178.877 14.8519C179.899 12.5985 181.189 10.4436 181.852 8.05631C182.557 5.44368 182.557 2.69022 182.479 -0.0209961C182.402 2.32403 183.72 4.43666 185.249 6.15494C186.779 7.87321 188.562 9.40839 189.775 11.3731C191.396 14.0069 193.299 26.9925 187.484 26.9925L179.392 26.9714Z" fill="#3D8060"/>
<path d="M179.392 26.9714C177.037 23.0278 176.995 18.9927 178.877 14.8519C179.899 12.5985 181.189 10.4436 181.852 8.05631C182.557 5.44368 182.557 2.69022 182.479 -0.0209961C182.402 2.32403 183.72 4.43666 185.249 6.15494C186.779 7.87321 188.562 9.40839 189.775 11.3731C191.396 14.0069 193.299 26.9925 187.484 26.9925L179.392 26.9714Z" fill="url(#paint5_linear)"/>
<path d="M210.492 114.8C210.492 114.8 207.997 112.42 207.997 106.575C207.997 100.73 214.7 95.6177 222.44 95.6177C231.639 95.6177 237.37 101.709 237.37 107.427C237.37 113.061 235.481 115.343 235.481 115.343C235.481 115.343 210.584 114.885 210.492 114.8Z" fill="#3D8060"/>
<path d="M210.95 115.786C210.95 115.786 208.532 113.491 208.532 107.822C208.532 102.153 215.025 97.2021 222.525 97.2021C231.449 97.2021 236.997 103.103 236.997 108.653C236.997 114.075 235.164 116.321 235.164 116.321C235.164 116.321 211.028 115.878 210.95 115.786Z" fill="url(#paint6_linear)"/>
<path d="M213.361 108.04C213.361 108.04 213.601 121.8 214.884 124.842C216.167 127.885 213.361 133.793 213.361 133.793L224.019 146.335L235.601 143.046C235.601 143.046 231.886 139.941 231.823 137.413C231.759 134.885 231.942 127.364 232.253 126.758C232.563 126.152 233.528 119.265 233.162 115.617C232.795 111.969 231.519 106.42 231.519 106.42C231.519 106.42 227.438 103.195 222.807 103.561C218.176 103.927 213.361 108.04 213.361 108.04Z" fill="#3D8060"/>
<path d="M201.864 119.448C201.864 119.448 209.907 127.138 211.824 129.737C213.742 132.335 220.192 141.927 224.167 143.708C228.143 145.49 233.627 141.927 236.644 142.476C239.661 143.025 246.513 145.082 249.53 151.384C252.547 157.687 265.743 266.03 264.615 267.403C263.487 268.776 260.498 270.276 260.498 272.058C260.498 273.839 262.007 305.071 261.464 305.613C260.921 306.156 258.031 306.987 258.031 307.536C258.031 308.085 261.048 335.888 259.814 335.888H184.241C184.241 335.888 190.409 322.874 191.234 318.902C192.059 314.93 189.725 295.888 190.529 285.346C191.333 274.804 193.962 266.03 194.096 261.65C194.145 259.981 193.863 253.248 193.56 245.08C193.306 238.249 188.844 235.481 188.746 228.77C188.654 222.432 192.905 211.982 193.271 209.461C193.673 206.749 185.947 209.397 185.595 202.609C185.045 192.045 194.054 182.13 194.279 177.553C194.723 166.785 187.399 169.574 186.525 165.356C185.757 161.511 188.781 156.757 188.992 150.567C189.281 142.391 183.099 135.638 183.099 135.638L201.864 119.448Z" fill="#3D8060"/>
<path d="M201.864 119.448C201.864 119.448 209.907 127.138 211.824 129.737C213.742 132.335 220.192 141.927 224.167 143.708C228.143 145.49 233.627 141.927 236.644 142.476C239.661 143.025 246.513 145.082 249.53 151.384C252.547 157.687 265.743 266.03 264.615 267.403C263.487 268.776 260.498 270.276 260.498 272.058C260.498 273.839 262.007 305.071 261.464 305.613C260.921 306.156 258.031 306.987 258.031 307.536C258.031 308.085 261.048 335.888 259.814 335.888H184.241C184.241 335.888 190.409 322.874 191.234 318.902C192.059 314.93 189.725 295.888 190.529 285.346C191.333 274.804 193.962 266.03 194.096 261.65C194.145 259.981 193.863 253.248 193.56 245.08C193.306 238.249 188.844 235.481 188.746 228.77C188.654 222.432 192.905 211.982 193.271 209.461C193.673 206.749 185.947 209.397 185.595 202.609C185.045 192.045 194.054 182.13 194.279 177.553C194.723 166.785 187.399 169.574 186.525 165.356C185.757 161.511 188.781 156.757 188.992 150.567C189.281 142.391 183.099 135.638 183.099 135.638L201.864 119.448Z" fill="url(#paint7_linear)"/>
<path d="M209.456 114.554C209.597 112.237 210.492 111.392 210.492 111.385C210.689 111.202 210.753 110.237 210.844 109.977C211.244 108.818 211.848 107.74 212.628 106.793C214.651 104.384 217.458 102.764 220.558 102.216C221.184 102.103 221.818 102.048 222.454 102.054C225.02 102.054 227.487 103.005 229.877 103.941C230.532 104.16 231.152 104.473 231.717 104.871C233.111 106.085 234.165 107.641 234.776 109.385C235.157 110.399 235.305 111.448 235.601 112.484C235.721 112.906 237.426 115.3 237.187 117.174C236.947 119.047 233.056 121.399 233.056 121.399L214.129 121.159C214.129 121.159 209.216 118.631 209.456 114.554Z" fill="#3D8060"/>
<path d="M287.39 176.863C286.798 179.299 285.332 181.384 283.739 183.384L283.894 183.306C284.224 183.639 284.485 184.034 284.662 184.468C284.923 185.13 286.002 187.468 285.896 187.729C285.79 187.989 280.574 198.595 279.7 199.418C278.875 200.123 273.786 201.292 272.834 201.531C272.834 201.193 272.89 200.911 272.912 200.658L272.679 201.552C272.73 201.557 272.782 201.557 272.834 201.552C272.319 206.792 270.719 220.841 267.695 223.129C265.413 224.702 263.043 226.143 260.597 227.446C257.925 228.911 255.352 230.263 253.964 230.967L253.322 221.334L248.613 149.786C248.956 150.295 249.265 150.827 249.537 151.377C250.03 152.405 250.77 156.081 251.701 161.581L264.861 175.243L255.839 189.94C256.381 193.89 256.917 198.003 257.46 202.137L262.394 201.32C266.624 190.989 273.426 181.82 281.342 173.905C282.477 172.75 283.964 171.546 285.508 171.982C285.968 172.138 286.382 172.404 286.715 172.758C287.047 173.112 287.286 173.542 287.411 174.011C287.661 174.946 287.654 175.931 287.39 176.863Z" fill="#3D8060"/>
<path d="M271.234 166.461C270.87 166.546 270.515 166.669 270.176 166.828C267.808 167.933 266.722 170.623 265.15 172.715C264.1 174.123 262.782 175.278 261.626 176.567C258.926 179.524 255.782 184.475 255.282 188.426C255.007 190.728 255.761 193.602 255.987 195.904C256.114 197.271 256.537 211.439 257.46 211.693L262.394 213.059C262.534 212.851 262.662 212.635 262.775 212.411L275.964 190.172L283.471 177.496C284.091 176.447 285.663 174.679 285.854 173.482C286.276 170.665 280.003 168.553 277.493 167.511C275.513 166.701 273.264 165.997 271.234 166.461Z" fill="#3D8060"/>
<path d="M236.348 165.532L230.3 279.36L248.606 269.318L236.348 165.532Z" fill="#3D8060"/>
<path d="M264.601 267.41C263.522 268.776 260.484 270.29 260.484 272.058C260.484 273.826 262.007 305.071 261.464 305.607C260.921 306.142 258.017 307.015 258.017 307.536C258.017 308.057 261.055 335.895 259.814 335.895H235.847C231.484 335.895 225.838 336.866 221.587 335.895C217.837 335.036 218.472 336.099 219.014 331.824C219.169 330.599 222.63 320.796 220.889 320.149L214.905 317.944C214.455 317.812 214.046 317.57 213.713 317.24C212.783 316.177 213.854 314.578 214.869 313.592C221.169 307.466 227.148 301.019 232.781 294.276C234.973 291.656 238.836 288.691 237.307 285.121C236.214 282.558 230.469 282.417 230.258 279.339C230.095 276.79 256.022 263.079 256.022 263.079L253.907 230.897C255.317 230.193 257.869 228.869 260.54 227.376C263.191 248.995 265.045 266.847 264.601 267.41Z" fill="#3D8060"/>
<path d="M192.08 272.037C192.08 272.079 195.837 271.121 196.063 271.037C198.939 269.966 201.906 268.107 203.485 265.403C205.53 261.952 206.798 257.953 208.913 254.432C211.099 250.79 213.58 247.332 216.329 244.094C219.423 240.446 222.884 237.052 225.281 232.904C226.814 230.121 227.998 227.16 228.806 224.087C230.689 217.022 232.023 209.823 232.795 202.552C232.908 201.616 234.981 187.764 234.579 187.658C235.615 188.031 234.015 203.447 233.951 204.693C233.437 214.756 232.859 224.826 232.069 234.883C231.815 238.045 231.59 241.221 231.174 244.375C231.089 245.009 231.174 246.488 230.765 247.009C229.637 248.53 226.24 247.58 224.202 249.122C222.568 250.512 221.245 252.23 220.318 254.164C214.961 264.079 212.219 275.558 204.684 284.213C202.054 287.22 199.51 289.98 195.865 286.466C192.221 282.952 191.77 276.706 192.08 272.037Z" fill="#3D8060"/>
<path d="M198.297 106.998C198.297 106.998 191.149 125.103 188.598 127.42C186.046 129.737 179.081 135.708 180.139 138.511C183.184 146.462 197.247 137.427 200.842 121.793C202.731 113.66 202.682 114.117 198.297 106.998Z" fill="#3D8060"/>
<path d="M187.85 45.2808L179.582 45.1822C179.582 45.1822 179.42 44.2104 179.011 44.478C178.663 44.809 178.399 45.2179 178.241 45.671C178.083 46.1241 178.035 46.6084 178.102 47.0836C178.377 48.0624 177.495 51.5765 177.46 51.8159C177.411 52.1821 177.643 54.9215 177.643 54.9215C177.643 54.9215 179.758 55.4355 179.441 56.2313C179.124 57.0271 177.587 57.8439 177.432 58.1467C177.277 58.4496 179.779 63.7804 179.779 63.7804C179.779 63.7804 179.899 62.534 179.963 61.4988C180.026 60.4636 182.155 58.8791 183.861 59.4918C185.567 60.1045 187.195 64.0199 187.195 64.0199L187.85 45.2808Z" fill="#3D8060"/>
<path d="M188.302 44.4288H178.482L172.371 39.5486H194.491L188.302 44.4288Z" fill="url(#paint8_linear)"/>
<path d="M187.85 45.2808L179.582 45.1822C179.582 45.1822 179.42 44.2104 179.011 44.478C178.663 44.809 178.399 45.2179 178.241 45.671C178.083 46.1241 178.035 46.6084 178.102 47.0836C178.377 48.0624 177.495 51.5765 177.46 51.8159C177.411 52.1821 177.643 54.9215 177.643 54.9215C177.643 54.9215 179.758 55.4355 179.441 56.2313C179.124 57.0271 177.587 57.8439 177.432 58.1467C177.277 58.4496 179.779 63.7804 179.779 63.7804C179.779 63.7804 179.899 62.534 179.963 61.4988C180.026 60.4636 182.155 58.8791 183.861 59.4918C185.567 60.1045 187.195 64.0199 187.195 64.0199L187.85 45.2808Z" fill="url(#paint9_linear)"/>
<path d="M221.037 120.948C220.502 121.054 221.404 119.913 222.313 120.033C223.223 120.152 224.513 119.969 224.329 119.244C224.146 118.519 223.66 113.399 224.632 112.667C225.605 111.934 230.236 112.526 230.053 112.167C229.947 111.955 229.623 111.772 229.447 111.632C228.988 111.322 228.554 110.976 228.15 110.596C227.79 110.209 227.537 109.737 227.212 109.322C226.576 108.537 225.738 107.941 224.788 107.596C224.352 107.422 223.889 107.327 223.42 107.315C222.962 107.364 222.514 107.478 222.088 107.653C221.806 107.729 221.528 107.821 221.256 107.927C220.493 108.231 219.824 108.732 219.317 109.378C219.081 109.719 218.869 110.077 218.683 110.448C218.477 110.686 218.302 110.949 218.161 111.23C218.067 111.451 217.928 111.65 217.753 111.815C217.583 112.009 217.397 112.188 217.196 112.35C216.919 112.535 216.632 112.704 216.336 112.857C216.174 112.948 215.772 113.124 215.997 113.272C216.245 113.332 216.504 113.332 216.752 113.272C217.682 113.223 218.613 113.089 219.571 113.103C220.121 113.103 221.214 113.16 221.242 113.92C221.298 115.505 220.572 116.237 218.556 116.174C216.54 116.11 214.644 116.357 214.327 117.758C214.01 119.16 214.447 122.92 214.447 122.92L213.911 126.04C213.911 126.04 210.259 120.216 210.196 117.385C210.133 114.554 212.198 112.202 214.256 110.427C215.25 109.575 215.941 108.554 217.076 107.85C218.266 107.143 219.568 106.641 220.925 106.364C223.202 105.885 225.626 106.899 227.79 107.596C229.874 108.213 231.918 108.959 233.909 109.829C234.247 109.984 234.98 110.223 235.143 110.61C235.414 111.194 235.579 111.821 235.629 112.462C235.692 112.948 237.307 114.899 237.229 116.54C237.152 118.181 236.658 118.357 236.658 118.357L232.281 126.772C232.281 126.772 231.47 136.701 231.907 137.913C232.344 139.124 241.409 143.906 241.409 143.906C241.409 143.906 234.988 143.004 233.93 142.786C229.22 141.733 225.007 139.114 221.982 135.356C215.765 127.927 215.335 126.772 216.131 126.709C216.643 126.717 217.152 126.785 217.647 126.913C218.824 127.124 220.001 127.35 221.171 127.504C221.749 127.582 222.327 127.645 222.905 127.666C223.191 127.708 223.483 127.68 223.756 127.585C224.028 127.489 224.274 127.328 224.47 127.117C225.175 126.413 226.303 126.307 227.248 125.941C228.052 125.62 228.752 125.084 229.271 124.392C229.558 123.985 229.808 123.554 230.018 123.103C230.399 122.376 230.697 121.608 230.906 120.814C231.114 120.018 231.114 119.181 230.906 118.385C230.86 118.193 230.773 118.013 230.652 117.857C230.527 117.715 230.377 117.598 230.208 117.512C229.37 117.061 228.41 116.886 227.466 117.012C226.999 117.059 226.552 117.227 226.169 117.498C225.979 117.634 225.822 117.813 225.711 118.019C225.6 118.225 225.537 118.454 225.528 118.688C225.571 119.087 225.678 119.477 225.845 119.843C225.964 120.234 226.051 120.634 226.106 121.04L226.352 122.505C226.433 122.706 226.466 122.924 226.448 123.14C226.431 123.357 226.364 123.566 226.252 123.752C226.14 123.938 225.986 124.096 225.803 124.213C225.62 124.33 225.412 124.403 225.196 124.427C224.903 124.536 224.593 124.598 224.28 124.61C224.16 124.61 224.019 124.568 223.984 124.455C223.973 124.406 223.973 124.356 223.984 124.307C224.059 124.045 224.106 123.776 224.125 123.505C224.125 122.159 221.094 122.955 220.311 123.138C220.952 122.696 221.649 122.341 222.384 122.082C223.046 121.983 221.954 120.765 221.037 120.948Z" fill="url(#paint10_linear)"/>
<path d="M188.323 62.7451C188.372 64.3648 186.603 59.0269 186.913 56.9002C187.223 54.7735 184.051 50.9918 184.234 49.0482C184.418 47.1046 185.644 47.0342 186.06 47.2807C187.228 48.189 188.22 49.3037 188.985 50.5693C189.641 51.7508 190.218 52.9741 190.712 54.2312C190.825 54.9002 188.111 55.5481 188.323 62.7451Z" fill="#3D8060"/>
<path d="M272.806 189.102C272.362 189.7 273.779 191.566 274.3 192.39C274.822 193.214 275.823 194.855 276.337 194.855C276.852 194.855 277.987 194.031 277.987 193.764C277.407 192.715 276.754 191.708 276.034 190.75C275.548 190.017 273.504 188.158 272.806 189.102Z" fill="#3D8060"/>
<path d="M273.905 186.398C273.602 187.102 275.513 188.679 276.239 189.398C276.965 190.116 278.403 191.545 278.931 191.419C279.46 191.292 280.419 190.179 280.341 189.898C280.264 189.616 278.29 187.919 277.606 187.292C276.922 186.665 274.392 185.257 273.905 186.398Z" fill="#3D8060"/>
<path d="M276.133 183.679C275.823 184.384 277.768 186.01 278.516 186.743C279.263 187.475 280.722 188.933 281.265 188.806C281.807 188.679 282.773 187.538 282.71 187.25C282.646 186.961 280.595 185.236 279.89 184.595C279.185 183.954 276.633 182.524 276.133 183.679Z" fill="#3D8060"/>
<path d="M278.699 179.947C278.283 180.651 279.982 182.482 280.623 183.313C281.265 184.144 282.491 185.799 283.048 185.743C283.605 185.686 284.726 184.707 284.698 184.412C284.669 184.116 282.907 182.116 282.315 181.384C281.723 180.651 279.333 178.87 278.699 179.947Z" fill="#3D8060"/>
<path d="M177.474 51.7384C177.204 51.617 176.965 51.434 176.778 51.2042C176.591 50.9743 176.46 50.7039 176.396 50.4145C176.36 49.9222 176.488 49.432 176.76 49.0196C177.031 48.6072 177.431 48.2956 177.897 48.1329C178.905 47.8582 183.262 48.1329 183.353 49.0483C183.392 49.2866 183.373 49.5307 183.296 49.7598C183.22 49.9889 183.089 50.1961 182.916 50.3636C182.742 50.5312 182.53 50.6541 182.298 50.7218C182.066 50.7895 181.821 50.8001 181.584 50.7525C178.13 50.5342 177.841 51.7736 177.474 51.7384Z" fill="#3D8060"/>
<path d="M177.277 51.8159C177.686 51.4708 181.238 51.999 182.211 52.2736C183.184 52.5483 184.841 52.9426 185.101 53.2736C185.468 53.7313 185.376 54.8862 184.862 55.013C182.454 55.1345 180.04 55.1039 177.636 54.9214C177.192 54.7383 175.973 52.9144 177.277 51.8159Z" fill="#3D8060"/>
<path d="M177.587 55.1397C177.89 54.8157 180.611 55.4284 181.422 55.5974C182.167 55.6892 182.885 55.9286 183.536 56.3016C183.868 56.6678 183.882 57.6678 183.466 57.8086C181.471 58.0438 179.462 58.1473 177.453 58.1185C177.072 58.0199 176.6 56.1678 177.587 55.1397Z" fill="#3D8060"/>
<path d="M264.234 335.888H178.391V348.493H264.234V335.888Z" fill="#3D8060"/>
<path d="M186.596 200.418C186.102 201.954 186.335 203.996 186.793 205.89C188.844 208.285 192.933 207.503 193.306 209.024C193.306 207.932 193.687 204.517 196.471 196.172C198.276 190.757 209.505 181.848 216.681 174.708C223.667 167.743 226.634 162.476 226.634 162.476C226.634 162.476 224.111 165.708 213.685 173.377C203.26 181.046 187.829 196.581 186.596 200.418Z" fill="#3D8060"/>
<path d="M215.257 192.088C213.105 197.177 210.859 202.226 208.518 207.235C206.152 212.527 203.38 217.629 200.229 222.495C198.618 224.919 196.807 227.204 194.815 229.326C193.109 231.122 191.149 232.39 190.106 234.636C191.248 237.34 192.446 239.939 193.419 242.706C195.217 241.509 196.542 237.72 197.543 235.749C198.784 233.291 199.933 230.819 201.067 228.284C203.295 223.249 205.36 218.143 207.672 213.144C211.091 205.721 215.032 198.559 218.542 191.186C220.262 187.56 222.017 183.947 223.476 180.208C224.232 178.321 224.886 176.396 225.436 174.44C225.781 173.194 227.05 169.94 226.359 168.806C222.454 172.482 220.558 179.032 218.606 183.884C217.511 186.635 216.394 189.369 215.257 192.088Z" fill="#3D8060"/>
<path d="M287.39 176.863C286.798 179.299 285.332 181.384 283.739 183.384L283.894 183.306C284.224 183.639 284.485 184.034 284.662 184.468C284.923 185.13 286.002 187.468 285.896 187.729C285.79 187.989 280.574 198.595 279.7 199.418C278.875 200.123 273.786 201.292 272.834 201.531C272.834 201.193 272.89 200.911 272.912 200.658L272.679 201.552C272.73 201.557 272.782 201.557 272.834 201.552C272.319 206.792 270.719 220.841 267.695 223.129C265.413 224.702 263.043 226.143 260.597 227.446C257.925 228.911 255.352 230.263 253.964 230.967L253.322 221.334L248.613 149.786C248.956 150.295 249.265 150.827 249.537 151.377C250.03 152.405 250.77 156.081 251.701 161.581L264.861 175.243L255.839 189.94C256.381 193.89 256.917 198.003 257.46 202.137L262.394 201.32C266.624 190.989 273.426 181.82 281.342 173.905C282.477 172.75 283.964 171.546 285.508 171.982C285.968 172.138 286.382 172.404 286.715 172.758C287.047 173.112 287.286 173.542 287.411 174.011C287.661 174.946 287.654 175.931 287.39 176.863Z" fill="url(#paint11_linear)"/>
<path d="M264.601 267.41C263.522 268.776 260.484 270.29 260.484 272.058C260.484 273.826 262.007 305.071 261.464 305.607C260.921 306.142 258.017 307.015 258.017 307.536C258.017 308.057 261.055 335.895 259.814 335.895H235.848C231.477 335.895 225.824 336.874 221.58 335.895C217.823 335.05 218.472 336.099 219.007 331.838C219.162 330.606 222.631 320.789 220.882 320.149L214.898 317.937C214.453 317.818 214.046 317.587 213.713 317.268C212.783 316.191 213.84 314.599 214.87 313.628C221.16 307.494 227.133 301.044 232.767 294.304C234.973 291.684 238.836 288.705 237.293 285.149C236.207 282.579 230.476 282.452 230.244 279.368L236.285 165.567L248.388 267.283C252.709 264.896 256.078 263.093 256.078 263.093L253.964 230.911C255.373 230.207 257.925 228.883 260.597 227.39C263.191 248.995 265.045 266.847 264.601 267.41Z" fill="url(#paint12_linear)"/>
<path d="M192.08 272.037C192.08 272.079 195.837 271.121 196.063 271.037C198.939 269.966 201.906 268.107 203.485 265.403C205.53 261.952 206.798 257.953 208.913 254.432C211.099 250.79 213.58 247.332 216.329 244.094C219.423 240.446 222.884 237.052 225.281 232.904C226.814 230.121 227.998 227.16 228.806 224.087C230.689 217.022 232.023 209.823 232.795 202.552C232.908 201.616 234.981 187.764 234.579 187.658C235.615 188.031 234.015 203.447 233.951 204.693C233.437 214.756 232.859 224.826 232.069 234.883C231.815 238.045 231.59 241.221 231.174 244.375C231.089 245.009 231.174 246.488 230.765 247.009C229.637 248.53 226.24 247.58 224.202 249.122C222.568 250.512 221.245 252.23 220.318 254.164C214.961 264.079 212.219 275.558 204.684 284.213C202.054 287.22 199.51 289.98 195.865 286.466C192.221 282.952 191.77 276.706 192.08 272.037Z" fill="url(#paint13_linear)"/>
<path d="M186.596 200.418C186.102 201.954 186.335 203.996 186.793 205.89C188.844 208.285 192.933 207.503 193.306 209.024C193.306 207.932 193.687 204.517 196.471 196.172C198.276 190.757 209.505 181.848 216.681 174.708C223.667 167.743 226.634 162.476 226.634 162.476C226.634 162.476 224.111 165.708 213.685 173.377C203.26 181.046 187.829 196.581 186.596 200.418Z" fill="url(#paint14_linear)"/>
<path d="M215.257 192.088C213.105 197.177 210.859 202.226 208.518 207.235C206.152 212.527 203.38 217.629 200.229 222.495C198.618 224.919 196.807 227.204 194.815 229.326C193.109 231.122 191.149 232.39 190.106 234.636C191.248 237.34 192.446 239.939 193.419 242.706C195.217 241.509 196.542 237.72 197.543 235.749C198.784 233.291 199.933 230.819 201.067 228.284C203.295 223.249 205.36 218.143 207.672 213.144C211.091 205.721 215.032 198.559 218.542 191.186C220.262 187.56 222.017 183.947 223.476 180.208C224.232 178.321 224.886 176.396 225.436 174.44C225.781 173.194 227.05 169.94 226.359 168.806C222.454 172.482 220.558 179.032 218.606 183.884C217.511 186.635 216.394 189.369 215.257 192.088Z" fill="url(#paint15_linear)"/>
<path d="M177.552 48.4497C177.552 48.4497 176.41 46.8512 176.593 45.6329C176.776 44.4146 178.785 41.2527 179.244 41.3442C179.702 41.4358 180.202 43.0766 180.019 43.9428C179.836 44.8089 179.053 46.1822 179.074 46.6822C179.096 47.1821 179.138 48.0906 179.138 48.0906L177.552 48.4497Z" fill="#3D8060"/>
<path d="M192.214 149.096C192.561 151.236 192.542 153.419 192.157 155.553C191.142 161.187 191.981 165.976 196.168 170.215C196.356 170.454 196.591 170.653 196.86 170.797C197.128 170.941 197.423 171.028 197.726 171.053C198.176 170.991 198.593 170.786 198.918 170.468C203.443 166.687 203.781 159.976 203.753 154.088C203.753 147.863 203.73 141.64 203.683 135.42C203.683 134.3 205.424 122.934 204.966 122.469C203.232 120.758 201.864 119.448 201.864 119.448C201.864 119.448 202.717 114.519 201.483 112.554C201.483 112.554 201.314 112.174 201.314 112.167C201.314 112.16 198.107 127.244 196.338 131.117C193.581 137.166 188.457 139.187 188.936 140.068C190.538 142.867 191.647 145.921 192.214 149.096Z" fill="url(#paint16_linear)"/>
</g>
<defs>
<linearGradient id="paint0_linear" x1="91.1655" y1="241.418" x2="352.903" y2="555.123" gradientUnits="userSpaceOnUse">
<stop stop-color="#010101" stop-opacity="0"/>
<stop offset="0.95" stop-color="#010101"/>
</linearGradient>
<linearGradient id="paint1_linear" x1="44505.2" y1="46966.3" x2="74159.8" y2="81901.7" gradientUnits="userSpaceOnUse">
<stop stop-color="#010101" stop-opacity="0"/>
<stop offset="0.95" stop-color="#010101"/>
</linearGradient>
<linearGradient id="paint2_linear" x1="3670.38" y1="2199.99" x2="2526.46" y2="4457.93" gradientUnits="userSpaceOnUse">
<stop stop-color="#010101" stop-opacity="0"/>
<stop offset="0.95" stop-color="#010101"/>
</linearGradient>
<linearGradient id="paint3_linear" x1="3711.01" y1="3704.34" x2="1479.88" y2="6234.54" gradientUnits="userSpaceOnUse">
<stop stop-color="#010101" stop-opacity="0"/>
<stop offset="0.95" stop-color="#010101"/>
</linearGradient>
<linearGradient id="paint4_linear" x1="6073.64" y1="6960.82" x2="1894.65" y2="7732.78" gradientUnits="userSpaceOnUse">
<stop stop-color="#010101" stop-opacity="0"/>
<stop offset="0.95" stop-color="#010101"/>
</linearGradient>
<linearGradient id="paint5_linear" x1="4709.93" y1="-38.1101" x2="299.281" y2="1860.23" gradientUnits="userSpaceOnUse">
<stop stop-color="#010101" stop-opacity="0"/>
<stop offset="0.95" stop-color="#010101"/>
</linearGradient>
<linearGradient id="paint6_linear" x1="10433.4" y1="2554.61" x2="10398.2" y2="4571.49" gradientUnits="userSpaceOnUse">
<stop stop-color="#010101" stop-opacity="0"/>
<stop offset="0.95" stop-color="#010101"/>
</linearGradient>
<linearGradient id="paint7_linear" x1="207.82" y1="235.967" x2="353.308" y2="183.44" gradientUnits="userSpaceOnUse">
<stop stop-color="white" stop-opacity="0"/>
<stop offset="0.95" stop-color="white"/>
</linearGradient>
<linearGradient id="paint8_linear" x1="6237.88" y1="249.494" x2="5968.77" y2="1394.94" gradientUnits="userSpaceOnUse">
<stop stop-color="#010101" stop-opacity="0"/>
<stop offset="0.95" stop-color="#010101"/>
</linearGradient>
<linearGradient id="paint9_linear" x1="3586.74" y1="1035.02" x2="1646.73" y2="2004.55" gradientUnits="userSpaceOnUse">
<stop stop-color="#010101" stop-opacity="0"/>
<stop offset="0.95" stop-color="#010101"/>
</linearGradient>
<linearGradient id="paint10_linear" x1="12327.1" y1="5332.71" x2="8397.75" y2="10764.2" gradientUnits="userSpaceOnUse">
<stop stop-color="#010101" stop-opacity="0"/>
<stop offset="0.95" stop-color="#010101"/>
</linearGradient>
<linearGradient id="paint11_linear" x1="16935.6" y1="12464.2" x2="8039.2" y2="75988.3" gradientUnits="userSpaceOnUse">
<stop stop-color="#010101" stop-opacity="0"/>
<stop offset="0.95" stop-color="#010101"/>
</linearGradient>
<linearGradient id="paint12_linear" x1="19520.4" y1="56240.6" x2="35166.7" y2="126757" gradientUnits="userSpaceOnUse">
<stop stop-color="#010101" stop-opacity="0"/>
<stop offset="0.95" stop-color="#010101"/>
</linearGradient>
<linearGradient id="paint13_linear" x1="15545" y1="14949.3" x2="3237.96" y2="93159.8" gradientUnits="userSpaceOnUse">
<stop stop-color="#010101" stop-opacity="0"/>
<stop offset="0.95" stop-color="#010101"/>
</linearGradient>
<linearGradient id="paint14_linear" x1="14010.9" y1="6956.67" x2="11144.6" y2="43872.8" gradientUnits="userSpaceOnUse">
<stop stop-color="#010101" stop-opacity="0"/>
<stop offset="0.95" stop-color="#010101"/>
</linearGradient>
<linearGradient id="paint15_linear" x1="12855.3" y1="10977.4" x2="4966.2" y2="68863.3" gradientUnits="userSpaceOnUse">
<stop stop-color="#010101" stop-opacity="0"/>
<stop offset="0.95" stop-color="#010101"/>
</linearGradient>
<linearGradient id="paint16_linear" x1="4904.7" y1="10145.2" x2="10741.1" y2="11472.4" gradientUnits="userSpaceOnUse">
<stop stop-color="#010101" stop-opacity="0"/>
<stop offset="0.95" stop-color="#010101"/>
</linearGradient>
<clipPath id="clip0">
<rect width="305" height="350" fill="white"/>
</clipPath>
</defs>
</svg>
