<svg width="365" height="294" viewBox="0 0 365 294" fill="none" xmlns="http://www.w3.org/2000/svg">
<g clip-path="url(#clip0)">
<path opacity="0.24" d="M417.985 193.321C417.836 212.689 415.286 232.431 407.333 249.724C402.277 260.66 395.137 270.508 386.312 278.717C365.598 298.287 336.847 308.883 309.047 312.205C269.741 316.902 229.98 310.234 190.45 312.302C165.781 313.602 141.284 318.276 116.586 318.925C91.8872 319.575 66.2243 315.782 45.2559 301.558C37.2897 296.088 30.2277 289.41 24.3248 281.764C16.6671 271.898 10.6913 260.838 6.63813 249.03C-9.11994 203.617 3.89466 148.162 37.7506 116.593C51.1091 104.123 67.0241 95.3798 82.8345 86.9275C115.913 69.3135 171.455 -53.4466 301.594 27.1938C327.01 42.9859 340.174 75.3242 362.645 95.7905C382.656 114.009 405.352 131.832 413.814 158.72C417.312 169.778 418.067 181.65 417.985 193.321Z" fill="#3D8060"/>
<path opacity="0.24" d="M386.312 278.717C365.598 298.287 336.847 308.883 309.047 312.205C269.741 316.902 229.98 310.234 190.45 312.302C165.781 313.602 141.284 318.276 116.586 318.925C91.8872 319.575 66.2243 315.782 45.2559 301.558C37.2897 296.088 30.2276 289.41 24.3248 281.763C26.3378 281.251 28.3798 280.86 30.4397 280.591C71.8981 274.991 113.857 274.319 155.689 273.67L269.891 271.87C282.546 271.669 295.262 271.467 307.873 272.691C324.005 274.245 339.845 278.09 355.984 279.538C366.218 280.472 376.228 278.978 386.312 278.717Z" fill="#3D8060"/>
<path d="M314.376 281.137C237.172 276.874 159.793 276.805 82.5804 280.927C69.5359 281.622 56.2596 282.488 44.0748 287.2C50.0551 292.658 58.9507 293.091 67.054 293.225C126.433 294.181 185.818 294.445 245.207 294.017C248.69 294.017 253.505 292.471 252.817 289.051C252.608 288.021 251.853 287.095 251.912 286.065C252.024 284.161 254.461 283.474 256.398 283.384C261.55 283.118 266.717 283.393 271.812 284.205C273.658 284.511 275.632 284.952 276.85 286.371C277.807 287.476 278.128 288.977 278.824 290.253C281.111 294.427 286.822 295.338 291.532 294.42C296.241 293.501 300.622 291.284 305.384 291.045C309.577 290.828 313.674 292.18 317.77 293.128C331.159 296.219 345.115 295.077 358.803 293.92C373.006 292.717 373.305 282.914 359.146 282.13C344.285 281.331 329.267 281.965 314.376 281.137Z" fill="url(#paint0_linear)"/>
<path d="M367.257 179.477L360.851 144.533H369.649C369.649 144.533 371.668 172.488 372.639 180.067L367.257 179.477Z" fill="#F5C7C8"/>
<path d="M372.191 177.558C372.191 177.558 373.425 183.009 372.699 186.048C371.974 189.087 368.962 192.626 367.257 192.835C365.553 193.044 364.506 192.208 364.633 191.051C364.761 189.893 369.119 185.779 368.446 184.473C367.773 183.166 366.054 187.138 365.456 186.175C364.858 185.212 365.112 183.718 366.614 181.829C368.117 179.94 366.614 177.304 366.614 177.304C366.614 177.304 371.13 175.303 372.191 177.558Z" fill="#F5C7C8"/>
<path d="M355.02 72.091C356.851 70.7396 360.574 71.2025 362.421 71.9417C363.753 72.4845 364.942 73.3256 365.897 74.4001C366.852 75.4745 367.548 76.7537 367.93 78.1391C368.262 79.438 368.359 80.786 368.214 82.1188C367.945 85.0532 366.682 88.0175 364.297 89.7647C359.303 93.4085 356.224 90.0261 354.743 85.4788C353.8 82.9069 353.498 80.1445 353.861 77.4297C354.13 75.3764 353.189 73.7561 354.781 72.2852L355.02 72.091Z" fill="#606161"/>
<path d="M355.02 72.091C356.851 70.7396 360.574 71.2025 362.421 71.9417C363.753 72.4845 364.942 73.3256 365.897 74.4001C366.852 75.4745 367.548 76.7537 367.93 78.1391C368.262 79.438 368.359 80.786 368.214 82.1188C367.945 85.0532 366.682 88.0175 364.297 89.7647C359.303 93.4085 356.224 90.0261 354.743 85.4788C353.8 82.9069 353.498 80.1445 353.861 77.4297C354.13 75.3764 353.189 73.7561 354.781 72.2852L355.02 72.091Z" fill="url(#paint1_linear)"/>
<path d="M344.555 97.7093C352.201 97.7093 358.399 89.9871 358.399 80.4612C358.399 70.9354 352.201 63.2131 344.555 63.2131C336.909 63.2131 330.71 70.9354 330.71 80.4612C330.71 89.9871 336.909 97.7093 344.555 97.7093Z" fill="#606161"/>
<path d="M300.622 128.046C300.622 128.046 298.08 123.566 296.981 122.902C295.882 122.237 293.931 120.393 293.363 120.811C292.339 121.558 296.75 125.47 292.818 125.179C292.197 125.127 289.042 125.179 287.518 126.605C287.218 126.889 286.983 127.233 286.826 127.614C286.669 127.996 286.595 128.406 286.609 128.818C286.622 129.229 286.723 129.634 286.904 130.004C287.085 130.374 287.342 130.702 287.66 130.966C288.691 131.668 292.234 131.996 294.148 131.937C296.062 131.877 298.304 132.153 299.605 132.937" fill="#F5C7C8"/>
<path d="M327.75 109.036C327.75 109.036 325.933 114.741 325.754 117.825C325.575 120.908 324.124 133.863 323.638 134.498C323.153 135.133 299.889 127.233 299.889 127.233C299.889 127.233 298.484 129.211 299.605 132.937C299.605 132.937 316.881 148.55 327.339 149.162C337.797 149.775 336.451 125.038 336.451 125.038" fill="#F5C7C8"/>
<path d="M348.21 271.833L346.289 276.171C347.425 275.783 352.867 280.151 355.319 280.158C356.931 280.091 358.483 279.524 359.759 278.538L358.219 270.675L355.476 231.751L340.727 233.887L348.21 271.833Z" fill="#F5C7C8"/>
<path d="M319.781 271.512L316.948 274.163C318.144 274.073 322.323 279.658 324.7 280.278C326.28 280.614 327.925 280.452 329.409 279.815L329.873 271.811L332.863 235.784L318.323 237.21L319.781 271.512Z" fill="#F5C7C8"/>
<path d="M349.967 91.9673L350.557 104.496C349.9 105.452 348.999 106.216 347.948 106.708C346.897 107.2 345.733 107.403 344.577 107.296C338.522 106.624 338.784 104.832 338.784 104.832C338.784 104.832 338.784 95.7902 338.544 93.7668" fill="#F5C7C8"/>
<path d="M348.524 96.0443L349.922 93.5205L338.552 94.7824C338.641 95.5291 338.701 97.3509 338.731 99.2624C340.497 99.7859 342.381 99.7583 344.131 99.1832C345.882 98.6081 347.414 97.513 348.524 96.0443Z" fill="#DBB4AF"/>
<path d="M358.922 182.658C358.922 182.658 360.746 217.124 363.176 245.02C363.176 245.02 329.806 249.821 316.178 244.482C316.178 244.482 319.108 188.9 319.721 180.926L358.922 182.658Z" fill="#606161"/>
<path d="M358.922 182.658C358.922 182.658 360.746 217.124 363.176 245.02C363.176 245.02 329.806 249.821 316.178 244.482C316.178 244.482 319.108 188.9 319.721 180.926L358.922 182.658Z" fill="url(#paint2_linear)"/>
<path d="M358.93 108.312C358.93 108.312 358.87 105.848 350.325 105.773C344.098 105.714 341.923 105.206 337.498 106.05C329.424 107.588 328.527 108.088 327.294 109.133C324.371 111.65 319.415 179.32 319.415 179.32C319.415 179.32 314.459 187.444 340.122 190.058C349.615 191.028 358.81 184.458 358.81 184.458L358.93 108.312Z" fill="#3D8060"/>
<path d="M354.691 71.6803C354.691 71.6803 354.19 87.7263 349.518 93.2143C344.592 99.0085 341.789 99.7178 335.808 97.3509C330.725 95.3274 330.12 81.4319 329.948 77.4297C329.507 67.0435 345.444 58.0984 354.691 71.6803Z" fill="#F5C7C8"/>
<path d="M358.406 119.303L358.78 184.428L352.882 187.825L351.828 130.301L358.406 119.303Z" fill="url(#paint3_linear)"/>
<path d="M353.443 102.988L353.555 105.923C353.563 106.156 353.504 106.387 353.385 106.588C353.265 106.789 353.091 106.952 352.882 107.058C352.882 107.058 348.277 108.618 340.301 109.036L334.44 107.543C334.229 107.455 334.047 107.31 333.915 107.124C333.783 106.937 333.706 106.718 333.693 106.49L333.611 105.034C333.593 104.721 333.695 104.414 333.897 104.174C334.098 103.934 334.383 103.78 334.694 103.742L352.045 101.779C352.218 101.755 352.395 101.769 352.562 101.819C352.73 101.869 352.885 101.954 353.017 102.068C353.149 102.183 353.256 102.324 353.329 102.483C353.402 102.641 353.441 102.813 353.443 102.988Z" fill="#3D8060"/>
<path d="M353.443 102.988L353.555 105.923C353.563 106.156 353.504 106.387 353.385 106.588C353.265 106.789 353.091 106.952 352.882 107.058C352.882 107.058 348.277 108.618 340.301 109.036L334.44 107.543C334.229 107.455 334.047 107.31 333.915 107.124C333.783 106.937 333.706 106.718 333.693 106.49L333.611 105.034C333.593 104.721 333.695 104.414 333.897 104.174C334.098 103.934 334.383 103.78 334.694 103.742L352.045 101.779C352.218 101.755 352.395 101.769 352.562 101.819C352.73 101.869 352.885 101.954 353.017 102.068C353.149 102.183 353.256 102.324 353.329 102.483C353.402 102.641 353.441 102.813 353.443 102.988Z" fill="url(#paint4_linear)"/>
<path d="M352.837 81.8574C352.837 81.8574 353.091 79.4382 355.476 80.4835C357.861 81.5289 355.618 85.7102 354.691 86.8825C353.764 88.0548 351.985 87.6814 351.985 87.6814" fill="#F5C7C8"/>
<path d="M356.605 70.7097L357.554 74.5028H355.999L354.691 68.7161L356.605 70.7097Z" fill="#3D8060"/>
<path d="M358.608 107.64C358.608 107.64 362.122 110.94 368.588 126.434C371.227 132.765 373.432 144.555 373.432 144.555C373.432 144.555 364.417 149.177 359.102 149.177C356.724 135.401 351.013 130.062 349.952 123.708C348.89 117.354 355.394 106.415 358.608 107.64Z" fill="#3D8060"/>
<path d="M312.538 274.931C309.933 275.666 307.633 277.216 305.974 279.352C305.314 280.193 304.912 281.207 304.816 282.271C304.776 282.802 304.882 283.334 305.123 283.809C305.364 284.285 305.731 284.685 306.184 284.967C306.813 285.246 307.498 285.379 308.187 285.355C314.574 285.624 320.972 285.512 327.346 285.019C327.614 285.034 327.882 284.99 328.131 284.89C328.38 284.791 328.605 284.639 328.789 284.444C328.958 284.107 329.021 283.727 328.968 283.354L328.789 279.352C328.82 278.904 328.705 278.459 328.46 278.082C327.75 277.216 326.367 277.94 325.253 277.881C323.011 277.761 322.442 274.976 320.596 274.207C318.488 273.326 314.646 274.289 312.538 274.931Z" fill="#3D8060"/>
<path d="M343.657 274.7C341.05 275.429 338.748 276.98 337.094 279.12C336.431 279.96 336.025 280.974 335.928 282.04C335.889 282.571 335.997 283.102 336.24 283.576C336.482 284.05 336.85 284.448 337.303 284.728C337.933 285.01 338.618 285.145 339.307 285.124C345.694 285.394 352.092 285.279 358.466 284.78C358.693 284.832 358.93 284.825 359.153 284.759C359.377 284.693 359.579 284.572 359.742 284.405C359.905 284.239 360.022 284.034 360.083 283.809C360.143 283.584 360.145 283.348 360.088 283.123L359.909 279.113C359.94 278.668 359.824 278.225 359.58 277.851C358.87 276.985 357.487 277.709 356.366 277.649C354.123 277.53 353.562 274.745 351.716 273.968C349.57 273.087 345.736 274.051 343.657 274.7Z" fill="#3D8060"/>
<path d="M312.538 274.931C309.933 275.666 307.633 277.216 305.974 279.352C305.314 280.193 304.912 281.207 304.816 282.271C304.776 282.802 304.882 283.334 305.123 283.809C305.364 284.285 305.731 284.685 306.184 284.967C306.813 285.246 307.498 285.379 308.187 285.355C314.574 285.624 320.972 285.512 327.346 285.019C327.614 285.034 327.882 284.99 328.131 284.89C328.38 284.791 328.605 284.639 328.789 284.444C328.958 284.107 329.021 283.727 328.968 283.354L328.789 279.352C328.82 278.904 328.705 278.459 328.46 278.082C327.75 277.216 326.367 277.94 325.253 277.881C323.011 277.761 322.442 274.976 320.596 274.207C318.488 273.326 314.646 274.289 312.538 274.931Z" fill="url(#paint5_linear)"/>
<path d="M343.657 274.7C341.05 275.429 338.748 276.98 337.094 279.12C336.431 279.96 336.025 280.974 335.928 282.04C335.889 282.571 335.997 283.102 336.24 283.576C336.482 284.05 336.85 284.448 337.303 284.728C337.933 285.01 338.618 285.145 339.307 285.124C345.694 285.394 352.092 285.279 358.466 284.78C358.693 284.832 358.93 284.825 359.153 284.759C359.377 284.693 359.579 284.572 359.742 284.405C359.905 284.239 360.022 284.034 360.083 283.809C360.143 283.584 360.145 283.348 360.088 283.123L359.909 279.113C359.94 278.668 359.824 278.225 359.58 277.851C358.87 276.985 357.487 277.709 356.366 277.649C354.123 277.53 353.562 274.745 351.716 273.968C349.57 273.087 345.736 274.051 343.657 274.7Z" fill="url(#paint6_linear)"/>
<path d="M330.284 67.9469C330.037 68.3874 329.806 68.8503 329.574 69.3431C328.944 70.6443 328.643 72.0802 328.699 73.5245C328.699 74.1218 329.858 76.9741 329.746 77.2056C331.287 74.1344 333.571 71.4961 336.392 69.5298C337.453 71.9266 340.032 73.2109 342.372 74.3384C344.712 75.4658 347.306 76.8472 348.218 79.3112C348.853 80.9987 348.614 83.0446 349.713 84.4707C352.426 84.1048 353.017 79.7293 355.693 79.244C356.179 79.1544 356.687 79.244 357.188 79.1096C357.793 78.9319 358.327 78.5675 358.712 78.0686C359.097 77.5697 359.315 76.9618 359.333 76.332C359.752 70.6797 352.89 65.4306 348.307 63.5415C346.186 62.6441 343.906 62.1816 341.602 62.1816C339.298 62.1816 337.018 62.6441 334.896 63.5415C332.893 64.4292 331.262 65.9871 330.284 67.9469Z" fill="#606161"/>
<path d="M330.284 67.9469C330.037 68.3874 329.806 68.8503 329.574 69.3431C328.944 70.6443 328.643 72.0802 328.699 73.5245C328.699 74.1218 329.858 76.9741 329.746 77.2056C331.287 74.1344 333.571 71.4961 336.392 69.5298C337.453 71.9266 340.032 73.2109 342.372 74.3384C344.712 75.4658 347.306 76.8472 348.218 79.3112C348.853 80.9987 348.614 83.0446 349.713 84.4707C352.426 84.1048 353.017 79.7293 355.693 79.244C356.179 79.1544 356.687 79.244 357.188 79.1096C357.793 78.9319 358.327 78.5675 358.712 78.0686C359.097 77.5697 359.315 76.9618 359.333 76.332C359.752 70.6797 352.89 65.4306 348.307 63.5415C346.186 62.6441 343.906 62.1816 341.602 62.1816C339.298 62.1816 337.018 62.6441 334.896 63.5415C332.893 64.4292 331.262 65.9871 330.284 67.9469Z" fill="url(#paint7_linear)"/>
<path d="M211.837 41.2908H74.4023C67.8049 41.2908 62.4567 46.6328 62.4567 53.2226V275.641C62.4567 282.231 67.8049 287.573 74.4023 287.573H211.837C218.434 287.573 223.783 282.231 223.783 275.641V53.2226C223.783 46.6328 218.434 41.2908 211.837 41.2908Z" fill="#3D8060"/>
<path d="M216.419 41.2908H78.9847C72.3873 41.2908 67.0391 46.6328 67.0391 53.2226V275.641C67.0391 282.231 72.3873 287.573 78.9847 287.573H216.419C223.017 287.573 228.365 282.231 228.365 275.641V53.2226C228.365 46.6328 223.017 41.2908 216.419 41.2908Z" fill="#3D8060"/>
<path d="M216.419 41.2908H78.9847C72.3873 41.2908 67.0391 46.6328 67.0391 53.2226V275.641C67.0391 282.231 72.3873 287.573 78.9847 287.573H216.419C223.017 287.573 228.365 282.231 228.365 275.641V53.2226C228.365 46.6328 223.017 41.2908 216.419 41.2908Z" fill="url(#paint8_linear)"/>
<path d="M79.366 182.964L83.5895 53.2524L205.7 55.8285C205.7 55.8285 189.732 190.468 201.005 225.218C212.278 259.968 214.154 273.005 214.154 273.005L82.1842 276.738L79.366 182.964Z" fill="url(#paint9_linear)"/>
<path d="M236.109 261.536L102.614 262.947C102.614 262.947 88.8895 183.3 86.5048 156.599C84.1651 130.876 83.6268 53.2524 83.6268 53.2524H211.104C211.104 53.2524 211.426 128.479 213.683 153.403C216.18 180.903 236.109 261.536 236.109 261.536Z" fill="white"/>
<path d="M295.688 51.8413L286.605 31.2481L285.858 29.5009C285.832 29.4449 285.787 29.4 285.731 29.374C285.684 29.3255 285.625 29.2896 285.56 29.2692C285.496 29.2489 285.427 29.2448 285.36 29.2574C285.294 29.2699 285.231 29.2987 285.179 29.3412C285.126 29.3837 285.084 29.4386 285.058 29.5009L275.221 51.8413C275.019 52.3133 274.917 52.8216 274.922 53.3346V269.048H295.987V53.3421C295.992 52.8266 295.89 52.3156 295.688 51.8413ZM295.815 268.921H275.041V264.344H295.815V268.921Z" fill="#3D8060"/>
<path d="M292.362 53.3423V264.344H279.452V53.3124C279.442 52.8092 279.5 52.307 279.623 51.8191L285.656 29.4787C285.655 29.4324 285.671 29.3874 285.701 29.3517C285.828 29.1501 286.052 29.2024 286.127 29.4787L286.606 31.2259L292.16 51.8191C292.295 52.3154 292.363 52.8278 292.362 53.3423Z" fill="url(#paint10_linear)"/>
<path d="M279.452 268.921H292.362V284.467C292.362 286.512 291.33 288.163 290.082 288.163H281.702C280.446 288.163 279.459 286.512 279.459 284.467L279.452 268.921Z" fill="url(#paint11_linear)"/>
<path d="M295.987 53.3421C292.706 54.9404 289.104 55.7711 285.454 55.7711C281.804 55.7711 278.202 54.9404 274.922 53.3421L281.126 39.7975L285.828 29.5308L289.88 39.0508L295.987 53.3421Z" fill="url(#paint12_linear)"/>
<path d="M289.88 39.021C287.143 40.3015 284.04 40.5662 281.126 39.7677L285.828 29.501L289.88 39.021Z" fill="#3D8060"/>
<path d="M289.88 39.021C286.89 40.5143 283.152 40.2605 280.625 39.6631L285.35 28.6199L289.88 39.021Z" fill="url(#paint13_linear)"/>
<path d="M161.087 79.5205H98.159C96.9906 79.5205 96.0435 80.4649 96.0435 81.6298C96.0435 82.7948 96.9906 83.7392 98.159 83.7392H161.087C162.255 83.7392 163.202 82.7948 163.202 81.6298C163.202 80.4649 162.255 79.5205 161.087 79.5205Z" fill="#3D8060"/>
<path d="M161.087 86.793H98.159C96.9906 86.793 96.0435 87.7374 96.0435 88.9023C96.0435 90.0673 96.9906 91.0117 98.159 91.0117H161.087C162.255 91.0117 163.202 90.0673 163.202 88.9023C163.202 87.7374 162.255 86.793 161.087 86.793Z" fill="#3D8060"/>
<path d="M161.087 94.0657H98.159C96.9906 94.0657 96.0435 95.0101 96.0435 96.175C96.0435 97.34 96.9906 98.2844 98.159 98.2844H161.087C162.255 98.2844 163.202 97.34 163.202 96.175C163.202 95.0101 162.255 94.0657 161.087 94.0657Z" fill="#3D8060"/>
<path d="M161.468 101.338H119.755C118.798 101.338 118.021 102.114 118.021 103.07V103.825C118.021 104.781 118.798 105.557 119.755 105.557H161.468C162.426 105.557 163.202 104.781 163.202 103.825V103.07C163.202 102.114 162.426 101.338 161.468 101.338Z" fill="#3D8060"/>
<path d="M161.789 125.612H98.8617C97.6934 125.612 96.7462 126.557 96.7462 127.722C96.7462 128.887 97.6934 129.831 98.8617 129.831H161.789C162.958 129.831 163.905 128.887 163.905 127.722C163.905 126.557 162.958 125.612 161.789 125.612Z" fill="#3D8060"/>
<path d="M161.789 132.885H98.8617C97.6934 132.885 96.7462 133.829 96.7462 134.994C96.7462 136.159 97.6934 137.104 98.8617 137.104H161.789C162.958 137.104 163.905 136.159 163.905 134.994C163.905 133.829 162.958 132.885 161.789 132.885Z" fill="#3D8060"/>
<path d="M161.789 140.15H98.8617C97.6934 140.15 96.7462 141.095 96.7462 142.259C96.7462 143.424 97.6934 144.369 98.8617 144.369H161.789C162.958 144.369 163.905 143.424 163.905 142.259C163.905 141.095 162.958 140.15 161.789 140.15Z" fill="#3D8060"/>
<path d="M162.171 147.423H120.458C119.5 147.423 118.724 148.198 118.724 149.155V149.909C118.724 150.866 119.5 151.641 120.458 151.641H162.171C163.128 151.641 163.905 150.866 163.905 149.909V149.155C163.905 148.198 163.128 147.423 162.171 147.423Z" fill="#3D8060"/>
<path d="M166.581 173.81H103.646C103.063 173.792 102.504 173.571 102.067 173.185C101.63 172.799 101.343 172.273 101.254 171.697C101.208 171.434 101.222 171.164 101.294 170.906C101.365 170.649 101.494 170.411 101.669 170.21C101.844 170.008 102.062 169.848 102.307 169.741C102.552 169.634 102.818 169.583 103.085 169.591H166.013C166.597 169.605 167.157 169.824 167.595 170.209C168.034 170.594 168.323 171.12 168.413 171.697C168.458 171.96 168.444 172.231 168.373 172.488C168.301 172.746 168.173 172.984 167.997 173.186C167.822 173.388 167.604 173.549 167.359 173.657C167.114 173.765 166.849 173.817 166.581 173.81Z" fill="#3D8060"/>
<path d="M167.553 181.068H104.618C104.026 181.054 103.459 180.831 103.017 180.439C102.575 180.046 102.286 179.51 102.203 178.925C102.159 178.662 102.174 178.392 102.246 178.136C102.318 177.879 102.447 177.641 102.622 177.44C102.797 177.239 103.014 177.079 103.258 176.971C103.503 176.864 103.768 176.812 104.035 176.819H166.97C167.552 176.836 168.109 177.056 168.546 177.441C168.983 177.825 169.271 178.35 169.362 178.925C169.412 179.188 169.402 179.46 169.334 179.72C169.266 179.979 169.141 180.22 168.967 180.426C168.794 180.631 168.577 180.795 168.333 180.906C168.088 181.017 167.822 181.072 167.553 181.068Z" fill="#3D8060"/>
<path d="M168.525 188.325H105.59C105.008 188.308 104.45 188.088 104.013 187.704C103.576 187.319 103.288 186.794 103.197 186.22C103.152 185.956 103.166 185.686 103.237 185.428C103.309 185.171 103.437 184.932 103.612 184.73C103.788 184.528 104.006 184.367 104.251 184.259C104.495 184.152 104.761 184.099 105.029 184.107H167.986C168.569 184.124 169.128 184.345 169.565 184.731C170.002 185.117 170.29 185.644 170.379 186.22C170.423 186.485 170.408 186.756 170.335 187.014C170.261 187.273 170.131 187.511 169.953 187.713C169.775 187.915 169.555 188.074 169.308 188.18C169.061 188.286 168.793 188.336 168.525 188.325Z" fill="#3D8060"/>
<path d="M169.878 195.583H128.165C127.687 195.569 127.229 195.39 126.87 195.075C126.511 194.76 126.274 194.329 126.199 193.858L126.094 193.111C126.059 192.896 126.072 192.676 126.131 192.466C126.191 192.256 126.295 192.062 126.438 191.897C126.58 191.732 126.757 191.6 126.956 191.511C127.155 191.421 127.371 191.376 127.589 191.379H169.309C169.788 191.393 170.247 191.573 170.606 191.89C170.965 192.206 171.202 192.639 171.276 193.111L171.373 193.858C171.406 194.073 171.393 194.292 171.333 194.501C171.273 194.71 171.168 194.903 171.026 195.067C170.884 195.231 170.707 195.362 170.509 195.452C170.31 195.541 170.095 195.585 169.878 195.583Z" fill="#3D8060"/>
<path d="M174.221 219.992H111.286C110.688 219.966 110.116 219.742 109.659 219.355C109.203 218.969 108.889 218.441 108.767 217.856C108.702 217.599 108.698 217.331 108.754 217.072C108.81 216.813 108.926 216.571 109.092 216.364C109.258 216.157 109.469 215.991 109.71 215.88C109.95 215.768 110.213 215.714 110.478 215.721H173.414C174.011 215.746 174.584 215.97 175.04 216.357C175.496 216.743 175.81 217.271 175.933 217.856C175.999 218.113 176.004 218.382 175.949 218.642C175.893 218.901 175.777 219.144 175.611 219.351C175.445 219.558 175.233 219.724 174.992 219.835C174.75 219.946 174.486 220 174.221 219.992Z" fill="#3D8060"/>
<path d="M175.619 227.324H112.669C112.07 227.298 111.497 227.073 111.04 226.685C110.584 226.297 110.27 225.767 110.149 225.181C110.083 224.924 110.078 224.656 110.133 224.397C110.189 224.138 110.303 223.896 110.469 223.689C110.634 223.482 110.845 223.316 111.085 223.204C111.326 223.092 111.589 223.038 111.854 223.045H174.789C175.387 223.07 175.96 223.293 176.417 223.68C176.873 224.067 177.187 224.595 177.308 225.181C177.375 225.436 177.382 225.704 177.328 225.963C177.274 226.222 177.161 226.464 176.997 226.672C176.833 226.88 176.624 227.047 176.385 227.16C176.145 227.273 175.883 227.329 175.619 227.324Z" fill="#3D8060"/>
<path d="M177.009 234.686H114.074C113.476 234.66 112.904 234.437 112.448 234.05C111.991 233.663 111.677 233.136 111.555 232.551C111.496 232.296 111.495 232.031 111.554 231.776C111.613 231.521 111.73 231.282 111.895 231.079C112.06 230.876 112.269 230.713 112.507 230.603C112.745 230.494 113.005 230.439 113.267 230.445H176.209C176.808 230.472 177.38 230.698 177.836 231.086C178.292 231.474 178.606 232.002 178.728 232.588C178.787 232.843 178.786 233.108 178.726 233.362C178.666 233.617 178.548 233.855 178.383 234.057C178.217 234.259 178.007 234.421 177.769 234.53C177.531 234.639 177.271 234.693 177.009 234.686Z" fill="#3D8060"/>
<path d="M178.781 242.048H137.068C136.579 242.022 136.111 241.836 135.737 241.519C135.363 241.202 135.103 240.772 134.998 240.293L134.856 239.547C134.801 239.336 134.796 239.115 134.841 238.902C134.887 238.689 134.982 238.49 135.119 238.32C135.255 238.151 135.43 238.015 135.628 237.925C135.826 237.834 136.043 237.791 136.261 237.8H177.974C178.461 237.827 178.926 238.012 179.299 238.327C179.671 238.643 179.93 239.071 180.037 239.547L180.186 240.293C180.241 240.505 180.246 240.725 180.2 240.939C180.154 241.152 180.059 241.352 179.923 241.522C179.787 241.692 179.612 241.828 179.414 241.92C179.216 242.011 178.999 242.055 178.781 242.048Z" fill="#3D8060"/>
<path d="M192.894 110.44H180.351C177.946 110.438 175.641 109.483 173.941 107.785C172.241 106.087 171.285 103.784 171.283 101.383V87.8308C171.285 85.4293 172.241 83.1267 173.941 81.4286C175.641 79.7305 177.946 78.7757 180.351 78.7737H192.894C195.299 78.7757 197.604 79.7305 199.304 81.4286C201.004 83.1267 201.96 85.4293 201.962 87.8308V101.413C201.952 103.809 200.993 106.104 199.293 107.796C197.594 109.487 195.293 110.438 192.894 110.44ZM180.351 81.2377C178.609 81.2397 176.938 81.9318 175.707 83.1622C174.475 84.3926 173.782 86.0609 173.78 87.8009V101.383C173.782 103.123 174.475 104.791 175.707 106.022C176.938 107.252 178.609 107.944 180.351 107.946H192.894C194.636 107.944 196.305 107.252 197.536 106.021C198.766 104.791 199.458 103.122 199.458 101.383V87.8308C199.458 86.0914 198.766 84.4232 197.536 83.1925C196.305 81.9619 194.636 81.2695 192.894 81.2676L180.351 81.2377Z" fill="#3D8060"/>
<path d="M196.191 157.07H183.685C181.35 157.072 179.105 156.174 177.417 154.563C175.729 152.952 174.729 150.753 174.625 148.423L174.026 135.117C173.971 133.895 174.164 132.673 174.594 131.527C175.025 130.381 175.683 129.334 176.53 128.449C177.377 127.564 178.394 126.859 179.521 126.378C180.648 125.897 181.861 125.649 183.087 125.65H195.608C197.935 125.659 200.169 126.563 201.847 128.175C203.524 129.786 204.516 131.981 204.616 134.304L205.221 147.602C205.277 148.825 205.084 150.046 204.653 151.192C204.223 152.338 203.565 153.386 202.718 154.271C201.871 155.155 200.853 155.86 199.726 156.341C198.599 156.822 197.387 157.07 196.161 157.07H196.191ZM183.064 128.151C182.177 128.15 181.298 128.329 180.481 128.677C179.665 129.025 178.928 129.535 178.314 130.176C177.701 130.816 177.224 131.575 176.912 132.405C176.6 133.235 176.46 134.12 176.501 135.005L177.106 148.311C177.18 149.998 177.903 151.59 179.125 152.756C180.346 153.923 181.972 154.572 183.662 154.568H196.191C197.079 154.569 197.957 154.39 198.774 154.042C199.59 153.694 200.327 153.184 200.941 152.544C201.554 151.903 202.032 151.145 202.343 150.314C202.655 149.484 202.795 148.599 202.754 147.714L202.149 134.416C202.074 132.728 201.349 131.134 200.126 129.967C198.904 128.8 197.277 128.149 195.585 128.151H183.064Z" fill="#3D8060"/>
<path d="M187.647 200.197C185.368 200.199 183.172 199.342 181.498 197.797C179.824 196.252 178.795 194.134 178.616 191.865L177.547 178.596C177.45 177.376 177.6 176.149 177.991 174.988C178.381 173.828 179.002 172.758 179.817 171.844C180.633 170.93 181.625 170.19 182.734 169.67C183.843 169.149 185.046 168.858 186.271 168.815L198.792 168.382C201.117 168.317 203.379 169.14 205.118 170.682C206.856 172.225 207.941 174.371 208.152 176.685L209.22 189.953C209.317 191.173 209.166 192.4 208.775 193.56C208.385 194.72 207.763 195.789 206.948 196.703C206.133 197.617 205.141 198.356 204.033 198.877C202.924 199.398 201.721 199.69 200.497 199.734L187.976 200.168L187.647 200.197ZM199.121 170.876H198.882L186.361 171.309C185.474 171.341 184.603 171.553 183.8 171.93C182.997 172.308 182.279 172.843 181.689 173.505C181.099 174.167 180.649 174.942 180.366 175.782C180.084 176.622 179.974 177.511 180.044 178.395L181.113 191.663C181.254 193.343 182.035 194.906 183.295 196.028C184.555 197.151 186.198 197.748 187.886 197.696L200.407 197.255C201.294 197.225 202.165 197.015 202.969 196.639C203.772 196.263 204.491 195.727 205.081 195.066C205.671 194.404 206.122 193.63 206.404 192.789C206.686 191.949 206.795 191.06 206.724 190.177L205.655 176.909C205.527 175.266 204.783 173.732 203.571 172.614C202.36 171.495 200.771 170.874 199.121 170.876Z" fill="#3D8060"/>
<path d="M197.477 244.169C195.321 244.169 193.236 243.404 191.592 242.01C189.949 240.616 188.856 238.685 188.506 236.56L186.413 223.628C186.207 222.359 186.273 221.06 186.608 219.819C186.942 218.577 187.538 217.421 188.355 216.427C189.171 215.433 190.191 214.625 191.345 214.055C192.499 213.485 193.761 213.167 195.047 213.122L207.456 212.689C209.659 212.632 211.808 213.37 213.511 214.768C215.213 216.165 216.355 218.128 216.726 220.298L218.819 233.23C219.024 234.499 218.957 235.797 218.622 237.038C218.287 238.279 217.691 239.435 216.875 240.428C216.058 241.422 215.039 242.231 213.886 242.801C212.733 243.371 211.471 243.69 210.185 243.736L197.768 244.161L197.477 244.169ZM207.793 215.183H207.561L195.152 215.616C194.222 215.652 193.31 215.884 192.477 216.298C191.644 216.712 190.908 217.298 190.319 218.018C189.729 218.737 189.3 219.573 189.058 220.471C188.816 221.368 188.769 222.307 188.917 223.225L191.018 236.157C191.29 237.729 192.12 239.151 193.355 240.163C194.59 241.175 196.149 241.709 197.746 241.667L210.155 241.234C211.086 241.203 212 240.974 212.836 240.562C213.671 240.15 214.409 239.565 215.001 238.846C215.592 238.126 216.023 237.289 216.265 236.391C216.507 235.492 216.555 234.552 216.404 233.633L214.311 220.693C214.059 219.15 213.264 217.748 212.069 216.738C210.874 215.728 209.358 215.177 207.793 215.183Z" fill="#3D8060"/>
<path d="M180.239 48.3245H119.389C116.933 48.3245 114.941 50.3135 114.941 52.7672V59.7112C114.941 62.1648 116.933 64.1539 119.389 64.1539H180.239C182.695 64.1539 184.686 62.1648 184.686 59.7112V52.7672C184.686 50.3135 182.695 48.3245 180.239 48.3245Z" fill="#3D8060"/>
<path d="M180.239 48.3245H119.389C116.933 48.3245 114.941 50.3135 114.941 52.7672V59.7112C114.941 62.1648 116.933 64.1539 119.389 64.1539H180.239C182.695 64.1539 184.686 62.1648 184.686 59.7112V52.7672C184.686 50.3135 182.695 48.3245 180.239 48.3245Z" fill="url(#paint14_linear)"/>
<path d="M187.116 104.728L176.157 93.8043C175.809 93.4562 175.532 93.0429 175.343 92.5881C175.155 92.1333 175.058 91.6458 175.058 91.1536C175.058 90.6613 175.155 90.1738 175.343 89.719C175.532 89.2642 175.809 88.851 176.157 88.5029C176.506 88.1548 176.919 87.8787 177.375 87.6903C177.83 87.5019 178.318 87.4049 178.811 87.4049C179.304 87.4049 179.792 87.5019 180.247 87.6903C180.702 87.8787 181.116 88.1548 181.465 88.5029L186.697 93.7296L204.257 73.4426C204.908 72.69 205.832 72.2268 206.825 72.1547C207.819 72.0825 208.8 72.4075 209.553 73.058C210.307 73.7085 210.77 74.6314 210.843 75.6235C210.915 76.6156 210.589 77.5957 209.938 78.3482L187.116 104.728Z" fill="#3D8060"/>
<path d="M192.281 150.23L181.33 139.291C180.981 138.943 180.705 138.53 180.516 138.075C180.328 137.62 180.231 137.133 180.231 136.641C180.231 136.148 180.328 135.661 180.516 135.206C180.705 134.751 180.981 134.338 181.33 133.99C181.678 133.642 182.092 133.366 182.547 133.177C183.003 132.989 183.491 132.892 183.984 132.892C184.477 132.892 184.965 132.989 185.42 133.177C185.875 133.366 186.289 133.642 186.637 133.99L191.87 139.217L209.43 118.93C210.081 118.177 211.005 117.714 211.998 117.642C212.991 117.57 213.973 117.895 214.726 118.545C215.479 119.196 215.943 120.118 216.015 121.111C216.088 122.103 215.762 123.083 215.111 123.835L192.281 150.23Z" fill="#3D8060"/>
<path d="M196.041 193.619L185.083 182.658C184.379 181.955 183.983 181.001 183.983 180.007C183.983 179.013 184.379 178.06 185.083 177.357C185.786 176.654 186.741 176.259 187.736 176.259C188.732 176.259 189.686 176.654 190.39 177.357L195.623 182.583L213.182 162.296C213.504 161.924 213.897 161.619 214.337 161.398C214.777 161.178 215.256 161.046 215.747 161.01C216.238 160.974 216.732 161.035 217.199 161.19C217.666 161.345 218.099 161.59 218.471 161.912C218.844 162.233 219.149 162.625 219.37 163.065C219.591 163.504 219.723 163.983 219.759 164.473C219.795 164.964 219.734 165.457 219.579 165.924C219.424 166.39 219.178 166.822 218.856 167.194L196.041 193.619Z" fill="#3D8060"/>
<path d="M205.774 237.247L194.823 226.301C194.12 225.598 193.726 224.645 193.726 223.651C193.727 222.658 194.123 221.705 194.827 221.003C195.531 220.301 196.485 219.907 197.479 219.908C198.474 219.909 199.428 220.304 200.13 221.007L205.363 226.234L222.93 205.954C223.582 205.202 224.506 204.738 225.499 204.666C226.492 204.594 227.473 204.919 228.227 205.569C228.98 206.22 229.444 207.143 229.516 208.135C229.588 209.127 229.263 210.107 228.612 210.86L205.774 237.247Z" fill="#3D8060"/>
<path d="M295.815 264.344H275.049V268.921H295.815V264.344Z" fill="#3D8060"/>
<path d="M295.815 264.344H275.049V268.921H295.815V264.344Z" fill="url(#paint15_linear)"/>
<path d="M295.987 269.048V284.467C295.988 284.955 295.892 285.44 295.704 285.891C295.516 286.342 295.24 286.752 294.892 287.096C294.545 287.439 294.132 287.711 293.678 287.894C293.224 288.077 292.739 288.169 292.249 288.163H278.622C278.136 288.164 277.654 288.069 277.205 287.883C276.755 287.698 276.347 287.426 276.003 287.082C275.659 286.739 275.387 286.331 275.201 285.882C275.016 285.433 274.921 284.952 274.922 284.467V269.048H295.987Z" fill="#3D8060"/>
<path d="M295.987 269.048V284.467C295.988 284.955 295.892 285.44 295.704 285.891C295.516 286.342 295.24 286.752 294.892 287.096C294.545 287.439 294.132 287.711 293.678 287.894C293.224 288.077 292.739 288.169 292.249 288.163H278.622C278.136 288.164 277.654 288.069 277.205 287.883C276.755 287.698 276.347 287.426 276.003 287.082C275.659 286.739 275.387 286.331 275.201 285.882C275.016 285.433 274.921 284.952 274.922 284.467V269.048H295.987Z" fill="url(#paint16_linear)"/>
</g>
<defs>
<linearGradient id="paint0_linear" x1="204.249" y1="354.198" x2="221.112" y2="-83.9495" gradientUnits="userSpaceOnUse">
<stop stop-color="#010101" stop-opacity="0"/>
<stop offset="0.95" stop-color="#010101"/>
</linearGradient>
<linearGradient id="paint1_linear" x1="7515.44" y1="2795.95" x2="7245.06" y2="2784.31" gradientUnits="userSpaceOnUse">
<stop stop-color="#010101" stop-opacity="0"/>
<stop offset="0.95" stop-color="#010101"/>
</linearGradient>
<linearGradient id="paint2_linear" x1="22221.3" y1="20944.4" x2="18532.2" y2="20723" gradientUnits="userSpaceOnUse">
<stop stop-color="#010101" stop-opacity="0"/>
<stop offset="0.95" stop-color="#010101"/>
</linearGradient>
<linearGradient id="paint3_linear" x1="3524.5" y1="15675.8" x2="5547.5" y2="15467.9" gradientUnits="userSpaceOnUse">
<stop stop-color="#010101" stop-opacity="0"/>
<stop offset="0.95" stop-color="#010101"/>
</linearGradient>
<linearGradient id="paint4_linear" x1="9465.51" y1="1336.2" x2="10116.2" y2="382.947" gradientUnits="userSpaceOnUse">
<stop stop-color="#010101" stop-opacity="0"/>
<stop offset="0.95" stop-color="#010101"/>
</linearGradient>
<linearGradient id="paint5_linear" x1="10723.3" y1="5171.65" x2="10611.9" y2="4304.29" gradientUnits="userSpaceOnUse">
<stop stop-color="#010101" stop-opacity="0"/>
<stop offset="0.95" stop-color="#010101"/>
</linearGradient>
<linearGradient id="paint6_linear" x1="11709.5" y1="5053.48" x2="11598.1" y2="4185.58" gradientUnits="userSpaceOnUse">
<stop stop-color="#010101" stop-opacity="0"/>
<stop offset="0.95" stop-color="#010101"/>
</linearGradient>
<linearGradient id="paint7_linear" x1="14882.2" y1="2704.99" x2="14148.7" y2="3192.16" gradientUnits="userSpaceOnUse">
<stop stop-color="#010101" stop-opacity="0"/>
<stop offset="0.95" stop-color="#010101"/>
</linearGradient>
<linearGradient id="paint8_linear" x1="134.781" y1="-41.5897" x2="160.086" y2="362.788" gradientUnits="userSpaceOnUse">
<stop stop-color="white" stop-opacity="0"/>
<stop offset="0.14" stop-color="white" stop-opacity="0.22"/>
<stop offset="0.3" stop-color="white" stop-opacity="0.45"/>
<stop offset="0.45" stop-color="white" stop-opacity="0.65"/>
<stop offset="0.6" stop-color="white" stop-opacity="0.8"/>
<stop offset="0.73" stop-color="white" stop-opacity="0.91"/>
<stop offset="0.85" stop-color="white" stop-opacity="0.98"/>
<stop offset="0.94" stop-color="white"/>
</linearGradient>
<linearGradient id="paint9_linear" x1="9367.63" y1="87427.3" x2="105897" y2="23245.8" gradientUnits="userSpaceOnUse">
<stop stop-color="#010101" stop-opacity="0"/>
<stop offset="0.95" stop-color="#010101"/>
</linearGradient>
<linearGradient id="paint10_linear" x1="6931.35" y1="40555.8" x2="-5827.1" y2="40836.8" gradientUnits="userSpaceOnUse">
<stop stop-color="white" stop-opacity="0"/>
<stop offset="0.14" stop-color="white" stop-opacity="0.22"/>
<stop offset="0.3" stop-color="white" stop-opacity="0.45"/>
<stop offset="0.45" stop-color="white" stop-opacity="0.65"/>
<stop offset="0.6" stop-color="white" stop-opacity="0.8"/>
<stop offset="0.73" stop-color="white" stop-opacity="0.91"/>
<stop offset="0.85" stop-color="white" stop-opacity="0.98"/>
<stop offset="0.94" stop-color="white"/>
</linearGradient>
<linearGradient id="paint11_linear" x1="5586.35" y1="7740.86" x2="3275.96" y2="8362.48" gradientUnits="userSpaceOnUse">
<stop stop-color="white" stop-opacity="0"/>
<stop offset="0.14" stop-color="white" stop-opacity="0.22"/>
<stop offset="0.3" stop-color="white" stop-opacity="0.45"/>
<stop offset="0.45" stop-color="white" stop-opacity="0.65"/>
<stop offset="0.6" stop-color="white" stop-opacity="0.8"/>
<stop offset="0.73" stop-color="white" stop-opacity="0.91"/>
<stop offset="0.85" stop-color="white" stop-opacity="0.98"/>
<stop offset="0.94" stop-color="white"/>
</linearGradient>
<linearGradient id="paint12_linear" x1="8388.75" y1="2108.55" x2="8306.85" y2="3293.66" gradientUnits="userSpaceOnUse">
<stop stop-color="white" stop-opacity="0"/>
<stop offset="0.14" stop-color="white" stop-opacity="0.22"/>
<stop offset="0.3" stop-color="white" stop-opacity="0.45"/>
<stop offset="0.45" stop-color="white" stop-opacity="0.65"/>
<stop offset="0.6" stop-color="white" stop-opacity="0.8"/>
<stop offset="0.73" stop-color="white" stop-opacity="0.91"/>
<stop offset="0.85" stop-color="white" stop-opacity="0.98"/>
<stop offset="0.94" stop-color="white"/>
</linearGradient>
<linearGradient id="paint13_linear" x1="3811.5" y1="1007.12" x2="4020.9" y2="580.847" gradientUnits="userSpaceOnUse">
<stop stop-color="#010101" stop-opacity="0"/>
<stop offset="0.95" stop-color="#010101"/>
</linearGradient>
<linearGradient id="paint14_linear" x1="14112.1" y1="1457.46" x2="14109.8" y2="970.036" gradientUnits="userSpaceOnUse">
<stop stop-color="white" stop-opacity="0"/>
<stop offset="0.14" stop-color="white" stop-opacity="0.22"/>
<stop offset="0.3" stop-color="white" stop-opacity="0.45"/>
<stop offset="0.45" stop-color="white" stop-opacity="0.65"/>
<stop offset="0.6" stop-color="white" stop-opacity="0.8"/>
<stop offset="0.73" stop-color="white" stop-opacity="0.91"/>
<stop offset="0.85" stop-color="white" stop-opacity="0.98"/>
<stop offset="0.94" stop-color="white"/>
</linearGradient>
<linearGradient id="paint15_linear" x1="8198.53" y1="1863.45" x2="8200.44" y2="2102.4" gradientUnits="userSpaceOnUse">
<stop stop-color="#010101" stop-opacity="0"/>
<stop offset="0.95" stop-color="#010101"/>
</linearGradient>
<linearGradient id="paint16_linear" x1="8365.8" y1="8080.58" x2="8371.35" y2="6789.55" gradientUnits="userSpaceOnUse">
<stop stop-color="#010101" stop-opacity="0"/>
<stop offset="0.95" stop-color="#010101"/>
</linearGradient>
<clipPath id="clip0">
<rect width="418" height="319" fill="white"/>
</clipPath>
</defs>
</svg>
