<svg width="784" height="550" viewBox="0 0 784 550" fill="none" xmlns="http://www.w3.org/2000/svg">
<g clip-path="url(#clip0)">
<path opacity="0.18" d="M339.463 35.776C333.338 38.6158 327.299 41.7136 321.41 45.0697C252.293 84.4599 203.936 158.357 128.285 182.903C107.825 189.551 85.8169 191.358 69.2682 205.9C57.3375 216.825 46.9476 229.324 38.3845 243.053C20.2922 271.501 8.29057 303.395 3.13793 336.721C-7.19963 401.259 7.26436 473.93 58.5653 518.139C97.2506 551.377 154.526 553.076 202.818 544.084C230.5 538.942 257.064 528.896 284.487 522.313C332.432 510.806 382.308 509.918 430.632 519.71C462.526 526.164 493.323 537.264 525.196 544.105C548.127 549.032 571.962 551.764 595.345 548.731C617.782 545.826 635.083 535.113 655.522 526.465C694.422 509.964 733.752 488.925 758.554 453.45C777.603 425.645 786.401 392.076 783.441 358.492C780.283 324.977 766.657 293.31 744.498 267.987C734.612 256.649 721.717 246.603 716.924 232.146C712.132 217.689 711.336 200.845 709.853 186.001C706.565 153.516 702.675 120.064 686.836 91.5161C669.212 59.7415 638.028 37.0238 604.049 24.2236C570.071 11.4234 533.341 7.7662 497.041 7.33594C443.14 6.69055 387.992 13.3165 339.463 35.776Z" fill="#3D8060"/>
<path d="M309.89 481.202H473.637L444.666 376.971H334.327L309.89 481.202Z" fill="#3D8060"/>
<path d="M309.89 481.202H473.637L444.666 376.971H334.327L309.89 481.202Z" fill="#3D8060"/>
<path d="M637.039 98.3357V367.248C637.039 375.047 633.944 382.527 628.434 388.042C622.924 393.557 615.451 396.656 607.659 396.656H183.304C175.515 396.65 168.048 393.549 162.543 388.035C157.038 382.52 153.946 375.043 153.946 367.248V98.3357C153.946 90.5362 157.041 83.0561 162.551 77.5409C168.06 72.0258 175.533 68.9275 183.325 68.9275H607.638C611.498 68.9247 615.321 69.6833 618.888 71.1599C622.455 72.6365 625.696 74.8023 628.426 77.5333C631.157 80.2644 633.323 83.5073 634.8 87.0767C636.278 90.6461 637.039 94.4719 637.039 98.3357Z" fill="#3D8060"/>
<path d="M637.039 98.3357V334.161H153.946V98.3357C153.946 90.5341 157.04 83.0518 162.549 77.5333C168.059 72.0148 175.531 68.9116 183.325 68.9059H607.638C615.432 68.9173 622.904 72.0216 628.415 77.5383C633.926 83.0549 637.027 90.5339 637.039 98.3357Z" fill="#473F47"/>
<path d="M629.775 104.037V326.373H161.253V104.037C161.273 100.308 162.026 96.6207 163.47 93.1842C164.915 89.7476 167.021 86.6296 169.67 84.0084C172.318 81.3872 175.457 79.3141 178.906 77.9077C182.356 76.5012 186.048 75.789 189.773 75.8116H601.255C604.98 75.789 608.672 76.5012 612.121 77.9077C615.571 79.3141 618.709 81.3872 621.358 84.0084C624.007 86.6296 626.113 89.7476 627.557 93.1842C629.002 96.6207 629.755 100.308 629.775 104.037Z" fill="white"/>
<path opacity="0.18" d="M629.775 104.037V326.373H161.253V104.037C161.273 100.308 162.026 96.6207 163.47 93.1842C164.915 89.7476 167.021 86.6296 169.67 84.0084C172.318 81.3872 175.457 79.3141 178.906 77.9077C182.356 76.5012 186.048 75.789 189.773 75.8116H601.255C604.98 75.789 608.672 76.5012 612.121 77.9077C615.571 79.3141 618.709 81.3872 621.358 84.0084C624.007 86.6296 626.113 89.7476 627.557 93.1842C629.002 96.6207 629.755 100.308 629.775 104.037Z" fill="#3D8060"/>
<path d="M230.951 232.598C226.352 214.484 219.26 196.994 215.627 178.644C211.995 160.293 211.974 141.534 212.167 122.86C211.932 116.753 212.702 110.648 214.445 104.79C216.487 99.0456 220.893 93.7534 226.739 92.2045L235.228 147.815C236.883 158.723 238.581 169.759 242.664 180.085C246.748 190.411 253.41 199.92 263.081 205.32C259.924 189.422 257.77 173.342 256.634 157.174C255.989 148.332 256.419 137.812 263.705 132.842C270.152 128.346 279.673 130.691 285.197 136.349C290.72 142.007 293.256 149.881 294.868 157.604C297.189 168.726 298.156 180.365 303.142 190.562C304.84 194.068 309.31 197.704 312.04 194.864C312.467 194.364 312.821 193.807 313.093 193.208L343.074 133.897C345.825 128.432 348.447 121.398 344.535 116.686C341.57 113.137 336.304 112.857 331.64 112.792C301.879 112.313 272.287 108.195 243.524 100.53C263.619 90.6555 286.508 88.7839 308.966 88.0525C327.428 87.4501 346.771 87.7083 363.104 96.378C363.981 96.7679 364.759 97.3485 365.382 98.0775C366.052 99.1044 366.431 100.294 366.479 101.52C369.271 124.064 365.385 146.932 355.303 167.285C348.64 180.666 339.42 192.648 332.35 205.836C312.878 242.064 310.686 285.262 315.156 326.158C296.867 324.179 285.068 329.127 266.671 327.126C261.964 326.61 254.42 325.555 249.735 326.287C246.963 326.739 233.122 327.986 230.392 326.158C230.392 326.158 236.346 299.654 236.668 294.405C237.944 273.631 236.016 252.784 230.951 232.598Z" fill="url(#paint0_linear)"/>
<path d="M309.783 219.905C308.085 219.905 313.329 208.826 313.63 208.331C317.492 202.048 321.916 196.129 326.847 190.648C331.146 185.678 335.444 180.558 340.151 175.976C344.449 171.673 349.973 166.015 356.743 167.371C361.836 168.446 364.888 174.147 364.673 179.375C364.458 184.603 361.772 189.335 358.956 193.746C353.304 202.587 347.243 210.956 341.097 219.561L309.783 219.905Z" fill="white"/>
<path d="M270.604 225.864C272.237 226.23 269.379 214.269 269.207 213.731C266.712 206.795 263.598 200.099 259.901 193.724C256.677 187.937 253.604 182.086 249.885 176.514C246.468 171.48 242.299 164.746 235.4 164.725C230.199 164.725 226.03 169.673 225.17 174.814C224.31 179.956 225.965 185.183 227.813 190.067C231.531 199.898 235.744 209.429 240.021 218.959L270.604 225.864Z" fill="white"/>
<path d="M257.58 201.921H323.86C326.118 201.86 328.366 202.246 330.475 203.056C332.584 203.866 334.513 205.084 336.152 206.64C337.79 208.196 339.107 210.061 340.025 212.126C340.944 214.192 341.447 216.419 341.505 218.679V219.454C341.505 219.454 328.868 271.085 328.61 288.424C328.61 297.911 331.597 326.287 331.597 326.287H249.756C249.756 326.287 253.539 296.642 253.453 286.703C253.324 269.772 239.935 219.454 239.935 219.454C239.892 217.193 240.295 214.947 241.119 212.842C241.944 210.738 243.175 208.817 244.742 207.189C246.308 205.56 248.18 204.257 250.25 203.353C252.32 202.449 254.548 201.962 256.806 201.921H257.58Z" fill="white"/>
<path d="M379.61 104.402C380.206 102.562 380.324 100.6 379.954 98.7014C379.393 96.9922 378.329 95.4925 376.902 94.3988C375.148 92.8878 373.084 91.7808 370.856 91.1563C368.628 90.5318 366.289 90.4049 364.007 90.7846C363.055 90.9367 362.151 91.3047 361.363 91.8603C360.65 92.4701 360.047 93.1978 359.579 94.0116C357.258 97.6473 354.873 102.036 356.377 106.08C357.453 108.027 358.629 109.915 359.902 111.738C360.59 113.051 360.933 114.513 361.578 115.847C363.233 119.203 369.595 123.699 373.485 121.204C375.419 119.978 376.15 115.804 376.859 113.782C377.847 110.77 378.793 107.608 379.61 104.402Z" fill="#FCA89E"/>
<path d="M214.338 98.6368C213.731 96.7987 213.612 94.8338 213.994 92.9359C214.555 91.2267 215.619 89.727 217.046 88.6333C218.8 87.1223 220.864 86.0153 223.092 85.3908C225.32 84.7663 227.658 84.6394 229.941 85.0191C230.893 85.1712 231.797 85.5392 232.585 86.0948C233.298 86.7046 233.901 87.4323 234.368 88.2461C236.668 91.8818 239.075 96.2489 237.571 100.315C236.495 102.261 235.319 104.15 234.046 105.973C233.358 107.285 233.014 108.748 232.37 110.082C230.715 113.438 224.353 117.934 220.442 115.438C218.529 114.212 217.798 110.039 217.089 108.016C216.079 105.005 215.133 101.842 214.338 98.6368Z" fill="#FCA89E"/>
<path d="M300.928 211.601C300.685 213.558 299.69 215.343 298.152 216.577C296.615 217.81 294.658 218.395 292.697 218.206C284.573 217.819 283.971 211.601 283.971 211.601V179.332H300.928V211.601Z" fill="#FCA89E"/>
<path d="M283.971 195.273C283.971 195.273 294.588 211.838 300.928 203.878V190.97L283.971 195.273Z" fill="url(#paint1_linear)"/>
<path d="M276.836 187.055C281.135 200.221 302.197 200.608 309.267 190.153C313.372 184.086 313.867 176.191 312.577 168.984C311.441 161.871 309.269 154.964 306.13 148.482C303.98 144.395 301.831 140.759 296.824 140.178C291.195 139.81 285.579 141.064 280.64 143.793C275.96 146.318 272.297 150.387 270.272 155.307C268.247 160.228 267.984 165.699 269.529 170.791C270.369 173.344 271.441 175.814 272.731 178.17C274.346 181.011 275.719 183.984 276.836 187.055Z" fill="#FCA89E"/>
<path d="M311.803 147.192C310.899 149.382 309.569 151.371 307.892 153.043C304.437 156.35 300.031 158.487 295.298 159.153C288.399 160.25 281.392 159.024 274.429 158.464C274.269 159.584 273.8 160.636 273.075 161.503C272.35 162.369 271.397 163.016 270.324 163.369C271.376 168.232 272.777 173.014 274.515 177.675C276.234 182.236 278.684 186.474 280.533 190.927C274.794 186.969 270.389 180.171 266.198 174.728C263.979 172.123 262.201 169.173 260.932 165.994C260.297 164.402 260.052 162.681 260.217 160.974C260.381 159.268 260.951 157.625 261.878 156.184C262.903 154.486 264.045 152.862 265.295 151.322C267.21 149.911 268.553 147.857 269.078 145.535C269.336 143.104 267.96 140.759 267.767 138.307C267.704 137.96 267.765 137.602 267.939 137.296C268.154 137.066 268.43 136.902 268.734 136.822L273.698 134.972C273.248 133.938 272.663 132.969 271.957 132.09C274.872 130.548 278.142 129.806 281.435 129.938C280.767 128.393 279.892 126.946 278.835 125.636C279.943 125.192 281.135 124.996 282.327 125.063C283.519 125.13 284.682 125.458 285.734 126.023C288.055 126.926 290.29 128.045 292.525 129.142C292.733 127.278 292.769 125.398 292.633 123.527C295.583 123.286 298.519 124.136 300.885 125.915C303.292 127.269 305.469 128.997 307.333 131.035C308.66 132.531 309.656 134.29 310.256 136.198C310.858 138.35 311.954 140.114 312.405 142.201C312.705 143.887 312.496 145.625 311.803 147.192Z" fill="#473F47"/>
<path d="M272.28 178.407C271.538 178.531 270.829 178.802 270.195 179.205C269.56 179.608 269.012 180.134 268.583 180.752C268.114 181.749 268.044 182.889 268.39 183.936C268.757 184.956 269.303 185.904 270.002 186.732C270.372 187.232 270.814 187.674 271.313 188.045C272.169 188.534 273.142 188.78 274.128 188.755C274.894 188.798 275.662 188.798 276.428 188.755C276.817 188.748 277.199 188.653 277.545 188.475C277.914 188.201 278.185 187.817 278.319 187.378C278.856 185.772 278.856 184.035 278.319 182.43C277.967 180.917 277.226 179.523 276.17 178.385C275.203 177.417 273.591 178.041 272.28 178.407Z" fill="#FCA89E"/>
<path d="M343.439 166.876C342.013 170.408 341.404 174.218 341.656 178.02C342.003 180.537 343.093 182.893 344.787 184.785C346.481 186.678 348.701 188.021 351.162 188.643C353.623 189.265 356.214 189.137 358.602 188.275C360.99 187.413 363.067 185.857 364.566 183.807C366.562 180.6 367.832 176.995 368.284 173.244C371.637 155.603 374.674 137.919 377.396 120.193C374.259 119.354 364.501 114.922 361.858 116.686C359.214 118.45 356.635 129.594 355.41 132.864C353.261 138.565 351.112 144.266 349.178 150.074C347.243 155.366 346.083 161.885 343.439 166.876Z" fill="white"/>
<path d="M221.516 167.435C221.664 171.242 222.679 174.965 224.482 178.321C225.837 180.463 227.799 182.152 230.118 183.172C232.437 184.193 235.007 184.499 237.5 184.051C239.993 183.603 242.296 182.422 244.115 180.658C245.935 178.894 247.188 176.627 247.715 174.147C248.235 170.4 247.904 166.584 246.747 162.982C242.549 145.528 238.043 128.167 233.229 110.899C230.027 111.416 219.41 111.351 217.626 114.105C215.842 116.858 218.142 127.916 218.357 131.53C218.744 137.597 219.209 143.656 219.754 149.709C220.248 155.367 221.86 161.777 221.516 167.435Z" fill="white"/>
<path d="M368.004 14.5427H225.922V106.317H368.004V14.5427Z" fill="#3D8060"/>
<path d="M369.659 27.6656C377.291 27.6656 383.479 21.4725 383.479 13.8328C383.479 6.19317 377.291 0 369.659 0C362.027 0 355.84 6.19317 355.84 13.8328C355.84 21.4725 362.027 27.6656 369.659 27.6656Z" fill="#3D8060"/>
<path d="M369.659 27.6656C377.291 27.6656 383.479 21.4725 383.479 13.8328C383.479 6.19317 377.291 0 369.659 0C362.027 0 355.84 6.19317 355.84 13.8328C355.84 21.4725 362.027 27.6656 369.659 27.6656Z" fill="url(#paint2_linear)"/>
<path d="M471.165 245.678H404.068C402.691 245.678 401.575 246.795 401.575 248.173V248.195C401.575 249.573 402.691 250.69 404.068 250.69H471.165C472.542 250.69 473.658 249.573 473.658 248.195V248.173C473.658 246.795 472.542 245.678 471.165 245.678Z" fill="#3D8060"/>
<path d="M471.165 208H404.068C402.691 208 401.575 209.117 401.575 210.496V210.517C401.575 211.895 402.691 213.013 404.068 213.013H471.165C472.542 213.013 473.658 211.895 473.658 210.517V210.496C473.658 209.117 472.542 208 471.165 208Z" fill="#3D8060"/>
<path d="M555.542 245.678H488.445C487.068 245.678 485.952 246.795 485.952 248.173V248.195C485.952 249.573 487.068 250.69 488.445 250.69H555.542C556.919 250.69 558.035 249.573 558.035 248.195V248.173C558.035 246.795 556.919 245.678 555.542 245.678Z" fill="#3D8060"/>
<path d="M512.881 256.972H404.068C402.691 256.972 401.575 258.089 401.575 259.468V259.489C401.575 260.867 402.691 261.985 404.068 261.985H512.881C514.258 261.985 515.374 260.867 515.374 259.489V259.468C515.374 258.089 514.258 256.972 512.881 256.972Z" fill="#3D8060"/>
<path d="M512.881 219.294H404.068C402.691 219.294 401.575 220.412 401.575 221.79V221.811C401.575 223.19 402.691 224.307 404.068 224.307H512.881C514.258 224.307 515.374 223.19 515.374 221.811V221.79C515.374 220.412 514.258 219.294 512.881 219.294Z" fill="#3D8060"/>
<path d="M471.165 268.245H404.068C402.691 268.245 401.575 269.362 401.575 270.74V270.762C401.575 272.14 402.691 273.257 404.068 273.257H471.165C472.542 273.257 473.658 272.14 473.658 270.762V270.74C473.658 269.362 472.542 268.245 471.165 268.245Z" fill="#3D8060"/>
<path d="M471.165 230.567H404.068C402.691 230.567 401.575 231.684 401.575 233.063V233.084C401.575 234.462 402.691 235.58 404.068 235.58H471.165C472.542 235.58 473.658 234.462 473.658 233.084V233.063C473.658 231.684 472.542 230.567 471.165 230.567Z" fill="#3D8060"/>
<path d="M555.542 268.245H488.445C487.068 268.245 485.952 269.362 485.952 270.74V270.762C485.952 272.14 487.068 273.257 488.445 273.257H555.542C556.919 273.257 558.035 272.14 558.035 270.762V270.74C558.035 269.362 556.919 268.245 555.542 268.245Z" fill="#3D8060"/>
<path d="M555.542 230.567H488.445C487.068 230.567 485.952 231.684 485.952 233.063V233.084C485.952 234.462 487.068 235.58 488.445 235.58H555.542C556.919 235.58 558.035 234.462 558.035 233.084V233.063C558.035 231.684 556.919 230.567 555.542 230.567Z" fill="#3D8060"/>
<path d="M472.132 160.573L464.847 138.07L438.476 129.078L438.712 128.389L465.427 137.511L465.47 137.683L472.82 160.358L472.132 160.573Z" fill="#3D8060"/>
<path d="M435.768 130.605C434.964 130.431 434.263 129.945 433.817 129.253C433.372 128.561 433.219 127.72 433.393 126.916C433.567 126.111 434.053 125.409 434.744 124.963C435.435 124.517 436.275 124.364 437.079 124.538H437.423C438.227 124.712 438.928 125.199 439.374 125.891C439.819 126.583 439.972 127.423 439.798 128.228C439.624 129.032 439.138 129.735 438.447 130.181C437.755 130.626 436.916 130.779 436.112 130.605H435.768ZM437.251 125.334C436.797 125.207 436.315 125.218 435.867 125.365C435.419 125.512 435.024 125.789 434.733 126.16C434.442 126.531 434.267 126.981 434.231 127.451C434.195 127.922 434.299 128.393 434.53 128.804C434.761 129.216 435.109 129.55 435.529 129.763C435.95 129.977 436.424 130.061 436.892 130.006C437.36 129.95 437.802 129.756 438.16 129.449C438.518 129.142 438.778 128.736 438.906 128.282C439.052 127.683 438.961 127.051 438.653 126.518C438.345 125.985 437.842 125.592 437.251 125.42V125.334Z" fill="#3D8060"/>
<path d="M504.778 156.851L504.305 156.313L522.423 140.566L522.595 140.609L549.997 146.568L549.846 147.278L522.616 141.34L504.778 156.851Z" fill="#3D8060"/>
<path d="M551.33 149.967C550.537 149.747 549.865 149.221 549.46 148.505C549.054 147.789 548.95 146.941 549.17 146.148C549.389 145.355 549.914 144.682 550.63 144.276C551.345 143.871 552.192 143.766 552.984 143.986C553.772 144.217 554.437 144.747 554.839 145.462C555.241 146.178 555.346 147.023 555.134 147.815C554.913 148.605 554.389 149.275 553.676 149.678C552.963 150.081 552.119 150.185 551.33 149.967ZM552.791 144.675C552.335 144.545 551.851 144.554 551.401 144.701C550.95 144.847 550.553 145.125 550.261 145.499C549.969 145.872 549.794 146.324 549.76 146.797C549.725 147.27 549.832 147.743 550.067 148.155C550.301 148.567 550.653 148.899 551.078 149.11C551.502 149.321 551.98 149.401 552.449 149.339C552.919 149.277 553.36 149.077 553.716 148.763C554.071 148.45 554.325 148.038 554.446 147.579C554.599 146.974 554.512 146.334 554.204 145.793C553.895 145.251 553.389 144.85 552.791 144.675Z" fill="#3D8060"/>
<path d="M568.093 217.84C567.492 217.687 566.949 217.36 566.53 216.902C566.112 216.443 565.836 215.872 565.738 215.259C565.64 214.645 565.723 214.017 565.977 213.45C566.232 212.884 566.646 212.404 567.169 212.07C567.693 211.736 568.302 211.563 568.923 211.571C569.543 211.58 570.147 211.77 570.661 212.118C571.175 212.466 571.576 212.957 571.815 213.53C572.054 214.104 572.12 214.734 572.005 215.345C572.005 215.452 572.005 215.581 572.005 215.689C571.896 216.092 571.708 216.468 571.45 216.797C571.193 217.125 570.872 217.397 570.507 217.598C570.141 217.799 569.739 217.924 569.325 217.966C568.91 218.007 568.491 217.965 568.093 217.84ZM569.555 212.569C569.1 212.443 568.619 212.453 568.171 212.6C567.722 212.747 567.328 213.024 567.037 213.395C566.745 213.766 566.571 214.216 566.535 214.686C566.498 215.157 566.603 215.628 566.834 216.039C567.065 216.451 567.412 216.785 567.833 216.998C568.253 217.212 568.728 217.296 569.196 217.241C569.664 217.185 570.105 216.991 570.464 216.684C570.822 216.377 571.082 215.971 571.21 215.517C571.376 214.912 571.297 214.266 570.992 213.719C570.686 213.171 570.178 212.766 569.576 212.591L569.555 212.569Z" fill="#3D8060"/>
<path d="M566.18 214.463L539.81 207.105L539.724 207.041L518.361 182.903L518.898 182.43L540.197 206.481L566.374 213.774L566.18 214.463Z" fill="#3D8060"/>
<path d="M408.452 178.213C407.864 178.046 407.338 177.709 406.941 177.243C406.544 176.778 406.294 176.205 406.222 175.597C406.15 174.989 406.26 174.374 406.537 173.828C406.814 173.283 407.247 172.832 407.78 172.532C408.313 172.232 408.923 172.097 409.532 172.144C410.142 172.191 410.724 172.417 411.205 172.795C411.686 173.172 412.045 173.684 412.236 174.266C412.427 174.847 412.441 175.472 412.277 176.062C412.171 176.457 411.987 176.826 411.736 177.149C411.485 177.472 411.172 177.741 410.816 177.941C410.46 178.142 410.067 178.269 409.661 178.316C409.255 178.362 408.844 178.327 408.452 178.213ZM409.935 172.921C409.481 172.794 408.999 172.805 408.551 172.952C408.103 173.099 407.708 173.375 407.417 173.747C407.126 174.118 406.951 174.567 406.915 175.038C406.879 175.509 406.983 175.98 407.214 176.391C407.445 176.803 407.793 177.136 408.213 177.35C408.633 177.564 409.108 177.648 409.576 177.592C410.044 177.536 410.486 177.343 410.844 177.036C411.202 176.729 411.462 176.323 411.59 175.868C411.756 175.258 411.675 174.607 411.365 174.055C411.056 173.504 410.542 173.097 409.935 172.921Z" fill="#3D8060"/>
<path d="M423.883 111.867H444.558C445.698 111.867 446.792 112.321 447.598 113.128C448.404 113.934 448.857 115.029 448.857 116.17C448.857 117.311 448.404 118.405 447.598 119.212C446.792 120.019 445.698 120.472 444.558 120.472H423.883C422.743 120.472 421.65 120.019 420.844 119.212C420.038 118.405 419.585 117.311 419.585 116.17C419.585 115.029 420.038 113.934 420.844 113.128C421.65 112.321 422.743 111.867 423.883 111.867Z" fill="#3D8060"/>
<path d="M263.556 47H257.056L255.816 50H252.496L258.736 36H261.936L268.196 50H264.796L263.556 47ZM262.536 44.54L260.316 39.18L258.096 44.54H262.536ZM278.568 50L275.868 46.1H275.708H272.888V50H269.648V36H275.708C276.948 36 278.022 36.2067 278.928 36.62C279.848 37.0333 280.555 37.62 281.048 38.38C281.542 39.14 281.788 40.04 281.788 41.08C281.788 42.12 281.535 43.02 281.028 43.78C280.535 44.5267 279.828 45.1 278.908 45.5L282.048 50H278.568ZM278.508 41.08C278.508 40.2933 278.255 39.6933 277.748 39.28C277.242 38.8533 276.502 38.64 275.528 38.64H272.888V43.52H275.528C276.502 43.52 277.242 43.3067 277.748 42.88C278.255 42.4533 278.508 41.8533 278.508 41.08ZM295.195 47.4V50H284.355V36H294.935V38.6H287.575V41.64H294.075V44.16H287.575V47.4H295.195ZM310.157 45.04V50H306.917V45L301.497 36H304.937L308.677 42.22L312.417 36H315.597L310.157 45.04ZM323.128 50.24C321.674 50.24 320.361 49.9267 319.188 49.3C318.028 48.6733 317.114 47.8133 316.448 46.72C315.794 45.6133 315.468 44.3733 315.468 43C315.468 41.6267 315.794 40.3933 316.448 39.3C317.114 38.1933 318.028 37.3267 319.188 36.7C320.361 36.0733 321.674 35.76 323.128 35.76C324.581 35.76 325.888 36.0733 327.048 36.7C328.208 37.3267 329.121 38.1933 329.788 39.3C330.454 40.3933 330.788 41.6267 330.788 43C330.788 44.3733 330.454 45.6133 329.788 46.72C329.121 47.8133 328.208 48.6733 327.048 49.3C325.888 49.9267 324.581 50.24 323.128 50.24ZM323.128 47.48C323.954 47.48 324.701 47.2933 325.368 46.92C326.034 46.5333 326.554 46 326.928 45.32C327.314 44.64 327.508 43.8667 327.508 43C327.508 42.1333 327.314 41.36 326.928 40.68C326.554 40 326.034 39.4733 325.368 39.1C324.701 38.7133 323.954 38.52 323.128 38.52C322.301 38.52 321.554 38.7133 320.888 39.1C320.221 39.4733 319.694 40 319.308 40.68C318.934 41.36 318.748 42.1333 318.748 43C318.748 43.8667 318.934 44.64 319.308 45.32C319.694 46 320.221 46.5333 320.888 46.92C321.554 47.2933 322.301 47.48 323.128 47.48ZM339.443 50.24C337.443 50.24 335.883 49.6867 334.763 48.58C333.656 47.4733 333.103 45.8933 333.103 43.84V36H336.343V43.72C336.343 46.2267 337.383 47.48 339.463 47.48C340.476 47.48 341.249 47.18 341.783 46.58C342.316 45.9667 342.582 45.0133 342.582 43.72V36H345.783V43.84C345.783 45.8933 345.223 47.4733 344.103 48.58C342.996 49.6867 341.443 50.24 339.443 50.24ZM268.256 80L265.556 76.1H265.396H262.576V80H259.336V66H265.396C266.636 66 267.709 66.2067 268.616 66.62C269.536 67.0333 270.242 67.62 270.736 68.38C271.229 69.14 271.476 70.04 271.476 71.08C271.476 72.12 271.222 73.02 270.716 73.78C270.222 74.5267 269.516 75.1 268.596 75.5L271.736 80H268.256ZM268.196 71.08C268.196 70.2933 267.942 69.6933 267.436 69.28C266.929 68.8533 266.189 68.64 265.216 68.64H262.576V73.52H265.216C266.189 73.52 266.929 73.3067 267.436 72.88C267.942 72.4533 268.196 71.8533 268.196 71.08ZM284.883 77.4V80H274.043V66H284.623V68.6H277.263V71.64H283.763V74.16H277.263V77.4H284.883ZM296.681 77H290.181L288.941 80H285.621L291.861 66H295.061L301.321 80H297.921L296.681 77ZM295.661 74.54L293.441 69.18L291.221 74.54H295.661ZM302.773 66H309.133C310.653 66 311.993 66.2933 313.153 66.88C314.327 67.4533 315.233 68.2667 315.873 69.32C316.527 70.3733 316.853 71.6 316.853 73C316.853 74.4 316.527 75.6267 315.873 76.68C315.233 77.7333 314.327 78.5533 313.153 79.14C311.993 79.7133 310.653 80 309.133 80H302.773V66ZM308.973 77.34C310.373 77.34 311.487 76.9533 312.313 76.18C313.153 75.3933 313.573 74.3333 313.573 73C313.573 71.6667 313.153 70.6133 312.313 69.84C311.487 69.0533 310.373 68.66 308.973 68.66H306.013V77.34H308.973ZM325.411 75.04V80H322.171V75L316.751 66H320.191L323.931 72.22L327.671 66H330.851L325.411 75.04ZM334.887 75.14C334.887 74.4467 335.04 73.8733 335.347 73.42C335.667 72.9667 336.127 72.4667 336.727 71.92C337.167 71.52 337.487 71.1867 337.687 70.92C337.9 70.64 338.007 70.3267 338.007 69.98C338.007 69.4867 337.807 69.1 337.407 68.82C337.02 68.5267 336.5 68.38 335.847 68.38C335.22 68.38 334.66 68.5133 334.167 68.78C333.687 69.0333 333.28 69.3933 332.947 69.86L330.527 68.44C331.087 67.5867 331.84 66.9267 332.787 66.46C333.747 65.9933 334.88 65.76 336.187 65.76C337.72 65.76 338.947 66.0867 339.867 66.74C340.8 67.3933 341.267 68.3 341.267 69.46C341.267 70.0067 341.174 70.4867 340.987 70.9C340.814 71.3133 340.594 71.6667 340.327 71.96C340.074 72.24 339.74 72.5667 339.327 72.94C338.834 73.38 338.474 73.7533 338.247 74.06C338.02 74.3533 337.907 74.7133 337.907 75.14H334.887ZM336.407 80.16C335.86 80.16 335.4 79.9867 335.027 79.64C334.667 79.28 334.487 78.8467 334.487 78.34C334.487 77.8333 334.667 77.4133 335.027 77.08C335.387 76.7333 335.847 76.56 336.407 76.56C336.967 76.56 337.427 76.7333 337.787 77.08C338.147 77.4133 338.327 77.8333 338.327 78.34C338.327 78.8467 338.14 79.28 337.767 79.64C337.407 79.9867 336.954 80.16 336.407 80.16Z" fill="white"/>
</g>
<defs>
<linearGradient id="paint0_linear" x1="32295.6" y1="-11144.7" x2="-17670.9" y2="-119121" gradientUnits="userSpaceOnUse">
<stop offset="0.01"/>
<stop offset="0.08" stop-opacity="0.69"/>
<stop offset="0.21" stop-opacity="0.32"/>
<stop offset="1" stop-opacity="0"/>
</linearGradient>
<linearGradient id="paint1_linear" x1="2932.15" y1="-3137.6" x2="2872.1" y2="-2565.79" gradientUnits="userSpaceOnUse">
<stop offset="0.01"/>
<stop offset="0.08" stop-opacity="0.69"/>
<stop offset="0.21" stop-opacity="0.32"/>
<stop offset="1" stop-opacity="0"/>
</linearGradient>
<linearGradient id="paint2_linear" x1="5321.4" y1="-7864.61" x2="6426.79" y2="-7589.85" gradientUnits="userSpaceOnUse">
<stop offset="0.01"/>
<stop offset="0.08" stop-opacity="0.69"/>
<stop offset="0.21" stop-opacity="0.32"/>
<stop offset="1" stop-opacity="0"/>
</linearGradient>
<clipPath id="clip0">
<rect width="784" height="550" fill="white"/>
</clipPath>
</defs>
</svg>
