<svg width="823" height="565" viewBox="0 0 823 565" fill="none" xmlns="http://www.w3.org/2000/svg">
<g clip-path="url(#clip0)">
<path d="M729.418 223.966L689.559 239.5C682.064 238.942 666.292 236.908 650.639 229.529C633.214 221.315 613.25 221.335 596.323 229.939C557.314 230.872 535.844 225.876 524.388 221.148L527.41 214.948L487.009 199.202L386 153.948V339.425L421.35 355.171L440.311 309.7L481.952 328.951L489.947 308.644L517.288 328.926L519.149 330.491L516.586 333.152C514.237 335.632 512.927 338.919 512.927 342.335C512.927 345.751 514.237 349.038 516.586 351.519C517.724 352.72 519.094 353.677 520.614 354.331C522.133 354.986 523.771 355.323 525.425 355.323C527.08 355.323 528.717 354.986 530.237 354.331C531.757 353.677 533.127 352.72 534.264 351.519L532.862 352.999C530.512 355.48 529.202 358.767 529.202 362.183C529.202 365.599 530.512 368.886 532.862 371.366C533.999 372.568 535.369 373.525 536.889 374.179C538.408 374.833 540.046 375.171 541.7 375.171C543.355 375.171 544.992 374.833 546.512 374.179C548.032 373.525 549.402 372.568 550.539 371.366L558.637 362.95L553.077 368.726C550.727 371.206 549.418 374.493 549.418 377.909C549.418 381.326 550.727 384.612 553.077 387.093C554.214 388.294 555.585 389.251 557.104 389.906C558.624 390.56 560.261 390.897 561.916 390.897C563.571 390.897 565.208 390.56 566.728 389.906C568.247 389.251 569.618 388.294 570.755 387.093L578.749 378.785L575.386 382.28C573.744 384.013 572.828 386.31 572.828 388.697C572.828 391.084 573.744 393.381 575.386 395.114C576.181 395.953 577.138 396.621 578.199 397.078C579.26 397.534 580.403 397.77 581.559 397.77C582.714 397.77 583.857 397.534 584.919 397.078C585.98 396.621 586.937 395.953 587.731 395.114L593.064 389.576C602.224 396.264 609.635 401.146 613.265 402.409C628.389 407.651 628.389 397.152 628.389 397.152C648.59 407.646 658.693 386.658 658.693 386.658C683.945 397.152 683.945 370.912 683.945 370.912C690.256 375.286 694.808 373.282 697.988 369.432C702.319 364.209 702.847 356.84 699.875 350.926L724.011 328.63L734.449 349.964L776.09 330.713L795.052 372.734L822.975 360.27V176.733L729.418 223.966Z" fill="url(#paint0_linear)"/>
<path d="M722.712 321.093L678.756 360.147L644.571 296.679L722.712 277.152V321.093Z" fill="#BE7C5E"/>
<path d="M512.705 218.566C512.705 218.566 526.813 238.093 610.381 233.211L659.221 306.443L691.949 343.251C697.09 349.036 697.381 357.807 692.335 363.671C689.268 367.23 684.859 369.101 678.755 365.029C678.755 365.029 678.755 389.437 654.338 379.674C654.338 379.674 644.571 399.201 625.036 389.437C625.036 389.437 625.036 399.201 610.386 394.319C595.735 389.437 517.589 325.975 517.589 325.975L483.404 301.566L512.705 218.566Z" fill="#FDA57D"/>
<path d="M688.522 242.98C688.522 242.98 667.418 242.98 646.551 233.507C627.575 224.904 605.478 226 587.968 237.293C573.698 246.499 561.333 261.742 561.565 286.916C561.565 286.916 580.556 306.443 600.634 267.388H615.284C615.284 267.388 629.392 316.211 669.008 311.319C708.624 306.428 717.848 301.556 717.848 301.556L688.522 242.98Z" fill="#BE7C5E"/>
<path d="M560.306 339.379L558.721 337.794C554.438 333.513 547.494 333.513 543.211 337.794L531.86 349.141C527.577 353.423 527.577 360.364 531.86 364.645L533.445 366.23C537.728 370.511 544.672 370.511 548.955 366.23L560.306 354.883C564.589 350.602 564.589 343.66 560.306 339.379Z" fill="#BE7C5E"/>
<path d="M544.565 320.936L542.98 319.352C538.697 315.071 531.753 315.071 527.47 319.352L516.119 330.699C511.836 334.98 511.836 341.922 516.119 346.203L517.704 347.787C521.987 352.069 528.931 352.069 533.214 347.787L544.565 336.44C548.848 332.159 548.848 325.218 544.565 320.936Z" fill="#BE7C5E"/>
<path d="M582.28 351.58L580.695 349.995C576.412 345.714 569.468 345.714 565.185 349.995L551.393 363.782C547.11 368.063 547.11 375.005 551.393 379.286L552.978 380.871C557.261 385.152 564.205 385.152 568.488 380.871L582.28 367.084C586.563 362.803 586.563 355.861 582.28 351.58Z" fill="#BE7C5E"/>
<path d="M593.845 368.566L592.739 367.46C589.748 364.47 584.899 364.47 581.908 367.46L573.203 376.161C570.212 379.151 570.212 383.998 573.203 386.988L574.31 388.094C577.301 391.084 582.15 391.084 585.141 388.094L593.845 379.393C596.836 376.403 596.836 371.556 593.845 368.566Z" fill="#BE7C5E"/>
<path d="M771.547 330.856L727.596 350.383L683.639 242.98L722.712 228.334L771.547 330.856Z" fill="white"/>
<path d="M439.452 306.448L483.404 325.975L527.361 218.571L488.288 203.921L439.452 306.448Z" fill="white"/>
<path d="M390.612 159.985L488.288 203.921L424.802 350.383L390.612 335.738V159.985Z" fill="#333333"/>
<path d="M820.388 184.394L722.712 228.334L786.203 374.792L820.388 360.147V184.394Z" fill="#373737"/>
</g>
<g opacity="0.5">
<path opacity="0.5" d="M462.555 162.809L225.507 74.238L103.249 401.719L340.296 490.291L462.555 162.809Z" fill="url(#paint1_linear)"/>
</g>
<g filter="url(#filter0_d)">
<path d="M458.636 164.093L227.62 77.7751L108.063 398.019L339.079 484.337L458.636 164.093Z" fill="white"/>
</g>
<path d="M403.894 133.999L289.29 91.178L278.928 118.935L393.532 161.756L403.894 133.999Z" fill="url(#paint2_linear)"/>
<path d="M356.718 85.4592C347.871 82.1551 337.958 86.8172 334.577 95.8756C331.196 104.934 335.628 114.957 344.474 118.261C353.321 121.565 363.234 116.903 366.616 107.845C369.997 98.7866 365.565 88.7632 356.718 85.4592ZM347.063 111.322C345.165 110.663 343.506 109.454 342.298 107.849C341.089 106.243 340.387 104.314 340.28 102.308C340.173 100.302 340.667 98.3093 341.698 96.5853C342.729 94.8612 344.25 93.4838 346.068 92.6288C347.885 91.7739 349.917 91.4802 351.903 91.7853C353.889 92.0904 355.739 92.9804 357.217 94.3417C358.695 95.703 359.734 97.4738 360.201 99.428C360.668 101.382 360.542 103.431 359.839 105.313C359.395 106.547 358.712 107.681 357.83 108.651C356.947 109.621 355.882 110.408 354.696 110.966C353.509 111.525 352.224 111.844 350.914 111.905C349.604 111.967 348.294 111.77 347.06 111.325L347.063 111.322Z" fill="url(#paint3_linear)"/>
<path d="M402.677 133.566L290.487 91.647L280.581 118.183L392.77 160.102L402.677 133.566Z" fill="#3D8060"/>
<path d="M356.264 86.6671C353.162 85.5076 349.786 85.2938 346.564 86.0529C343.341 86.812 340.416 88.5098 338.159 90.9316C335.902 93.3534 334.413 96.3905 333.883 99.6587C333.352 102.927 333.802 106.279 335.177 109.292C336.551 112.305 338.788 114.843 341.605 116.585C344.422 118.327 347.691 119.195 351 119.079C354.309 118.963 357.51 117.868 360.196 115.933C362.882 113.998 364.934 111.31 366.092 108.208C367.644 104.049 367.481 99.4438 365.638 95.4041C363.795 91.3645 360.423 88.2218 356.264 86.6671ZM347.032 111.395C345.243 110.726 343.692 109.542 342.576 107.992C341.459 106.443 340.827 104.597 340.76 102.688C340.692 100.78 341.192 98.894 342.197 97.27C343.201 95.6459 344.664 94.3562 346.401 93.5639C348.138 92.7716 350.072 92.5123 351.957 92.8188C353.842 93.1253 355.594 93.9838 356.992 95.2858C358.389 96.5878 359.37 98.2748 359.809 100.134C360.248 101.992 360.126 103.939 359.458 105.728C358.562 108.127 356.75 110.071 354.421 111.133C352.091 112.195 349.434 112.288 347.035 111.392L347.032 111.395Z" fill="#3D8060"/>
<path d="M268.578 152.181L219.115 133.7L200.652 183.156L250.114 201.637L268.578 152.181Z" fill="url(#paint4_linear)"/>
<path d="M232.157 250.249L182.695 231.768L164.232 281.223L213.694 299.705L232.157 250.249Z" fill="url(#paint5_linear)"/>
<path d="M266.089 153.312L220.249 136.184L203.137 182.018L248.978 199.147L266.089 153.312Z" fill="#69F0AE"/>
<path d="M229.842 250.408L184.002 233.28L166.89 279.115L212.731 296.243L229.842 250.408Z" fill="#3D8060"/>
<path d="M353.799 202.208L290.965 178.731L289.328 183.115L352.162 206.592L353.799 202.208Z" fill="#E0E0E0"/>
<path d="M392.261 224.074L288.513 185.309L286.876 189.693L390.625 228.458L392.261 224.074Z" fill="#E0E0E0"/>
<path d="M382.495 227.915L286.055 191.88L284.418 196.264L380.859 232.299L382.495 227.915Z" fill="#E0E0E0"/>
<path d="M317.55 299.309L254.716 275.832L253.079 280.216L315.913 303.693L317.55 299.309Z" fill="#E0E0E0"/>
<path d="M356.014 321.17L252.266 282.405L250.629 286.789L354.378 325.554L356.014 321.17Z" fill="#E0E0E0"/>
<path d="M346.247 325.016L249.806 288.981L248.169 293.365L344.61 329.4L346.247 325.016Z" fill="#E0E0E0"/>
<path d="M225.231 161.046L230.707 171.785L248.973 158.854L251.84 163.878L228.118 178.725L221.248 161.139L225.231 161.046Z" fill="url(#paint6_linear)"/>
<path d="M226.471 161.873L231.234 171.209L247.116 159.964L249.606 164.332L228.98 177.241L223.004 161.953L226.471 161.873Z" fill="white"/>
<path d="M189.998 259.575L194.761 268.911L210.643 257.666L213.132 262.033L192.507 274.943L186.531 259.655L189.998 259.575Z" fill="white"/>
<path d="M323.768 396.492L177.194 341.726L158.957 390.575L305.531 445.342L323.768 396.492Z" fill="#E0E0E0"/>
<path d="M282.441 408.631C279.675 403.659 275.506 399.909 269.851 403.099C267.945 404.174 265.582 406.439 263.215 405.608C259.731 404.385 259.154 399.285 258.033 396.321C255.945 390.798 250.868 388.06 245.056 389.466C242.11 390.177 239.527 391.804 237.062 393.507C235.994 394.247 234.857 395.343 233.624 395.814C231.265 396.714 229.128 394.284 227.693 392.723C227.364 392.395 227.068 392.021 226.767 391.651C229.582 391.205 232.16 389.81 234.073 387.697C237.281 384.294 238.749 378.531 234.591 375.182C230.88 372.169 225.266 373.048 222.359 376.709C219.888 379.823 219.543 383.806 220.549 387.465C218.898 386.825 217.281 385.998 215.675 385.439C214.925 385.178 214.161 384.961 213.385 384.789C211.691 379.94 207.69 375.345 203.137 374.011C200.934 373.365 199.661 376.719 201.878 377.365C205.344 378.382 207.509 381.161 209.074 384.282L209.2 384.548C208.672 384.613 208.151 384.725 207.643 384.882C203.75 386.128 201.011 391.514 203.951 395.012C208.103 399.939 214.312 394.156 214.234 389.303C214.231 389.097 214.224 388.895 214.206 388.689C215.718 389.216 217.191 389.949 218.581 390.508C219.789 390.998 221.046 391.356 222.33 391.577L222.46 391.797C225.141 396.05 230.309 401.706 235.754 398.754C240.467 396.178 248.306 388.541 253.352 395.018C255.412 397.658 255.535 401.389 257.116 404.277C258.52 406.874 260.811 409.214 263.925 409.382C266.494 409.522 268.592 408.032 270.683 406.772C271.761 406.119 273.004 405.295 274.327 405.383C276.715 405.544 278.164 408.306 279.18 410.132C280.294 412.125 283.569 410.652 282.441 408.631ZM207.875 393.114C206.353 393.107 206.143 391.696 206.527 390.496C206.994 389.037 208.156 388.3 209.637 388.084C209.878 388.049 210.122 388.027 210.366 388.018C210.901 390.507 210.737 393.143 207.889 393.128L207.875 393.114ZM229.404 376.948C232.434 377.06 234.302 379.571 233.234 382.51C232.167 385.449 228.928 387.864 225.849 388.317C225.443 388.375 225.033 388.399 224.623 388.39C224.014 387.17 223.651 385.841 223.554 384.48C223.372 380.947 225.417 376.801 229.428 376.951L229.404 376.948Z" fill="#3D8060"/>
<defs>
<filter id="filter0_d" x="81.0632" y="54.7751" width="404.573" height="460.562" filterUnits="userSpaceOnUse" color-interpolation-filters="sRGB">
<feFlood flood-opacity="0" result="BackgroundImageFix"/>
<feColorMatrix in="SourceAlpha" type="matrix" values="0 0 0 0 0 0 0 0 0 0 0 0 0 0 0 0 0 0 127 0"/>
<feOffset dy="4"/>
<feGaussianBlur stdDeviation="13.5"/>
<feColorMatrix type="matrix" values="0 0 0 0 0 0 0 0 0 0 0 0 0 0 0 0 0 0 0.25 0"/>
<feBlend mode="normal" in2="BackgroundImageFix" result="effect1_dropShadow"/>
<feBlend mode="normal" in="SourceGraphic" in2="effect1_dropShadow" result="shape"/>
</filter>
<linearGradient id="paint0_linear" x1="262405" y1="151885" x2="262405" y2="25341.6" gradientUnits="userSpaceOnUse">
<stop stop-color="#808080" stop-opacity="0.25"/>
<stop offset="0.54" stop-color="#808080" stop-opacity="0.12"/>
<stop offset="1" stop-color="#808080" stop-opacity="0.1"/>
</linearGradient>
<linearGradient id="paint1_linear" x1="221.775" y1="446.006" x2="344.123" y2="118.558" gradientUnits="userSpaceOnUse">
<stop stop-color="#808080" stop-opacity="0.25"/>
<stop offset="0.54" stop-color="#808080" stop-opacity="0.12"/>
<stop offset="1" stop-color="#808080" stop-opacity="0.1"/>
</linearGradient>
<linearGradient id="paint2_linear" x1="68988.6" y1="30594.8" x2="69611.1" y2="28929" gradientUnits="userSpaceOnUse">
<stop stop-color="#808080" stop-opacity="0.25"/>
<stop offset="0.54" stop-color="#808080" stop-opacity="0.12"/>
<stop offset="1" stop-color="#808080" stop-opacity="0.1"/>
</linearGradient>
<linearGradient id="paint3_linear" x1="18735.6" y1="10867.4" x2="19601.7" y2="8549.44" gradientUnits="userSpaceOnUse">
<stop stop-color="#808080" stop-opacity="0.25"/>
<stop offset="0.54" stop-color="#808080" stop-opacity="0.12"/>
<stop offset="1" stop-color="#808080" stop-opacity="0.1"/>
</linearGradient>
<linearGradient id="paint4_linear" x1="15870" y1="24612.2" x2="17845.7" y2="19324.4" gradientUnits="userSpaceOnUse">
<stop stop-color="#808080" stop-opacity="0.25"/>
<stop offset="0.54" stop-color="#808080" stop-opacity="0.12"/>
<stop offset="1" stop-color="#808080" stop-opacity="0.1"/>
</linearGradient>
<linearGradient id="paint5_linear" x1="11982.6" y1="35203.8" x2="13958.5" y2="29915.5" gradientUnits="userSpaceOnUse">
<stop stop-color="#808080" stop-opacity="0.25"/>
<stop offset="0.54" stop-color="#808080" stop-opacity="0.12"/>
<stop offset="1" stop-color="#808080" stop-opacity="0.1"/>
</linearGradient>
<linearGradient id="paint6_linear" x1="6796.77" y1="11916.7" x2="7325.86" y2="10500.6" gradientUnits="userSpaceOnUse">
<stop stop-color="#808080" stop-opacity="0.25"/>
<stop offset="0.54" stop-color="#808080" stop-opacity="0.12"/>
<stop offset="1" stop-color="#808080" stop-opacity="0.1"/>
</linearGradient>
<clipPath id="clip0">
<rect width="437" height="423" fill="white" transform="translate(386 114.529)"/>
</clipPath>
</defs>
</svg>
