<svg width="267" height="263" viewBox="0 0 267 263" fill="none" xmlns="http://www.w3.org/2000/svg">
<path d="M199.31 215.491C193.677 220.24 186.319 220.164 185.669 219.789C129.502 214 176.828 218.879 147.304 215.834C74.3329 205.821 74.7842 207.548 68.6209 200.046C61.8189 191.757 63.4427 201.179 64.5259 97.0911C64.5502 89.8928 69.178 80.4944 77.3595 76.1517C137.035 40.8683 148.238 32.1158 160.623 39.1003C161.401 39.6239 155.866 34.6718 214.227 88.0281C219.104 92.598 222.972 101.913 222.117 111.176C222.083 111.531 223.295 104.603 205.947 202.917C205.43 207.851 203.079 212.308 199.31 215.491Z" fill="#001737"/>
</svg>
