<svg width="267" height="263" viewBox="0 0 267 263" fill="none" xmlns="http://www.w3.org/2000/svg">
<path d="M189.678 145.876L144.871 223.484C139.59 232.631 127.893 235.797 118.793 230.543L16.9369 171.736C7.84018 166.484 4.7299 154.77 10.0112 145.622L54.818 68.0145C59.0309 60.7176 66.1461 55.4796 74.3416 53.6439C151.877 36.2748 152.412 34.4711 160.622 39.1011C170.07 44.5558 167.48 42.2368 192.362 121.783C194.87 129.798 193.891 138.579 189.678 145.876Z" fill="#FFEC00"/>
<path d="M189.679 145.877L144.873 223.485C139.591 232.633 127.892 235.797 118.794 230.544L67.8652 201.14L161.221 39.4432C169.972 44.4713 168.052 44.0715 192.362 121.784C194.869 129.799 193.892 138.581 189.679 145.877Z" fill="#FFD92E"/>
<path d="M147.753 74.5085C143.878 81.2195 133.714 75.3489 137.588 68.6396C141.462 61.9292 151.627 67.7992 147.753 74.5085Z" fill="#00357B"/>
<path d="M139.741 76.6485C145.957 65.8824 145.273 65.8011 146.951 67.5726C151.541 72.6778 145.459 79.9501 139.741 76.6485Z" fill="#001737"/>
<path d="M138.345 118.646C87.8073 157.062 102.445 145.936 79.6512 163.261C77.7129 164.735 75.1548 164.814 73.1724 163.67C69.5764 161.594 69.2096 156.479 72.5563 153.932C78.5963 149.342 104.167 129.907 131.254 109.32C133.832 107.362 137.509 107.861 139.466 110.439C141.422 113.012 140.922 116.692 138.345 118.646Z" fill="#FF2828"/>
<path d="M138.345 118.646L97.6232 149.6L112.768 123.369L131.254 109.32C133.832 107.362 137.508 107.861 139.466 110.439C141.422 113.012 140.921 116.692 138.345 118.646Z" fill="#CC0000"/>
<path d="M107.24 111.329C112.894 101.536 110.322 89.4265 101.505 84.3361C92.6878 79.2457 80.9145 83.072 75.2602 92.8656C69.6059 102.659 72.1788 114.768 80.9957 119.859C89.8126 124.949 101.586 121.123 107.24 111.329ZM86.8551 109.71C83.6886 107.882 83.0268 102.852 85.4092 98.7251C87.7917 94.5986 92.4789 92.6567 95.6453 94.4848C98.8117 96.3129 99.4735 101.343 97.0911 105.47C94.7087 109.596 90.0215 111.538 86.8551 109.71Z" fill="#FF2828"/>
<path d="M129.468 154.154C120.651 149.064 108.878 152.89 103.224 162.683C97.5692 172.477 100.142 184.586 108.959 189.677C117.776 194.767 129.549 190.941 135.204 181.147C140.858 171.354 138.285 159.245 129.468 154.154ZM114.818 179.528C111.652 177.7 110.99 172.669 113.373 168.543C115.755 164.417 120.442 162.475 123.609 164.303C126.775 166.131 127.437 171.161 125.054 175.288C122.672 179.414 117.985 181.356 114.818 179.528Z" fill="#CC0000"/>
</svg>
