<svg width="105" height="105" viewBox="0 0 105 105" fill="none" xmlns="http://www.w3.org/2000/svg">
<g clip-path="url(#clip0)">
<path d="M4.17068 27.5303C-0.744424 35.6102 -1.26245 49.5994 2.3379 58.3447C5.49139 66.0046 11.7645 73.1942 19.9992 74.0949C23.0274 74.4261 26.1224 73.8849 29.1195 74.4308C39.4261 76.3077 43.26 89.0098 51.27 95.7618C56.8444 100.461 64.5791 102.124 71.8134 101.218C79.0478 100.313 85.8207 97.0423 91.7831 92.8462C96.4911 89.5328 100.896 85.4589 103.219 80.1915C108.088 69.1503 102.36 55.8895 93.4601 47.7401C90.6882 45.2019 87.5987 42.963 85.2826 40.0031C82.9666 37.043 81.4927 33.093 82.5963 29.5003C83.4767 26.6339 85.8465 24.4119 86.7444 21.5508C87.9662 17.6576 86.122 13.2901 83.0936 10.5554C80.0652 7.82063 76.0577 6.44579 72.0878 5.50222C55.4554 1.54811 19.0089 3.1387 4.17068 27.5303Z" fill="url(#paint0_linear)"/>
<path opacity="0.1" d="M59.2288 64.287V61.4737C64.9919 58.9381 69.3809 53.2417 70.7685 46.2426C71.5593 46.6173 72.4584 46.8012 73.4062 46.7321C75.98 46.5447 78.0681 44.4555 78.2526 41.8816C78.3794 40.1136 77.6288 38.5167 76.3938 37.4765C82.0275 35.5096 86.0706 30.1526 86.0706 23.848C86.0706 15.8758 79.608 9.41321 71.6358 9.41321C68.0465 9.41321 64.7657 10.7263 62.2405 12.8942C59.2739 11.5376 55.9756 10.7807 52.5002 10.7807C39.5497 10.7807 29.0513 21.279 29.0513 34.2295V37.1373C27.5542 38.1477 26.606 39.9093 26.7475 41.8816C26.9322 44.4555 29.0203 46.5447 31.5941 46.7319C32.5422 46.8008 33.4408 46.617 34.2318 46.2424C35.6193 53.2415 40.0084 58.9379 45.7715 61.4735V64.2868C32.5212 65.5255 22.15 76.6756 22.15 90.2497V99.7932C22.15 100.926 23.0682 101.844 24.2008 101.844H80.7997C81.9324 101.844 82.8505 100.926 82.8505 99.7932V90.2497C82.8503 76.6758 72.4791 65.5257 59.2288 64.287Z" fill="black"/>
<path d="M82.8503 96.6123H22.15V85.018C22.15 70.615 33.8259 58.9391 48.229 58.9391H56.7713C71.1744 58.9391 82.8505 70.615 82.8505 85.018V96.6123H82.8503Z" fill="#FF8B00"/>
<path d="M34.3155 96.6124V80.2127C34.3155 79.2636 33.546 78.4941 32.5969 78.4941C31.6478 78.4941 30.8784 79.2636 30.8784 80.2127V96.6124H34.3155Z" fill="black"/>
<path d="M74.1219 96.6124V80.2127C74.1219 79.2636 73.3525 78.4941 72.4034 78.4941C71.4543 78.4941 70.6848 79.2636 70.6848 80.2127V96.6124H74.1219Z" fill="black"/>
<path d="M59.2286 49.8295V59.7327C59.2286 63.4487 56.2161 66.4613 52.5 66.4613C48.784 66.4613 45.7714 63.4487 45.7714 59.7327V49.8295H59.2286Z" fill="#FFAB66"/>
<path d="M59.2286 49.8295V59.7255C57.1225 60.5725 54.8584 61.0319 52.5 61.0319C50.1416 61.0319 47.8776 60.5725 45.7714 59.7255V49.8295H59.2286Z" fill="#FF9D33"/>
<path d="M75.9489 37.568V28.9975C75.9489 16.0471 65.4505 5.54871 52.5 5.54871C39.5496 5.54871 29.0512 16.0471 29.0512 28.9975V37.568H75.9489Z" fill="#FF8B00"/>
<path d="M73.0142 41.5143C75.915 41.5143 78.2665 39.1628 78.2665 36.262C78.2665 33.3613 75.915 31.0098 73.0142 31.0098C70.1135 31.0098 67.762 33.3613 67.762 36.262C67.762 39.1628 70.1135 41.5143 73.0142 41.5143Z" fill="#FFAB66"/>
<path d="M78.2579 35.9631C76.2748 36.9885 74.023 37.5689 71.6359 37.5689C70.3172 37.5689 69.0375 37.3925 67.8235 37.0582C67.7825 36.7978 67.762 36.5332 67.762 36.2625C67.762 33.3607 70.1142 31.0105 73.014 31.0105C75.8154 31.0103 78.102 33.2005 78.2579 35.9631Z" fill="#FF9D33"/>
<path d="M31.9859 41.5143C34.8866 41.5143 37.2382 39.1628 37.2382 36.262C37.2382 33.3613 34.8866 31.0098 31.9859 31.0098C29.0852 31.0098 26.7336 33.3613 26.7336 36.262C26.7336 39.1628 29.0852 41.5143 31.9859 41.5143Z" fill="#FFAB66"/>
<path d="M52.5001 57.6654C62.8454 57.6654 71.2319 48.0828 71.2319 36.262C71.2319 24.4413 62.8454 14.8586 52.5001 14.8586C42.1548 14.8586 33.7682 24.4413 33.7682 36.262C33.7682 48.0828 42.1548 57.6654 52.5001 57.6654Z" fill="#FFC599"/>
<path d="M71.2319 36.2622C71.2319 36.699 71.2196 37.1318 71.197 37.5624C63.4287 37.3307 57.2004 30.9569 57.2004 23.1331C57.2004 20.6107 57.8485 18.24 58.9867 16.1769C66.1357 19.1915 71.2319 27.046 71.2319 36.2622Z" fill="#FFAB66"/>
<path d="M40.166 34.66C39.9546 34.66 39.7413 34.5949 39.5579 34.4596C39.1023 34.1233 39.0055 33.4814 39.3416 33.0257C39.4257 32.9117 40.2054 31.891 41.6821 31.1402C43.0617 30.4388 45.3245 29.8546 48.2697 31.0553C48.794 31.269 49.0459 31.8674 48.832 32.392C48.6183 32.9164 48.0201 33.168 47.4953 32.9543C43.276 31.2343 41.014 34.2131 40.9916 34.2434C40.7909 34.5158 40.4806 34.66 40.166 34.66Z" fill="#FF8B00"/>
<path d="M64.834 34.66C65.0454 34.66 65.2587 34.5949 65.442 34.4596C65.8977 34.1233 65.9945 33.4814 65.6584 33.0257C65.5743 32.9117 64.7946 31.891 63.3178 31.1402C61.9383 30.4388 59.6754 29.8546 56.7303 31.0553C56.2059 31.269 55.9541 31.8674 56.168 32.392C56.3817 32.9164 56.9799 33.168 57.5047 32.9543C61.724 31.2343 63.986 34.2131 64.0083 34.2434C64.2091 34.5158 64.5194 34.66 64.834 34.66Z" fill="#FF8B00"/>
<path d="M60.0572 12.9659H44.194C37.1653 12.9659 31.4677 18.6636 31.4677 25.6923C31.4677 32.7209 46.3859 30.7844 59.7732 21.2624C59.7732 21.2624 62.9964 25.8371 72.7835 27.0554V25.6923C72.7835 18.6638 67.0856 12.9659 60.0572 12.9659Z" fill="#FF8B00"/>
<path d="M21.0421 71.1018C20.7796 71.1018 20.5173 71.0017 20.3169 70.8013L19.2989 69.7833L18.2809 70.8013C17.8804 71.2018 17.2313 71.2018 16.8308 70.8013C16.4303 70.401 16.4303 69.7517 16.8308 69.3514L18.5739 67.6082C18.9745 67.2077 19.6235 67.2077 20.0241 67.6082L21.7672 69.3514C22.1677 69.7517 22.1677 70.401 21.7672 70.8013C21.5671 71.0017 21.3046 71.1018 21.0421 71.1018Z" fill="#FF4D4D"/>
<path d="M71.6359 33.0511C79.6081 33.0511 86.0708 26.5884 86.0708 18.6162C86.0708 10.6441 79.6081 4.1814 71.6359 4.1814C63.6638 4.1814 57.2011 10.6441 57.2011 18.6162C57.2011 26.5884 63.6638 33.0511 71.6359 33.0511Z" fill="#FF4D4D"/>
<path d="M66.2394 59.615C65.709 59.4173 65.1182 59.6868 64.9203 60.2175C64.7224 60.7483 64.9923 61.3387 65.5228 61.5366C70.2601 63.3031 74.3135 66.4285 77.2447 70.5752C80.2409 74.814 81.8247 79.808 81.8247 85.018V96.6123C81.8247 97.1788 82.2839 97.6377 82.8501 97.6377C83.4163 97.6377 83.8755 97.1788 83.8755 96.6123V85.018C83.8755 79.3819 82.1616 73.9783 78.9194 69.3915C75.7491 64.9066 71.3645 61.5261 66.2394 59.615Z" fill="black"/>
<path d="M71.5153 42.3589C72.003 42.4787 72.5046 42.5398 73.0144 42.5398C76.4759 42.5398 79.2921 39.7237 79.2921 36.2622C79.2921 34.9579 78.8811 33.6897 78.1383 32.6376C83.4226 30.1771 87.0961 24.819 87.0961 18.6162C87.0961 10.0915 80.1608 3.15601 71.6359 3.15601C63.1112 3.15601 56.1757 10.0913 56.1757 18.6162C56.1757 19.8079 56.3157 20.9668 56.5721 22.0818C46.9117 27.557 37.0474 26.037 33.2104 25.1119C32.6598 24.9778 32.1059 25.3176 31.9732 25.8682C31.8405 26.4188 32.1791 26.9725 32.7295 27.1052C33.1848 27.2152 33.7213 27.3327 34.3273 27.4471C33.992 28.3353 33.7092 29.2415 33.4799 30.1634C32.9936 30.0444 32.4937 29.9841 31.9853 29.9841C31.3198 29.9841 30.6785 30.0891 30.076 30.2819V28.9973C30.076 16.6329 40.1351 6.57384 52.4994 6.57384C53.5583 6.57384 54.6302 6.64992 55.6857 6.80024C56.2448 6.88043 56.7655 6.48996 56.8452 5.92948C56.925 5.369 56.5352 4.84954 55.9745 4.76997C54.8238 4.60632 53.6546 4.52326 52.4994 4.52326C39.0043 4.52326 28.0252 15.5023 28.0252 28.9975V31.3953C26.612 32.5474 25.7074 34.3008 25.7074 36.262C25.7074 39.7235 28.5236 42.5396 31.9851 42.5396C32.4955 42.5396 32.9967 42.4781 33.484 42.3585C35.1152 48.9057 39.3055 54.2449 44.7452 56.89V58.1385C31.4389 59.8531 21.1237 71.2524 21.1237 85.0179V96.6124C21.1237 97.1788 21.5829 97.6378 22.1491 97.6378C22.7153 97.6378 23.1745 97.1788 23.1745 96.6124V85.0181C23.1745 72.3797 32.5814 61.899 44.761 60.2057C45.0063 64.2617 48.3825 67.487 52.4992 67.487C56.7749 67.487 60.2532 64.0084 60.2532 59.7328V56.8904C65.6938 54.2451 69.8841 48.9061 71.5153 42.3589ZM77.2413 36.262C77.2413 38.5927 75.3451 40.4888 73.0144 40.4888C72.6437 40.4888 72.2807 40.4384 71.9283 40.3449C72.1439 39.0205 72.2575 37.6561 72.2575 36.262C72.2575 35.5288 72.2245 34.7924 72.1621 34.0629C73.5366 34.0166 74.8661 33.7924 76.1277 33.4087C76.8371 34.1843 77.2413 35.2044 77.2413 36.262ZM71.6359 5.20679C79.03 5.20679 85.0453 11.2221 85.0453 18.6162C85.0453 26.0103 79.0298 32.0257 71.6359 32.0257C64.242 32.0257 58.2265 26.0103 58.2265 18.6162C58.2265 11.2221 64.242 5.20679 71.6359 5.20679ZM31.9859 40.489C29.6552 40.489 27.759 38.5929 27.759 36.2622C27.759 33.9315 29.6552 32.0353 31.9859 32.0353C32.3556 32.0353 32.7174 32.086 33.0687 32.1791C32.8532 33.5137 32.7428 34.8765 32.7428 36.2624C32.7428 37.6559 32.8564 39.0199 33.0716 40.3436C32.7194 40.437 32.3571 40.489 31.9859 40.489ZM34.7936 36.262C34.7936 33.2939 35.3336 30.4417 36.399 27.7748C37.7919 27.9549 39.399 28.0826 41.1646 28.0826C45.7983 28.0826 51.5056 27.2029 57.1814 24.0935C59.2231 29.463 64.1719 33.411 70.0968 33.9991C70.1686 34.7483 70.2065 35.5067 70.2065 36.2618C70.2065 47.4982 62.2634 56.6398 52.5001 56.6398C42.7367 56.6398 34.7936 47.4984 34.7936 36.262ZM58.2033 59.7328C58.2033 62.8776 55.6447 65.4362 52.5001 65.4362C49.3554 65.4362 46.7968 62.8776 46.7968 59.7328V57.7369C48.6034 58.3565 50.5178 58.691 52.5001 58.691C54.4823 58.691 56.3967 58.3565 58.2033 57.7369V59.7328Z" fill="black"/>
<path d="M81.2481 18.6174C79.1049 21.6088 75.5995 23.56 71.6373 23.56C67.6752 23.56 64.1672 21.6088 62.0241 18.6174C64.1674 15.6234 67.6752 13.6721 71.6373 13.6721C75.5995 13.6721 79.1049 15.6232 81.2481 18.6174Z" fill="white"/>
<path d="M71.636 23.56C74.3664 23.56 76.5798 21.3466 76.5798 18.6162C76.5798 15.8858 74.3664 13.6724 71.636 13.6724C68.9056 13.6724 66.6921 15.8858 66.6921 18.6162C66.6921 21.3466 68.9056 23.56 71.636 23.56Z" fill="black"/>
<path d="M59.1689 40.5943C58.4575 40.5943 57.8806 40.0176 57.8806 39.306V38.315C57.8806 37.6036 58.4573 37.0267 59.1689 37.0267C59.8803 37.0267 60.4572 37.6034 60.4572 38.315V39.306C60.4572 40.0176 59.8803 40.5943 59.1689 40.5943Z" fill="black"/>
<path d="M45.8311 40.5943C45.1197 40.5943 44.5428 40.0176 44.5428 39.306V38.315C44.5428 37.6036 45.1195 37.0267 45.8311 37.0267C46.5425 37.0267 47.1194 37.6034 47.1194 38.315V39.306C47.1194 40.0176 46.5425 40.5943 45.8311 40.5943Z" fill="black"/>
<path d="M52.5001 46.2817C53.8115 46.2817 54.8749 47.3449 54.8749 48.6563V49.4184C54.8749 49.9846 54.4157 50.4438 53.8495 50.4438H51.1506C50.5844 50.4438 50.1252 49.9846 50.1252 49.4184V48.6563C50.1252 47.3451 51.1886 46.2817 52.5001 46.2817Z" fill="#FF6C6C"/>
<path d="M15.9463 80.5658C15.7349 80.5658 15.5232 80.5006 15.3436 80.3699L14.6789 79.8872L14.0143 80.3699C13.655 80.631 13.1683 80.631 12.8088 80.3699C12.4495 80.1091 12.299 79.6462 12.4364 79.2235L12.6903 78.442L12.0256 77.959C11.6663 77.698 11.5158 77.2351 11.6532 76.8127C11.7904 76.39 12.1842 76.1041 12.6284 76.1041H13.4499L13.7038 75.3226C13.841 74.8999 14.2347 74.614 14.6789 74.614C15.1231 74.614 15.5169 74.9001 15.6541 75.3226L15.908 76.1041H16.7295C17.1737 76.1041 17.5675 76.3902 17.7047 76.8127C17.8419 77.2351 17.6915 77.6978 17.3322 77.959L16.6676 78.442L16.9215 79.2235C17.0587 79.6462 16.9083 80.1089 16.549 80.3699C16.3692 80.5004 16.1578 80.5658 15.9463 80.5658Z" fill="#FF9D33"/>
<path d="M89.557 32.9067C89.2945 32.9067 89.0322 32.8066 88.8318 32.6062L87.8138 31.5882L86.7958 32.6062C86.3953 33.0068 85.7462 33.0068 85.3457 32.6062C84.9452 32.2059 84.9452 31.5567 85.3457 31.1563L87.0888 29.4132C87.4894 29.0127 88.1384 29.0127 88.5389 29.4132L90.2821 31.1563C90.6826 31.5567 90.6826 32.2059 90.2821 32.6062C90.0817 32.8066 89.8195 32.9067 89.557 32.9067Z" fill="#FF4D4D"/>
<path d="M86.5225 40.7293C86.26 40.7293 85.9977 40.6292 85.7974 40.4289L84.7794 39.4109L83.7614 40.4289C83.3608 40.8294 82.7118 40.8294 82.3113 40.4289C81.9107 40.0286 81.9107 39.3793 82.3113 38.979L84.0544 37.2358C84.4549 36.8353 85.104 36.8353 85.5045 37.2358L87.2477 38.979C87.6482 39.3793 87.6482 40.0286 87.2477 40.4289C87.0473 40.629 86.785 40.7293 86.5225 40.7293Z" fill="black"/>
<path d="M90.8245 74.8895C90.6131 74.8895 90.4014 74.8243 90.2218 74.6937L89.5571 74.2109L88.8925 74.6937C88.5332 74.9547 88.0465 74.9547 87.687 74.6937C87.3277 74.4328 87.1772 73.97 87.3146 73.5473L87.5685 72.7657L86.9038 72.2828C86.5445 72.0217 86.394 71.5589 86.5314 71.1364C86.6686 70.7137 87.0623 70.4278 87.5065 70.4278H88.3281L88.582 69.6463C88.7192 69.2236 89.1129 68.9377 89.5571 68.9377C90.0013 68.9377 90.3951 69.2238 90.5323 69.6463L90.7862 70.4278H91.6077C92.0519 70.4278 92.4457 70.7139 92.5828 71.1364C92.72 71.5589 92.5697 72.0215 92.2104 72.2828L91.5458 72.7657L91.7997 73.5473C91.9369 73.97 91.7865 74.4326 91.4272 74.6937C91.2476 74.8241 91.0362 74.8895 90.8245 74.8895Z" fill="black"/>
</g>
<defs>
<linearGradient id="paint0_linear" x1="29.3861" y1="-2.97243" x2="72.7909" y2="112.378" gradientUnits="userSpaceOnUse">
<stop stop-color="#FFD9D9" stop-opacity="0"/>
<stop offset="0.9981" stop-color="#FFB3B3"/>
</linearGradient>
<clipPath id="clip0">
<rect width="105" height="105" fill="white"/>
</clipPath>
</defs>
</svg>
