<svg width="104" height="105" viewBox="0 0 104 105" fill="none" xmlns="http://www.w3.org/2000/svg">
<g clip-path="url(#clip0)">
<path d="M3.7507 85.2054C-6.3109 96.0768 6.10553 101.685 14.8125 95.6617C30.0304 82.8714 41.6711 60.249 49.5304 59.6241C61.6249 60.8536 70.005 81.4356 83.7255 78.3783C86.3389 77.6113 88.3969 75.7207 90.3746 73.39C114.756 45.1647 103.036 44.3064 81.6879 25.2928C62.1796 9.41159 58.6091 0.902898 44.354 11.7167C30.8854 21.9337 46.1914 31.0723 3.7507 85.2054Z" fill="url(#paint0_linear)"/>
<path opacity="0.1" d="M94.4796 22.0765C92.3663 22.0007 90.6295 23.7077 90.6295 25.8243V23.1274C90.6295 21.0561 88.9666 19.3771 86.915 19.3771C84.8634 19.3771 83.2004 21.0563 83.2004 23.1274V18.8699C83.2004 16.8364 81.6342 15.1045 79.6214 15.0321C77.5081 14.9562 75.7714 16.6633 75.7714 18.7799V23.1274C75.7714 21.0107 74.0346 19.3037 71.9213 19.3795C69.9084 19.4517 68.3423 21.1836 68.3423 23.2172V41.8495C68.3423 39.3138 66.2615 37.2685 63.7297 37.3594C61.318 37.4459 59.4415 39.5209 59.4415 41.9574V51.0356C59.4415 53.0304 60.0018 54.9844 61.057 56.671L66.5631 65.4702V68.2002C65.6356 68.3899 64.9373 69.2174 64.9373 70.21V70.4719H60.4169C57.1474 70.4719 54.012 71.7832 51.7 74.1174C49.3883 71.7834 46.2526 70.4721 42.9831 70.4721H38.9158V70.2102C38.9158 69.2178 38.2174 68.3901 37.2899 68.2004V65.4704L42.796 56.6712C43.8513 54.9846 44.4115 53.0306 44.4115 51.0358V41.9576C44.4115 39.5213 42.535 37.4463 40.1233 37.3596C37.5914 37.2687 35.5106 39.314 35.5106 41.8498V23.2174C35.5106 21.1838 33.9443 19.4519 31.9315 19.3795C29.8182 19.3037 28.0815 21.0107 28.0815 23.1274V18.7801C28.0815 16.6635 26.3447 14.9564 24.2314 15.0323C22.2185 15.1045 20.6524 16.8366 20.6524 18.8701V23.1276C20.6524 21.0563 18.9894 19.3773 16.9378 19.3773C14.8863 19.3773 13.2233 21.0563 13.2233 23.1276V25.8245C13.2233 23.7079 11.4866 22.0009 9.37325 22.0767C7.36028 22.1489 5.79419 23.881 5.79419 25.9146V52.3295C5.79419 53.5872 6.02961 54.8337 6.48806 56.0034L11.2641 68.1896C10.3021 68.3512 9.56785 69.193 9.56785 70.2102V75.7365C9.56785 76.8111 10.3868 77.6911 11.4287 77.7786V94.1978C11.4287 95.3304 12.3381 96.2486 13.4599 96.2486H35.2587C36.3805 96.2486 37.2899 95.3304 37.2899 94.1978V77.7464C38.2176 77.5567 38.9158 76.7292 38.9158 75.7367V74.7904H42.9831C45.1182 74.7904 47.1659 75.6468 48.6757 77.171L47.0893 78.7726C44.5096 81.3771 44.0443 85.4924 46.11 88.5286C48.7133 92.3546 53.9754 92.6892 57.0438 89.5321C59.7836 86.7131 59.6546 82.1488 56.8887 79.3563L54.7244 77.171C56.2342 75.6466 58.2817 74.7904 60.4169 74.7904H64.9373V75.7367C64.9373 76.729 65.6356 77.5567 66.5631 77.7464V94.1978C66.5631 95.3304 67.4725 96.2486 68.5943 96.2486H90.3931C91.515 96.2486 92.4244 95.3304 92.4244 94.1978V77.7786C93.4664 77.6911 94.2852 76.8111 94.2852 75.7365V70.2102C94.2852 69.193 93.5509 68.3512 92.5889 68.1896L97.365 56.0034C97.8234 54.8339 98.0586 53.5874 98.0586 52.3297V25.9144C98.0588 23.8808 96.4925 22.1489 94.4796 22.0765ZM53.9714 86.5273C52.8763 87.6328 51.0945 87.6328 49.9997 86.5273C48.7472 85.2627 48.747 83.2052 49.9997 81.9407L51.7 80.224L53.9716 82.5174C55.0664 83.6229 55.0664 85.4217 53.9714 86.5273Z" fill="black"/>
<path d="M67.0502 69.5582V65.2401H60.4168C57.1473 65.2401 54.0118 66.5514 51.6999 68.8856C49.3881 66.5516 46.2525 65.2403 42.983 65.2403H36.8027V69.5584H42.983C45.118 69.5584 47.1657 70.4149 48.6755 71.939L47.0981 73.5318C44.5499 76.1045 44.0481 80.1581 46.0394 83.1906C48.617 87.1162 53.9476 87.486 57.0439 84.3001C59.7481 81.5176 59.6189 76.8808 56.8887 74.1243L54.7244 71.939C56.2342 70.4146 58.2817 69.5584 60.417 69.5584H67.0502V69.5582ZM53.9714 81.2955C52.8764 82.4011 51.0945 82.4011 49.9997 81.2955C48.7472 80.031 48.7472 77.9734 49.9997 76.7089L51.7001 74.9922L53.9716 77.2856C55.0665 78.3912 55.0665 80.1901 53.9714 81.2955Z" fill="#FFAB66"/>
<path d="M61.0439 65.2401H67.0502V69.5582H61.0439V65.2401Z" fill="#FF8B00"/>
<path d="M36.8027 65.2401H42.7008V69.5582H36.8027V65.2401Z" fill="#FF8B00"/>
<path d="M56.8199 74.0548L54.7241 71.939L51.6998 74.9922L53.7875 77.1L56.8199 74.0548Z" fill="#FF8B00"/>
<path d="M11.4285 91.0162V63.3774L6.48768 50.7713C6.02922 49.6017 5.79401 48.3553 5.79401 47.0975V20.6824C5.79401 18.6489 7.3603 16.917 9.37307 16.8446C11.4864 16.7687 13.2231 18.4758 13.2231 20.5924V17.8956C13.2231 15.8243 14.8861 14.1454 16.9376 14.1454C18.9892 14.1454 20.6522 15.8243 20.6522 17.8956V13.638C20.6522 11.6044 22.2185 9.87256 24.2313 9.80016C26.3446 9.72429 28.0813 11.4314 28.0813 13.548V17.8954C28.0813 15.7788 29.818 14.0717 31.9313 14.1476C33.9443 14.2198 35.5104 15.9519 35.5104 17.9854V36.6178C35.5104 34.0818 37.5912 32.0368 40.1231 32.1276C42.5349 32.2142 44.4113 34.2892 44.4113 36.7255V45.8035C44.4113 47.7983 43.8511 49.7523 42.7959 51.4388L37.2898 60.2381V91.016H11.4285V91.0162Z" fill="#FFC599"/>
<path d="M11.4285 68.3456H37.2897V76.9234H11.4285V68.3456Z" fill="#FFAB66"/>
<path d="M92.4243 91.0163V63.3775L97.3651 50.7713C97.8236 49.6018 98.0588 48.3553 98.0588 47.0976V20.6825C98.0588 18.6489 96.4925 16.917 94.4797 16.8446C92.3664 16.7688 90.6297 18.4758 90.6297 20.5924V17.8957C90.6297 15.8244 88.9667 14.1454 86.9151 14.1454C84.8636 14.1454 83.2006 15.8244 83.2006 17.8957V13.6382C83.2006 11.6047 81.6343 9.8728 79.6215 9.80041C77.5082 9.72453 75.7715 11.4316 75.7715 13.5482V17.8957C75.7715 15.7791 74.0348 14.072 71.9215 14.1479C69.9085 14.22 68.3424 15.9521 68.3424 17.9857V36.6181C68.3424 34.0821 66.2616 32.037 63.7296 32.1279C61.3179 32.2144 59.4415 34.2894 59.4415 36.7257V45.8037C59.4415 47.7985 60.0017 49.7525 61.0569 51.4391L66.563 60.2383V91.0163H92.4243Z" fill="#FFC599"/>
<path d="M66.563 68.3456H92.4242V76.9234H66.563V68.3456Z" fill="#FFAB66"/>
<path d="M11.5988 72.5552H36.8844C38.0063 72.5552 38.9157 71.637 38.9157 70.5044V64.9781C38.9157 63.8455 38.0063 62.9274 36.8844 62.9274H11.5988C10.477 62.9274 9.56757 63.8455 9.56757 64.9781V70.5044C9.56757 71.637 10.477 72.5552 11.5988 72.5552Z" fill="#B3B3FF"/>
<path d="M36.8844 62.9274H24.4379V72.5552H36.8844C38.0063 72.5552 38.9157 71.637 38.9157 70.5044V64.9781C38.9157 63.8455 38.0063 62.9274 36.8844 62.9274Z" fill="#FF8B00"/>
<path d="M33.572 62.9274H36.8844C38.0062 62.9274 38.9156 63.8455 38.9156 64.9781V70.5044C38.9156 71.637 38.0062 72.5552 36.8844 72.5552H33.572V62.9274Z" fill="#FF6C6C"/>
<path d="M29.035 69.5354C30.0164 69.5354 30.8119 68.7322 30.8119 67.7414C30.8119 66.7506 30.0164 65.9474 29.035 65.9474C28.0536 65.9474 27.2581 66.7506 27.2581 67.7414C27.2581 68.7322 28.0536 69.5354 29.035 69.5354Z" fill="black"/>
<path d="M92.2539 72.5552H66.9683C65.8465 72.5552 64.9371 71.637 64.9371 70.5044V64.9781C64.9371 63.8455 65.8465 62.9274 66.9683 62.9274H92.2539C93.3758 62.9274 94.2852 63.8455 94.2852 64.9781V70.5044C94.2852 71.637 93.3758 72.5552 92.2539 72.5552Z" fill="#B3B3FF"/>
<path d="M70.2807 62.9274H66.9683C65.8465 62.9274 64.9371 63.8455 64.9371 64.9781V70.5044C64.9371 71.637 65.8465 72.5552 66.9683 72.5552H70.2807V62.9274Z" fill="#FF6C6C"/>
<path d="M94.5157 15.8201C93.4209 15.7832 92.3723 16.114 91.5117 16.7667C91.0079 14.6764 89.1382 13.12 86.915 13.12C85.9126 13.12 84.9818 13.4365 84.2161 13.9756V13.6381C84.2161 11.0471 82.171 8.86569 79.6575 8.77566C78.364 8.73157 77.1335 9.20345 76.2016 10.1115C75.2692 11.0198 74.7557 12.2405 74.7557 13.5482V13.9719C73.9215 13.3836 72.9268 13.0866 71.8854 13.1229C69.3717 13.2131 67.3266 15.3946 67.3266 17.9853V32.324C66.3031 31.4858 65.0311 31.0551 63.6935 31.1025C60.7888 31.2069 58.4259 33.7294 58.4259 36.7253V45.8033C58.4259 47.9952 59.0389 50.1331 60.1984 51.9862L65.5474 60.5347V62.2586C64.7981 62.6593 64.2359 63.3668 64.0204 64.2142H60.4167C57.1813 64.2142 54.1219 65.3688 51.6998 67.4852C49.2777 65.3688 46.2183 64.2142 42.9829 64.2142H39.8324C39.6169 63.367 39.0549 62.6595 38.3053 62.2588V60.5349L43.6544 51.9864C44.8139 50.1334 45.4269 47.9954 45.4269 45.8033V36.7253C45.4269 33.7294 43.0639 31.2069 40.1593 31.1025C38.8223 31.0547 37.5497 31.4856 36.526 32.324V17.9855C36.526 15.3946 34.4811 13.2133 31.9674 13.1231C30.9262 13.0868 29.9313 13.3838 29.0971 13.9721V13.5484C29.0971 12.2407 28.5836 11.02 27.6512 10.1117C26.7193 9.20366 25.4926 8.73116 24.1953 8.77586C21.6816 8.8661 19.6365 11.0473 19.6365 13.6383V13.9758C18.8705 13.4367 17.94 13.1202 16.9376 13.1202C14.7144 13.1202 12.8446 14.6766 12.3409 16.7667C11.4805 16.114 10.4335 15.7832 9.33687 15.8201C6.8232 15.9103 4.77814 18.0915 4.77814 20.6825V47.0978C4.77814 48.4907 5.0355 49.8536 5.54311 51.1487L9.95072 62.3946C9.11039 62.9427 8.55179 63.8949 8.55179 64.9781V70.5044C8.55179 71.7761 9.32001 72.8699 10.4126 73.3379V91.0165C10.4126 91.5827 10.8674 92.0419 11.4282 92.0419C11.9891 92.0419 12.4439 91.5827 12.4439 91.0165V73.5806H36.2739V91.0165C36.2739 91.5827 36.7287 92.0419 37.2895 92.0419C37.8503 92.0419 38.3051 91.5827 38.3051 91.0165V73.2235C39.2491 72.7186 39.898 71.7281 39.9271 70.5837H42.9827C44.5189 70.5837 45.9798 71.0774 47.1878 71.9906L46.3796 72.8066C43.4604 75.7538 42.9612 80.3592 45.1925 83.7569C46.5697 85.8545 48.7626 87.1928 51.2089 87.4287C51.4715 87.4541 51.7331 87.4666 51.9935 87.4666C54.1633 87.4666 56.234 86.5969 57.7684 85.018C60.8144 81.8838 60.7401 76.563 57.6065 73.3989L56.2114 71.9904C57.4194 71.0772 58.8805 70.5835 60.4165 70.5835H63.9251C63.9671 72.243 65.3145 73.5806 66.9679 73.5806H91.4083V91.0163C91.4083 91.5825 91.8631 92.0417 92.4239 92.0417C92.9848 92.0417 93.4396 91.5825 93.4396 91.0163V73.3379C94.5322 72.8699 95.3004 71.7761 95.3004 70.5044V64.9781C95.3004 63.8951 94.7418 62.9429 93.9015 62.3946L98.3091 51.1485C98.8167 49.8532 99.074 48.4905 99.074 47.0976V20.6825C99.0742 18.0915 97.0294 15.9103 94.5157 15.8201ZM6.80959 47.0978V20.6825C6.80959 19.1828 7.97573 17.9209 9.40918 17.8696C10.1508 17.8422 10.8508 18.1137 11.3823 18.6315C11.9145 19.1499 12.2074 19.8464 12.2074 20.5927V37.6911C12.2074 38.2573 12.6622 38.7165 13.2231 38.7165C13.7839 38.7165 14.2387 38.2573 14.2387 37.6911V17.8957C14.2387 16.3931 15.4493 15.1708 16.9376 15.1708C18.4259 15.1708 19.6365 16.3931 19.6365 17.8957V37.6911C19.6365 38.2573 20.0913 38.7165 20.6522 38.7165C21.213 38.7165 21.6678 38.2573 21.6678 37.6911V13.6381C21.6678 12.1383 22.8339 10.8765 24.2674 10.8252C25.0082 10.7983 25.709 11.069 26.2405 11.5873C26.7727 12.1057 27.0656 12.8022 27.0656 13.5484V37.6913C27.0656 38.2575 27.5204 38.7167 28.0812 38.7167C28.6421 38.7167 29.0969 38.2575 29.0969 37.6913V17.8957C29.0969 17.1494 29.3898 16.453 29.922 15.9345C30.4535 15.4165 31.1525 15.1456 31.8951 15.1725C33.3286 15.2239 34.4947 16.4858 34.4947 17.9853V46.9932C34.4947 47.5594 34.9495 48.0186 35.5103 48.0186C36.0712 48.0186 36.526 47.5594 36.526 46.9932V36.6177C36.526 35.6682 36.8987 34.7818 37.5757 34.1221C38.2525 33.4628 39.1459 33.1174 40.087 33.1523C41.9112 33.2177 43.3955 34.8208 43.3955 36.7256V45.8035C43.3955 47.6072 42.8911 49.3666 41.937 50.8913L36.4309 59.6906C36.3283 59.8545 36.2739 60.0444 36.2739 60.2382V61.9018H22.4644C21.9036 61.9018 21.4488 62.3609 21.4488 62.9272C21.4488 63.4934 21.9036 63.9525 22.4644 63.9525H36.8843C37.4443 63.9525 37.8999 64.4125 37.8999 64.9779V70.5042C37.8999 71.0696 37.4443 71.5296 36.8843 71.5296H11.5989C11.0389 71.5296 10.5832 71.0696 10.5832 70.5042V64.9779C10.5832 64.4125 11.0389 63.9525 11.5989 63.9525H15.5939C16.1548 63.9525 16.6096 63.4934 16.6096 62.9272C16.6096 62.3609 16.1548 61.9018 15.5939 61.9018H11.9426L7.43217 50.3938C7.01922 49.3403 6.80959 48.2313 6.80959 47.0978ZM42.9829 68.5328H39.9314V66.2654H42.9829C45.6631 66.2654 48.2 67.202 50.2304 68.9187L48.6344 70.53C47.0342 69.2368 45.0627 68.5328 42.9829 68.5328ZM54.0059 71.2137L49.2812 75.9839C48.4837 76.7892 48.0444 77.8611 48.0446 79.0022C48.0446 80.1433 48.4839 81.2154 49.2814 82.0205C50.0029 82.749 50.9633 83.1501 51.9856 83.1501C53.0079 83.1501 53.9683 82.749 54.6896 82.0205C55.4109 81.2921 55.8082 80.3227 55.8082 79.2905C55.8082 78.2584 55.4109 77.289 54.6896 76.5605L53.1363 74.9923L54.7243 73.389L56.1706 74.8492C58.5331 77.2344 58.6012 81.2335 56.3191 83.5818C55.0317 84.9066 53.2399 85.5647 51.4024 85.3875C49.5692 85.2107 47.9229 84.2034 46.886 82.6241C45.1864 80.036 45.5776 76.5171 47.8163 74.2569L52.4177 69.6111C52.4179 69.6109 52.4181 69.6109 52.4183 69.6106C54.5547 67.4534 57.3954 66.2656 60.4169 66.2656H63.9216V68.533H60.4169C57.9953 68.5328 55.7184 69.4849 54.0059 71.2137ZM50.7177 77.434L51.6998 76.4424L53.2531 78.0106C53.9521 78.7163 53.9521 79.8648 53.2531 80.5702C52.9153 80.9113 52.4652 81.0991 51.9854 81.0991C51.5056 81.0991 51.0555 80.9113 50.7175 80.5702C50.3035 80.1523 50.0756 79.5955 50.0756 79.0022C50.0758 78.4087 50.3037 77.8519 50.7177 77.434ZM65.9527 70.5044V64.9781C65.9527 64.4127 66.4083 63.9527 66.9683 63.9527H92.2539C92.8139 63.9527 93.2695 64.4127 93.2695 64.9781V70.5044C93.2695 71.0698 92.8139 71.5298 92.2539 71.5298H66.9683C66.4083 71.5298 65.9527 71.0698 65.9527 70.5044ZM97.043 47.0978C97.043 48.2311 96.8336 49.3403 96.4206 50.3942L91.9102 61.9022H67.5787V60.2386C67.5787 60.0448 67.5243 59.8549 67.4217 59.691L61.9156 50.8917C60.9615 49.3668 60.4571 47.6076 60.4571 45.804V36.726C60.4571 34.8212 61.9414 33.2183 63.7658 33.1527C64.7079 33.116 65.6003 33.4632 66.2769 34.1225C66.9539 34.7822 67.3266 35.6686 67.3266 36.6181V46.9936C67.3266 47.5598 67.7814 48.019 68.3422 48.019C68.9031 48.019 69.3579 47.5598 69.3579 46.9936V17.9855C69.3579 16.486 70.524 15.2241 71.9575 15.1727C72.6968 15.1444 73.399 15.4167 73.9306 15.9347C74.4626 16.453 74.7557 17.1494 74.7557 17.8957V37.6911C74.7557 38.2573 75.2105 38.7165 75.7713 38.7165C76.3322 38.7165 76.787 38.2573 76.787 37.6911V13.5482C76.787 12.802 77.0799 12.1055 77.6121 11.5871C78.1438 11.069 78.8471 10.7983 79.5854 10.825C81.0189 10.8763 82.185 12.1383 82.185 13.6379V37.6909C82.185 38.2571 82.6398 38.7162 83.2006 38.7162C83.7615 38.7162 84.2163 38.2571 84.2163 37.6909V17.8957C84.2163 16.3931 85.4269 15.1708 86.9152 15.1708C88.4035 15.1708 89.6141 16.3931 89.6141 17.8957V37.6911C89.6141 38.2573 90.0689 38.7165 90.6297 38.7165C91.1906 38.7165 91.6454 38.2573 91.6454 37.6911V20.5927C91.6454 19.8464 91.9383 19.1499 92.4705 18.6315C93.0022 18.1135 93.7022 17.843 94.4438 17.8694C95.8773 17.9209 97.0434 19.1828 97.0434 20.6823V47.0978H97.043Z" fill="black"/>
<path d="M66.5632 78.4666C66.0023 78.4666 65.5475 78.9257 65.5475 79.4919V91.0165C65.5475 91.5827 66.0023 92.0419 66.5632 92.0419C67.124 92.0419 67.5788 91.5827 67.5788 91.0165V79.4919C67.5788 78.9255 67.124 78.4666 66.5632 78.4666Z" fill="black"/>
<path d="M46.8649 26.7603C46.6554 26.7603 46.4458 26.6951 46.2679 26.5644L45.6096 26.0815L44.951 26.5644C44.595 26.8255 44.1131 26.8255 43.7571 26.5644C43.4012 26.3034 43.2521 25.8405 43.3882 25.4181L43.6397 24.6367L42.9813 24.1537C42.6255 23.8927 42.4764 23.4298 42.6125 23.0074C42.7485 22.5849 43.1383 22.2988 43.5783 22.2988H44.392L44.6435 21.5173C44.7794 21.0948 45.1694 20.8087 45.6094 20.8087C46.0495 20.8087 46.4393 21.0948 46.5752 21.5173L46.8267 22.2988H47.6406C48.0806 22.2988 48.4706 22.5849 48.6065 23.0074C48.7424 23.4298 48.5935 23.8927 48.2376 24.1537L47.5791 24.6365L47.8305 25.4179C47.9664 25.8403 47.8175 26.3032 47.4617 26.5642C47.2839 26.6951 47.0743 26.7603 46.8649 26.7603Z" fill="#FF9D33"/>
<path d="M61.0558 95.5385C60.8463 95.5385 60.6367 95.4733 60.4588 95.3427L59.8002 94.8597L59.1419 95.3427C58.7858 95.6037 58.304 95.6037 57.9479 95.3427C57.5921 95.0816 57.443 94.6188 57.5791 94.1963L57.8305 93.4147L57.172 92.932C56.8161 92.6709 56.667 92.2081 56.8031 91.7856C56.9392 91.3631 57.329 91.0771 57.769 91.0771H58.5829L58.8344 90.2957C58.9703 89.8732 59.3603 89.5872 59.8002 89.5872C60.2402 89.5872 60.6302 89.8732 60.7661 90.2957L61.0176 91.0773H61.8313C62.2713 91.0773 62.6613 91.3633 62.7972 91.7858C62.933 92.2083 62.7842 92.6711 62.4283 92.9322L61.7699 93.4151L62.0214 94.1967C62.1573 94.6192 62.0084 95.082 61.6525 95.3431C61.4748 95.4731 61.2652 95.5385 61.0558 95.5385Z" fill="black"/>
<path d="M51.9144 32.1431C51.6544 32.1431 51.3946 32.043 51.1961 31.8429L50.1878 30.8249L49.1795 31.8429C48.7828 32.2432 48.1399 32.2432 47.7432 31.8429C47.3465 31.4424 47.3465 30.7931 47.7432 30.3928L49.4698 28.6496C49.8665 28.2493 50.5094 28.2493 50.9061 28.6496L52.6326 30.3928C53.0293 30.7933 53.0293 31.4426 52.6326 31.8429C52.4342 32.043 52.1742 32.1431 51.9144 32.1431Z" fill="black"/>
<path d="M58.5465 60.3733C58.2865 60.3733 58.0267 60.2732 57.8283 60.0731L56.82 59.0551L55.8116 60.0731C55.4149 60.4734 54.772 60.4734 54.3753 60.0731C53.9786 59.6726 53.9786 59.0233 54.3753 58.623L56.1019 56.8798C56.4986 56.4795 57.1415 56.4795 57.5382 56.8798L59.2648 58.623C59.6615 59.0235 59.6615 59.6728 59.2648 60.0731C59.0663 60.2732 58.8065 60.3733 58.5465 60.3733Z" fill="#FF4D4D"/>
<path d="M62.8463 15.4018C62.5863 15.4018 62.3265 15.3017 62.128 15.1015L61.1197 14.0835L60.1114 15.1015C59.7147 15.5018 59.0718 15.5018 58.6751 15.1015C58.2784 14.701 58.2784 14.0517 58.6751 13.6514L60.4017 11.9083C60.7984 11.508 61.4412 11.508 61.838 11.9083L63.5645 13.6514C63.9612 14.0519 63.9612 14.7012 63.5645 15.1015C63.3663 15.3015 63.1063 15.4018 62.8463 15.4018Z" fill="#FF4D4D"/>
<path d="M19.3817 48.1313V45.257C19.3817 44.6905 19.8365 44.2316 20.3973 44.2316C20.9582 44.2316 21.413 44.6905 21.413 45.257V48.1313C21.413 48.6978 20.9582 49.1567 20.3973 49.1567C19.8365 49.1567 19.3817 48.6978 19.3817 48.1313Z" fill="#FFE8DC"/>
<path d="M15.1552 48.1313V45.257C15.1552 44.6905 15.61 44.2316 16.1708 44.2316C16.7317 44.2316 17.1865 44.6905 17.1865 45.257V48.1313C17.1865 48.6978 16.7317 49.1567 16.1708 49.1567C15.61 49.1567 15.1552 48.6978 15.1552 48.1313Z" fill="#FFE8DC"/>
<path d="M23.608 48.1313V45.257C23.608 44.6905 24.0628 44.2316 24.6237 44.2316C25.1845 44.2316 25.6393 44.6905 25.6393 45.257V48.1313C25.6393 48.6978 25.1845 49.1567 24.6237 49.1567C24.0628 49.1567 23.608 48.6978 23.608 48.1313Z" fill="#FFE8DC"/>
<path d="M82.5872 48.1313V45.257C82.5872 44.6905 83.042 44.2316 83.6028 44.2316C84.1636 44.2316 84.6184 44.6905 84.6184 45.257V48.1313C84.6184 48.6978 84.1636 49.1567 83.6028 49.1567C83.042 49.1567 82.5872 48.6978 82.5872 48.1313Z" fill="#FFE8DC"/>
<path d="M78.3608 48.1313V45.257C78.3608 44.6905 78.8156 44.2316 79.3765 44.2316C79.9373 44.2316 80.3921 44.6905 80.3921 45.257V48.1313C80.3921 48.6978 79.9373 49.1567 79.3765 49.1567C78.8156 49.1567 78.3608 48.6978 78.3608 48.1313Z" fill="#FFE8DC"/>
<path d="M86.8137 48.1313V45.257C86.8137 44.6905 87.2685 44.2316 87.8293 44.2316C88.3901 44.2316 88.8449 44.6905 88.8449 45.257V48.1313C88.8449 48.6978 88.3901 49.1567 87.8293 49.1567C87.2685 49.1567 86.8137 48.6978 86.8137 48.1313Z" fill="#FFE8DC"/>
</g>
<defs>
<linearGradient id="paint0_linear" x1="78.2056" y1="-17.5736" x2="35.051" y2="126.686" gradientUnits="userSpaceOnUse">
<stop offset="0.0569" stop-color="white" stop-opacity="0"/>
<stop offset="0.2544" stop-color="#EEEEFF" stop-opacity="0.302"/>
<stop offset="0.5092" stop-color="#DEDEFF" stop-opacity="0.691"/>
<stop offset="0.712" stop-color="#D9D9FF"/>
</linearGradient>
<clipPath id="clip0">
<rect width="104" height="105" fill="white"/>
</clipPath>
</defs>
</svg>
