<svg width="105" height="105" viewBox="0 0 105 105" fill="none" xmlns="http://www.w3.org/2000/svg">
<g clip-path="url(#clip0)">
<path d="M4.17068 27.5303C-0.744422 35.6102 -1.26245 49.5994 2.3379 58.3447C5.49139 66.0046 11.7645 73.1942 19.9992 74.0949C23.0274 74.4261 26.1225 73.8849 29.1195 74.4308C39.4261 76.3077 43.26 89.0098 51.27 95.7618C56.8444 100.461 64.5791 102.124 71.8134 101.218C79.0478 100.313 85.8207 97.0423 91.7831 92.8462C96.4911 89.5328 100.896 85.4589 103.219 80.1915C108.088 69.1503 102.36 55.8895 93.4601 47.7401C90.6882 45.2019 87.5987 42.963 85.2826 40.0031C82.9666 37.043 81.4927 33.093 82.5963 29.5003C83.4767 26.6339 85.8465 24.4119 86.7444 21.5508C87.9662 17.6576 86.122 13.2901 83.0936 10.5554C80.0652 7.82063 76.0577 6.44579 72.0878 5.50222C55.4554 1.54811 19.0089 3.1387 4.17068 27.5303Z" fill="url(#paint0_linear)"/>
<path d="M21.0421 71.1016C20.7796 71.1016 20.5173 71.0016 20.3169 70.8012L19.2989 69.7832L18.2809 70.8012C17.8804 71.2017 17.2313 71.2017 16.8308 70.8012C16.4303 70.4009 16.4303 69.7516 16.8308 69.3513L18.5739 67.6081C18.9745 67.2076 19.6235 67.2076 20.024 67.6081L21.7672 69.3513C22.1677 69.7516 22.1677 70.4009 21.7672 70.8012C21.5671 71.0016 21.3046 71.1016 21.0421 71.1016Z" fill="#FF4D4D"/>
<path d="M59.1689 40.5943C58.4575 40.5943 57.8806 40.0176 57.8806 39.306V38.315C57.8806 37.6036 58.4573 37.0267 59.1689 37.0267C59.8803 37.0267 60.4572 37.6034 60.4572 38.315V39.306C60.4572 40.0176 59.8803 40.5943 59.1689 40.5943Z" fill="black"/>
<path d="M45.8311 40.5943C45.1197 40.5943 44.5428 40.0176 44.5428 39.306V38.315C44.5428 37.6036 45.1195 37.0267 45.8311 37.0267C46.5425 37.0267 47.1194 37.6034 47.1194 38.315V39.306C47.1194 40.0176 46.5425 40.5943 45.8311 40.5943Z" fill="black"/>
<path d="M52.5 46.2817C53.8115 46.2817 54.8749 47.3449 54.8749 48.6563V49.4184C54.8749 49.9846 54.4157 50.4438 53.8495 50.4438H51.1506C50.5844 50.4438 50.1252 49.9846 50.1252 49.4184V48.6563C50.1252 47.3451 51.1886 46.2817 52.5 46.2817Z" fill="#FF6C6C"/>
<path d="M15.9463 80.5657C15.7349 80.5657 15.5232 80.5005 15.3436 80.3698L14.6789 79.8871L14.0143 80.3698C13.655 80.6309 13.1683 80.6309 12.8088 80.3698C12.4495 80.109 12.299 79.6461 12.4364 79.2234L12.6903 78.4419L12.0256 77.9589C11.6663 77.6979 11.5158 77.235 11.6532 76.8125C11.7904 76.3899 12.1841 76.104 12.6283 76.104H13.4499L13.7038 75.3224C13.841 74.8998 14.2347 74.6139 14.6789 74.6139C15.1231 74.6139 15.5169 74.9 15.6541 75.3224L15.9079 76.104H16.7295C17.1737 76.104 17.5674 76.3901 17.7046 76.8125C17.8418 77.235 17.6915 77.6977 17.3322 77.9589L16.6676 78.4419L16.9214 79.2234C17.0586 79.6461 16.9083 80.1088 16.549 80.3698C16.3692 80.5003 16.1577 80.5657 15.9463 80.5657Z" fill="#FF9D33"/>
<path d="M89.557 32.9066C89.2945 32.9066 89.0322 32.8065 88.8318 32.6061L87.8138 31.5881L86.7958 32.6061C86.3953 33.0066 85.7462 33.0066 85.3457 32.6061C84.9452 32.2058 84.9452 31.5565 85.3457 31.1562L87.0888 29.4131C87.4894 29.0125 88.1384 29.0125 88.539 29.4131L90.2821 31.1562C90.6826 31.5565 90.6826 32.2058 90.2821 32.6061C90.0818 32.8065 89.8195 32.9066 89.557 32.9066Z" fill="#FF4D4D"/>
<path d="M86.5225 40.7292C86.26 40.7292 85.9977 40.6291 85.7974 40.4288L84.7794 39.4107L83.7614 40.4288C83.3608 40.8293 82.7118 40.8293 82.3112 40.4288C81.9107 40.0284 81.9107 39.3792 82.3112 38.9789L84.0544 37.2357C84.4549 36.8352 85.104 36.8352 85.5045 37.2357L87.2477 38.9789C87.6482 39.3792 87.6482 40.0284 87.2477 40.4288C87.0473 40.6289 86.785 40.7292 86.5225 40.7292Z" fill="black"/>
<path d="M90.8245 74.8894C90.6131 74.8894 90.4014 74.8242 90.2218 74.6936L89.5571 74.2108L88.8925 74.6936C88.5332 74.9546 88.0465 74.9546 87.687 74.6936C87.3277 74.4327 87.1772 73.9698 87.3146 73.5472L87.5685 72.7656L86.9038 72.2827C86.5445 72.0216 86.394 71.5587 86.5314 71.1363C86.6686 70.7136 87.0623 70.4277 87.5065 70.4277H88.3281L88.582 69.6462C88.7192 69.2235 89.1129 68.9376 89.5571 68.9376C90.0013 68.9376 90.3951 69.2237 90.5323 69.6462L90.7862 70.4277H91.6077C92.0519 70.4277 92.4457 70.7138 92.5829 71.1363C92.7201 71.5587 92.5697 72.0214 92.2104 72.2827L91.5458 72.7656L91.7997 73.5472C91.9369 73.9698 91.7865 74.4325 91.4272 74.6936C91.2476 74.824 91.0362 74.8894 90.8245 74.8894Z" fill="black"/>
<path d="M75.0427 38.575H82.664C82.8438 36.1357 84.8792 34.2137 87.3627 34.2137C89.8462 34.2137 91.8802 36.1357 92.06 38.575H94.5215C95.9053 38.575 97.0272 37.453 97.0272 36.0719V28.4258C97.0272 26.7931 95.8156 25.9654 94.1669 24.677L87.9035 19.7946C86.9541 19.0521 85.7634 18.644 84.5587 18.644H66.0766C64.8882 18.644 63.735 19.0324 62.7891 19.7503L56.6805 24.3813L55.5821 25.2139C54.9031 25.7286 54.1122 26.0778 53.2745 26.2303L45.4029 28.1509C43.9214 28.4185 42.6365 29.4517 42.0529 30.8391L41.043 33.238C39.9896 35.735 41.8839 38.5751 44.5847 38.5751H48.1549C48.3347 36.1358 50.3701 34.2139 52.8536 34.2139C55.3371 34.2139 57.3725 36.1358 57.5523 38.5751H64.9795H75.0427V38.575Z" fill="#FF8B00"/>
<path d="M74.7929 18.6444V25.1657C74.7929 26.0175 74.1025 26.708 73.2506 26.708H59.563C58.1485 26.708 56.9653 25.7112 56.6807 24.3809L62.7887 19.7505C63.7349 19.0327 64.8887 18.6444 66.076 18.6444H74.7929Z" fill="#F9F5F3"/>
<path d="M94.1669 24.6768C93.2585 25.7675 91.9085 26.4054 90.4771 26.4054H82.0997C81.2479 26.4054 80.5574 25.7149 80.5574 24.863V18.6556L80.5602 18.6444H84.5584C85.7696 18.6444 86.9472 19.0482 87.9033 19.7939L94.1669 24.6768Z" fill="#F9F5F3"/>
<path d="M52.8539 43.6368C55.456 43.6368 57.5655 41.5274 57.5655 38.9253C57.5655 36.3232 55.456 34.2137 52.8539 34.2137C50.2518 34.2137 48.1424 36.3232 48.1424 38.9253C48.1424 41.5274 50.2518 43.6368 52.8539 43.6368Z" fill="#868EAF"/>
<path d="M87.3622 43.6368C89.9643 43.6368 92.0737 41.5274 92.0737 38.9253C92.0737 36.3232 89.9643 34.2137 87.3622 34.2137C84.7601 34.2137 82.6507 36.3232 82.6507 38.9253C82.6507 41.5274 84.7601 43.6368 87.3622 43.6368Z" fill="#868EAF"/>
<path d="M95.1835 24.0185C95.0816 23.9394 88.6069 18.892 88.6069 18.892C87.4595 17.9971 86.0135 17.5 84.5587 17.5H66.0766C64.3993 17.5 62.9762 18.173 61.668 19.1647L54.8911 24.3022C54.3562 24.7077 53.7263 24.9853 53.0697 25.1047C53.0475 25.1087 53.0254 25.1135 53.0033 25.1189L45.1635 27.0318C43.3207 27.3774 41.727 28.6634 40.9986 30.3951L39.9891 32.7932C39.3459 34.3178 39.5186 36.0671 40.451 37.4722C41.3844 38.879 42.9297 39.7189 44.5847 39.7189H47.0537C47.4424 42.5734 49.8945 44.7808 52.8539 44.7808C55.8133 44.7808 58.2654 42.5734 58.6541 39.7189H64.9794C65.6112 39.7189 66.1233 39.2067 66.1233 38.575C66.1233 37.9432 65.6112 37.4311 64.9794 37.4311H58.5153C57.8453 34.9013 55.4713 33.0699 52.8535 33.0699C50.2375 33.0699 47.8617 34.9038 47.1918 37.4311H44.5847C43.6983 37.4311 42.8658 36.9736 42.3573 36.2074C41.8424 35.4313 41.7475 34.511 42.0974 33.6817L42.3322 33.1238H44.1278C44.7596 33.1238 45.2717 32.6117 45.2717 31.9799C45.2717 31.3481 44.7596 30.836 44.1278 30.836H43.3387C43.8353 30.028 44.6668 29.4461 45.6062 29.2766C45.629 29.2725 45.6516 29.2677 45.6742 29.2622L53.5143 27.3493C54.4979 27.1646 55.4397 26.7489 56.2434 26.1468C56.9964 27.1869 58.2219 27.8522 59.563 27.8522H73.2507C74.7319 27.8522 75.9369 26.6472 75.9369 25.166V19.788H79.4136V24.8632C79.4136 26.3443 80.6186 27.5493 82.0998 27.5493H90.4772C91.8707 27.5493 93.1976 27.0643 94.2525 26.1954C95.3779 27.0874 95.8834 27.6053 95.8834 28.4258V36.0719C95.8834 36.8214 95.2725 37.4311 94.5215 37.4311H93.0236C92.354 34.8963 89.9846 33.0699 87.3628 33.0699C84.7402 33.0699 82.3705 34.8956 81.7008 37.4311H75.0429C74.4111 37.4311 73.899 37.9432 73.899 38.575C73.899 39.2067 74.4111 39.7189 75.0429 39.7189H81.5621C81.9508 42.5734 84.4029 44.7808 87.3623 44.7808C90.3217 44.7808 92.7738 42.5734 93.1625 39.7189H94.5217C96.534 39.7189 98.1713 38.0829 98.1713 36.0719V28.4258C98.1712 26.3388 96.7867 25.2637 95.1835 24.0185ZM52.8539 42.493C50.8867 42.493 49.2863 40.8925 49.2863 38.9253C49.2863 37.0551 50.8068 35.4559 52.6752 35.3623C54.6792 35.2628 56.4215 36.9187 56.4215 38.9253C56.4215 40.8925 54.8211 42.493 52.8539 42.493ZM73.649 25.1659C73.649 25.3855 73.4704 25.5643 73.2507 25.5643H59.5629C58.9514 25.5643 58.3942 25.2514 58.0659 24.7664L63.4806 20.6615C64.2205 20.0999 65.1473 19.7885 66.0759 19.7885H73.6489V25.1659H73.649ZM82.0998 25.2614C81.8801 25.2614 81.7015 25.0827 81.7015 24.8631V19.7885H84.5585C85.5068 19.7885 86.4529 20.1122 87.2003 20.6968L92.376 24.7313C91.8108 25.0748 91.1566 25.2615 90.4773 25.2615H82.0998V25.2614ZM87.3622 42.493C85.395 42.493 83.7946 40.8925 83.7946 38.9253C83.7946 36.9904 85.4246 35.3577 87.3622 35.3577C89.2996 35.3577 90.9298 36.9916 90.9298 38.9253C90.9298 40.8925 89.3294 42.493 87.3622 42.493Z" fill="black"/>
<path d="M75.5359 31.9796C75.5359 31.3478 75.0238 30.8357 74.392 30.8357H72.0777C71.446 30.8357 70.9338 31.3478 70.9338 31.9796C70.9338 32.6114 71.446 33.1235 72.0777 33.1235H74.392C75.0238 33.1235 75.5359 32.6114 75.5359 31.9796Z" fill="black"/>
<path d="M71.1782 38.1377C70.9418 37.561 70.259 37.2808 69.6843 37.5189C69.1086 37.7573 68.8271 38.4371 69.0655 39.0128C69.304 39.5886 69.984 39.8692 70.5594 39.6316C71.1344 39.3941 71.4176 38.7124 71.1782 38.1377Z" fill="black"/>
<path d="M50.1743 70.8118H57.7956C57.9754 68.3725 60.0108 66.4506 62.4943 66.4506C64.9778 66.4506 67.0118 68.3725 67.1916 70.8118H69.6531C71.0369 70.8118 72.1588 69.6899 72.1588 68.3087V60.6626C72.1588 59.0299 70.9472 58.2022 69.2985 56.9138L63.0351 52.0314C62.0857 51.2889 60.895 50.8809 59.6902 50.8809H41.2082C40.0198 50.8809 38.8666 51.2692 37.9207 51.9871L31.8121 56.6181L30.7136 57.4508C30.0347 57.9654 29.2438 58.3146 28.406 58.4671L20.5345 60.3877C19.053 60.6553 17.7681 61.6885 17.1844 63.0759L16.1746 65.4748C15.1212 67.9718 17.0155 70.8119 19.7162 70.8119H23.2865C23.4663 68.3727 25.5017 66.4507 27.9852 66.4507C30.4687 66.4507 32.5041 68.3727 32.6839 70.8119H40.111H50.1743V70.8118Z" fill="#FF8B00"/>
<path d="M49.9245 50.8812V57.4025C49.9245 58.2543 49.2341 58.9448 48.3822 58.9448H34.6946C33.2801 58.9448 32.0969 57.948 31.8123 56.6177L37.9203 51.9873C38.8665 51.2695 40.0202 50.8812 41.2076 50.8812H49.9245Z" fill="#F9F5F3"/>
<path d="M69.2984 56.9136C68.3901 58.0043 67.04 58.6422 65.6087 58.6422H57.2313C56.3795 58.6422 55.6889 57.9517 55.6889 57.0998V50.8924L55.6918 50.8812H59.69C60.9012 50.8812 62.0788 51.285 63.0349 52.0307L69.2984 56.9136Z" fill="#F9F5F3"/>
<path d="M27.9855 75.8736C30.5876 75.8736 32.697 73.7642 32.697 71.1621C32.697 68.56 30.5876 66.4506 27.9855 66.4506C25.3834 66.4506 23.274 68.56 23.274 71.1621C23.274 73.7642 25.3834 75.8736 27.9855 75.8736Z" fill="#868EAF"/>
<path d="M62.4938 75.8736C65.0959 75.8736 67.2053 73.7642 67.2053 71.1621C67.2053 68.56 65.0959 66.4506 62.4938 66.4506C59.8917 66.4506 57.7823 68.56 57.7823 71.1621C57.7823 73.7642 59.8917 75.8736 62.4938 75.8736Z" fill="#868EAF"/>
<path d="M70.3151 56.2554C70.2132 56.1762 63.7384 51.1288 63.7384 51.1288C62.5911 50.234 61.1451 49.7368 59.6903 49.7368H41.2082C39.5309 49.7368 38.1078 50.4098 36.7996 51.4015L30.0226 56.539C29.4878 56.9446 28.8579 57.2221 28.2013 57.3415C28.1791 57.3455 28.1569 57.3503 28.1349 57.3557L20.2951 59.2686C18.4523 59.6142 16.8586 60.9002 16.1301 62.6319L15.1207 65.03C14.4774 66.5546 14.6502 68.3039 15.5826 69.7091C16.516 71.1158 18.0613 71.9557 19.7163 71.9557H22.1853C22.574 74.8102 25.0261 77.0176 27.9855 77.0176C30.9449 77.0176 33.3969 74.8102 33.7856 71.9557H40.111C40.7428 71.9557 41.2549 71.4436 41.2549 70.8118C41.2549 70.18 40.7428 69.6679 40.111 69.6679H33.6469C32.9769 67.1381 30.6028 65.3067 27.9851 65.3067C25.3691 65.3067 22.9932 67.1406 22.3234 69.6679H19.7163C18.8299 69.6679 17.9973 69.2104 17.4889 68.4442C16.974 67.6681 16.8791 66.7478 17.229 65.9185L17.4638 65.3606H19.2594C19.8912 65.3606 20.4033 64.8485 20.4033 64.2167C20.4033 63.5849 19.8912 63.0728 19.2594 63.0728H18.4702C18.9669 62.2649 19.7984 61.683 20.7378 61.5134C20.7606 61.5093 20.7832 61.5045 20.8057 61.499L28.6458 59.5861C29.6295 59.4014 30.5713 58.9857 31.375 58.3836C32.128 59.4237 33.3535 60.089 34.6946 60.089H48.3823C49.8634 60.089 51.0684 58.8841 51.0684 57.4028V52.0249H54.5452V57.1C54.5452 58.5811 55.7502 59.7861 57.2313 59.7861H65.6087C67.0022 59.7861 68.3292 59.3011 69.3841 58.4322C70.5094 59.3242 71.0149 59.8421 71.0149 60.6626V68.3087C71.0149 69.0582 70.4041 69.6679 69.6531 69.6679H68.1552C67.4855 67.1331 65.1162 65.3067 62.4943 65.3067C59.8718 65.3067 57.5021 67.1324 56.8323 69.6679H50.1745C49.5427 69.6679 49.0306 70.18 49.0306 70.8118C49.0306 71.4436 49.5427 71.9557 50.1745 71.9557H56.6937C57.0824 74.8102 59.5345 77.0176 62.4939 77.0176C65.4533 77.0176 67.9053 74.8102 68.294 71.9557H69.6532C71.6656 71.9557 73.3029 70.3197 73.3029 68.3087V60.6626C73.3027 58.5757 71.9183 57.5005 70.3151 56.2554ZM27.9855 74.7298C26.0183 74.7298 24.4179 73.1293 24.4179 71.1622C24.4179 69.2919 25.9383 67.6927 27.8068 67.5991C29.8108 67.4996 31.5531 69.1555 31.5531 71.1622C31.5531 73.1293 29.9526 74.7298 27.9855 74.7298ZM48.7806 57.4027C48.7806 57.6223 48.6019 57.8011 48.3823 57.8011H34.6945C34.0829 57.8011 33.5257 57.4883 33.1974 57.0032L38.6122 52.8983C39.3521 52.3367 40.2789 52.0253 41.2075 52.0253H48.7805V57.4027H48.7806ZM57.2313 57.4982C57.0117 57.4982 56.833 57.3195 56.833 57.0999V52.0253H59.6901C60.6383 52.0253 61.5845 52.349 62.3319 52.9336L67.5076 56.9681C66.9424 57.3116 66.2882 57.4983 65.6088 57.4983H57.2313V57.4982ZM62.4938 74.7298C60.5266 74.7298 58.9262 73.1293 58.9262 71.1622C58.9262 69.2272 60.5562 67.5945 62.4938 67.5945C64.4312 67.5945 66.0614 69.2284 66.0614 71.1622C66.0614 73.1293 64.4609 74.7298 62.4938 74.7298Z" fill="black"/>
<path d="M50.6669 64.2165C50.6669 63.5848 50.1548 63.0726 49.523 63.0726H47.2088C46.577 63.0726 46.0649 63.5848 46.0649 64.2165C46.0649 64.8483 46.577 65.3604 47.2088 65.3604H49.523C50.1548 65.3604 50.6669 64.8483 50.6669 64.2165Z" fill="black"/>
<path d="M46.3098 70.3745C46.0734 69.7978 45.3906 69.5177 44.8159 69.7557C44.2402 69.9941 43.9587 70.6739 44.1971 71.2496C44.4356 71.8254 45.1156 72.106 45.691 71.8684C46.266 71.6309 46.5492 70.9492 46.3098 70.3745Z" fill="black"/>
</g>
<defs>
<linearGradient id="paint0_linear" x1="29.3861" y1="-2.97243" x2="72.7909" y2="112.378" gradientUnits="userSpaceOnUse">
<stop stop-color="#FFD9D9" stop-opacity="0"/>
<stop offset="0.9981" stop-color="#FFB3B3"/>
</linearGradient>
<clipPath id="clip0">
<rect width="105" height="105" fill="white"/>
</clipPath>
</defs>
</svg>
