<svg width="105" height="105" viewBox="0 0 105 105" fill="none" xmlns="http://www.w3.org/2000/svg">
<g clip-path="url(#clip0)">
<path d="M3.29638 61.1354C7.13688 74.261 18.207 101.036 36.9132 98.6329C55.675 96.2222 48.3481 72.0291 65.5232 68.7132C73.0838 67.2535 78.2087 80.3389 85.7862 79.9318C95.5454 79.4074 100.513 69.747 103.24 61.6257C109.023 44.4057 100.363 15.2059 80.0951 10.1487C62.4083 5.73559 60.3395 27.3455 44.9607 21.0687C36.3168 17.5407 37.1804 7.00523 26.6529 4.87939C-5.19529 -1.55166 -1.81396 43.6699 3.29638 61.1354Z" fill="url(#paint0_linear)"/>
<path d="M73.2355 43.6553C73.0241 43.6553 72.8125 43.5901 72.633 43.4595L71.9682 42.9765L71.3033 43.4595C70.944 43.7204 70.4575 43.7206 70.0978 43.4595C69.7385 43.1984 69.5882 42.7356 69.7256 42.3131L69.9795 41.5318L69.3149 41.049C68.9553 40.7879 68.805 40.3251 68.9424 39.9026C69.0796 39.4802 69.4734 39.1941 69.9176 39.1941H70.7393L70.9932 38.4125C71.1304 37.9901 71.5242 37.704 71.9684 37.704C72.4126 37.704 72.8063 37.9901 72.9435 38.4125L73.1974 39.1941H74.0191C74.4633 39.1941 74.8571 39.4802 74.9943 39.9026C75.1317 40.3251 74.9814 40.7879 74.6219 41.049L73.9572 41.5318L74.2111 42.3131C74.3485 42.7356 74.1982 43.1984 73.8389 43.4595C73.6586 43.5899 73.4472 43.6553 73.2355 43.6553Z" fill="#FF4D4D"/>
<path d="M30.5105 18.9541C30.299 18.9541 30.0874 18.8889 29.9077 18.7583L29.2431 18.2753L28.5782 18.7583C28.2187 19.0194 27.7323 19.0194 27.3728 18.7583C27.0135 18.4972 26.863 18.0344 27.0004 17.6119L27.2542 16.8306L26.5896 16.3476C26.2303 16.0865 26.0798 15.6237 26.2172 15.2012C26.3546 14.7787 26.7481 14.4927 27.1923 14.4927H28.0139L28.2677 13.7111C28.4049 13.2886 28.7987 13.0026 29.2429 13.0026C29.6873 13.0026 30.0808 13.2886 30.218 13.7111L30.4719 14.4927H31.2937C31.7379 14.4927 32.1316 14.7787 32.2688 15.2012C32.406 15.6237 32.2557 16.0865 31.8964 16.3476L31.2315 16.8303L31.4854 17.6117C31.6226 18.0342 31.4723 18.497 31.113 18.7581C30.9335 18.8887 30.7221 18.9541 30.5105 18.9541Z" fill="black"/>
<path d="M76.6379 33.8726C76.3757 33.8726 76.1129 33.7725 75.913 33.5724L74.8948 32.5544L73.8766 33.5724C73.4765 33.9727 72.8268 33.9727 72.4267 33.5724C72.0262 33.1718 72.0262 32.5226 72.4267 32.1223L74.1698 30.3791C74.5699 29.9788 75.2196 29.9788 75.6197 30.3791L77.3629 32.1223C77.7634 32.5228 77.7634 33.1721 77.3629 33.5724C77.1629 33.7725 76.9002 33.8726 76.6379 33.8726Z" fill="#FF9D33"/>
<path d="M46.455 70.6382C46.1925 70.6382 45.9302 70.5382 45.7298 70.338L44.7118 69.32L43.6938 70.338C43.2933 70.7383 42.6442 70.7383 42.2437 70.338C41.8432 69.9375 41.8432 69.2882 42.2437 68.8879L43.9868 67.1447C44.3874 66.7444 45.0364 66.7444 45.437 67.1447L47.1801 68.8879C47.5806 69.2884 47.5806 69.9377 47.1801 70.338C46.9798 70.5382 46.7175 70.6382 46.455 70.6382Z" fill="#FF9D33"/>
<path d="M75.7621 90.6614C75.4998 90.6614 75.2371 90.5613 75.0371 90.3612L74.0189 89.3432L73.0007 90.3612C72.6006 90.7615 71.9509 90.7615 71.5508 90.3612C71.1503 89.9607 71.1503 89.3114 71.5508 88.9111L73.294 87.1679C73.6941 86.7676 74.3438 86.7676 74.7439 87.1679L76.487 88.9111C76.8875 89.3116 76.8875 89.9609 76.487 90.3612C76.2869 90.5613 76.0244 90.6614 75.7621 90.6614Z" fill="black"/>
<path opacity="0.1" d="M96.5252 94.8555L69.5718 67.9021L70.32 67.1539C71.4481 66.0258 71.4481 64.1969 70.32 63.069C69.1918 61.9409 67.3629 61.9409 66.235 63.069L65.9303 63.3737L61.0638 55.809L61.4993 55.3734C62.6275 54.2453 62.6275 52.4164 61.4993 51.2883C60.3712 50.1602 58.5423 50.1602 57.4142 51.2883L57.021 51.6814L51.6047 48.1969L60.6046 39.1971C61.4054 38.3963 61.4054 37.0977 60.6046 36.2969L58.9301 34.6224L62.326 31.2265L64.0005 32.901C64.8013 33.7018 66.0999 33.7018 66.9007 32.901L69.3171 30.4845C70.118 29.6837 70.118 28.3852 69.3171 27.5843L53.0048 11.272C52.204 10.4712 50.9054 10.4712 50.1046 11.272L47.6881 13.6884C46.8873 14.4893 46.8873 15.7878 47.6881 16.5887L49.3626 18.2631L45.9667 21.659L44.2923 19.9845C43.4914 19.1837 42.1929 19.1837 41.392 19.9845L16.7782 44.5982C15.9773 45.3991 15.9773 46.6976 16.7782 47.4984L18.4526 49.1729L15.0567 52.5688L13.3823 50.8943C12.5814 50.0935 11.2829 50.0935 10.4821 50.8943L8.06562 53.3108C7.26479 54.1116 7.26479 55.4102 8.06562 56.211L24.3779 72.5233C25.1788 73.3241 26.4773 73.3241 27.2782 72.5233L29.6946 70.1069C30.4954 69.306 30.4954 68.0075 29.6946 67.2067L28.0201 65.5322L31.416 62.1363L33.0905 63.8108C33.8913 64.6116 35.1899 64.6116 35.9907 63.8108L44.9905 54.8109L48.475 60.2272L48.0819 60.6204C46.9538 61.7485 46.9538 63.5774 48.0819 64.7055C49.2098 65.8337 51.0389 65.8337 52.1668 64.7055L52.6024 64.2699L60.1671 69.1364L59.8624 69.4412C58.7345 70.5693 58.7345 72.3982 59.8624 73.5263C60.9905 74.6545 62.8194 74.6545 63.9476 73.5263L64.6957 72.7782L91.6491 99.7316C92.9956 101.078 95.1789 101.078 96.5254 99.7316C97.8718 98.3853 97.8718 96.202 96.5252 94.8555Z" fill="black"/>
<path d="M14.0714 48.3163L50.333 12.0547L63.2946 25.0162L27.0329 61.2778L14.0714 48.3163Z" fill="#FF4D4D"/>
<path d="M66.6807 59.3091L60.5987 49.8547L51.8798 58.5736L61.3341 64.6558L66.6807 59.3091Z" fill="#FF4D4D"/>
<path d="M42.7048 46.026L48.787 55.4805L57.5057 46.7617L48.0514 40.6794L42.7048 46.026Z" fill="#FF4D4D"/>
<path d="M96.5253 94.4999C95.1788 95.8465 92.9955 95.8465 91.649 94.4999L63.0024 65.8534L67.8788 60.9771L96.5253 89.6236C97.8719 90.9701 97.8719 93.1534 96.5253 94.4999Z" fill="#FF8B00"/>
<path d="M62.9888 65.8538L67.8644 60.9782L72.2101 65.3238L67.3345 70.1994L62.9888 65.8538Z" fill="#FFC599"/>
<path d="M96.5252 89.6235L78.0635 71.1617C76.4317 72.7808 74.8001 74.4001 73.1757 76.0266L91.6491 94.5C92.9956 95.8466 95.1789 95.8466 96.5254 94.5C97.8718 93.1533 97.8718 90.97 96.5252 89.6235Z" fill="#FFC599"/>
<path d="M70.3199 61.922L63.9473 68.2946C62.8191 69.4227 60.9903 69.4227 59.8621 68.2946C58.734 67.1664 58.734 65.3376 59.8621 64.2094L66.2347 57.8368C67.3629 56.7087 69.1917 56.7087 70.3199 57.8368C71.448 58.965 71.448 60.7938 70.3199 61.922Z" fill="#FFAB66"/>
<path d="M61.4991 50.1416L52.1669 59.4739C51.0387 60.602 49.2098 60.602 48.0817 59.4739C46.9536 58.3457 46.9536 56.5168 48.0817 55.3887L57.414 46.0564C58.5421 44.9283 60.371 44.9283 61.4991 46.0564C62.6271 47.1846 62.6271 49.0134 61.4991 50.1416Z" fill="#FF9D33"/>
<path d="M60.6041 33.9654L35.9906 58.5789C35.1898 59.3797 33.8912 59.3797 33.0904 58.5789L16.7781 42.2665C15.9772 41.4657 15.9772 40.1671 16.7781 39.3663L41.3915 14.7528C42.1924 13.952 43.4909 13.952 44.2917 14.7528L60.6041 31.0652C61.4049 31.866 61.4049 33.1646 60.6041 33.9654Z" fill="#FFAB66"/>
<path d="M58.1776 36.3919L38.4171 56.1524L34.1461 51.8814C32.5445 50.2798 32.5445 47.6827 34.1461 46.081L48.1062 32.1209C49.7079 30.5193 52.305 30.5193 53.9067 32.1209L58.1776 36.3919Z" fill="#FF8B00"/>
<path d="M69.3166 25.2528L66.9002 27.6692C66.0993 28.47 64.8008 28.47 64 27.6692L47.6876 11.3571C46.8868 10.5563 46.8868 9.25771 47.6876 8.45688L50.1041 6.04044C50.9049 5.23961 52.2035 5.23961 53.0043 6.04044L69.3166 22.3528C70.1174 23.1536 70.1174 24.4519 69.3166 25.2528Z" fill="#FF9D33"/>
<path d="M55.6751 19.3445L64 27.6694C64.8008 28.4702 66.0994 28.4702 66.9002 27.6694L69.3167 25.253C70.1175 24.4522 70.1175 23.1536 69.3167 22.3528L60.9917 14.0278L55.6751 19.3445Z" fill="#FFC599"/>
<path d="M58.7193 22.3884L64 27.6692C64.8008 28.47 66.0994 28.47 66.9002 27.6692L69.3167 25.2528C70.1175 24.4519 70.1175 23.1534 69.3167 22.3525L64.0359 17.0718L58.7193 22.3884Z" fill="#FF8B00"/>
<path d="M29.6946 64.8749L27.2782 67.2914C26.4773 68.0922 25.1788 68.0922 24.3779 67.2914L8.06562 50.979C7.26479 50.1782 7.26479 48.8797 8.06562 48.0788L10.4821 45.6624C11.2829 44.8616 12.5814 44.8616 13.3823 45.6624L29.6946 61.9747C30.4954 62.7755 30.4954 64.0741 29.6946 64.8749Z" fill="#FF9D33"/>
<path d="M16.0531 58.9664L24.378 67.2914C25.1788 68.0922 26.4774 68.0922 27.2782 67.2914L29.6946 64.8749C30.4955 64.0741 30.4955 62.7756 29.6946 61.9747L21.3697 53.6498L16.0531 58.9664Z" fill="#FFC599"/>
<path d="M19.0972 62.0106L24.378 67.2914C25.1788 68.0922 26.4773 68.0922 27.2782 67.2914L29.6946 64.8749C30.4954 64.0741 30.4954 62.7756 29.6946 61.9747L24.4138 56.694L19.0972 62.0106Z" fill="#FF8B00"/>
<path d="M97.2501 88.8986L71.0217 62.6702L71.0446 62.6472C71.7839 61.9081 72.1912 60.9251 72.1912 59.8794C72.1912 58.834 71.7842 57.851 71.0448 57.1119C70.3057 56.3726 69.3228 55.9655 68.2771 55.9655C67.5113 55.9655 66.7802 56.186 66.1529 56.5933L62.367 50.7084C63.7439 49.1735 63.6992 46.8067 62.2238 45.3314C61.4847 44.5921 60.5018 44.185 59.4563 44.185C58.5029 44.185 57.6036 44.5269 56.8916 45.1475L53.2287 42.7909L61.3291 34.6903C62.5286 33.4908 62.5286 31.5393 61.3291 30.34L60.3798 29.3907L62.3255 27.4449L63.275 28.3944C63.856 28.9754 64.6286 29.2953 65.4501 29.2953C66.2717 29.2953 67.044 28.9754 67.625 28.3944L70.0414 25.978C70.6226 25.397 70.9425 24.6245 70.9425 23.8027C70.9425 22.981 70.6224 22.2086 70.0414 21.6277L53.7291 5.31534C53.1481 4.73435 52.3756 4.41443 51.554 4.41443C50.7323 4.41443 49.9597 4.73435 49.3787 5.31534L46.9623 7.73177C45.7628 8.93127 45.7628 10.8828 46.9623 12.0823L47.9116 13.0316L45.966 14.9772L45.0167 14.0279C43.8172 12.8286 41.8657 12.8284 40.6664 14.0279L36.8058 17.8883C36.4053 18.2888 36.4053 18.9381 36.8058 19.3384C37.2065 19.7387 37.8556 19.7389 38.2559 19.3384L42.1165 15.478C42.5162 15.0783 43.1667 15.0781 43.5666 15.478L59.879 31.7903C60.2787 32.19 60.2787 32.8407 59.879 33.2404L35.2655 57.8539C35.0719 58.0475 34.8143 58.1541 34.5403 58.1541C34.2665 58.1541 34.009 58.0475 33.8154 57.8539L17.503 41.5416C17.1031 41.1419 17.1031 40.4912 17.503 40.0915L33.3513 24.2434C33.7518 23.8429 33.7518 23.1936 33.3513 22.7933C32.951 22.3932 32.3019 22.393 31.9012 22.7933L16.0529 38.6414C14.8536 39.8409 14.8536 41.7924 16.0529 42.9917L17.0022 43.941L15.0567 45.8866L14.1074 44.9373C13.5264 44.3563 12.7538 44.0363 11.9323 44.0363C11.1106 44.0363 10.338 44.3563 9.75704 44.9373L7.3406 47.3537C6.14131 48.5532 6.14131 50.5047 7.3406 51.704L23.6529 68.0163C24.2528 68.616 25.0403 68.9158 25.8282 68.9158C26.6157 68.9158 27.4038 68.616 28.0033 68.0163L30.4197 65.5999C31.0007 65.0189 31.3206 64.2464 31.3206 63.4246C31.3206 62.6031 31.0007 61.8306 30.4197 61.2496L29.4704 60.3003L31.4162 58.3545L32.3655 59.3038C32.9465 59.8848 33.719 60.2049 34.5405 60.2049C35.3621 60.2049 36.1346 59.885 36.7158 59.304L44.8162 51.2034L47.1729 54.8667C45.8373 56.4023 45.8959 58.738 47.3567 60.1988C48.1198 60.9616 49.122 61.3433 50.1242 61.3433C51.0598 61.3433 51.9927 61.0066 52.7334 60.3419L58.6185 64.1278C58.2111 64.7554 57.9906 65.4865 57.9906 66.252C57.9906 67.2975 58.3977 68.2805 59.1372 69.0198C59.8763 69.7589 60.8592 70.1662 61.9047 70.1662C62.9502 70.1662 63.9331 69.7591 64.672 69.0198L64.6952 68.9966L66.0428 70.3442C66.2429 70.5443 66.5054 70.6444 66.7677 70.6444C67.03 70.6444 67.2927 70.5443 67.4927 70.3442C67.8932 69.9437 67.8932 69.2944 67.4927 68.8941L66.1451 67.5465L69.5714 64.1203L95.8002 90.3487C96.2578 90.8063 96.5098 91.4147 96.5098 92.0617C96.5098 92.7088 96.2578 93.3172 95.8 93.775C95.3427 94.2325 94.7342 94.4843 94.087 94.4843C93.4398 94.4843 92.8315 94.2323 92.3738 93.7748L72.3977 73.7987C71.9976 73.3984 71.3479 73.3984 70.9478 73.7987C70.5473 74.1992 70.5473 74.8485 70.9478 75.2488L90.9237 95.2249C91.7686 96.0698 92.892 96.5351 94.087 96.5351C95.282 96.5351 96.4054 96.0698 97.2501 95.2249C98.0951 94.3799 98.5606 93.2565 98.5606 92.0617C98.5606 90.867 98.0951 89.7435 97.2501 88.8986ZM48.4128 9.18188L50.8293 6.76544C51.0292 6.56549 51.2917 6.46562 51.5544 6.46562C51.8169 6.46562 52.0796 6.5657 52.2794 6.76544L68.5917 23.0778C68.7853 23.2714 68.8919 23.5289 68.8919 23.8027C68.8919 24.0767 68.7853 24.3341 68.5917 24.5279L66.1753 26.9443C65.7754 27.3442 65.1246 27.344 64.7252 26.9443L48.4128 10.632C48.0129 10.2323 48.0129 9.58178 48.4128 9.18188ZM49.3621 14.4817L60.8756 25.995L58.9299 27.9408L47.4166 16.4275L49.3621 14.4817ZM28.9696 64.15L26.5531 66.5664C26.1534 66.9663 25.5027 66.9661 25.103 66.5664L8.79071 50.2541C8.39081 49.8544 8.39081 49.2037 8.79071 48.804L11.2071 46.3876C11.4071 46.1876 11.6696 46.0877 11.9323 46.0877C12.1948 46.0877 12.4575 46.1878 12.6573 46.3876L28.9696 62.6999C29.3693 63.0996 29.3693 63.7501 28.9696 64.15ZM28.0203 58.8502L16.5068 47.3369L18.4524 45.3913L29.9656 56.9046L28.0203 58.8502ZM60.0266 62.5951L54.2268 58.8639L60.8894 52.2013L64.6206 58.0013L60.0266 62.5951ZM51.7449 44.2748L55.3964 46.624L48.6491 53.3711L46.3001 49.7197L51.7449 44.2748ZM48.8068 58.7489C48.0804 58.0223 48.0804 56.8402 48.8068 56.1138L58.1389 46.7817C58.491 46.4298 58.9588 46.236 59.4565 46.236C59.9542 46.236 60.422 46.4298 60.7739 46.7817C61.5005 47.5081 61.5005 48.6904 60.7739 49.4168H60.7741L51.4418 58.7486C50.7152 59.4752 49.5332 59.475 48.8068 58.7489ZM61.9047 68.1154C61.407 68.1154 60.9392 67.9216 60.5871 67.5697C60.2352 67.2178 60.0414 66.7498 60.0414 66.2523C60.0414 65.7547 60.2352 65.2867 60.5871 64.9348L66.9599 58.562C67.3116 58.2101 67.7794 58.0163 68.2771 58.0163C68.775 58.0163 69.2428 58.2101 69.5947 58.562C69.9467 58.9139 70.1404 59.3819 70.1404 59.8794C70.1404 60.3772 69.9467 60.845 69.5947 61.1969L63.2219 67.5697C62.8702 67.9216 62.4024 68.1154 61.9047 68.1154Z" fill="black"/>
</g>
<defs>
<linearGradient id="paint0_linear" x1="-4.62716e-05" y1="51.5213" x2="105" y2="51.5213" gradientUnits="userSpaceOnUse">
<stop stop-color="#FFF3EE" stop-opacity="0"/>
<stop offset="0.2938" stop-color="#FFEADE" stop-opacity="0.373"/>
<stop offset="0.7874" stop-color="#FFD6BB"/>
</linearGradient>
<clipPath id="clip0">
<rect width="105" height="105" fill="white"/>
</clipPath>
</defs>
</svg>
