<svg width="105" height="105" viewBox="0 0 105 105" fill="none" xmlns="http://www.w3.org/2000/svg">
<g clip-path="url(#clip0)">
<path d="M94.4281 7.8178C87.1535 -0.22024 74.1864 -2.38669 64.6938 2.84978C57.077 7.05163 27.3462 21.4477 19.1326 25.3503C13.3752 28.0859 7.62791 31.9922 5.4223 37.9729C2.75157 45.2154 6.13433 53.4575 11.289 59.2038C16.4436 64.9501 23.2007 68.9758 29.0856 73.9715C34.9706 78.9672 40.2513 85.5668 40.6685 93.2749C40.8319 96.2969 40.3176 99.6454 42.1165 102.079C44.0106 104.642 47.6436 105.041 50.8295 104.997C56.2339 104.922 61.7111 104.189 66.65 101.993C71.5889 99.797 75.9663 96.017 78.1092 91.0549C82.7833 80.2313 76.0504 66.9724 80.8002 56.182C84.0466 48.8072 91.8396 44.5319 96.414 37.8987C102.569 28.9739 101.703 15.8556 94.4281 7.8178Z" fill="url(#paint0_linear)"/>
<path opacity="0.1" d="M100.053 82.578L101.691 77.708C101.915 77.0436 101.42 76.3558 100.719 76.3558H92.4931V64.1108C92.4931 62.4742 91.5229 60.9915 90.0197 60.3451C89.2068 59.9957 88.3329 59.6587 87.4074 59.3343C82.1808 49.471 84.7287 38.4735 85.7411 35.0338C85.944 34.3449 85.7754 33.6005 85.292 33.0695L79.5263 26.7338C78.9832 26.1371 78.1424 25.9156 77.3748 26.1643C75.1831 26.8739 70.243 28.0925 64.1021 27.2121C59.2635 26.5185 55.72 23.8796 53.8952 22.1973C53.1052 21.4691 51.8951 21.4691 51.1051 22.1973C49.2803 23.8796 45.7368 26.5185 40.8982 27.2121C34.7571 28.0925 29.8172 26.8741 27.6255 26.1643C26.8579 25.9158 26.0171 26.1371 25.474 26.7338L19.708 33.0695C19.2247 33.6007 19.0561 34.3449 19.2589 35.0338C20.2714 38.4735 22.8195 49.471 17.5927 59.3343C16.6672 59.6587 15.7933 59.9957 14.9804 60.3451C13.477 60.9915 12.5069 62.4742 12.5069 64.1108V76.3558H4.28084C3.57988 76.3558 3.08544 77.0436 3.30898 77.708L4.94693 82.578L3.30898 87.448C3.08544 88.1125 3.57988 88.8003 4.28084 88.8003H18.6691C21.1096 88.8003 23.2735 87.2319 24.0331 84.9128L24.4665 83.5899C28.7403 86.3558 34.4279 88.2536 41.4527 88.667C43.4891 88.7868 45.4866 89.2771 47.3284 90.154L51.6186 92.1968C52.1764 92.4624 52.8241 92.4624 53.3819 92.1968L57.6721 90.154C59.5139 89.2771 61.5114 88.7868 63.5478 88.667C70.5725 88.2536 76.2602 86.3558 80.534 83.5899L80.9673 84.9128C81.727 87.2321 83.8909 88.8003 86.3314 88.8003H100.72C101.421 88.8003 101.915 88.1125 101.692 87.448L100.053 82.578Z" fill="black"/>
<path d="M18.6691 83.5683H4.28084C3.57988 83.5683 3.08544 82.8805 3.30898 82.216L4.94694 77.3461L3.30898 72.4761C3.08544 71.8116 3.57988 71.1238 4.28084 71.1238H26.8358L24.0332 79.6809C23.2735 82.0001 21.1096 83.5683 18.6691 83.5683Z" fill="#FF9D33"/>
<path d="M86.3309 83.5683H100.719C101.42 83.5683 101.915 82.8805 101.691 82.216L100.053 77.3461L101.691 72.4761C101.915 71.8116 101.42 71.1238 100.719 71.1238H78.1641L80.9669 79.6809C81.7265 82.0001 83.8905 83.5683 86.3309 83.5683Z" fill="#FF9D33"/>
<path d="M12.5069 71.7579L21.4862 75.729L20.8917 67.603C20.8917 67.603 15.0566 68.7923 12.5069 71.7579Z" fill="#FF7300"/>
<path d="M92.4931 71.7579L83.5138 75.729L84.1083 67.603C84.1083 67.603 89.9434 68.7923 92.4931 71.7579Z" fill="#FF7300"/>
<path d="M87.8075 54.831C82.0524 44.7871 84.7036 33.3265 85.7411 29.8018C85.944 29.113 85.7754 28.3685 85.292 27.8376L79.5262 21.5019C78.9832 20.9051 78.1424 20.6838 77.3748 20.9324C75.1831 21.6422 70.243 22.8605 64.1021 21.9801C59.2635 21.2866 55.7199 18.6476 53.8952 16.9654C53.1052 16.2371 51.895 16.2371 51.1051 16.9654C49.2803 18.6476 45.7367 21.2866 40.8981 21.9801C34.7571 22.8605 29.8171 21.6422 27.6255 20.9324C26.8579 20.6838 26.017 20.9051 25.474 21.5019L19.708 27.8376C19.2247 28.3687 19.0561 29.113 19.2589 29.8018C20.2964 33.3265 22.9476 44.7871 17.1925 54.831C10.5802 66.3707 19.5007 82.1431 41.4525 83.4351C43.4889 83.5548 45.4863 84.0452 47.3282 84.9221L51.6184 86.9649C52.1762 87.2305 52.8238 87.2305 53.3816 86.9649L57.6719 84.9221C59.5137 84.0452 61.5111 83.5548 63.5476 83.4351C85.4993 82.1433 94.4196 66.3707 87.8075 54.831Z" fill="#FF8B00"/>
<path d="M86.1349 73.3066C80.0071 71.3378 71.7958 69.9125 62.4914 69.3117C60.2089 72.3366 56.5831 74.293 52.5 74.293C48.4169 74.293 44.7911 72.3366 42.5086 69.3117C33.2042 69.9125 24.9929 71.3378 18.8651 73.3066C15.506 69.0061 14.3309 63.8914 15.4916 59.0844C21.8572 56.4615 31.5513 54.5522 42.8244 53.8447C45.1192 51.0495 48.6015 49.2673 52.5 49.2673C56.3985 49.2673 59.8808 51.0495 62.1756 53.8447C73.4487 54.5522 83.1428 56.4615 89.5084 59.0844C90.6691 63.8914 89.494 69.0061 86.1349 73.3066Z" fill="black"/>
<path d="M49.5323 80.2933C47.1179 79.1436 44.5009 78.4788 41.7537 78.317C32.2731 77.7592 24.7472 73.9763 21.6216 68.1978C19.6865 64.6206 19.6935 60.7789 21.6411 57.3799C24.5719 52.2653 26.0045 46.3471 25.8995 39.7896C25.8401 36.0869 25.288 32.8557 24.7566 30.5664C24.6803 30.2376 24.7695 29.8933 24.9968 29.6437L27.5715 26.8145C27.8217 26.5395 28.1995 26.422 28.5616 26.5064C30.6875 27.0021 33.4085 27.4147 36.5761 27.4147C38.2637 27.4147 39.9626 27.2937 41.6259 27.0554C45.9547 26.4347 49.4513 24.6064 51.9079 22.8833C52.2646 22.6331 52.7361 22.6331 53.0927 22.8833C55.5493 24.6062 59.0459 26.4347 63.3747 27.0554C65.0385 27.2939 66.7373 27.4147 68.4247 27.4147C71.5928 27.4147 74.3135 27.0021 76.4392 26.5064C76.8011 26.422 77.1789 26.5397 77.4293 26.8145L80.0041 29.6437C80.2313 29.8933 80.3205 30.2376 80.2442 30.5664C79.7128 32.8561 79.1608 36.0873 79.1013 39.7896C78.9963 46.3471 80.429 52.2653 83.3597 57.3799C85.3074 60.7787 85.3141 64.6206 83.3792 68.1978C80.2536 73.9763 72.7275 77.7592 63.2471 78.317C60.4999 78.4788 57.8829 79.1436 55.4685 80.2933L52.9417 81.4965C52.6628 81.6294 52.339 81.6294 52.0601 81.4965L49.5323 80.2933Z" fill="#FFF3EE"/>
<path d="M83.3787 68.1981C82.6711 69.5085 81.736 70.7164 80.6019 71.8054C75.3888 70.6139 69.2262 69.7464 62.4915 69.3117C60.2089 72.3366 56.5831 74.293 52.5 74.293C48.4169 74.293 44.7912 72.3366 42.5086 69.3117C35.7739 69.7464 29.6113 70.6139 24.3982 71.8054C23.2641 70.7164 22.329 69.5085 21.6214 68.1981C19.6875 64.6215 19.6937 60.7784 21.6419 57.3802C21.7178 57.249 21.7916 57.1177 21.8634 56.9844C27.6425 55.4504 34.8367 54.3451 42.8245 53.8447C45.1193 51.0495 48.6015 49.2673 52.5 49.2673C56.3986 49.2673 59.8808 51.0495 62.1756 53.8447C70.1634 54.3451 77.3576 55.4504 83.1367 56.9844C83.2084 57.1177 83.2823 57.249 83.3582 57.3802C85.3064 60.7784 85.3125 64.6215 83.3787 68.1981Z" fill="#FFD6BB"/>
<path d="M38.3107 14.2262C38.0993 14.2262 37.8876 14.161 37.708 14.0303L37.0433 13.5474L36.3787 14.0303C36.0194 14.2914 35.5327 14.2914 35.1732 14.0303C34.8139 13.7693 34.6634 13.3064 34.8008 12.884L35.0547 12.1024L34.39 11.6194C34.0307 11.3584 33.8802 10.8955 34.0176 10.4731C34.155 10.0506 34.5485 9.76451 34.9927 9.76451H35.8143L36.0682 8.98296C36.2054 8.5605 36.5991 8.27441 37.0433 8.27441C37.4875 8.27441 37.8813 8.5605 38.0185 8.98296L38.2723 9.76451H39.0939C39.5381 9.76451 39.9318 10.0506 40.069 10.4731C40.2062 10.8955 40.0559 11.3584 39.6966 11.6194L39.032 12.1024L39.2858 12.884C39.423 13.3064 39.2727 13.7693 38.9134 14.0303C38.7338 14.1608 38.5221 14.2262 38.3107 14.2262Z" fill="#FF9D33"/>
<path d="M28.1033 93.1634C27.8918 93.1634 27.6802 93.0982 27.5005 92.9675L26.8359 92.4846L26.171 92.9675C25.8115 93.2284 25.3251 93.2286 24.9656 92.9675C24.6063 92.7065 24.4557 92.2436 24.5931 91.8211L24.847 91.0398L24.1824 90.5568C23.8231 90.2958 23.6726 89.8329 23.81 89.4104C23.9474 88.988 24.3409 88.7019 24.7851 88.7019H25.6066L25.8605 87.9203C25.9977 87.4979 26.3915 87.2118 26.8357 87.2118C27.2801 87.2118 27.6736 87.4979 27.8108 87.9203L28.0647 88.7017H28.8865C29.3307 88.7017 29.7244 88.9878 29.8616 89.4102C29.9988 89.8327 29.8485 90.2956 29.4892 90.5566L28.8243 91.0396L29.0782 91.8209C29.2154 92.2434 29.0651 92.7063 28.7058 92.9673C28.5263 93.098 28.3147 93.1634 28.1033 93.1634Z" fill="black"/>
<path d="M37.5769 95.329C37.3144 95.329 37.0521 95.2289 36.8518 95.0288L35.8337 94.0108L34.8157 95.0288C34.4152 95.4291 33.7662 95.4291 33.3656 95.0288C32.9651 94.6283 32.9651 93.979 33.3656 93.5787L35.1088 91.8355C35.5093 91.4352 36.1584 91.4352 36.5589 91.8355L38.3021 93.5787C38.7026 93.9792 38.7026 94.6285 38.3021 95.0288C38.1017 95.2289 37.8394 95.329 37.5769 95.329Z" fill="#FF4D4D"/>
<path d="M93.7373 42.38C93.4748 42.38 93.2125 42.28 93.0122 42.0798L91.9942 41.0618L90.9762 42.0798C90.5757 42.4801 89.9266 42.4801 89.5261 42.0798C89.1255 41.6793 89.1255 41.03 89.5261 40.6297L91.2692 38.8865C91.6697 38.4862 92.3188 38.4862 92.7193 38.8865L94.4625 40.6297C94.863 41.0302 94.863 41.6795 94.4625 42.0798C94.2621 42.28 93.9998 42.38 93.7373 42.38Z" fill="black"/>
<path d="M96.8344 49.515C96.5719 49.515 96.3096 49.415 96.1093 49.2148L95.0913 48.1968L94.0732 49.2148C93.6727 49.6151 93.0237 49.6151 92.6231 49.2148C92.2226 48.8143 92.2226 48.165 92.6231 47.7647L94.3663 46.0215C94.7668 45.6212 95.4159 45.6212 95.8164 46.0215L97.5596 47.7647C97.9601 48.1652 97.9601 48.8145 97.5596 49.2148C97.3592 49.415 97.0969 49.515 96.8344 49.515Z" fill="#FF9D33"/>
<path d="M12.5069 71.758C19.9963 67.6282 35.0934 64.8057 52.5 64.8057C69.9066 64.8057 85.0039 67.6282 92.4931 71.758V58.8789C92.4931 57.2424 91.5229 55.7597 90.0197 55.1133C81.957 51.6462 68.1635 49.3608 52.5 49.3608C36.8365 49.3608 23.043 51.6464 14.9803 55.1133C13.4769 55.7597 12.5069 57.2424 12.5069 58.8789V71.758Z" fill="#FFAB66"/>
<path d="M52.5 70.1075C59.4108 70.1075 65.0131 64.5052 65.0131 57.5945C65.0131 50.6837 59.4108 45.0814 52.5 45.0814C45.5892 45.0814 39.9869 50.6837 39.9869 57.5945C39.9869 64.5052 45.5892 70.1075 52.5 70.1075Z" fill="#FF4D4D"/>
<path d="M101.135 77.3463L102.663 72.8032C102.873 72.1791 102.769 71.4872 102.384 70.9526C102 70.4179 101.378 70.0986 100.719 70.0986H93.5185V58.879C93.5185 56.8274 92.304 54.9796 90.4247 54.1714C89.7014 53.8603 88.9348 53.5605 88.1321 53.2707C83.2962 43.7721 85.8285 33.1366 86.7247 30.0918C87.027 29.0651 86.7686 27.937 86.0504 27.1477L80.2846 20.8118C79.4733 19.9205 78.2074 19.585 77.0589 19.957C74.7846 20.6934 70.0957 21.8035 64.2475 20.9654C59.6103 20.3005 56.2064 17.7016 54.5902 16.2117C53.3987 15.1135 51.6018 15.1133 50.4101 16.2117C48.7938 17.7018 45.3899 20.3005 40.7527 20.9654C34.9047 21.8037 30.2158 20.6934 27.9413 19.957C26.7922 19.585 25.5267 19.9207 24.7156 20.812L18.9498 27.1477C18.2315 27.937 17.9731 29.0651 18.2753 30.0916C19.0688 32.7871 20.7268 39.8687 18.9915 47.3909C18.8641 47.9428 19.2082 48.4932 19.7601 48.6206C20.3126 48.7477 20.8624 48.4036 20.9898 47.8519C22.8342 39.8566 21.0818 32.363 20.2427 29.5122C20.1397 29.1628 20.2234 28.7948 20.4664 28.5278L26.2322 22.1921C26.5025 21.895 26.9251 21.7832 27.3096 21.9079C29.7529 22.6991 34.7862 23.8925 41.0437 22.995C46.2295 22.2516 50.0089 19.3705 51.8003 17.7192C52.1992 17.3513 52.8013 17.3513 53.2001 17.7192C54.9915 19.3705 58.7709 22.2516 63.9567 22.995C70.214 23.8922 75.2475 22.6989 77.6908 21.9079C78.0751 21.7838 78.4982 21.8952 78.7683 22.1921L84.534 28.5278C84.777 28.795 84.8607 29.163 84.7578 29.5126C83.8634 32.5511 81.4343 42.724 85.4655 52.3903C79.3238 50.5354 71.4451 49.2372 62.6616 48.6624C60.1787 45.8411 56.5452 44.0557 52.5002 44.0557C48.4552 44.0557 44.8219 45.8409 42.3388 48.6624C30.9658 49.4068 21.1069 51.3629 14.5755 54.1714C12.696 54.9796 11.4817 56.8274 11.4817 58.879V70.0986H4.28081C3.62231 70.0986 2.99969 70.4179 2.61558 70.9526C2.23126 71.4872 2.12729 72.1791 2.33708 72.8032L3.86512 77.3465L2.33708 81.8896C2.12729 82.5138 2.23126 83.2056 2.61558 83.7404C2.99989 84.275 3.62251 84.5944 4.28081 84.5944H18.6691C21.5603 84.5944 24.1076 82.7482 25.0074 80.0006L25.0364 79.9122C25.0649 79.9288 25.0923 79.9463 25.1211 79.9629C29.6596 82.5782 35.1342 84.0911 41.3922 84.4592C43.3439 84.5741 45.1927 85.0414 46.8872 85.8484L51.1773 87.8912C51.5975 88.0913 52.0486 88.1914 52.4998 88.1914C52.951 88.1914 53.4021 88.0913 53.8221 87.8912L58.1124 85.8484C59.8071 85.0414 61.6559 84.5741 63.6074 84.4592C69.8656 84.0911 75.34 82.5782 79.8788 79.9627C79.9073 79.9463 79.9347 79.9286 79.9632 79.9122L79.9922 80.0006C80.892 82.7482 83.4393 84.5944 86.3305 84.5944C86.8967 84.5944 87.3559 84.1352 87.3559 83.569C87.3559 83.0027 86.8967 82.5436 86.3305 82.5436C84.3283 82.5436 82.5643 81.2651 81.941 79.3624L81.7493 78.7773C82.8698 78.0031 83.9046 77.1613 84.8431 76.2581C84.8685 76.2491 84.8941 76.2403 84.9194 76.229L92.9076 72.6963C93.1586 72.5854 93.3413 72.385 93.4385 72.1498H100.719L99.0808 77.02C99.0095 77.232 99.0095 77.4615 99.0808 77.6738L100.719 82.5438H93.2675C92.7013 82.5438 92.2421 83.0029 92.2421 83.5692C92.2421 84.1354 92.7013 84.5946 93.2675 84.5946H100.719C101.378 84.5946 102 84.2753 102.384 83.7406C102.769 83.206 102.873 82.5143 102.663 81.8902L101.135 77.3463ZM90.0773 71.7054L87.8419 72.6941C88.1779 72.191 88.4883 71.6763 88.7736 71.1511C89.2242 71.3322 89.6589 71.5169 90.0773 71.7054ZM89.6146 56.0553C90.7405 56.5392 91.4679 57.6477 91.4679 58.879V70.0857C85.3392 67.1937 75.6304 65.0947 64.2973 64.2246C65.4039 62.2634 66.0386 60.0022 66.0386 57.5944C66.0386 55.1314 65.3742 52.822 64.2202 50.8301C74.6454 51.6348 83.6149 53.4754 89.6146 56.0553ZM52.5 46.1065C58.8343 46.1065 63.9877 51.2599 63.9877 57.5944C63.9877 63.9286 58.8343 69.082 52.5 69.082C46.1658 69.082 41.0123 63.9286 41.0123 57.5944C41.0123 51.2599 46.1658 46.1065 52.5 46.1065ZM13.5323 58.879C13.5323 57.6479 14.2597 56.5395 15.3856 56.0553C21.3854 53.4754 30.3549 51.6348 40.7802 50.8301C39.626 52.822 38.9618 55.1314 38.9618 57.5944C38.9618 60.0022 39.5965 62.2634 40.7031 64.2246C29.3694 65.0949 19.6619 67.1931 13.5325 70.0857V58.879H13.5323ZM16.2254 71.1486C16.5108 71.6746 16.8217 72.1902 17.1581 72.6939L14.9196 71.704C15.3386 71.5153 15.7738 71.3299 16.2254 71.1486ZM23.0586 79.362C22.4351 81.2647 20.6713 82.5434 18.6691 82.5434H4.28081L5.91877 77.6734C5.99014 77.4613 5.99014 77.2318 5.91877 77.0196L4.28081 72.1494H11.5613C11.6585 72.3846 11.841 72.585 12.0922 72.6959L20.1651 76.2661C21.1013 77.1662 22.1335 78.0052 23.2505 78.7769L23.0586 79.362ZM63.4873 82.4117C61.2704 82.5421 59.1657 83.0753 57.2312 83.9966L52.9409 86.0393C52.661 86.1726 52.3398 86.1728 52.0595 86.0393L47.7693 83.9966C45.8348 83.0753 43.7298 82.5421 41.5131 82.4117C30.6961 81.7751 22.0533 77.3157 18.1687 70.4255C24.2327 68.3298 32.573 66.8313 42.0433 66.1833C44.5284 69.2032 48.293 71.1328 52.5002 71.1328C56.7076 71.1328 60.4724 69.2034 62.9573 66.1833C72.4281 66.8313 80.7676 68.3312 86.8307 70.4273C82.9455 77.3165 74.3033 81.7751 63.4873 82.4117Z" fill="black"/>
<path d="M53.228 49.8896L54.771 54.6384H59.764C60.5056 54.6384 60.8138 55.5873 60.214 56.023L56.1746 58.9579L57.7176 63.7067C57.9466 64.412 57.1397 64.9983 56.5396 64.5625L52.5 61.6274L48.4605 64.5623C47.8607 64.9981 47.0535 64.4118 47.2826 63.7065L48.8256 58.9577L44.7862 56.0228C44.1863 55.587 44.4945 54.6382 45.2361 54.6382H50.2291L51.7721 49.8894C52.0012 49.1843 52.9987 49.1843 53.228 49.8896Z" fill="white"/>
<path d="M52.8847 30.1701L53.7001 32.6794H56.3386C56.7306 32.6794 56.8934 33.1808 56.5763 33.4111L54.4417 34.9619L55.2571 37.4713C55.3781 37.8439 54.9517 38.1538 54.6347 37.9235L52.5 36.3729L50.3653 37.9237C50.0483 38.154 49.6217 37.8441 49.7429 37.4715L50.5583 34.9621L48.4237 33.4113C48.1066 33.181 48.2696 32.6796 48.6613 32.6796H51.2999L52.1153 30.1703C52.2365 29.7974 52.7635 29.7974 52.8847 30.1701Z" fill="#FF8B00"/>
<path d="M65.4051 33.6756L66.2205 36.1849H68.8591C69.251 36.1849 69.4138 36.6863 69.0967 36.9166L66.9621 38.4674L67.7775 40.9768C67.8985 41.3494 67.4721 41.6593 67.1551 41.429L65.0204 39.8782L62.8857 41.429C62.5687 41.6593 62.1421 41.3494 62.2633 40.9768L63.0787 38.4674L60.9441 36.9166C60.627 36.6863 60.7901 36.1849 61.1818 36.1849H63.8203L64.6357 33.6756C64.7569 33.303 65.2841 33.303 65.4051 33.6756Z" fill="#FFAB66"/>
<path d="M40.3643 33.6756L41.1797 36.1849H43.8182C44.2101 36.1849 44.3729 36.6863 44.0559 36.9166L41.9212 38.4674L42.7366 40.9768C42.8576 41.3494 42.4313 41.6593 42.1142 41.429L39.9795 39.8782L37.8449 41.429C37.5278 41.6593 37.1013 41.3494 37.2225 40.9768L38.0379 38.4674L35.9032 36.9166C35.5862 36.6863 35.7492 36.1849 36.1409 36.1849H38.7794L39.5948 33.6756C39.7158 33.303 40.2431 33.303 40.3643 33.6756Z" fill="#FFAB66"/>
</g>
<defs>
<linearGradient id="paint0_linear" x1="5.35749" y1="17.7647" x2="105.843" y2="76.6289" gradientUnits="userSpaceOnUse">
<stop offset="0.1024" stop-color="white" stop-opacity="0"/>
<stop offset="0.3189" stop-color="#EEEEFF" stop-opacity="0.302"/>
<stop offset="0.5982" stop-color="#DEDEFF" stop-opacity="0.691"/>
<stop offset="0.8205" stop-color="#D9D9FF"/>
</linearGradient>
<clipPath id="clip0">
<rect width="105" height="105" fill="white"/>
</clipPath>
</defs>
</svg>
