<svg width="430" height="325" viewBox="0 0 430 325" fill="none" xmlns="http://www.w3.org/2000/svg">
<path opacity="0.24" fill-rule="evenodd" clip-rule="evenodd" d="M430 324.465V149.642C421.987 139.893 412.912 131.007 403.971 122.252C401.44 119.774 398.92 117.306 396.438 114.832C386.022 104.449 377.44 91.5058 368.886 78.6064C357.308 61.1457 345.782 43.765 329.836 32.9196C219.392 -41.9918 158.197 30.0885 119.477 75.6973C108.424 88.7163 99.2021 99.5783 91.1888 104.249C73.9411 114.342 56.5791 124.783 42.0062 139.673C5.0723 177.371 -9.12552 243.591 8.06517 297.819C10.9889 307.143 14.8298 316.077 19.5118 324.465H430Z" fill="#5F97CA"/>
</svg>
