<svg width="564" height="444" viewBox="0 0 564 444" fill="none" xmlns="http://www.w3.org/2000/svg">
<g clip-path="url(#clip0)">
<path opacity="0.18" d="M561.359 328.227C554.981 300.289 534.917 282.626 525.882 255.733C518.341 233.255 519.919 208.803 515.534 185.512C507.064 140.491 476.336 101.994 439.132 75.2506C401.927 48.507 358.295 32.089 314.944 17.4141C297.804 11.6205 280.381 6.00948 262.625 2.78896C253.638 1.11135 244.527 0.184047 235.386 0.0166528C187.983 -0.59757 144.617 24.0709 112.81 57.8366C98.4762 73.1092 79.442 94.5737 73.1305 115.009C65.839 138.599 72.6322 165.658 65.756 190.06C60.1919 209.782 47.4858 226.582 36.1749 243.614C10.6963 281.795 -9.8825 329.257 5.03259 372.667C18.021 410.5 56.3053 435.683 95.8685 442.041C135.432 448.399 175.809 438.572 213.113 424.129C237.496 414.7 261.994 403.063 288.137 403.179C312.42 403.279 335.324 413.505 358.461 420.859C399.507 433.84 442.841 437.976 485.604 432.994C502.645 430.985 520.085 427.3 534.12 417.423C561.027 398.382 568.7 360.383 561.359 328.227Z" fill="#3D8060"/>
<path d="M218.661 370.509C181.657 374.895 145.188 382.987 109.804 394.663C105.784 395.991 101.267 397.867 100.004 401.901C138.362 406.785 177.119 407.742 215.671 404.756C240.983 402.797 266.146 399.145 291.459 397.319C344.791 393.468 398.555 397.751 451.722 391.974C454.363 391.875 456.947 391.177 459.279 389.932C460.418 389.287 461.32 388.294 461.852 387.099C462.385 385.904 462.519 384.569 462.235 383.292C461.364 381.415 459.798 379.951 457.867 379.208C448.931 374.775 438.534 374.692 428.552 374.825C361.218 375.738 293.502 382.827 226.783 373.696" fill="url(#paint0_linear)"/>
<path d="M323.648 190.94C295.412 177.876 265.831 165.043 234.755 165.857C223.328 166.156 211.984 168.314 200.54 168.38C181.455 168.465 162.789 162.783 146.992 152.078C138.455 181.495 129.995 210.933 121.613 240.394C119.304 248.511 116.231 256.828 114.703 265.128C112.179 278.857 143.255 285.713 153.253 286.975C164.78 288.436 176.506 287.307 188.133 287.689C198.024 287.768 207.774 290.035 216.684 294.329C225.354 298.745 235.453 301.185 244.687 304.654C267.425 313.171 291.409 320.491 315.592 318.317C339.775 316.142 364.324 302.463 372.911 279.77C374.954 274.375 376.05 268.664 377.893 263.17C382.644 249.308 397.725 231.23 381.846 219.792C364.938 207.491 342.582 199.672 323.648 190.94Z" fill="#3D8060"/>
<path d="M302.172 193.547C290.097 188.052 278.055 182.225 265.15 179.121C234.24 171.733 201.055 180.598 170.328 172.48C168.877 175.746 166.189 178.303 162.853 179.588C159.518 180.874 155.808 180.783 152.539 179.336H152.456C151.044 184.864 151.078 191.571 149.981 197.398C148.608 204.614 146.986 211.78 145.115 218.896C141.439 232.899 136.833 246.641 131.329 260.032C134.086 259.75 136.412 262.439 136.777 265.195C136.913 267.97 136.342 270.735 135.116 273.229C134.933 273.661 144.002 276.384 144.866 276.55C148.176 276.948 151.521 276.948 154.831 276.55C162.04 275.969 169.049 273.894 176.207 272.897C203.231 269.146 229.639 280.833 256.031 287.838C264.891 290.166 273.882 291.968 282.955 293.233C289.466 294.146 296.143 294.76 302.554 293.233C308.965 291.706 315.194 288.07 320.824 284.136C331.604 276.566 341.619 267.535 348.645 256.463C354.242 247.598 364.855 224.058 354.391 215.426C348.146 210.28 336.337 208.122 328.813 205.018C319.833 201.365 310.953 197.542 302.172 193.547Z" fill="url(#paint1_linear)"/>
<path d="M293.95 198.012C264.054 189.513 232.795 181.411 202.234 187.105C190.973 189.197 180.111 193.098 168.833 194.958C149.986 198.017 130.654 195.308 113.375 187.188C109.532 217.59 105.779 247.991 102.114 278.392C101.1 286.776 99.3731 295.458 99.1572 303.907C98.8084 317.852 130.565 319.778 140.68 319.462C152.307 319.097 163.667 316.142 175.194 314.731C184.976 313.203 194.976 313.884 204.46 316.723C213.711 319.711 224.075 320.558 233.742 322.533C257.526 327.397 282.357 330.834 305.909 324.974C329.461 319.114 351.551 301.733 356.501 277.944C357.663 272.3 357.863 266.49 358.859 260.812C361.4 246.37 373.475 226.167 355.986 217.352C337.251 207.972 314.014 203.756 293.95 198.012Z" fill="#3D8060"/>
<path d="M273.139 203.972C260.35 200.419 247.544 196.551 234.323 195.505C202.633 193.032 171.208 206.976 139.651 203.806C139.192 205.526 138.398 207.138 137.314 208.55C136.23 209.962 134.877 211.145 133.333 212.032C131.789 212.92 130.085 213.493 128.319 213.719C126.553 213.945 124.759 213.82 123.041 213.351C122.51 219.045 123.589 225.652 123.407 231.612C123.174 238.949 122.692 246.303 121.962 253.608C120.523 268.012 118.12 282.304 114.77 296.387C117.461 295.673 120.184 298.047 120.965 300.637C121.515 303.364 121.361 306.187 120.517 308.838C120.4 309.303 129.785 310.581 130.665 310.581C133.973 310.48 137.257 309.984 140.448 309.103C147.49 307.443 154.084 304.273 160.993 302.164C187.103 294.246 215.007 301.666 242.146 304.389C251.262 305.304 260.424 305.681 269.585 305.518C276.228 305.385 282.872 304.97 288.951 302.53C295.312 300.006 300.577 295.458 305.56 290.693C315.011 281.53 323.515 271.121 328.714 259.019C332.849 249.408 339.676 224.49 327.983 217.518C321.007 213.401 308.998 213.119 301.092 211.226C291.725 208.968 282.407 206.55 273.139 203.972Z" fill="url(#paint2_linear)"/>
<path d="M176.872 300.322C176.211 297.286 175.723 294.216 175.41 291.125C175.46 288.071 175.776 285.027 176.357 282.028C177.885 270.922 176.357 259.65 175.693 248.445C175.028 237.239 174.962 225.669 179.18 215.244C180.745 210.923 183.476 207.119 187.07 204.254C191.355 201.133 196.786 200.12 202.018 199.506C208.662 198.726 215.638 198.444 221.949 200.834C220.33 201.686 218.904 202.863 217.76 204.291C216.617 205.719 215.781 207.368 215.306 209.135C214.403 212.701 214.066 216.387 214.309 220.058C214.642 231.824 216.003 243.539 218.378 255.068C220.72 266.539 223.976 278.658 220.039 289.681C217.83 295.823 213.562 300.953 210.323 306.63C208.18 310.398 205.539 315.046 201.188 314.93C199.832 314.78 198.499 314.468 197.218 314.001C193.973 313.353 190.631 313.353 187.385 314.001C185.226 314.299 180.559 315.877 178.599 314.714C175.211 312.855 177.387 303.658 176.872 300.322Z" fill="url(#paint3_linear)"/>
<path d="M410.348 200.137H217.764C203.582 200.137 192.086 211.627 192.086 225.802V362.275C192.086 376.449 203.582 387.94 217.764 387.94H410.348C424.529 387.94 436.026 376.449 436.026 362.275V225.802C436.026 211.627 424.529 200.137 410.348 200.137Z" fill="#3D8060"/>
<path d="M410.348 200.137H217.764C203.582 200.137 192.086 211.627 192.086 225.802V362.275C192.086 376.449 203.582 387.94 217.764 387.94H410.348C424.529 387.94 436.026 376.449 436.026 362.275V225.802C436.026 211.627 424.529 200.137 410.348 200.137Z" fill="#5F97CA"/>
<path d="M436.026 242.137H192.086V350.306H436.026V242.137Z" fill="#5F97CA"/>
<path d="M431.292 283.572H336.686C326.761 283.572 318.715 291.614 318.715 301.534V315.362C318.715 325.282 326.761 333.324 336.686 333.324H431.292C441.217 333.324 449.263 325.282 449.263 315.362V301.534C449.263 291.614 441.217 283.572 431.292 283.572Z" fill="url(#paint4_linear)"/>
<path d="M433.95 269.561H339.343C329.418 269.561 321.372 277.603 321.372 287.523V301.351C321.372 311.271 329.418 319.313 339.343 319.313H433.95C443.875 319.313 451.921 311.271 451.921 301.351V287.523C451.921 277.603 443.875 269.561 433.95 269.561Z" fill="#3D8060"/>
<path d="M346.17 310.581C355.315 310.581 362.729 303.171 362.729 294.03C362.729 284.889 355.315 277.479 346.17 277.479C337.024 277.479 329.61 284.889 329.61 294.03C329.61 303.171 337.024 310.581 346.17 310.581Z" fill="url(#paint5_linear)"/>
<path d="M140.498 390.065C160.275 390.065 176.307 374.04 176.307 354.274C176.307 334.507 160.275 318.483 140.498 318.483C120.721 318.483 104.688 334.507 104.688 354.274C104.688 374.04 120.721 390.065 140.498 390.065Z" fill="#F8C244"/>
<path d="M140.514 384.802C157.374 384.802 171.042 371.142 171.042 354.29C171.042 337.439 157.374 323.778 140.514 323.778C123.654 323.778 109.986 337.439 109.986 354.29C109.986 371.142 123.654 384.802 140.514 384.802Z" fill="#E8A825"/>
<path d="M137.707 373.497V368.6C135.089 368.587 132.526 367.852 130.299 366.475L131.462 363.155C133.524 364.496 135.928 365.217 138.388 365.23C141.86 365.23 144.168 363.255 144.168 360.499C144.168 357.743 142.291 356.183 138.704 354.722C133.721 352.78 130.698 350.555 130.698 346.422C130.698 342.288 133.555 339.35 138.023 338.619V333.739H141.029V338.42C143.233 338.443 145.396 339.014 147.324 340.08L146.128 343.4C144.288 342.295 142.179 341.721 140.033 341.74C136.295 341.74 134.9 343.981 134.9 345.907C134.9 348.43 136.694 349.675 140.896 351.435C145.879 353.46 148.404 355.984 148.404 360.283C148.387 362.368 147.597 364.371 146.185 365.905C144.772 367.439 142.84 368.394 140.763 368.583V373.564L137.707 373.497Z" fill="#F8C244"/>
<path d="M144.783 339.665C142.138 346.169 141.764 353.374 143.72 360.117C145.231 365.263 148.055 369.945 149.583 375.058C150.082 376.548 150.296 378.119 150.214 379.689C149.898 382.827 147.673 385.4 145.563 387.741C148.404 388.322 151.277 387.01 153.868 385.599C157.888 383.63 161.422 380.796 164.216 377.299C166.136 374.452 167.521 371.279 168.301 367.936C171.058 357.637 171.058 346.794 168.301 336.494C167.255 332.66 163.136 322.085 157.688 324.559C152.24 327.032 147.025 334.137 144.783 339.665Z" fill="url(#paint6_linear)"/>
<path d="M184.23 391.044C204.007 391.044 220.039 375.02 220.039 355.253C220.039 335.486 204.007 319.462 184.23 319.462C164.453 319.462 148.42 335.486 148.42 355.253C148.42 375.02 164.453 391.044 184.23 391.044Z" fill="#F8C244"/>
<path d="M184.23 385.765C201.09 385.765 214.757 372.104 214.757 355.253C214.757 338.402 201.09 324.741 184.23 324.741C167.37 324.741 153.702 338.402 153.702 355.253C153.702 372.104 167.37 385.765 184.23 385.765Z" fill="#E8A825"/>
<path d="M169.946 368.417L173.035 364.616C171.009 362.96 169.48 360.777 168.617 358.308L171.557 356.515C172.319 358.857 173.737 360.931 175.643 362.491C178.333 364.666 181.373 364.583 183.117 362.491C184.861 360.399 184.363 357.959 182.502 354.573C179.878 349.941 178.915 346.272 181.556 342.952C184.196 339.632 188.199 339.267 192.152 341.508L195.225 337.706L197.567 339.599L194.61 343.234C196.309 344.648 197.627 346.462 198.447 348.513L195.524 350.306C194.78 348.296 193.499 346.527 191.82 345.193C188.914 342.836 186.422 343.699 185.176 345.193C183.516 347.152 184.196 349.26 186.356 353.261C188.963 357.976 189.329 361.561 186.621 364.881C185.296 366.478 183.428 367.53 181.375 367.836C179.322 368.142 177.228 367.681 175.493 366.542L172.271 370.376L169.946 368.417Z" fill="#F8C244"/>
<path d="M401.528 186.259C421.305 186.259 437.338 170.235 437.338 150.468C437.338 130.701 421.305 114.677 401.528 114.677C381.751 114.677 365.719 130.701 365.719 150.468C365.719 170.235 381.751 186.259 401.528 186.259Z" fill="#F8C244"/>
<path d="M401.528 180.963C418.388 180.963 432.056 167.303 432.056 150.451C432.056 133.6 418.388 119.939 401.528 119.939C384.668 119.939 371.001 133.6 371.001 150.451C371.001 167.303 384.668 180.963 401.528 180.963Z" fill="#E8A825"/>
<path d="M403.355 169.791L402.193 165.043C399.644 165.653 396.976 165.544 394.486 164.728L394.852 161.292C397.174 162.105 399.681 162.237 402.076 161.673C405.398 160.86 407.225 158.353 406.578 155.714C405.93 153.074 403.721 151.962 399.934 151.398C394.669 150.667 391.181 149.223 390.184 145.139C389.188 141.055 391.28 137.602 395.449 135.843L394.287 131.095L397.21 130.381L398.323 134.93C400.478 134.437 402.723 134.494 404.85 135.096L404.452 138.532C402.403 137.896 400.219 137.839 398.14 138.366C394.503 139.246 393.672 141.686 394.137 143.629C394.735 146.069 396.778 146.949 401.279 147.563C406.611 148.36 409.584 150.219 410.663 154.402C411.12 156.425 410.812 158.545 409.801 160.356C408.79 162.166 407.145 163.54 405.182 164.213L406.378 169.193L403.355 169.791Z" fill="#F8C244"/>
<path d="M349.226 225.553C361.034 233.014 374.921 236.505 388.856 235.513C385.184 248.265 383.125 261.427 382.727 274.69C382.489 276.952 382.832 279.238 383.723 281.331C385.235 284.202 388.507 285.663 391.629 286.543C397.208 288.121 403.041 288.6 408.803 287.954C406.701 276.993 405.358 265.899 404.784 254.753C404.518 245.672 405.282 236.625 405.515 227.561C405.614 223.693 406.362 218.68 405.515 214.895C404.668 211.11 400.532 209.052 397.941 206.595C393.805 202.626 390.733 197.683 389.005 192.218C387.91 189.176 387.675 185.891 388.324 182.723C389.287 179.004 392.011 175.983 393.307 172.381C394.602 168.778 393.838 163.699 390.118 162.669C387.294 161.889 383.84 163.848 381.498 162.055C380.667 161.408 380.169 160.395 379.289 159.781C378.475 159.36 377.546 159.22 376.645 159.382C375.744 159.544 374.921 160 374.306 160.677C373.116 162.08 372.173 163.674 371.515 165.392C367.892 172.301 362.334 178.005 355.521 181.81C351.244 184.277 346.731 186.313 342.051 187.886C338.53 189.131 332.965 189.43 329.943 191.455C326.488 193.762 329.328 199.589 330.856 203.308C334.65 212.371 341.041 220.111 349.226 225.553Z" fill="url(#paint7_linear)"/>
<path d="M400.366 284.335C400.714 284.751 401.167 285.066 401.678 285.248C408.953 288.469 417.191 288.568 425.163 288.568C425.686 288.619 426.212 288.533 426.691 288.319C427.109 288.016 427.405 287.573 427.523 287.07C427.642 286.567 427.577 286.039 427.339 285.58C426.815 284.692 426.064 283.958 425.163 283.455C422.84 281.925 420.396 280.587 417.855 279.455C415.846 278.575 413.587 277.612 412.773 275.587C412.46 274.505 412.271 273.391 412.208 272.267C411.444 267.602 404.119 269.893 401.661 272.267C399.469 274.508 398.721 281.995 400.366 284.335Z" fill="#FCAB9A"/>
<path d="M330.059 175.153C330.059 175.153 325.508 198.394 345.539 208.122C359.424 214.862 376.233 216.09 391.413 216.671C394.087 216.771 397.077 216.505 399.718 216.87C405 217.551 403.472 220.888 402.841 225.32C401.412 236.542 399.884 247.742 398.256 258.92C397.026 264.742 397.111 270.765 398.506 276.55L414.467 274.408C416.165 258.136 419.215 242.033 423.585 226.266C425.479 219.427 428.103 210.911 424.183 204.387C420.315 198.525 414.828 193.912 408.388 191.106L368.26 172.397L330.059 175.153Z" fill="#473F47"/>
<path d="M384.952 112.868C389.437 111.041 394.552 109.348 399.02 111.208C400.152 111.625 401.104 112.423 401.711 113.465C402.08 114.493 402.102 115.613 401.772 116.654C401.442 117.695 400.778 118.598 399.884 119.226C398.039 120.418 395.961 121.205 393.788 121.533C389.935 122.413 386.115 123.492 382.345 124.737C381.697 124.919 381.077 125.187 380.501 125.534C379.868 126.001 379.308 126.561 378.84 127.194C375.364 131.344 371.387 135.047 366.998 138.217C368.194 137.353 367.762 129.435 368.077 127.792C368.183 126.784 368.531 125.816 369.092 124.972C369.653 124.128 370.411 123.432 371.3 122.944C376.199 119.823 379.421 115.125 384.952 112.868Z" fill="#FCAB9A"/>
<path d="M374.007 71.4324C374.605 72.8269 376.083 73.7897 376.432 75.3004C376.781 76.811 375.402 78.7201 374.538 80.43C373.392 82.7208 373.309 85.4101 372.147 87.7674C371.941 88.2788 371.589 88.7178 371.133 89.0291C370.706 89.2286 370.243 89.3414 369.772 89.3611C367.936 89.5089 366.088 89.3802 364.29 88.9793C363.963 88.8292 363.598 88.7828 363.244 88.8465C362.943 89.049 362.73 89.3572 362.646 89.7097C361.004 94.1515 360.468 98.926 361.085 103.621C361.284 105.148 361.484 107.041 360.238 107.97C359.8 108.285 359.281 108.469 358.743 108.502C355.172 108.9 352.099 105.912 350.173 102.957C348.415 100.269 346.983 97.3825 345.904 94.3579C345.538 93.4841 345.341 92.5491 345.323 91.6022C345.39 90.4853 345.672 89.3919 346.153 88.3816C347.631 84.7265 348.744 80.9342 349.475 77.06C350.389 72.0798 350.787 66.8673 353.162 62.4847C353.946 60.9798 355.183 59.76 356.7 58.9986C358.448 58.4435 360.314 58.3746 362.098 58.7994C365.784 59.0334 369.238 60.6737 371.748 63.3811C372.412 64.3606 373.243 69.6894 374.007 71.4324Z" fill="#FCAB9A"/>
<path d="M365.536 176.431C362.931 178.149 359.985 179.282 356.899 179.751C352.509 180.767 348.286 182.405 344.359 184.615C342.001 186.026 340.406 188.434 338.33 190.226C336.681 191.622 334.743 192.636 332.655 193.195C330.568 193.755 328.382 193.847 326.255 193.464C326.056 192.883 325.84 192.285 325.641 191.687C318.997 171.767 320.06 150.186 322.037 129.584C322.983 119.823 330.657 88.5643 345.389 92.1998C345.389 92.1998 359.358 101.845 363.095 108.435C366.499 114.528 371.399 119.425 370.552 126.945C369.323 137.52 363.659 146.866 363.111 157.872C362.916 159.466 363.11 161.083 363.676 162.586C364.689 164.728 367.081 166.006 368.077 168.131C368.617 169.602 368.661 171.209 368.202 172.708C367.743 174.206 366.807 175.514 365.536 176.431Z" fill="white"/>
<path d="M343.23 159.499C343.547 160.991 344.108 162.422 344.891 163.732C347.011 166.419 350.075 168.2 353.461 168.712C357.292 169.64 361.175 170.344 365.088 170.82C370.868 171.551 375.502 174.14 381.531 171.883C385.668 170.115 389.353 167.437 392.31 164.047C393.24 163.068 393.971 161.209 392.809 160.594C392.485 160.472 392.141 160.416 391.795 160.428H381.747C381.547 159.631 382.129 158.868 382.527 158.154C382.926 157.44 383.092 156.345 382.361 155.946C381.631 155.548 381.016 156.062 380.451 156.461C377.621 158.38 374.371 159.592 370.975 159.993C367.579 160.395 364.135 159.975 360.935 158.768C355.023 156.527 354.574 149.173 353.71 143.545C353.702 142.845 353.528 142.156 353.202 141.535C352.875 140.915 352.406 140.381 351.834 139.976C351.365 139.804 350.866 139.727 350.367 139.75C349.868 139.773 349.378 139.895 348.927 140.109C345.495 141.184 342.591 143.506 340.788 146.617C339.31 149.754 342.316 156.029 343.23 159.499Z" fill="#FCAB9A"/>
<path d="M346.369 111.888C346.369 111.888 356.135 137.486 357.996 139.362C359.856 141.238 339.825 152.842 339.825 152.842C339.825 152.842 326.438 127.941 326.936 117.151C327.435 106.36 338.845 101.729 346.369 111.888Z" fill="white"/>
<path d="M375.07 63.4309C371.964 68.0957 369.107 65.2736 365.569 62.1527L366.599 66.5352L360.537 69.3075L357.215 66.1866C358.012 69.8885 356.567 73.6569 355.371 77.2592C353.611 82.5548 352.382 88.365 354.175 93.644C355.637 97.9602 359.059 101.778 358.942 106.327L351.867 99.6867C350.21 97.94 348.287 96.4665 346.17 95.3207C345.125 94.7723 343.971 94.4666 342.791 94.4264C341.612 94.3861 340.439 94.6124 339.36 95.0883C338.412 95.6736 337.546 96.3826 336.786 97.1966C333.165 100.782 329.029 104.152 326.92 108.917C325.059 113.083 325.109 118.313 321.937 121.948C317.618 127.044 309.397 125.7 303.434 122.728C299.311 120.865 295.711 118.014 292.954 114.428C291.564 112.428 290.582 110.174 290.065 107.795C289.547 105.416 289.504 102.958 289.937 100.562C290.371 98.1665 291.272 95.8795 292.591 93.8321C293.909 91.7848 295.619 90.0173 297.621 88.6306C299.127 87.5877 300.778 86.7711 302.521 86.207C305.427 85.2773 308.832 84.8955 310.692 82.4718C312.901 79.5833 311.689 75.483 311.822 71.8474C311.933 69.4707 312.663 67.164 313.938 65.1552C315.214 63.1464 316.992 61.505 319.097 60.393C324.96 57.3717 333.215 58.4175 337.068 53.0721C338.186 51.097 339.174 49.0507 340.024 46.9465C343.562 40.3063 353.893 38.779 359.241 44.058C360.245 45.358 361.506 46.4373 362.945 47.2287C364.065 47.5589 365.234 47.6937 366.4 47.6271C368.329 47.592 370.236 48.0473 371.942 48.9503C373.647 49.8534 375.095 51.1745 376.149 52.7899C377.694 55.529 377.013 60.3432 375.369 62.9993L375.07 63.4309Z" fill="#FC682D"/>
<path d="M399.17 279.438C397.969 281.376 397.481 283.671 397.791 285.929C397.843 286.655 398.122 287.346 398.589 287.904C399.1 288.335 399.711 288.632 400.366 288.768C408.654 291.322 417.271 292.654 425.944 292.719C427.07 292.787 428.198 292.635 429.266 292.27C429.794 292.087 430.267 291.773 430.642 291.358C431.016 290.943 431.28 290.44 431.408 289.896C431.477 289.143 431.339 288.386 431.01 287.705C429.937 285.176 427.904 283.175 425.357 282.142C422.81 281.109 419.957 281.127 417.423 282.194L417.124 282.327C416.254 282.821 415.336 283.227 414.384 283.538C413.439 283.703 412.472 283.703 411.527 283.538C409.083 283.257 406.666 282.774 404.302 282.094C402.545 281.302 400.832 280.415 399.17 279.438Z" fill="#473F47"/>
</g>
<defs>
<linearGradient id="paint0_linear" x1="283.769" y1="257.276" x2="277.895" y2="567.127" gradientUnits="userSpaceOnUse">
<stop offset="0.01"/>
<stop offset="0.13" stop-opacity="0.69"/>
<stop offset="0.25" stop-opacity="0.32"/>
<stop offset="1" stop-opacity="0"/>
</linearGradient>
<linearGradient id="paint1_linear" x1="68773.1" y1="-14210.6" x2="34912.1" y2="-59958.9" gradientUnits="userSpaceOnUse">
<stop offset="0.01"/>
<stop offset="0.13" stop-opacity="0.69"/>
<stop offset="0.25" stop-opacity="0.32"/>
<stop offset="1" stop-opacity="0"/>
</linearGradient>
<linearGradient id="paint2_linear" x1="54616.9" y1="-12851.9" x2="16426.3" y2="-51590" gradientUnits="userSpaceOnUse">
<stop offset="0.01"/>
<stop offset="0.13" stop-opacity="0.69"/>
<stop offset="0.25" stop-opacity="0.32"/>
<stop offset="1" stop-opacity="0"/>
</linearGradient>
<linearGradient id="paint3_linear" x1="10502" y1="13315.5" x2="221.192" y2="16295.6" gradientUnits="userSpaceOnUse">
<stop offset="0.01"/>
<stop offset="0.13" stop-opacity="0.69"/>
<stop offset="0.25" stop-opacity="0.32"/>
<stop offset="1" stop-opacity="0"/>
</linearGradient>
<linearGradient id="paint4_linear" x1="35003.6" y1="-9047.07" x2="35101.2" y2="-2591.53" gradientUnits="userSpaceOnUse">
<stop offset="0.01"/>
<stop offset="0.13" stop-opacity="0.69"/>
<stop offset="0.25" stop-opacity="0.32"/>
<stop offset="1" stop-opacity="0"/>
</linearGradient>
<linearGradient id="paint5_linear" x1="7754.86" y1="-5774.29" x2="9560.58" y2="-1664.04" gradientUnits="userSpaceOnUse">
<stop offset="0.01"/>
<stop offset="0.13" stop-opacity="0.69"/>
<stop offset="0.25" stop-opacity="0.32"/>
<stop offset="1" stop-opacity="0"/>
</linearGradient>
<linearGradient id="paint6_linear" x1="4612.5" y1="7108.84" x2="1994.19" y2="6858.11" gradientUnits="userSpaceOnUse">
<stop offset="0.01"/>
<stop offset="0.13" stop-opacity="0.69"/>
<stop offset="0.25" stop-opacity="0.32"/>
<stop offset="1" stop-opacity="0"/>
</linearGradient>
<linearGradient id="paint7_linear" x1="480.821" y1="79.5501" x2="176.089" y2="517.307" gradientUnits="userSpaceOnUse">
<stop offset="0.01"/>
<stop offset="0.08" stop-opacity="0.69"/>
<stop offset="0.21" stop-opacity="0.32"/>
<stop offset="1" stop-opacity="0"/>
</linearGradient>
<clipPath id="clip0">
<rect width="564" height="444" fill="white"/>
</clipPath>
</defs>
</svg>
